<svg viewBox="0 0 654 67" fill="none" xmlns="http://www.w3.org/2000/svg">
<path d="M2 64.4971V2.88858H24.2947C32.2805 2.88858 38.3479 4.34135 42.4971 7.24688C46.6747 10.1524 48.7635 14.3696 48.7635 19.8986C48.7635 23.0862 48.0246 25.8084 46.5468 28.0651C45.069 30.3218 42.895 31.9862 40.0247 33.0581C43.2644 33.9044 45.7511 35.4841 47.4847 37.7972C49.2182 40.1104 50.085 42.9313 50.085 46.2599C50.085 52.2967 48.1525 56.8383 44.2875 59.8849C40.4509 62.9032 34.7529 64.4406 27.1935 64.4971H2ZM16.9626 38.305V53.0724H26.7672C29.467 53.0724 31.5416 52.4659 32.9909 51.2529C34.4403 50.0117 35.165 48.2769 35.165 46.0484C35.165 40.9143 32.5931 38.3332 27.4492 38.305H16.9626ZM16.9626 28.5729H24.7636C28.0318 28.5447 30.3622 27.9523 31.7547 26.7957C33.1473 25.6391 33.8435 23.9325 33.8435 21.6758C33.8435 19.0806 33.0904 17.2188 31.5842 16.0904C30.078 14.9338 27.6482 14.3555 24.2947 14.3555H16.9626V28.5729ZM107.037 2.88858V43.2134C107.037 47.7832 106.056 51.7466 104.095 55.1035C102.134 58.4321 99.321 60.9709 95.6549 62.7199C91.9889 64.4688 87.6549 65.3433 82.6532 65.3433C75.0937 65.3433 69.14 63.3969 64.7918 59.5041C60.4437 55.6112 58.227 50.2797 58.1418 43.5096V2.88858H73.1897V43.8058C73.3602 50.5477 76.5147 53.9187 82.6532 53.9187C85.7509 53.9187 88.0954 53.0724 89.6869 51.3799C91.2784 49.6873 92.0741 46.937 92.0741 43.1287V2.88858H107.037ZM139.477 42.7479H131.378V64.4971H116.415V2.88858H140.841C148.202 2.88858 153.957 4.5106 158.106 7.75464C162.255 10.9987 164.329 15.5826 164.329 21.5065C164.329 25.7943 163.448 29.3486 161.687 32.1695C159.953 34.9904 157.225 37.2754 153.502 39.0243L166.461 63.8624V64.4971H150.433L139.477 42.7479ZM131.378 31.281H140.841C143.683 31.281 145.814 30.5475 147.235 29.0806C148.685 27.5856 149.409 25.5122 149.409 22.8606C149.409 20.2089 148.685 18.1356 147.235 16.6405C145.786 15.1172 143.655 14.3555 140.841 14.3555H131.378V31.281ZM224.18 56.8806C221.878 59.4194 218.51 61.4646 214.077 63.0161C209.644 64.5676 204.784 65.3433 199.498 65.3433C191.37 65.3433 184.876 62.875 180.017 57.9385C175.157 53.0019 172.557 46.133 172.216 37.3318L172.173 32.0003C172.173 25.9353 173.253 20.6462 175.413 16.1327C177.573 11.5911 180.656 8.10725 184.663 5.68128C188.699 3.22709 193.36 2 198.645 2C206.375 2 212.372 3.76306 216.635 7.28919C220.926 10.7871 223.427 16.0199 224.137 22.9875H209.729C209.217 19.546 208.109 17.0918 206.404 15.625C204.699 14.1581 202.283 13.4246 199.157 13.4246C195.406 13.4246 192.507 15.0044 190.461 18.1638C188.415 21.3232 187.377 25.8366 187.349 31.7041V35.4277C187.349 41.5772 188.4 46.2035 190.503 49.3065C192.635 52.3813 195.974 53.9187 200.521 53.9187C204.415 53.9187 207.313 53.0583 209.217 51.3376V41.7747H198.816V31.5771H224.18V56.8806ZM271.37 38.3896H247.839V53.0724H275.633V64.4971H232.876V2.88858H275.718V14.3555H247.839V27.3458H271.37V38.3896ZM304.791 42.7479H296.691V64.4971H281.728V2.88858H306.155C313.515 2.88858 319.27 4.5106 323.419 7.75464C327.568 10.9987 329.643 15.5826 329.643 21.5065C329.643 25.7943 328.762 29.3486 327 32.1695C325.266 34.9904 322.538 37.2754 318.815 39.0243L331.774 63.8624V64.4971H315.746L304.791 42.7479ZM296.691 31.281H306.155C308.997 31.281 311.128 30.5475 312.549 29.0806C313.998 27.5856 314.723 25.5122 314.723 22.8606C314.723 20.2089 313.998 18.1356 312.549 16.6405C311.1 15.1172 308.968 14.3555 306.155 14.3555H296.691V31.281ZM380.073 2.88858L393.927 45.7522L407.738 2.88858H427.433V64.4971H412.428V50.1105L413.877 20.6603L398.872 64.4971H388.982L373.934 20.6179L375.383 50.1105V64.4971H360.421V2.88858H380.073ZM473.003 52.9878H452.498L448.918 64.4971H432.932L455.696 2.88858H469.763L492.697 64.4971H476.626L473.003 52.9878ZM456.079 41.5208H469.422L462.729 20.1525L456.079 41.5208ZM518.36 41.5631L512.221 48.2487V64.4971H497.258V2.88858H512.221V30.0539L517.422 22.2259L530.807 2.88858H549.308L528.335 30.1385L549.308 64.4971H531.574L518.36 41.5631ZM591.595 38.3896H568.064V53.0724H595.858V64.4971H553.102V2.88858H595.943V14.3555H568.064V27.3458H591.595V38.3896ZM625.016 42.7479H616.917V64.4971H601.954V2.88858H626.38C633.741 2.88858 639.496 4.5106 643.645 7.75464C647.794 10.9987 649.869 15.5826 649.869 21.5065C649.869 25.7943 648.988 29.3486 647.226 32.1695C645.492 34.9904 642.764 37.2754 639.041 39.0243L652 63.8624V64.4971H635.972L625.016 42.7479ZM616.917 31.281H626.38C629.222 31.281 631.354 30.5475 632.775 29.0806C634.224 27.5856 634.949 25.5122 634.949 22.8606C634.949 20.2089 634.224 18.1356 632.775 16.6405C631.325 15.1172 629.194 14.3555 626.38 14.3555H616.917V31.281Z" stroke="#F49521" stroke-width="3"/>
</svg>
