<svg width="256" height="117" viewBox="0 0 256 117" fill="none" xmlns="http://www.w3.org/2000/svg">
<path d="M228.247 98.8834C228.16 98.9212 228.069 98.9564 227.977 98.9909C221.165 101.481 220.901 96.3846 216.377 98.3533C215.561 98.7087 214.606 99.2945 213.447 100.197C213.341 100.28 213.221 100.349 213.091 100.406C211.701 101.011 209.025 100.197 206.475 99.327C203.926 98.4574 201.504 97.5308 200.628 97.9123C200.455 97.9873 200.344 98.1116 200.3 98.2962C201.304 101.17 200.878 102.439 199.677 102.962C198.54 103.457 196.71 103.283 194.739 103.17C192.769 103.057 190.66 103.005 188.964 103.743C187.97 104.176 187.119 104.88 186.522 106.004C186.413 106.211 186.266 106.347 186.086 106.425C185.312 106.762 183.946 106.011 182.448 105.32C180.95 104.628 179.321 103.992 178.018 104.559C177.98 104.576 177.943 104.593 177.906 104.612C177.375 104.875 176.891 105.1 176.451 105.292C172.721 106.915 172.1 106.084 171.964 105.042C171.827 104 172.173 102.747 170.38 103.528C169.677 103.834 168.644 104.452 167.124 105.519C167.064 105.562 166.993 105.6 166.914 105.634C165.941 106.058 163.608 105.91 161.223 105.786C158.837 105.661 156.401 105.558 155.218 106.072C154.765 106.27 154.496 106.558 154.485 106.97C154.457 108.098 154.207 108.689 153.736 108.894C152.317 109.512 148.892 106.615 143.514 104.339C140.969 103.846 139.697 103.873 139.008 104.172C138.347 104.46 138.225 104.999 138.031 105.569C137.837 106.139 137.572 106.74 136.624 107.153C134.984 107.867 131.3 108.016 122.409 106.46C121.687 101.04 115.609 109.726 106.876 102.24C106.289 101.738 105.761 101.703 105.205 101.945C104.568 102.222 103.894 102.863 103.058 103.574C102.221 104.285 101.22 105.068 99.9275 105.63C97.4615 106.703 93.9335 106.977 88.453 104.431C87.5465 98.8097 80.8282 106.497 75.0847 99.7588C70.9241 99.1266 66.9757 101.588 63.0704 100.848C60.0147 100.268 60.7559 94.5202 57.874 95.1187C41.117 98.5812 55.7802 94.7182 45.7729 92.306C45.2984 92.8528 44.8222 93.2054 44.3479 93.4119C42.9175 94.0344 41.506 93.3239 40.2273 92.5543C38.9492 91.7858 37.8043 90.9594 36.9057 91.3505C36.3506 91.592 35.8908 92.2996 35.552 93.7732C28.0909 91.2271 33.0896 86.0503 25.5395 87.0386C25.2298 87.2258 24.9356 87.3785 24.6581 87.4993C19.3197 89.8241 19.6751 80.5738 18.2023 79.8624C17.8554 79.6935 17.6077 79.669 17.4255 79.7483C16.9829 79.9409 16.9232 80.7492 16.7503 81.6082C16.5781 82.4655 16.2897 83.3733 15.3887 83.7654C14.4638 84.1694 12.889 84.0259 10.1267 82.7241C8.2254 81.8269 9.38266 74.9368 7.00965 75.9695C6.83116 76.0472 6.63363 76.168 6.41364 76.3408C6.2585 76.4622 6.1074 76.5526 5.96069 76.6165C3.57477 77.6563 2.20415 71.5333 1.42124 69.2566C1.05765 71.1743 0.800989 73.1139 0.655437 75.0748C0.626367 74.5102 0.620911 73.9731 0.634237 73.4758L0.632652 73.4721C0.667661 72.0624 0.762427 70.663 0.912065 69.2761L0.901413 69.2516C1.361 66.8427 1.98835 64.4685 2.77295 62.1349C3.19782 62.6901 3.87513 63.214 4.48541 63.5504C7.20595 65.0537 8.06743 66.2914 7.39712 69.4958C6.97965 71.4835 8.20511 73.063 10.5014 73.304C11.8571 73.4454 12.933 73.2913 13.8509 72.9514C14.8722 73.9015 16.2919 74.6577 18.5769 75.2236C21.331 75.9052 24.1054 75.8581 26.8338 75.9125C28.3139 77.0715 30.4884 77.7378 32.2305 76.9796C32.2807 76.9578 32.3303 76.9347 32.3793 76.9105C32.4308 76.8851 32.4846 76.8617 32.5384 76.8383C32.7291 76.7553 32.9259 76.6828 33.1215 76.6078C34.2681 76.9202 35.3973 77.3696 36.5023 78.0375C37.7218 78.7748 38.8582 79.6587 39.9874 80.5559C43.0968 84.6266 47.859 88.0812 53.0275 85.8304C53.5617 85.5979 54.1028 85.3042 54.6439 84.9437C55.1277 84.8189 55.6073 84.6814 56.0913 84.5305C56.9407 84.2669 57.7832 83.9977 58.6388 83.7518C58.8764 84.5049 59.0881 85.262 59.3328 85.9378L59.3177 86.02C59.2004 87.6081 60.8108 89.023 62.5613 89.0493C64.2536 89.0719 67.1377 87.7134 69.7023 86.7165C71.077 86.7712 71.9882 86.6596 73.1166 86.1685C73.3917 86.0488 73.6787 85.9064 73.9898 85.7391C74.2847 85.7954 74.5364 85.9025 74.708 86.0997C77.5347 89.3003 82.923 91.5372 87.4692 91.7123C88.972 91.7707 90.2307 91.6926 91.4619 91.1568C91.7296 91.0403 91.995 90.9016 92.2628 90.7385C92.0271 91.51 91.9529 92.2649 91.9383 93.0769C91.9009 94.8018 92.866 96.0671 94.2493 96.957C94.9034 97.8517 96.2371 98.3502 97.5463 98.2879C98.3347 98.4755 99.132 98.5968 99.8716 98.6457C103.29 98.8867 106.935 97.5753 110.294 96.2039C113.304 96.2912 116.182 96.9143 119.112 95.686C119.148 95.6701 119.185 95.6541 119.22 95.6387C120.055 95.2753 120.658 94.875 121.152 94.5216C121.647 94.1681 122.035 93.861 122.441 93.6843C123.218 93.3464 124.06 93.4874 125.844 94.696C128.964 96.8134 133.474 96.6712 137.034 95.8838C137.476 95.8775 137.914 95.7932 138.318 95.6171C138.507 95.5352 138.687 95.4332 138.859 95.3104L138.916 95.2889C139.85 95.7399 140.999 95.8535 141.974 95.4295C142.261 95.3044 142.534 95.1321 142.781 94.9082L142.921 94.7789C143.958 94.7475 144.953 94.6679 145.932 94.5617C146.933 95.4569 148.647 95.7446 150.032 95.1418C150.46 94.9555 150.857 94.6841 151.191 94.3203C153.529 94.8705 156.026 94.3686 158.426 93.8621C162.524 92.9946 166.082 96.0018 169.847 97.366C170.664 97.6662 171.5 97.8564 172.337 97.9869C173.052 98.305 173.874 98.3822 174.661 98.1601C177 98.1485 179.336 97.6338 181.521 96.8502C181.83 96.7389 182.135 96.6178 182.437 96.4863C185.888 94.9843 188.847 92.2743 192.206 90.6455C192.294 90.6043 192.378 90.5646 192.464 90.5273C193.071 90.2629 193.627 90.1217 194.147 90.055C194.477 90.0905 194.806 90.0823 195.123 90.0084C197.65 90.1488 199.453 91.992 202.299 90.9701C202.59 90.865 202.846 90.7639 203.077 90.6633C203.913 90.2994 204.446 89.9235 205.293 89.2598C205.415 89.1647 205.537 89.0912 205.661 89.037C207.004 88.4527 208.549 90.069 209.575 90.5649C210.127 90.8247 210.655 91.0546 211.176 91.2538C212.167 92.1705 213.797 92.4209 215.091 91.8837C215.733 91.8139 216.397 91.6468 217.09 91.3642C217.14 91.3442 217.19 91.3236 217.24 91.3018C220.296 89.9704 223.043 86.489 225.419 84.421C226.22 83.7267 227.012 83.2363 227.806 82.8909C231.619 81.2314 235.43 82.9348 239.753 81.5973C241.979 80.9103 245.185 81.9467 248.149 81.3503C248.879 81.204 249.556 80.991 250.179 80.7197C251.851 79.9923 253.143 78.8394 254.074 77.3973C254.179 77.3635 254.282 77.3242 254.382 77.2811C254.635 77.171 254.87 77.0306 255.082 76.8615C255.082 76.8699 255.083 76.8771 255.084 76.8838C253.878 80.4579 252.291 81.7522 250.804 82.3992C250.317 82.611 249.842 82.7523 249.395 82.8831C248.945 83.0133 248.526 83.1319 248.151 83.2952C247.031 83.7826 246.307 84.6703 246.426 87.4687C246.501 89.2958 245.46 90.5648 243.889 91.2485C241.004 92.5042 236.336 91.7829 233.54 88.9136C229.822 90.5477 232.535 97.0175 228.247 98.8834ZM111.762 115.652C109.994 115.55 108.241 115.44 106.496 115.318C106.006 115.284 105.511 115.248 105.023 115.213C104.47 115.173 103.921 115.131 103.371 115.089C101.477 114.944 99.6031 114.788 97.7413 114.62C96.4458 114.503 95.1476 114.381 93.8669 114.255C92.9124 114.16 91.9622 114.061 91.0157 113.961C90.6862 113.926 90.3656 113.891 90.036 113.855C88.8469 113.726 87.6603 113.592 86.486 113.453C85.0529 113.285 83.6298 113.109 82.2201 112.927C77.9958 112.382 73.8861 111.78 69.891 111.123C69.5572 111.068 69.2186 111.012 68.8865 110.957C68.883 110.956 68.8848 110.956 68.8812 110.955C32.335 104.832 6.16278 94.1846 0.952529 82.2395C0.287813 80.7155 -0.0366643 79.1713 0.00328915 77.6126C0.00280192 77.5881 0.00406575 77.5642 0.00357852 77.5397C0.00511794 77.5332 0.00543446 77.5273 0.00521925 77.5201C0.00494723 77.5028 0.00589678 77.4849 0.00615684 77.4688C0.00663212 77.4599 0.00710566 77.451 0.00635837 77.4426C0.00768257 77.4289 0.00725185 77.4145 0.00804398 77.3997C0.00920976 77.389 0.00862066 77.3776 0.00978644 77.3669C0.00957122 77.3597 0.00935656 77.3525 0.0103639 77.3448C0.0405248 76.3516 0.0990787 75.3635 0.186022 74.3805C0.0920392 75.4509 0.0304938 76.529 0.00328915 77.6126C-0.452526 95.784 48.3833 111.993 111.762 115.652Z" fill="url(#paint0_linear)"/>
<path d="M250.179 80.7197C249.556 80.991 248.879 81.204 248.149 81.3503C245.185 81.9467 241.979 80.9103 239.753 81.5973C235.43 82.9348 231.619 81.2314 227.806 82.8909C227.012 83.2362 226.22 83.7267 225.419 84.421C223.043 86.489 220.296 89.9704 217.24 91.3018C217.19 91.3236 217.14 91.3442 217.09 91.3642C216.397 91.6468 215.733 91.8139 215.091 91.8837C213.797 92.4209 212.167 92.1705 211.176 91.2538C210.655 91.0546 210.127 90.8247 209.575 90.5648C208.549 90.069 207.004 88.4527 205.661 89.0369C205.537 89.0912 205.415 89.1647 205.293 89.2598C204.446 89.9235 203.913 90.2994 203.077 90.6633C202.846 90.7639 202.59 90.865 202.299 90.9701C199.453 91.992 197.65 90.1488 195.123 90.0084C194.806 90.0823 194.477 90.0905 194.147 90.055C193.627 90.1216 193.071 90.2629 192.464 90.5273C192.378 90.5646 192.294 90.6043 192.206 90.6455C188.847 92.2743 185.888 94.9843 182.437 96.4863C182.135 96.6177 181.83 96.7389 181.521 96.8502C179.336 97.6338 177 98.1485 174.661 98.1601C173.874 98.3822 173.052 98.305 172.337 97.9869C171.5 97.8564 170.664 97.6662 169.847 97.366C166.082 96.0018 162.524 92.9946 158.426 93.8621C156.026 94.3685 153.529 94.8704 151.191 94.3203C150.857 94.6841 150.46 94.9555 150.032 95.1418C148.647 95.7446 146.933 95.4569 145.932 94.5617C144.953 94.6679 143.958 94.7475 142.921 94.7789L142.781 94.9081C142.533 95.132 142.261 95.3044 141.974 95.4295C140.999 95.8535 139.851 95.7399 138.916 95.2888L138.859 95.3103C138.688 95.4332 138.507 95.5352 138.318 95.6171C137.914 95.7932 137.476 95.8775 137.034 95.8838C133.474 96.6712 128.964 96.8134 125.844 94.696C124.06 93.4874 123.218 93.3464 122.441 93.6843C122.035 93.8609 121.647 94.1681 121.152 94.5216C120.658 94.875 120.055 95.2753 119.22 95.6387C119.185 95.6541 119.148 95.6701 119.112 95.686C116.182 96.9143 113.304 96.2912 110.294 96.2039C106.935 97.5753 103.29 98.8867 99.8716 98.6457C99.132 98.5968 98.3347 98.4755 97.5463 98.2879C96.2371 98.3502 94.9034 97.8516 94.2493 96.957C92.866 96.0671 91.9009 94.8018 91.9383 93.0769C91.9529 92.2649 92.0271 91.51 92.2628 90.7385C91.995 90.9016 91.7296 91.0403 91.4619 91.1568C90.2307 91.6926 88.972 91.7707 87.4692 91.7122C82.923 91.5372 77.5347 89.3003 74.708 86.0997C74.5364 85.9025 74.2847 85.7954 73.9898 85.7391C73.6787 85.9064 73.3917 86.0488 73.1166 86.1685C71.9882 86.6596 71.077 86.7712 69.7023 86.7165C67.1377 87.7134 64.2536 89.0719 62.5613 89.0493C60.8108 89.023 59.2004 87.6081 59.3177 86.02L59.3328 85.9378C59.0881 85.262 58.8764 84.5049 58.6388 83.7518C57.7832 83.9977 56.9407 84.2669 56.0913 84.5304C55.6073 84.6814 55.1277 84.8189 54.6439 84.9437C54.1028 85.3042 53.5617 85.5979 53.0275 85.8304C47.859 88.0812 43.0968 84.6266 39.9874 80.5559C38.8582 79.6587 37.7218 78.7748 36.5023 78.0375C35.3973 77.3696 34.2681 76.9202 33.1215 76.6078C32.9259 76.6828 32.7291 76.7553 32.5384 76.8383C32.4846 76.8617 32.4308 76.8851 32.3793 76.9105C32.3303 76.9347 32.2807 76.9578 32.2305 76.9796C30.4884 77.7378 28.3139 77.0715 26.8338 75.9125C24.1054 75.8581 21.331 75.9052 18.5769 75.2236C16.2919 74.6577 14.8722 73.9014 13.8509 72.9514C12.933 73.2913 11.8571 73.4454 10.5014 73.304C8.20511 73.063 6.97965 71.4835 7.39712 69.4957C8.06743 66.2914 7.20595 65.0537 4.48541 63.5504C3.87513 63.214 3.19782 62.6901 2.77295 62.1349C1.98835 64.4685 1.361 66.8427 0.901413 69.2516L0.897698 69.243C0.576983 70.9385 0.338302 72.6521 0.186021 74.3805C0.0990784 75.3635 0.0405245 76.3516 0.0103636 77.3448C0.814954 50.7563 21.8724 27.7021 53.7215 13.8411C75.1373 4.52078 101.433 -0.644193 129.732 0.0645162C196.442 1.73877 250.395 35.4545 255.099 76.838C255.094 76.8533 255.089 76.8685 255.084 76.8838C255.083 76.8771 255.082 76.8699 255.082 76.8615C254.87 77.0306 254.635 77.171 254.381 77.2811C254.282 77.3242 254.179 77.3634 254.074 77.3973C253.143 78.8394 251.851 79.9923 250.179 80.7197ZM0.00357819 77.5397C0.00442711 77.535 0.00490206 77.5261 0.00521891 77.5201C0.00543413 77.5273 0.00511761 77.5332 0.00357819 77.5397Z" fill="url(#paint1_linear)"/>
<path d="M122.409 106.46C121.687 101.04 115.609 109.726 106.876 102.24C105.617 101.161 104.624 102.242 103.058 103.574C100.624 105.641 96.8063 108.312 88.453 104.431C87.5465 98.8097 80.8282 106.497 75.0847 99.7588C70.9241 99.1266 66.9757 101.588 63.0705 100.848C60.0147 100.268 60.7559 94.5202 57.874 95.1187C41.117 98.5812 55.7802 94.7182 45.773 92.306C43.8685 94.4988 41.9296 93.5788 40.2274 92.5543C38.1582 91.3114 36.4381 89.9151 35.5521 93.7732C28.0909 91.2271 33.0896 86.0503 25.5395 87.0386C19.2791 90.8102 19.7521 80.6101 18.2023 79.8624C17.0113 79.2843 16.9951 80.3965 16.7503 81.6082C16.3992 83.3475 15.5767 85.2933 10.1267 82.7241C8.08447 81.7603 9.57314 73.8708 6.41367 76.3408C3.74645 78.425 2.25169 71.6726 1.42127 69.2566C0.901938 72.0026 0.598748 74.7942 0.528095 77.6256C0.0369534 97.2127 56.8159 114.519 127.344 116.289C197.876 118.056 255.448 103.615 255.94 84.0292C256.009 81.1983 255.847 78.3939 255.466 75.6256C253.862 81.5062 251.362 82.3107 249.395 82.8831C247.612 83.4015 246.267 83.7294 246.426 87.4687C246.64 92.6525 237.856 93.3447 233.54 88.9136C229.747 90.582 232.648 97.2808 227.977 98.9909C219.935 101.931 221.019 94.2974 213.447 100.197C212.207 101.163 209.264 100.279 206.475 99.327C203.428 98.2859 200.563 97.1667 200.3 98.2962C202.253 103.891 198.791 103.403 194.739 103.17C191.614 102.991 188.136 102.965 186.522 106.004C185.935 107.112 184.292 106.172 182.448 105.32C180.907 104.608 179.225 103.955 177.906 104.612C172.873 107.109 172.116 106.207 171.964 105.042C171.773 103.592 172.521 101.732 167.124 105.519C166.319 106.082 163.802 105.921 161.223 105.786C157.922 105.612 154.522 105.482 154.485 106.97C154.372 111.499 150.673 107.37 143.514 104.339C138.524 103.373 138.426 104.405 138.031 105.569C137.502 107.126 136.439 108.914 122.409 106.46Z" fill="#F3BA60"/>
<path d="M126.326 116.262C124.455 116.214 122.596 116.153 120.747 116.083C120.414 116.07 120.08 116.057 119.75 116.044C119.541 116.036 119.34 116.027 119.132 116.019C119.042 116.015 118.957 116.011 118.869 116.007C117.635 115.955 116.397 115.899 115.174 115.837C114.131 115.784 113.092 115.729 112.058 115.67C111.958 115.664 111.862 115.658 111.762 115.652C48.3833 111.993 -0.452521 95.784 0.00329444 77.6126C0.0304991 76.529 0.0920445 75.4509 0.186027 74.3805C0.339372 72.6546 0.579108 70.9434 0.901418 69.2516L0.91207 69.2761C0.762432 70.663 0.667667 72.0624 0.632657 73.4722L0.634242 73.4758C0.620916 73.9731 0.626373 74.5102 0.655442 75.0748C0.591895 75.9212 0.55026 76.7711 0.528078 77.6256C0.0395601 97.1185 56.2707 114.352 126.326 116.262Z" fill="url(#paint2_linear)"/>
<path d="M236.999 101.71C214.453 111.522 173.467 117.444 126.821 116.274C126.657 116.27 126.489 116.266 126.326 116.262C56.2707 114.352 0.0395668 97.1185 0.528084 77.6256C0.550267 76.7711 0.591902 75.9212 0.655449 75.0748C0.809654 78.1356 1.64672 81.9868 3.99703 84.5338C5.27584 85.9185 7.62171 85.5752 9.44086 86.9051C10.8648 87.9417 11.4883 90.1394 12.8971 91.4821C16.2208 94.6452 20.5901 93.318 23.118 94.4587C28.3031 96.8 28.6134 98.3285 30.4185 98.9476C32.7494 99.7494 37.2512 101.577 39.7963 102.326C41.8246 102.924 43.6535 102.308 45.8133 102.87C48.4447 103.557 50.4641 104.782 53.2759 105.413C56.284 106.09 59.6322 105.022 62.8328 105.627C66.0139 106.231 67.0208 107.866 70.3782 108.397C73.6008 108.905 79.8476 110.92 82.9491 109.697C85.8636 108.542 90.1612 110.989 93.4551 111.334C96.7157 111.675 98.8173 110.537 102.187 110.811C104.878 111.025 107.994 113.529 110.51 112.546C115.224 110.699 122.544 115.739 127.794 113.567C130.688 112.371 134.726 112.76 137.413 111.591C137.633 111.495 137.843 111.389 138.044 111.269C138.11 111.232 138.176 111.198 138.244 111.168C140.535 110.171 144.836 113.764 148.375 113.691C150.518 113.649 153.589 113.556 155.695 113.482C161.417 113.283 165.865 111.508 171.285 111.097C173.369 110.94 176.05 111.876 178.084 111.685C180.301 111.48 182.903 111.879 184.735 111.082C185.405 110.79 185.973 110.338 186.379 109.638C186.617 109.226 186.94 108.955 187.326 108.786C189.281 107.936 192.858 109.741 195.354 109.37C197.381 109.066 201.338 109.178 203.071 108.424C203.755 108.126 204.093 107.693 203.826 107.045C203.689 106.715 203.834 106.499 204.161 106.357C205.225 105.894 208.221 106.216 209.682 105.913C212.598 105.309 215.84 105.717 218.531 105.039C221.006 104.417 223.275 103.506 225.437 102.565C225.99 102.325 226.537 102.082 227.078 101.841C227.619 101.601 228.154 101.363 228.687 101.131C229.736 100.674 230.77 100.244 231.803 99.8716C234.072 99.056 236.374 99.3469 238.358 98.4834C238.37 98.4781 238.384 98.4722 238.395 98.4657C240.2 97.6612 241.707 95.6765 243.262 94.8236C243.728 94.5671 244.253 94.3227 244.804 94.0828C245.231 93.8971 245.672 93.7152 246.113 93.5333C246.554 93.3501 246.997 93.1676 247.422 92.9825C248.364 92.5728 249.229 92.1483 249.85 91.6816C253.323 89.0736 254.374 86.0513 255.42 83.1297C255.417 83.4251 255.422 83.7192 255.416 84.0144C255.248 90.6468 248.543 96.6858 236.999 101.71Z" fill="#DE8B3E"/>
<path d="M153.465 22.974C152.051 22.9394 150.88 23.1105 150.819 25.5901C150.757 28.0076 153.017 31.3864 153.114 31.5289L153.245 31.7305L153.392 31.5359C153.497 31.3987 155.915 28.1375 155.977 25.7213C156.039 23.2399 154.875 23.009 153.465 22.974" fill="#CF6538"/>
<path d="M134.073 28.664C133.447 28.3124 132.833 27.9967 132.199 27.9803C131.435 27.9611 130.777 28.3769 130.124 29.2934C128.821 31.1301 129.34 34.9304 129.364 35.0887L129.388 35.2703L129.577 35.2141C129.759 35.1628 133.831 33.9446 135.132 32.106C136.464 30.2249 135.442 29.4336 134.073 28.664" fill="#CF6538"/>
<path d="M212.23 58.2008C211.6 57.8467 210.989 57.5294 210.354 57.5152C209.587 57.4971 208.929 57.9129 208.28 58.8278C206.978 60.664 207.49 64.4663 207.516 64.6247L207.543 64.8065L207.737 64.7469C207.905 64.6998 211.982 63.4794 213.282 61.6443C214.617 59.7592 213.596 58.9674 212.23 58.2008" fill="#CF6538"/>
<path d="M92.9118 48.6367C92.4401 48.6253 91.9182 48.7259 91.4683 48.8214C90.592 49.0064 89.7702 49.2231 89.3605 49.8187C89.0441 50.2778 89.0028 50.9181 89.245 51.7753C89.821 53.8905 93.2482 56.2291 93.3916 56.3281L93.553 56.4382L93.6412 56.2733C93.7223 56.1289 95.5646 52.6806 94.9852 50.564C94.6253 49.2593 93.9869 48.6646 92.9118 48.6367Z" fill="#CF6538"/>
<path d="M158.965 52.1701L159.058 52.006C159.134 51.8596 160.979 48.4156 160.397 46.2976C160.041 44.9907 159.399 44.3964 158.323 44.369C157.852 44.3571 157.331 44.4589 156.883 44.5551C156.006 44.7372 155.182 44.9537 154.768 45.5509C154.456 46.0084 154.417 46.6476 154.655 47.5065C155.236 49.6225 158.658 51.9632 158.804 52.06L158.965 52.1701" fill="#CF6538"/>
<path d="M114.565 57.3593C114.319 57.3528 114.059 57.3742 113.809 57.4015C112.571 57.5362 111.567 57.8291 111.886 60.0113C112.187 62.1357 114.655 64.8234 114.759 64.9382L114.927 65.1179L115.037 64.907C115.106 64.7752 116.741 61.6472 116.433 59.5212C116.219 58.0325 115.657 57.3869 114.565 57.3593" fill="#CF6538"/>
<path d="M42.8165 38.3313L42.9263 38.1192C42.9954 37.9873 44.6296 34.8593 44.3266 32.7329C44.1108 31.2447 43.5517 30.5982 42.4585 30.5722C42.2086 30.5661 41.9496 30.5857 41.7045 30.6139C40.4606 30.7495 39.4569 31.0395 39.7729 33.2257C40.0756 35.3479 42.5473 38.0369 42.6506 38.1505L42.8165 38.3313" fill="#CF6538"/>
<path d="M139.007 15.0027L139.174 15.1847L139.282 14.9761C139.356 14.8421 140.993 11.7131 140.684 9.58934C140.467 8.09994 139.907 7.45389 138.816 7.42393C138.563 7.41939 138.304 7.44203 138.062 7.4686C136.818 7.60301 135.814 7.89591 136.133 10.0781C136.436 12.2027 138.905 14.8903 139.007 15.0027Z" fill="#CF6538"/>
<path d="M199.898 34.52C199.655 34.5124 199.392 34.5366 199.148 34.5613C197.905 34.6994 196.903 34.9888 197.219 37.175C197.523 39.2936 199.991 41.9872 200.091 42.0977L200.256 42.279L200.371 42.0689C200.446 41.9344 202.075 38.8061 201.773 36.6805C201.556 35.1916 200.993 34.5454 199.898 34.52" fill="#CF6538"/>
<path d="M113.314 22.2831C113.096 20.796 112.538 20.1476 111.443 20.118C111.197 20.1145 110.932 20.1368 110.692 20.1611C109.45 20.3004 108.447 20.5886 108.762 22.7753C109.065 24.8987 111.534 27.5876 111.639 27.7001L111.803 27.8819L111.916 27.6712C111.985 27.5381 113.618 24.4089 113.314 22.2831Z" fill="#CF6538"/>
<path d="M79.3684 65.8149C78.8014 65.6414 78.335 65.5521 77.9349 65.5415C76.7411 65.5115 76.3808 66.2005 76.0878 66.9707C75.6936 68.0264 75.56 68.9555 77.9078 69.6657C78.45 69.8325 79.127 69.9246 79.9154 69.9451C81.9471 69.9958 84.1185 69.5423 84.1402 69.5387L84.3949 69.486L84.2285 69.304C84.1236 69.1867 81.65 66.5 79.3684 65.8149" fill="#CF6538"/>
<path d="M191.466 18.3029C190.901 18.1301 190.432 18.0406 190.031 18.0301C188.838 18 188.48 18.6892 188.188 19.4577C187.79 20.5149 187.656 21.4459 190.005 22.1567C190.548 22.3217 191.224 22.4174 192.014 22.4343C194.045 22.4881 196.214 22.0344 196.237 22.0302L196.492 21.9728L196.327 21.7914C196.221 21.6777 193.747 18.9927 191.466 18.3029" fill="#CF6538"/>
<path d="M93.4056 33.5998L93.2404 33.4172C93.1371 33.3037 90.6593 30.6173 88.3766 29.9297C87.8145 29.7541 87.3422 29.6645 86.9468 29.6548C85.7559 29.6249 85.3932 30.3149 85.0979 31.0833C84.7038 32.1389 84.5687 33.0716 86.9212 33.7826C87.4607 33.9462 88.1405 34.0415 88.93 34.0615C90.9588 34.1121 93.129 33.6591 93.1513 33.6537L93.4056 33.5998" fill="#CF6538"/>
<path d="M138.729 52.626C138.161 52.4543 137.693 52.3673 137.295 52.3569C136.102 52.3268 135.743 53.0123 135.453 53.781C135.246 54.3205 135.086 54.844 135.363 55.3382C135.623 55.8041 136.23 56.1666 137.263 56.4831C137.81 56.6436 138.483 56.7391 139.274 56.7597C141.304 56.8098 143.472 56.3562 143.498 56.3522L143.751 56.2975L143.589 56.1164C143.484 56.0009 141.009 53.3147 138.729 52.626" fill="#CF6538"/>
<path d="M44.8461 52.3034C44.2779 52.1304 43.8085 52.041 43.4119 52.0318C42.218 52.0017 41.8572 52.6895 41.5698 53.4559C41.3638 53.9949 41.2046 54.5178 41.4821 55.0151C41.7434 55.4786 42.3481 55.8422 43.3847 56.1559C43.9272 56.3197 44.601 56.4147 45.3923 56.4353C47.4223 56.4854 49.5937 56.0319 49.6149 56.027L49.8709 55.9738L49.7032 55.7923C49.5982 55.678 47.127 52.9903 44.8461 52.3034" fill="#CF6538"/>
<path d="M65.6863 41.1062C65.1206 40.9321 64.6547 40.8441 64.2546 40.8335C63.0643 40.8048 62.7017 41.4919 62.4136 42.26C62.2212 42.7669 62.0643 43.2583 62.2804 43.7314C62.5143 44.2389 63.1338 44.6266 64.226 44.9612C64.7715 45.1251 65.4479 45.216 66.2333 45.2363C68.2608 45.2875 70.4382 44.8343 70.4581 44.83L70.7141 44.7767L70.5506 44.5949C70.4458 44.4776 67.9708 41.7944 65.6863 41.1062" fill="#CF6538"/>
<path d="M115.988 42.3688C115.421 42.1936 114.954 42.1031 114.554 42.0955C113.362 42.0661 113.007 42.753 112.715 43.5227C112.51 44.057 112.348 44.5822 112.624 45.0776C112.883 45.5434 113.491 45.9054 114.527 46.2196C115.072 46.3854 115.742 46.4789 116.538 46.4962C118.561 46.549 120.736 46.0956 120.758 46.0902L121.014 46.037L120.848 45.8562C120.743 45.7407 118.268 43.0557 115.988 42.3688" fill="#CF6538"/>
<path d="M23.9396 42.0883C23.3714 41.9153 22.9038 41.8265 22.5047 41.8184C21.3139 41.7885 20.952 42.4738 20.6621 43.2413C20.4573 43.7797 20.2969 44.3032 20.5751 44.7987C20.8357 45.264 21.4415 45.63 22.4782 45.9408C23.02 46.1063 23.6965 46.1973 24.4853 46.219C26.5141 46.2696 28.6872 45.8168 28.7096 45.8114L28.9644 45.7587L28.7967 45.5772C28.6935 45.4636 26.2198 42.7769 23.9396 42.0883" fill="#CF6538"/>
<path d="M217.618 36.8328C217.054 36.6612 216.587 36.5718 216.187 36.5631C214.993 36.5312 214.633 37.2203 214.344 37.9871C214.137 38.5267 213.98 39.0503 214.256 39.5439C214.516 40.0109 215.12 40.3745 216.16 40.6884C216.702 40.8522 217.379 40.9444 218.168 40.9648C220.194 41.0165 222.366 40.5642 222.39 40.5595L222.644 40.5056L222.478 40.3236C222.375 40.2083 219.9 37.5208 217.618 36.8328" fill="#CF6538"/>
<path d="M87.4731 11.8991C88.0118 12.0645 88.6852 12.1583 89.4824 12.1792C91.507 12.2302 93.6777 11.7785 93.702 11.7708L93.9557 11.7156L93.7898 11.5348C93.6865 11.4212 91.2104 8.73556 88.9321 8.04466C88.365 7.87416 87.8944 7.78524 87.4948 7.77592C86.3052 7.74545 85.9485 8.43285 85.655 9.20186C85.4491 9.73787 85.2906 10.2591 85.5669 10.7569C85.8263 11.2227 86.4292 11.5856 87.4731 11.8991" fill="#CF6538"/>
<path d="M160.268 67.8412C159.7 67.6682 159.231 67.58 158.834 67.5696C157.643 67.5397 157.284 68.2252 156.995 68.995C156.597 70.0498 156.456 70.9822 158.807 71.6979C159.348 71.8623 160.021 71.9548 160.81 71.9752C162.846 72.0239 165.017 71.5679 165.041 71.5662L165.295 71.5123L165.129 71.3297C165.022 71.2165 162.554 68.5348 160.268 67.8412" fill="#CF6538"/>
<path d="M246.308 63.4949C246.201 63.3829 243.732 60.7 241.444 60.0074C240.879 59.8334 240.412 59.7471 240.01 59.7388C238.82 59.7071 238.463 60.3946 238.175 61.1614C237.775 62.218 237.637 63.1505 239.987 63.8655C240.529 64.0264 241.205 64.1191 241.994 64.1395C244.024 64.1908 246.195 63.7361 246.217 63.7337L246.473 63.6775L246.308 63.4949" fill="#CF6538"/>
<path d="M113.198 12.5461C113.744 12.7083 114.418 12.8033 115.203 12.8248C117.238 12.8745 119.411 12.4187 119.43 12.4132L119.686 12.3617L119.519 12.1796C119.419 12.0662 116.946 9.38192 114.659 8.69055C114.094 8.51776 113.624 8.42708 113.223 8.41829C112.033 8.38783 111.676 9.07701 111.385 9.84198C110.987 10.898 110.85 11.833 113.198 12.5461Z" fill="#CF6538"/>
<path d="M64.239 26.0125L64.4784 25.9112C64.6103 25.8568 67.7621 24.5185 68.9168 22.8948C69.4417 22.1531 69.6298 21.5928 69.5139 21.1328C69.3848 20.6423 68.9324 20.3579 68.4424 20.084C68.0637 19.8722 67.6592 19.6643 67.2263 19.652C66.5965 19.6382 66.0162 20.0391 65.3928 20.9153C64.2405 22.5379 64.2392 25.6489 64.237 25.7807L64.239 26.0125Z" fill="#CF6538"/>
<path d="M190.46 50.3158C190.081 50.1027 189.675 49.8942 189.24 49.8842C188.613 49.8676 188.029 50.27 187.408 51.1452C186.258 52.7685 186.252 55.8798 186.255 56.0095L186.257 56.2426L186.493 56.1446C186.625 56.0884 189.779 54.7478 190.934 53.1254C191.459 52.3836 191.643 51.8237 191.526 51.3655C191.399 50.8757 190.948 50.589 190.46 50.3158" fill="#CF6538"/>
<path d="M167.947 12.2218C167.571 12.0101 167.166 11.8011 166.731 11.7899C166.103 11.7738 165.516 12.1748 164.896 13.0525C163.746 14.6752 163.742 17.7848 163.742 17.9168L163.741 18.1514L163.98 18.0519C164.11 17.9955 167.269 16.654 168.423 15.0291C168.948 14.2886 169.138 13.7278 169.015 13.2693C168.887 12.7812 168.439 12.4964 167.947 12.2218" fill="#CF6538"/>
<path d="M178.159 34.0726C177.779 33.8583 177.376 33.6529 176.943 33.6406C176.312 33.6244 175.73 34.0245 175.105 34.9013C173.955 36.5258 173.952 39.6361 173.953 39.7681L173.956 40.0011L174.193 39.9008C174.324 39.8464 177.478 38.5046 178.632 36.8827C179.158 36.1374 179.345 35.5789 179.228 35.1212C179.099 34.6289 178.646 34.3433 178.159 34.0726" fill="#CF6538"/>
<path d="M153.502 22.2773C152.09 22.2404 150.918 22.4133 150.855 24.8952C150.797 27.311 153.059 30.6864 153.147 30.8296L153.286 31.031L153.431 30.8369C153.537 30.6975 155.956 27.4405 156.019 25.0237C156.079 22.5416 154.912 22.3123 153.502 22.2773" fill="#FFCD8B"/>
<path d="M134.112 27.965C133.485 27.614 132.873 27.2959 132.237 27.2788C131.47 27.2607 130.816 27.6779 130.164 28.5939C128.862 30.43 129.378 34.2337 129.4 34.3955L129.429 34.572L129.616 34.5151C129.79 34.4641 133.869 33.2444 135.166 31.4104C136.506 29.5231 135.478 28.7345 134.112 27.965" fill="#FFCD8B"/>
<path d="M212.265 57.5023C211.638 57.1512 211.025 56.832 210.39 56.8161C209.626 56.7964 208.969 57.2134 208.319 58.1301C207.014 59.9631 207.529 63.7685 207.553 63.9281L207.581 64.1081L207.771 64.0501C207.947 63.9998 212.021 62.7805 213.321 60.9424C214.655 59.059 213.635 58.2685 212.265 57.5023Z" fill="#FFCD8B"/>
<path d="M92.9508 47.9377C92.4791 47.9263 91.956 48.0275 91.5043 48.1223C90.6322 48.307 89.81 48.5194 89.4013 49.1175C89.0818 49.5794 89.0442 50.2181 89.2805 51.075C89.8616 53.1923 93.2865 55.5319 93.4301 55.6279L93.5919 55.7393L93.6794 55.5761C93.7577 55.4286 95.6041 51.9829 95.0236 49.8639C94.6662 48.558 94.0252 47.9674 92.9508 47.9377" fill="#FFCD8B"/>
<path d="M159.007 51.4712L159.091 51.3097C159.171 51.1629 161.013 47.7146 160.438 45.5976C160.076 44.2921 159.438 43.6975 158.363 43.6695C157.891 43.6569 157.371 43.7594 156.919 43.8542C156.04 44.0391 155.22 44.2535 154.812 44.8515C154.492 45.3105 154.457 45.9511 154.693 46.8068C155.275 48.9235 158.698 51.2625 158.843 51.3622L159.007 51.4712Z" fill="#FFCD8B"/>
<path d="M114.604 56.6586C114.354 56.6524 114.098 56.677 113.85 56.7002C112.607 56.8371 111.603 57.1288 111.922 59.3134C112.225 61.4356 114.691 64.1243 114.796 64.2368L114.963 64.42L115.072 64.2084C115.145 64.0762 116.779 60.947 116.474 58.8199C116.259 57.3359 115.699 56.6869 114.604 56.6586" fill="#FFCD8B"/>
<path d="M42.8555 37.6323L42.9659 37.4214C43.038 37.2897 44.6681 34.1591 44.3644 32.0345C44.151 30.5453 43.5889 29.8985 42.4964 29.8708C42.2466 29.8647 41.985 29.8884 41.7425 29.9125C40.4991 30.0493 39.4977 30.3412 39.8137 32.5274C40.1158 34.6483 42.5799 37.3364 42.6885 37.449L42.8555 37.6323" fill="#FFCD8B"/>
<path d="M139.044 14.306L139.212 14.4845L139.327 14.2745C139.392 14.143 141.03 11.0164 140.723 8.89162C140.507 7.39923 139.948 6.75387 138.855 6.72672C138.605 6.72059 138.344 6.74254 138.101 6.76841C136.857 6.90527 135.852 7.19574 136.171 9.38208C136.477 11.5014 138.939 14.1947 139.044 14.306Z" fill="#FFCD8B"/>
<path d="M199.937 33.818C199.692 33.8128 199.433 33.8354 199.184 33.8622C197.943 33.9997 196.941 34.2886 197.254 36.4746C197.56 38.5957 200.028 41.2864 200.133 41.4006L200.298 41.5802L200.412 41.3707C200.478 41.2387 202.116 38.1103 201.81 35.9838C201.594 34.4914 201.035 33.8448 199.937 33.818" fill="#FFCD8B"/>
<path d="M113.354 21.5865C113.136 20.0952 112.577 19.4499 111.48 19.4226C111.233 19.4166 110.974 19.438 110.729 19.4644C109.488 19.599 108.487 19.8908 108.801 22.0775C109.106 24.1987 111.567 26.8895 111.675 26.9997L111.842 27.1842L111.953 26.9716C112.024 26.8392 113.657 23.7099 113.354 21.5865" fill="#FFCD8B"/>
<path d="M79.4086 65.1154C78.8404 64.9424 78.374 64.8532 77.9715 64.8437C76.78 64.8125 76.4168 65.5014 76.1257 66.2693C75.7309 67.3267 75.5965 68.2577 77.9443 68.9678C78.4878 69.1341 79.1648 69.2262 79.9548 69.2473C81.986 69.2969 84.1574 68.8434 84.1768 68.8379L84.4334 68.7858L84.2676 68.602C84.1607 68.4901 81.6871 65.8033 79.4086 65.1154" fill="#FFCD8B"/>
<path d="M191.507 17.6017C190.937 17.431 190.472 17.3442 190.072 17.3336C188.878 17.3018 188.517 17.9913 188.226 18.7593C187.83 19.8142 187.695 20.7469 190.044 21.4577C190.587 21.6228 191.262 21.716 192.053 21.7354C194.084 21.7849 196.254 21.3349 196.274 21.3289L196.532 21.2763L196.364 21.0936C196.26 20.9788 193.786 18.295 191.507 17.6017" fill="#FFCD8B"/>
<path d="M93.4464 32.9015L93.2799 32.7195C93.1737 32.6057 90.699 29.9166 88.417 29.2273C87.8547 29.0546 87.381 28.9685 86.9814 28.9592C85.7925 28.927 85.4316 29.6148 85.1387 30.385C84.7463 31.4413 84.6088 32.3751 86.9572 33.0835C87.4978 33.2496 88.1772 33.3406 88.968 33.36C90.9972 33.4119 93.1716 32.9585 93.1904 32.9548L93.4464 32.9015Z" fill="#FFCD8B"/>
<path d="M138.767 51.9259C138.198 51.7577 137.731 51.6671 137.333 51.6555C136.14 51.6266 135.783 52.3158 135.487 53.0829C135.288 53.6205 135.125 54.145 135.4 54.6404C135.662 55.1051 136.268 55.4694 137.303 55.7795C137.847 55.9469 138.524 56.0391 139.314 56.0572C141.342 56.1114 143.513 55.6579 143.535 55.6543L143.792 55.5992L143.62 55.4181C143.521 55.3024 141.048 52.6169 138.767 51.9259" fill="#FFCD8B"/>
<path d="M44.8833 51.6037C44.3163 51.4303 43.8487 51.3415 43.4491 51.3322C42.2583 51.3022 41.8992 51.9907 41.6069 52.7592C41.4023 53.2947 41.2424 53.8194 41.5205 54.3149C41.7817 54.7814 42.3827 55.1466 43.4237 55.457C43.9655 55.6225 44.6406 55.717 45.4313 55.7364C47.46 55.787 49.6308 55.3353 49.6526 55.3287L49.9081 55.2742L49.7416 55.0921C49.6372 54.9791 47.1653 52.293 44.8833 51.6037Z" fill="#FFCD8B"/>
<path d="M65.7266 40.4067C65.1608 40.2326 64.6913 40.1461 64.2936 40.1345C63.1015 40.1051 62.7414 40.7912 62.4514 41.5616C62.259 42.0684 62.1026 42.5611 62.3211 43.0331C62.5514 43.5422 63.1674 43.9285 64.2651 44.2621C64.8082 44.4242 65.4821 44.5192 66.2704 44.5397C68.3021 44.5904 70.4759 44.1358 70.4978 44.1292L70.7526 44.0765L70.5873 43.894C70.4841 43.7804 68.0098 41.0954 65.7266 40.4067Z" fill="#FFCD8B"/>
<path d="M116.028 41.6676C115.46 41.4946 114.991 41.4064 114.593 41.3965C113.403 41.3649 113.043 42.0538 112.751 42.8218C112.547 43.3603 112.385 43.8843 112.663 44.3786C112.922 44.8444 113.527 45.2062 114.568 45.5225C115.108 45.6862 115.785 45.7766 116.575 45.7978C118.602 45.8477 120.775 45.3966 120.797 45.39L121.053 45.3368L120.886 45.1565C120.784 45.0406 118.307 42.3567 116.028 41.6676" fill="#FFCD8B"/>
<path d="M23.9763 41.3874C23.4098 41.2152 22.9416 41.1281 22.5437 41.1195C21.3523 41.0883 20.9927 41.7756 20.6992 42.5446C20.4961 43.0838 20.3369 43.6067 20.6128 44.1003C20.8728 44.5674 21.4787 44.9304 22.5165 45.2436C23.059 45.4074 23.7323 45.5012 24.5219 45.5211C26.5523 45.5724 28.7225 45.1194 28.7461 45.1135L29.0023 45.0573L28.8364 44.8765C28.7307 44.764 26.2588 42.0779 23.9763 41.3874" fill="#FFCD8B"/>
<path d="M217.655 36.1349C217.09 35.9633 216.623 35.8727 216.223 35.8652C215.03 35.8346 214.674 36.519 214.379 37.2903C214.173 37.8275 214.018 38.3519 214.295 38.8449C214.551 39.3106 215.159 39.6744 216.199 39.9865C216.737 40.1536 217.416 40.2477 218.205 40.2664C220.23 40.3186 222.404 39.8641 222.425 39.8592L222.683 39.8054L222.517 39.6229C222.415 39.5105 219.939 36.8231 217.655 36.1349" fill="#FFCD8B"/>
<path d="M87.5084 11.2018C88.0503 11.3643 88.7248 11.4575 89.5161 11.4781C91.5479 11.5289 93.7186 11.0772 93.738 11.0716L93.9952 11.0179L93.827 10.8352C93.7218 10.7239 91.2475 8.03889 88.9711 7.3457C88.4069 7.17536 87.9346 7.0857 87.5345 7.07516C86.3436 7.04523 85.9852 7.73201 85.691 8.50277C85.4888 9.03719 85.3296 9.56016 85.6034 10.059C85.8648 10.5225 86.4695 10.8861 87.5084 11.2018" fill="#FFCD8B"/>
<path d="M160.307 67.1422C159.74 66.9705 159.27 66.881 158.871 66.8729C157.68 66.8418 157.321 67.5273 157.034 68.2961C156.637 69.3504 156.498 70.2805 158.847 70.9972C159.386 71.1609 160.063 71.253 160.852 71.2735C162.883 71.3243 165.052 70.8718 165.081 70.865L165.335 70.8128L165.166 70.6318C165.062 70.517 162.593 67.8359 160.307 67.1422" fill="#FFCD8B"/>
<path d="M246.345 62.7983C246.241 62.6823 243.774 60.0013 241.481 59.3108C240.918 59.1357 240.451 59.0482 240.049 59.0369C238.858 59.007 238.502 59.6944 238.213 60.4613C237.815 61.5173 237.678 62.4493 240.024 63.1659C240.568 63.3275 241.243 63.4207 242.029 63.4422C244.062 63.4925 246.233 63.0377 246.256 63.0336L246.512 62.9786L246.345 62.7983" fill="#FFCD8B"/>
<path d="M113.236 11.8488C113.777 12.0102 114.455 12.1036 115.243 12.1228C117.276 12.1743 119.447 11.7196 119.469 11.7142L119.723 11.6632L119.562 11.4803C119.459 11.3655 116.983 8.68523 114.699 7.99279C114.13 7.81984 113.661 7.73038 113.261 7.71983C112.071 7.69113 111.712 8.37665 111.422 9.14529C111.024 10.2013 110.888 11.1316 113.236 11.8488" fill="#FFCD8B"/>
<path d="M64.2755 25.3146L64.515 25.2133C64.6469 25.1588 67.7999 23.8201 68.9577 22.1936C69.4826 21.4518 69.67 20.8934 69.5492 20.4355C69.4218 19.9456 68.9713 19.6589 68.4826 19.3845C68.1027 19.1732 67.6957 18.9664 67.264 18.9536C66.6337 18.9386 66.0517 19.3388 65.433 20.2159C64.2788 21.8407 64.2758 24.951 64.276 25.0818L64.2755 25.3146" fill="#FFCD8B"/>
<path d="M190.496 49.6154C190.117 49.4036 189.717 49.1954 189.281 49.1842C188.65 49.1697 188.066 49.5704 187.443 50.4467C186.298 52.0703 186.293 55.1816 186.293 55.3111L186.294 55.5459L186.531 55.4457C186.666 55.3913 189.818 54.0501 190.971 52.4258C191.495 51.6845 191.684 51.1237 191.567 50.6643C191.438 50.1767 190.989 49.8895 190.496 49.6154Z" fill="#FFCD8B"/>
<path d="M167.988 12.5218C167.607 12.311 167.206 12.1016 166.766 12.0925C166.14 12.0759 165.559 12.4755 164.933 13.354C163.788 14.9764 163.782 18.0865 163.781 18.2178L163.786 18.4486L164.021 18.3518C164.152 18.2949 167.308 16.9563 168.46 15.3337C168.987 14.5896 169.175 14.0312 169.055 13.5715C168.925 13.0828 168.479 12.7969 167.988 12.5218Z" fill="#FFCD8B"/>
<path d="M178.197 33.3724C177.819 33.1606 177.414 32.9527 176.979 32.9415C176.352 32.9266 175.77 33.3268 175.146 34.2031C173.995 35.8281 173.993 38.9378 173.99 39.0685L173.997 39.2999L174.23 39.2024C174.365 39.1439 177.517 37.8057 178.668 36.1819C179.193 35.4401 179.382 34.881 179.264 34.4234C179.135 33.9328 178.683 33.6454 178.197 33.3724" fill="#FFCD8B"/>
<defs>
<linearGradient id="paint0_linear" x1="126.443" y1="131.309" x2="129.171" y2="22.526" gradientUnits="userSpaceOnUse">
<stop stop-color="#E78427"/>
<stop offset="0.205717" stop-color="#E78427"/>
<stop offset="0.670015" stop-color="#E78427"/>
<stop offset="1" stop-color="#EEAF66"/>
</linearGradient>
<linearGradient id="paint1_linear" x1="129.729" y1="0.269213" x2="126.845" y2="115.258" gradientUnits="userSpaceOnUse">
<stop stop-color="#EF9F51"/>
<stop offset="1" stop-color="#E0621C"/>
</linearGradient>
<linearGradient id="paint2_linear" x1="126.443" y1="131.309" x2="129.171" y2="22.526" gradientUnits="userSpaceOnUse">
<stop stop-color="#D87022"/>
<stop offset="0.205717" stop-color="#D87022"/>
<stop offset="0.670015" stop-color="#D87022"/>
<stop offset="1" stop-color="#DC8541"/>
</linearGradient>
</defs>
</svg>
