<svg width="256" height="108" viewBox="0 0 256 108" fill="none" xmlns="http://www.w3.org/2000/svg">
<path d="M69.8222 102.992C40.33 97.184 25.6982 86.869 15.6526 78.6664C12.2029 75.8477 9.45734 72.5933 7.29293 69.1138C1.61172 59.9754 -0.0560621 49.2823 0.103541 40.8681C0.105147 40.8807 0.105259 40.8939 0.106865 40.9064C-0.0138851 47.9917 1.17919 56.6861 4.959 64.7009C5.03409 64.713 5.11024 64.7265 5.18612 64.7414C6.41452 64.9834 7.58949 65.5587 8.55756 66.3635C8.71062 66.4833 8.8371 66.6277 8.9823 66.7598C9.78718 66.13 10.8946 65.7786 11.9974 65.9958C12.5063 66.096 13.0132 66.3169 13.4892 66.6878C15.1544 67.9754 16.195 69.6955 17.0462 71.4938C17.7731 71.1422 18.6241 70.996 19.4221 71.1532C20.1717 71.3008 20.8766 71.7168 21.3895 72.4797L21.612 72.8198C21.7466 72.8123 21.8823 72.8067 22.0178 72.802C22.2221 72.4957 22.4229 72.1939 22.6192 71.8736C23.3676 70.661 24.9216 70.2224 26.2835 70.4906C27.3235 70.6954 28.2512 71.3118 28.6205 72.3071L28.9212 72.2019L29.0351 72.1754L29.1815 72.0944C29.7152 71.8067 30.5208 71.6075 31.14 71.6031C31.6141 71.5973 32.0415 71.6352 32.43 71.7117C35.0595 72.2296 35.8916 74.484 37.4471 76.2252C37.8992 76.1581 38.3605 76.1619 38.8001 76.2485C39.3351 76.3538 39.8353 76.5814 40.2416 76.947C40.7937 76.2345 41.6436 75.7553 42.7978 75.7395C43.0528 75.7351 43.3035 75.7591 43.5455 75.8067C45.0055 76.0943 46.1509 77.2615 46.1581 78.6394C46.1591 78.793 46.1423 78.9612 46.1388 79.1165C46.2597 79.1377 46.3789 79.1601 46.4993 79.1838C47.3156 79.3446 48.122 79.556 48.9177 79.7525L49.1132 79.8016C49.6338 78.7177 50.8279 78.1402 52.0478 78.0805C52.9144 77.275 54.1944 77.0478 55.33 77.2714C56.5126 77.5043 57.5395 78.2241 57.7882 79.2939C58.7485 79.586 59.5952 80.2476 60.0135 81.201C60.1741 81.5724 60.5475 81.8089 60.9635 81.8908C60.974 81.8929 60.9859 81.8941 60.9977 81.8965C61.015 81.3669 61.0867 80.8305 61.2354 80.303C61.7354 78.5096 63.5145 77.9357 65.0896 78.246C66.751 78.5732 68.186 79.8845 67.6544 81.7833C67.6063 81.9585 67.5744 82.0308 67.5527 82.0579L67.5676 82.2514L67.569 82.4931L67.6382 82.666L67.712 82.8844L67.8349 83.0403L67.9276 83.17C68.0323 83.2454 68.4507 83.5082 68.3801 83.4943C68.3775 83.4938 68.3749 83.4933 68.3709 83.4925L68.4817 83.544L68.8195 83.5957C69.2823 82.184 71.2065 81.4323 72.8902 81.7639C73.7928 81.9417 74.6258 82.4317 75.1277 83.2987C77.4255 83.0378 79.6646 83.2053 81.8663 83.639C83.9765 84.0546 86.0523 84.7134 88.1127 85.4712C88.4935 85.4348 88.8772 85.4535 89.2435 85.5257C89.9918 85.673 90.6717 86.0431 91.1122 86.6358C91.2876 86.7043 91.463 86.7729 91.6369 86.842C91.7741 86.842 91.9132 86.8397 92.05 86.8353C92.8043 86.0135 93.9514 85.7988 95.0163 86.0086C95.9255 86.1876 96.7751 86.6761 97.2695 87.3606C97.414 87.593 97.5874 87.7614 97.7729 87.9093C98.1622 87.4302 98.7264 87.0492 99.4894 86.8598C104.467 85.6187 111.719 84.0227 117.47 85.1553C118.968 85.4503 120.362 85.9305 121.591 86.6495C122.872 87.4004 123.991 88.0816 125.18 88.3158C126.243 88.525 127.363 88.3788 128.705 87.6075C129.777 86.9894 130.96 86.1899 132.218 85.8765C134.112 85.4003 135.693 85.3921 137.269 85.7026C138.423 85.9298 139.574 86.3281 140.845 86.8363C141.142 86.9546 141.45 87.0435 141.768 87.1061C147.089 88.154 155.384 81.8178 161.04 81.502C162.274 81.4325 163.391 81.4992 164.393 81.6966C166.921 82.1943 168.712 83.5228 169.777 85.5751C173.506 84.7222 177.039 82.1254 180.789 82.8639C180.861 82.878 180.934 82.894 181.006 82.9109C181.013 82.9122 181.021 82.9138 181.027 82.915C182.099 83.1261 186.078 81.6825 187.034 80.2521C187.717 79.2306 189.285 78.5021 190.644 78.7698C190.966 78.8332 191.275 78.9524 191.56 79.1365C192.314 79.6219 193.162 79.9356 194.066 80.1136C196.248 80.5434 198.748 80.1802 201.007 79.5197C200.785 77.6716 202.306 75.7587 204.759 76.2417C204.84 76.2577 204.92 76.2763 205.003 76.2969C205.319 76.3782 205.638 76.4489 205.958 76.512C206.818 76.6813 207.688 76.7954 208.539 76.9071C209.389 77.0179 210.219 77.1255 210.996 77.2786C212.15 77.5058 213.187 77.8338 214.004 78.4293C214.385 76.8696 213.618 74.2478 214.158 73.4004C215.046 72.0124 216.945 71.0859 218.661 70.7757C221.819 70.2087 226.32 69.4836 229.897 70.188C230.772 70.3603 231.591 70.6183 232.322 70.9851C232.968 71.3136 233.617 71.9658 234.005 72.5259L234.142 72.7551C234.228 72.2315 234.48 71.5009 235.08 70.5511C236.536 68.2314 237.911 67.0658 240.64 65.9496C242.677 65.1139 243.246 63.8045 243.881 62.4293C245.882 61.2117 248.097 60.346 250.428 59.9014C253.692 53.9751 254.865 48.6318 255.356 43.2071C255.36 43.1929 255.363 43.1799 255.367 43.1657C254.648 51.1901 252.451 59.0184 244.196 68.8269C233.561 81.4631 213.766 96.9131 172.55 103.838C160.116 105.927 145.733 107.24 129.065 107.466C104.379 107.801 85.1033 106.002 69.8222 102.992ZM255.81 33.4061L255.811 33.4048C255.812 33.3332 255.814 33.2615 255.816 33.1899C255.814 33.2615 255.812 33.3345 255.81 33.4061Z" fill="url(#paint0_radial)"/>
<path d="M49.1132 79.8016L48.9177 79.7525C48.122 79.556 47.3157 79.3446 46.4993 79.1838C46.379 79.1601 46.2597 79.1377 46.1389 79.1165C46.1423 78.9612 46.1591 78.793 46.1581 78.6394C46.1509 77.2615 45.0055 76.0943 43.5456 75.8067C43.3036 75.7591 43.0528 75.7351 42.7978 75.7395C41.6437 75.7553 40.7937 76.2345 40.2416 76.947C39.8353 76.5814 39.3352 76.3538 38.8001 76.2485C38.3606 76.1619 37.8993 76.1582 37.4471 76.2252C35.8916 74.484 35.0595 72.2296 32.43 71.7118C32.0415 71.6352 31.6141 71.5973 31.1401 71.6031C30.5209 71.6075 29.7152 71.8067 29.1815 72.0944L29.0351 72.1754L28.9212 72.2019L28.6205 72.3071C28.2512 71.3118 27.3235 70.6954 26.2835 70.4906C24.9217 70.2224 23.3676 70.661 22.6192 71.8736C22.4229 72.1939 22.2222 72.4957 22.0178 72.802C21.8823 72.8067 21.7467 72.8123 21.612 72.8198L21.3896 72.4797C20.8767 71.7168 20.1717 71.3009 19.4221 71.1532C18.6241 70.9961 17.7732 71.1422 17.0462 71.4938C16.195 69.6955 15.1544 67.9754 13.4892 66.6878C13.0132 66.317 12.5064 66.096 11.9975 65.9958C10.8946 65.7786 9.78721 66.13 8.98234 66.7598C8.83714 66.6277 8.71065 66.4833 8.55759 66.3635C7.58952 65.5587 6.41455 64.9834 5.18615 64.7414C5.11028 64.7265 5.03412 64.713 4.95904 64.7009C1.17922 56.6861 -0.0138523 47.9917 0.106898 40.9064C0.18133 42.1224 0.270778 43.2208 0.277796 43.7233C0.311658 46.1734 1.23621 48.5515 2.97133 50.8367C3.12437 51.0394 3.3048 51.1376 3.4971 51.1755C3.74566 51.2244 4.01666 51.1732 4.27588 51.1197C4.53522 51.0656 4.78266 51.0099 4.98936 51.0506C5.20391 51.0928 5.37247 51.2375 5.46243 51.5949C5.93072 53.4538 10.7126 55.256 11.4638 57.9897C11.5946 58.4709 12.0301 58.6681 12.5978 58.78C12.8673 58.833 13.1666 58.866 13.4773 58.9028C13.787 58.9383 14.1083 58.9766 14.4209 59.0382C15.3315 59.2175 16.1729 59.5955 16.4882 60.6996C17.1925 63.1747 21.541 64.6591 24.5747 65.7742C24.738 65.8349 24.8979 65.8786 25.0549 65.9095C26.2873 66.1522 27.356 65.5623 28.4722 64.9805C29.5868 64.3996 30.7501 63.8265 32.1695 64.1061C32.2846 64.1287 32.4013 64.1575 32.5196 64.1915C35.4335 65.0388 40.7473 67.224 42.6985 69.4471C42.8729 69.5 43.06 69.5438 43.2575 69.5827C44.2505 69.7783 45.5264 69.8272 46.8913 69.8933C48.2562 69.9599 49.7087 70.0437 51.0575 70.3094C52.4978 70.593 53.8172 71.0838 54.7787 71.9839C58.2908 72.6226 60.437 70.5365 62.8152 70.895C62.9063 70.9087 62.9997 70.9244 63.0926 70.9427C64.4688 71.2137 66.0212 71.984 67.5917 72.7594C69.1623 73.5337 70.7514 74.3112 72.2008 74.5967C72.3578 74.6276 72.5145 74.6532 72.6683 74.6728C73.2365 74.7411 73.7578 74.8264 74.2445 74.9222C75.4899 75.1675 76.5143 75.486 77.5282 75.8025C78.5406 76.1202 79.5427 76.4344 80.7424 76.6707C81.369 76.7941 82.0487 76.8966 82.8138 76.9656C85.5735 77.2156 91.1294 78.4202 91.296 74.2971C91.4327 74.3065 91.565 74.3246 91.6945 74.3501C92.6521 74.5387 93.4547 75.1421 94.4102 75.7762C95.3655 76.4113 96.4753 77.0757 98.0478 77.3854C99.424 77.6565 101.156 77.6552 103.451 77.1231C105.544 76.6371 109.166 74.2972 110.905 74.6396C111.317 74.7207 111.622 74.9517 111.778 75.3944C112.401 77.1737 114.52 78.4824 117.008 78.9725C119.572 79.4775 122.529 79.1128 124.641 77.4983C125.616 76.7634 129.755 76.3285 131.042 76.3144C131.601 76.3061 132.042 76.3495 132.415 76.423C132.904 76.5193 133.276 76.6658 133.645 76.8124C134.015 76.9584 134.38 77.1036 134.857 77.1974C135.235 77.2718 135.683 77.3139 136.258 77.2967C138.591 77.2263 138.017 74.818 140.314 74.713C141.232 74.6707 142.417 74.8431 143.703 75.0964C144.498 75.253 145.332 75.4407 146.166 75.6293C147 75.8164 147.834 76.004 148.63 76.1607C149.964 76.4235 151.19 76.598 152.12 76.5381C154.819 76.3603 158.239 73.5739 160.875 73.3543C161.414 73.3081 161.863 73.3382 162.27 73.4183C162.909 73.544 163.443 73.7921 164.061 74.055C164.679 74.3179 165.381 74.5974 166.352 74.7886C168.056 75.1243 170.592 75.1873 174.968 74.4121C177.266 73.9988 177.729 70.7634 179.977 70.4438C180.928 70.3104 182.099 70.4364 183.365 70.6858C184.541 70.9174 185.8 71.255 187.038 71.5897C188.278 71.9238 189.5 72.2556 190.602 72.4725C192.888 72.9229 194.662 72.882 195.02 71.3655C195.559 69.0918 204.128 72.7663 202.351 69.9173C201.812 69.053 202.429 68.2111 203.611 67.5086C205.204 68.2518 206.786 69.0484 208.394 69.8243C211.338 69.1105 214.347 68.702 217.404 68.7423C218.469 68.7568 219.578 68.8013 220.699 68.8684C223.528 66.5841 227.015 65.1086 231.138 64.8039C232.844 64.6766 234.614 64.7964 236.362 65.1406C237.427 65.3503 238.484 65.6428 239.513 66.0153C240.797 64.6158 242.27 63.4084 243.881 62.4293C243.246 63.8045 242.677 65.1139 240.64 65.9496C237.911 67.0658 236.536 68.2314 235.081 70.5512C234.48 71.5009 234.228 72.2315 234.142 72.7551L234.005 72.5259C233.617 71.9658 232.968 71.3136 232.322 70.9851C231.591 70.6183 230.772 70.3604 229.897 70.188C226.32 69.4836 221.819 70.2087 218.661 70.7757C216.945 71.0859 215.046 72.0124 214.158 73.4004C213.618 74.2478 214.386 76.8696 214.004 78.4293C213.187 77.8338 212.15 77.5058 210.996 77.2786C210.219 77.1255 209.389 77.0179 208.539 76.9071C207.688 76.7954 206.818 76.6813 205.958 76.512C205.638 76.4489 205.319 76.3782 205.003 76.2969C204.92 76.2763 204.84 76.2577 204.759 76.2418C202.306 75.7587 200.785 77.6716 201.007 79.5197C198.748 80.1802 196.248 80.5434 194.066 80.1136C193.162 79.9356 192.314 79.622 191.56 79.1365C191.275 78.9524 190.966 78.8332 190.644 78.7698C189.285 78.5021 187.717 79.2307 187.034 80.2521C186.078 81.6825 182.099 83.1261 181.027 82.9151C181.021 82.9138 181.013 82.9122 181.006 82.9109C180.934 82.894 180.861 82.878 180.789 82.8639C177.039 82.1254 173.506 84.7222 169.777 85.5751C168.712 83.5228 166.921 82.1944 164.393 81.6966C163.391 81.4992 162.274 81.4325 161.04 81.5021C155.384 81.8178 147.089 88.154 141.768 87.1061C141.45 87.0435 141.142 86.9546 140.845 86.8363C139.574 86.3281 138.423 85.9298 137.269 85.7026C135.693 85.3921 134.112 85.4003 132.218 85.8765C130.96 86.1899 129.777 86.9894 128.705 87.6075C127.363 88.3788 126.243 88.525 125.18 88.3158C123.991 88.0816 122.872 87.4004 121.591 86.6495C120.362 85.9305 118.968 85.4503 117.47 85.1553C111.719 84.0227 104.467 85.6187 99.4895 86.8598C98.7265 87.0493 98.1622 87.4302 97.773 87.9094C97.5874 87.7614 97.414 87.593 97.2695 87.3607C96.7751 86.6761 95.9255 86.1876 95.0163 86.0086C93.9514 85.7988 92.8044 86.0135 92.05 86.8353C91.9132 86.8397 91.7742 86.842 91.6369 86.842C91.463 86.7729 91.2876 86.7043 91.1122 86.6358C90.6717 86.0431 89.9918 85.673 89.2435 85.5257C88.8772 85.4535 88.4936 85.4348 88.1127 85.4712C86.0523 84.7134 83.9765 84.0546 81.8664 83.639C79.6647 83.2053 77.4255 83.0378 75.1278 83.2987C74.6258 82.4317 73.7929 81.9417 72.8902 81.7639C71.2065 81.4323 69.2823 82.184 68.8195 83.5957L68.4818 83.544L68.371 83.4925C68.3749 83.4933 68.3775 83.4938 68.3801 83.4943C68.4508 83.5082 68.0324 83.2454 67.9276 83.17L67.8349 83.0403L67.7121 82.8844L67.6382 82.666L67.569 82.4931L67.5677 82.2514L67.5528 82.0579C67.5744 82.0308 67.6063 81.9585 67.6544 81.7833C68.186 79.8845 66.751 78.5732 65.0896 78.246C63.5146 77.9358 61.7355 78.5096 61.2355 80.303C61.0868 80.8305 61.0151 81.3669 60.9977 81.8965C60.986 81.8941 60.974 81.8929 60.9635 81.8908C60.5475 81.8089 60.1742 81.5724 60.0136 81.201C59.5953 80.2476 58.7485 79.586 57.7882 79.2939C57.5396 78.2241 56.5126 77.5043 55.33 77.2714C54.1945 77.0478 52.9145 77.275 52.0478 78.0805C50.8279 78.1402 49.6338 78.7177 49.1132 79.8016ZM255.811 33.4048C255.811 33.3329 255.813 33.2626 255.816 33.1899L255.743 33.1687L255.743 33.1674C255.768 33.1749 255.793 33.1826 255.816 33.1899C255.814 33.2615 255.813 33.3332 255.811 33.4048Z" fill="url(#paint1_radial)"/>
<path d="M255.66 33.7842C255.923 53.3708 198.952 70.0318 128.403 70.9854C57.8594 71.942 0.456646 56.8357 0.188661 37.2481C-0.0757037 17.6559 56.8979 1.00071 127.445 0.0429305C197.99 -0.91249 255.391 14.195 255.66 33.7842Z" fill="#FACE76"/>
<path d="M128.391 70.0056C127.211 70.0207 125.99 69.5058 124.803 68.9958C123.115 68.2706 121.494 67.56 120.148 68.4039C115.978 71.0166 106.334 69.6732 103.325 68.1387C99.31 66.0979 94.7833 69.3618 90.3421 69.0662C88.2887 68.9283 86.6755 68.3631 85.0691 67.7978C83.5833 67.2759 82.1051 66.7565 80.2913 66.5755C77.7056 66.3247 73.6181 67.5799 71.121 67.2729C69.4461 67.0694 67.6594 66.3087 65.8993 65.5511C64.2427 64.8406 62.6111 64.1344 61.1146 63.9012C58.8381 63.5505 57.1062 65.2303 54.9271 64.8267C52.63 64.4014 50.688 64.5466 48.5041 64.0713C46.3365 63.6024 43.9253 62.5213 41.8718 61.9974C39.429 61.3804 35.3123 58.7743 33.0432 58.0827C27.1874 56.303 23.6874 56.2375 19.1219 53.9783C16.6997 52.7808 15.4195 47.4337 12.6773 49.3372C9.25457 51.7154 6.10809 45.4114 3.92806 42.7218C2.27495 40.6826 1.0124 38.5303 0.178425 36.265C-0.267211 37.4927 0.260173 42.467 0.277745 43.7233C0.311608 46.1734 1.23615 48.5515 2.97128 50.8367C3.32388 51.3027 3.81544 51.2148 4.27583 51.1197C4.80296 51.01 5.28558 50.8917 5.46237 51.5949C5.93067 53.4537 10.7125 55.256 11.4638 57.9896C11.6567 58.7007 12.5155 58.7908 13.4773 58.9027C14.6889 59.0436 16.0656 59.2156 16.4881 60.6996C17.1925 63.1746 21.5409 64.659 24.5746 65.7741C26.0155 66.3036 27.2137 65.6362 28.4721 64.9804C29.6776 64.3521 30.9382 63.7335 32.5196 64.1914C35.4334 65.0387 40.7473 67.224 42.6985 69.447C43.7444 69.7602 45.253 69.8143 46.8913 69.8932C49.7139 70.0309 52.9173 70.243 54.7786 71.9839C58.2908 72.6226 60.437 70.5365 62.8152 70.895C64.2582 71.1097 65.9146 71.9317 67.5916 72.7593C69.3332 73.6178 71.0972 74.4801 72.6682 74.6728C74.6872 74.9165 76.1175 75.3616 77.5282 75.8024C79.0692 76.2854 80.5845 76.7616 82.8137 76.9656C85.5734 77.2156 91.1294 78.4202 91.2959 74.297C92.4383 74.3755 93.3246 75.057 94.4101 75.7761C96.2033 76.9664 98.5353 78.2628 103.451 77.1231C106.04 76.523 110.968 73.0839 111.778 75.3944C113.044 79.0098 120.481 80.6783 124.64 77.4982C125.616 76.7633 129.755 76.3285 131.042 76.3144C132.333 76.2953 132.995 76.5547 133.645 76.8123C134.309 77.0746 134.961 77.3347 136.258 77.2967C138.591 77.2263 138.017 74.8179 140.314 74.713C141.799 74.6455 143.983 75.1366 146.166 75.6292C148.4 76.1319 150.636 76.6343 152.12 76.5381C154.818 76.3603 158.239 73.5739 160.875 73.3542C162.26 73.2353 163.049 73.6232 164.061 74.055C165.763 74.7799 168.098 75.6298 174.968 74.4121C177.266 73.9988 177.729 70.7634 179.977 70.4438C181.811 70.1855 184.465 70.8955 187.038 71.5897C190.853 72.618 194.489 73.6129 195.02 71.3654C195.559 69.0918 204.128 72.7663 202.351 69.9172C200.348 66.7082 214.288 63.8104 213.897 67.178C213.814 67.881 214.921 66.6827 216.135 65.5043C217.804 63.8844 219.677 62.3045 218.933 65.7714C218.605 67.3037 220.663 65.8049 222.928 64.3473C225.013 63.0036 227.274 61.6944 228.007 62.8226C230.151 66.1314 232.386 61.171 234.395 60.3069C237.554 58.9505 241.01 50.8619 242.921 56.0693C243.437 57.4673 244.676 55.673 246.06 53.907C247.232 52.4107 248.508 50.9335 249.534 51.4385C255.531 54.3917 252.176 48.9134 253.131 47.6163C254.88 45.2305 255.781 42.7688 255.747 40.2605C255.73 39.0014 256.122 34.0192 255.644 32.8039C255.063 34.7864 254.096 36.701 252.781 38.5525C251.096 40.9208 247.452 40.7984 245.611 43.6292C242.249 48.7807 239.095 44.6982 237.379 48.6478C236.436 50.8225 233.891 52.4603 231.29 53.5775C228.454 54.7868 222.889 54.4682 219.66 55.5539C216.22 56.7138 215.613 59.5716 211.765 60.5832C208.082 61.5551 203.64 61.5868 199.615 62.4163C197.375 62.8846 190.371 64.6987 188.035 65.115C185.238 65.6199 181.88 64.124 178.955 64.5609C174.043 65.3012 174.22 67.1139 168.975 67.6696C164.81 68.1126 160.173 66.4904 156.199 68.8105C152.239 71.13 145.725 69.8252 141.716 67.8179C137.887 65.9008 132.91 69.9418 128.391 70.0056Z" fill="#F3BA60"/>
<path d="M243.881 62.4293C244.304 61.511 244.757 60.5647 245.693 59.7108C246.927 58.5841 249.264 58.1026 251.517 57.7377C253.945 52.6674 254.91 47.9816 255.349 43.2288C255.352 43.2212 255.353 43.2133 255.356 43.207C254.865 48.6318 253.692 53.9751 250.428 59.9014C248.096 60.3459 245.882 61.2117 243.881 62.4293Z" fill="url(#paint2_radial)"/>
<path d="M208.394 69.8244C206.786 69.0484 205.204 68.2519 203.611 67.5087C205.845 66.1808 210.096 65.3492 212.374 65.7978C213.365 65.9931 213.983 66.4316 213.897 67.178C213.881 67.308 213.908 67.3733 213.966 67.3849C214.229 67.4367 215.147 66.4632 216.135 65.5043C217.123 64.5454 218.183 63.6002 218.728 63.7076C219.105 63.7818 219.236 64.3566 218.933 65.7715C218.847 66.1744 218.926 66.3678 219.129 66.4078C219.7 66.5203 221.258 65.422 222.928 64.3473C224.596 63.2719 226.379 62.2179 227.399 62.4189C227.653 62.4689 227.86 62.598 228.007 62.8227C228.448 63.5034 228.894 63.8343 229.34 63.9221C231.063 64.2615 232.801 60.9931 234.395 60.307C236.888 59.2365 239.566 53.9748 241.523 54.3602C242.046 54.4633 242.518 54.9707 242.921 56.0694C243.034 56.3742 243.181 56.5267 243.356 56.5613C243.985 56.6852 244.979 55.2883 246.06 53.9071C247.142 52.5261 248.311 51.1624 249.291 51.3554C249.373 51.3716 249.455 51.3999 249.534 51.4386C250.443 51.8867 251.139 52.1407 251.667 52.2445C254.613 52.8248 252.321 48.7164 253.131 47.6163C254.185 46.1795 254.93 44.7145 255.349 43.2288C254.91 47.9816 253.945 52.6675 251.517 57.7378C249.264 58.1027 246.927 58.5841 245.693 59.7108C244.757 60.5647 244.304 61.5111 243.881 62.4294C242.27 63.4084 240.797 64.6158 239.513 66.0153C238.484 65.6428 237.427 65.3503 236.362 65.1406C234.614 64.7964 232.844 64.6766 231.138 64.804C227.015 65.1087 223.528 66.5842 220.699 68.8685C219.578 68.8013 218.469 68.7568 217.404 68.7423C214.347 68.702 211.338 69.1105 208.394 69.8244Z" fill="url(#paint3_radial)"/>
<defs>
<radialGradient id="paint0_radial" cx="0" cy="0" r="1" gradientUnits="userSpaceOnUse" gradientTransform="translate(125.988 -42.0628) rotate(-0.776111) scale(198.864 176.526)">
<stop stop-color="#EF9F51"/>
<stop offset="0.799087" stop-color="#EF9F51"/>
<stop offset="1" stop-color="#E0621C"/>
</radialGradient>
<radialGradient id="paint1_radial" cx="0" cy="0" r="1" gradientUnits="userSpaceOnUse" gradientTransform="translate(125.988 -42.0628) rotate(-0.77611) scale(198.864 176.526)">
<stop stop-color="#DA873C"/>
<stop offset="0.799087" stop-color="#DA873C"/>
<stop offset="1" stop-color="#D36922"/>
</radialGradient>
<radialGradient id="paint2_radial" cx="0" cy="0" r="1" gradientUnits="userSpaceOnUse" gradientTransform="translate(125.988 -42.0628) rotate(-0.776096) scale(198.864 176.526)">
<stop stop-color="#D9843A"/>
<stop offset="1" stop-color="#DA873C"/>
</radialGradient>
<radialGradient id="paint3_radial" cx="0" cy="0" r="1" gradientUnits="userSpaceOnUse" gradientTransform="translate(125.988 -42.0627) rotate(-0.776111) scale(198.864 176.526)">
<stop stop-color="#DA873C"/>
<stop offset="1" stop-color="#DA873C"/>
</radialGradient>
</defs>
</svg>
