<svg width="50" height="52" viewBox="0 0 50 52" fill="none" xmlns="http://www.w3.org/2000/svg">
<path d="M48.1838 49.4582H46.363V47.1564H48.1836C48.8854 47.1564 49.4543 46.5875 49.4543 45.8857C49.4543 38.7958 44.0144 32.9523 37.0897 32.3091V30.1121C37.0897 29.4102 36.5208 28.8414 35.819 28.8414C35.1172 28.8414 34.5483 29.4102 34.5483 30.1121V32.3091C27.6234 32.9523 22.1836 38.7958 22.1836 45.8857C22.1836 46.5875 22.7525 47.1564 23.4544 47.1564H25.2749V49.4582H23.4544C22.7525 49.4582 22.1836 50.0271 22.1836 50.7289C22.1836 51.4307 22.7525 51.9996 23.4544 51.9996H26.5206C26.5372 52 26.5539 52 26.5705 51.9996H45.0674C45.0757 51.9997 45.0841 51.9999 45.0923 51.9999C45.1006 51.9999 45.109 51.9999 45.1172 51.9996H48.1838C48.8857 51.9996 49.4545 51.4307 49.4545 50.7289C49.4545 50.0271 48.8855 49.4582 48.1838 49.4582ZM43.8215 49.4582H27.8161V47.1564H43.8215V49.4582ZM24.7972 44.6152C25.4298 39.0943 30.1314 34.7919 35.8188 34.7919C41.5063 34.7919 46.2079 39.0943 46.8404 44.6152H24.7972ZM15.7263 12.3647C11.9926 12.3647 9.06779 14.5007 9.06779 17.2273C9.06779 19.9539 11.9926 22.0897 15.7263 22.0897C19.46 22.0897 22.3847 19.9539 22.3847 17.2273C22.3847 14.5005 19.46 12.3647 15.7263 12.3647ZM15.7263 19.5482C13.3 19.5482 11.6092 18.3251 11.6092 17.2272C11.6092 16.1293 13.3 14.906 15.7263 14.906C18.1525 14.906 19.8433 16.1293 19.8433 17.2272C19.8433 18.325 18.1525 19.5482 15.7263 19.5482ZM18.7192 49.4585H3.08682V8.72365H28.3658V29.8835C28.3658 30.5853 28.9347 31.1542 29.6365 31.1542C30.3383 31.1542 30.9072 30.5853 30.9072 29.8835V7.45294C30.9072 6.75113 30.3383 6.18223 29.6365 6.18223H29.0391V1.27069C29.0391 0.907526 28.8837 0.561639 28.6122 0.320459C28.3406 0.0794058 27.9788 -0.0339413 27.6182 0.0088815L1.66579 3.10013C1.02663 3.17625 0.54541 3.7182 0.54541 4.36194V50.7292C0.54541 51.431 1.11431 51.9999 1.81612 51.9999H18.7192C19.421 51.9999 19.9899 51.431 19.9899 50.7292C19.9899 50.0273 19.421 49.4585 18.7192 49.4585ZM3.08682 5.4902L26.4977 2.70176V6.18236H3.08682V5.4902ZM13.5863 45.8176C12.8845 45.8176 12.3156 45.2487 12.3156 44.5469C12.3156 43.8451 12.8845 43.2762 13.5863 43.2762H17.8662C18.568 43.2762 19.1369 43.8451 19.1369 44.5469C19.1369 45.2487 18.568 45.8176 17.8662 45.8176H13.5863Z" fill="#F49521"/>
</svg>
