<svg width="32" height="31" viewBox="0 0 32 31" fill="none" xmlns="http://www.w3.org/2000/svg">
<path d="M31.8154 5.74413C31.6322 5.48161 31.3374 5.31933 31.0172 5.30565L11.1673 4.45003C10.5978 4.42511 10.1219 4.86481 10.0975 5.43169C10.0733 5.99836 10.5123 6.47716 11.0791 6.5015L29.5852 7.29926L25.9465 18.6522H9.75392L6.8285 2.72347C6.7642 2.37436 6.52451 2.08311 6.19395 1.95343L1.40261 0.0711037C0.874538 -0.13564 0.278655 0.123738 0.0712664 0.651161C-0.135764 1.17887 0.123543 1.77511 0.651324 1.9825L4.91159 3.65614L7.88865 19.8644C7.97838 20.3517 8.40304 20.7056 8.89866 20.7056H9.3925L8.26483 23.8379C8.17044 24.1003 8.20933 24.3917 8.36995 24.6196C8.53036 24.8476 8.79125 24.9833 9.06974 24.9833H9.8607C9.37059 25.5287 9.06974 26.2469 9.06974 27.0367C9.06974 28.7352 10.4518 30.1169 12.1499 30.1169C13.8481 30.1169 15.2301 28.7352 15.2301 27.0367C15.2301 26.247 14.9293 25.5287 14.4392 24.9833H21.1548C20.6644 25.5287 20.3637 26.2469 20.3637 27.0367C20.3637 28.7352 21.7454 30.1169 23.4438 30.1169C25.1424 30.1169 26.524 28.7352 26.524 27.0367C26.524 26.247 26.2233 25.5287 25.7333 24.9833H26.6952C27.1678 24.9833 27.5508 24.6002 27.5508 24.1277C27.5508 23.6551 27.1677 23.2721 26.6952 23.2721H10.2871L11.2111 20.7053H26.6951C27.1416 20.7053 27.5367 20.4169 27.6727 19.9921L31.9507 6.64451C32.049 6.33988 31.9985 6.00681 31.8154 5.74413ZM12.15 28.406C11.395 28.406 10.781 27.7921 10.781 27.0371C10.781 26.2821 11.395 25.6681 12.15 25.6681C12.905 25.6681 13.5189 26.2821 13.5189 27.0371C13.5189 27.7921 12.905 28.406 12.15 28.406ZM23.4438 28.406C22.6888 28.406 22.0749 27.7921 22.0749 27.0371C22.0749 26.2821 22.6888 25.6681 23.4438 25.6681C24.1989 25.6681 24.8128 26.2821 24.8128 27.0371C24.8128 27.7921 24.1989 28.406 23.4438 28.406Z" fill="#F7F7F6"/>
</svg>
