<svg width="267" height="112" viewBox="0 0 267 112" fill="none" xmlns="http://www.w3.org/2000/svg">
<path d="M5.20519 52.9931C-10.2401 49.8131 9.13986 22.0651 62.4625 28.2745C111.145 31.2345 138.772 15.7225 153.961 7.50913C169.277 -1.56154 172.157 -3.33487 174.247 7.32513C175.839 17.4611 193.424 16.2638 218.34 15.0665C230.808 14.4678 245.112 13.8678 260.165 14.6891C276.704 13.6238 260.064 26.7678 230.981 40.7731C202.357 55.9185 161.287 71.9238 139.553 102.893C126.993 121.738 116.196 106.3 96.2252 90.0825C76.5265 73.1411 47.6545 55.4185 5.20519 52.9931" fill="#F1B416"/>
<path d="M8.74915 49.7838C2.04382 48.7745 1.93048 43.3638 7.00648 37.7531C-1.49352 44.0398 -2.45886 52.2411 5.20514 52.9931C47.6545 55.4185 76.5265 73.1411 96.2252 90.0825C116.196 106.3 126.993 121.738 139.553 102.893C140.05 102.142 140.566 101.414 141.085 100.688C127.782 117.888 117.276 103.393 97.9411 87.9425C78.8638 71.7651 50.9571 54.6318 8.74915 49.7838" fill="#FAE452"/>
<path d="M143.58 97.3158L143.453 97.4971C165.105 70.9851 201.442 56.3291 228.149 42.2878C255.216 29.1518 272.65 16.6291 264.885 15.3105C258.937 22.3758 236.336 36.1438 210.617 48.8478C185.117 62.3371 156.5 74.7611 143.58 97.3158" fill="#FAE452"/>
<path d="M13.0571 36.9385C19.9825 33.6038 40.5825 28.1865 43.7731 31.7531C45.3211 34.0398 25.6958 35.6505 25.7545 36.7838C25.7211 38.1931 27.1305 39.5878 29.5478 40.1145C31.9505 40.6891 39.4611 39.9785 37.9411 41.4811C36.7785 42.5131 20.5171 46.2091 47.9398 53.4971C51.0851 56.7105 28.9611 49.7145 20.3091 48.9011C11.2985 48.4025 21.4398 47.5171 24.1171 45.8411C25.3785 45.0998 22.6171 45.2731 19.3531 45.4465C16.5051 45.5985 13.2745 45.7505 11.9985 45.2945C9.21714 44.4198 13.8105 43.1331 17.0078 42.3558C20.0238 41.6171 16.7251 39.5931 13.1905 39.6771C9.66513 39.7425 9.70513 38.6771 13.0571 36.9385Z" fill="#F9D136"/>
<path d="M113.8 91.5238C106.973 95.3238 125.092 106.788 129.86 105.35C134.377 102.888 151.889 72.1451 204.753 50.0958C243.019 30.7305 224.885 34.6625 218.723 37.5318C172.541 55.3945 127.459 84.1478 113.8 91.5238" fill="#FAC222"/>
<path d="M103.506 30.0132C127.945 26.8305 160.664 6.59849 166.813 2.97049C171.336 0.629161 166.029 5.79983 160.948 8.80516C134.758 23.6158 160.997 12.2945 165.337 11.5385C168.101 10.6852 143.172 27.7492 103.506 30.0132" fill="#F9D136"/>
</svg>
