<svg width="28" height="28" viewBox="0 0 28 28" fill="none" xmlns="http://www.w3.org/2000/svg">
<path d="M27.0537 5.51503L18.5698 13.9998L27.0537 22.4842C28.3157 23.7466 28.3157 25.7915 27.0537 27.054C26.4232 27.6845 25.5965 28 24.7703 28C23.9427 28 23.1159 27.685 22.4859 27.054L14.0001 18.5686L5.51503 27.0539C4.88459 27.6844 4.05785 27.9999 3.23086 27.9999C2.40412 27.9999 1.57794 27.6849 0.946935 27.0539C-0.315002 25.792 -0.315002 23.747 0.946935 22.4841L9.43058 13.9997L0.946452 5.51503C-0.315484 4.2531 -0.315484 2.20767 0.946452 0.945729C2.20815 -0.315243 4.25237 -0.315243 5.51455 0.945729L14 9.4305L22.4849 0.945729C23.7473 -0.315243 25.7918 -0.315243 27.0532 0.945729C28.3157 2.20767 28.3157 4.2531 27.0537 5.51503Z" fill="#F7F7F6"/>
</svg>
