<svg width="26" height="17" viewBox="0 0 26 17" fill="none" xmlns="http://www.w3.org/2000/svg">
<path d="M24.006 7.2283H3.80456L8.62491 2.40763C9.0472 1.98559 9.0472 1.30096 8.62491 0.878976C8.20261 0.456683 7.51798 0.456683 7.09631 0.878976L0.43052 7.54489C0.00822673 7.96693 0.00822673 8.65163 0.43052 9.07355L7.09631 15.7398C7.3074 15.951 7.58403 16.0564 7.86061 16.0564C8.13719 16.0564 8.41382 15.951 8.62491 15.7398C9.0472 15.3177 9.0472 14.6331 8.62491 14.2112L3.80456 9.39027H24.006C24.6029 9.39027 25.087 8.90623 25.087 8.30925C25.087 7.71227 24.603 7.2283 24.006 7.2283Z" fill="#F49521"/>
</svg>
