<svg width="245" height="50" viewBox="0 0 245 50" fill="none" xmlns="http://www.w3.org/2000/svg">
<path d="M95.1379 17.1035C94.9909 21.4437 89.7675 24.0738 86.4921 25.5938C82.4574 27.4729 78.0405 28.3977 73.6708 29.0845C64.9029 30.4625 56.0284 30.849 47.1684 30.5488C20.9577 29.6608 -0.0625354 22.2024 0.21867 13.8869C0.501382 5.57524 21.9784 -0.443909 48.1886 0.442884C74.3986 1.33265 95.4169 8.79328 95.1379 17.1035Z" fill="#C5F37C"/>
<path d="M48.1645 1.16944C74.0058 2.0479 94.7887 9.31202 95.1007 17.4827L95.1379 17.1034C95.4169 8.79325 74.3986 1.33262 48.1887 0.442853C21.9785 -0.443939 0.5014 5.57521 0.218689 13.8869L0.235101 14.253C1.12349 6.12834 22.3379 0.295102 48.1645 1.16944Z" fill="#4A9E00"/>
<path d="M94.6111 14.678C94.0972 18.7212 89.1624 21.208 86.0152 22.6716C81.977 24.5492 77.5624 25.476 73.1946 26.1606C64.426 27.5403 55.552 27.928 46.6921 27.6278C23.0702 26.8273 3.67293 20.6882 0.274643 13.3979C0.251789 13.5612 0.225457 13.723 0.218701 13.8869C-0.0625047 22.2024 20.9578 29.6608 47.1685 30.5488C56.0285 30.849 64.9029 30.4625 73.6708 29.0845C78.0405 28.3977 82.4574 27.4729 86.4921 25.5938C89.7675 24.0738 94.9909 21.4437 95.1379 17.1035C95.1661 16.2875 94.9803 15.4764 94.6111 14.678Z" fill="#98D54F"/>
<path d="M76.0161 16.457C75.9279 19.0476 72.809 20.6163 70.8556 21.5255C68.4431 22.6473 65.8093 23.1998 63.2012 23.6067C57.9639 24.4288 52.6664 24.6638 47.373 24.484C31.7253 23.9537 19.1748 19.5002 19.3429 14.5354C19.5106 9.57359 32.3346 5.97964 47.984 6.51066C63.6347 7.04118 76.1829 11.4927 76.0161 16.457Z" fill="#BAE34C"/>
<path d="M86.4921 25.5938C82.4574 27.4729 78.0405 28.3977 73.6708 29.0845C64.9029 30.4625 56.0285 30.849 47.1685 30.5488C20.9578 29.6608 -0.0625048 22.2024 0.218701 13.8869L0.00280858 20.2918C-0.279401 28.6047 20.7409 36.0631 46.9511 36.9499C55.8108 37.2531 64.6848 36.8654 73.4561 35.4888C77.8234 34.803 82.2381 33.8763 86.2767 31.9999C89.5518 30.4756 94.7745 27.8473 94.9221 23.5083L95.1379 17.1035C94.9909 21.4437 89.7675 24.0738 86.4921 25.5938Z" fill="#4A9E00"/>
<path d="M15.3148 32.0022C22.2616 34.2489 31.1304 35.8984 40.9708 36.6276L41.1882 30.2265C31.3485 29.4955 22.4793 27.8448 15.5305 25.6004L15.3148 32.0022Z" fill="#4DB034"/>
<path d="M74.4765 35.3187C77.9048 34.7483 81.337 33.9964 84.5771 32.7225L84.7922 26.3194C81.5521 27.5933 78.1192 28.347 74.6922 28.9168L74.4765 35.3187Z" fill="#6DBF31"/>
<path d="M59.9758 10.1564C59.773 10.2029 53.9946 13.9566 52.3763 10.2131C50.7593 6.4691 59.9758 10.1564 59.9758 10.1564Z" fill="#ADDA2B"/>
<path d="M53.8717 21.6277C53.6704 21.6706 47.8915 25.4304 46.2752 21.6846C44.656 17.9386 53.8717 21.6277 53.8717 21.6277Z" fill="#ADDA2B"/>
<path d="M62.6415 10.4861C62.5541 10.6498 57.248 14.9211 61.0641 17.0716C64.8825 19.2241 62.6415 10.4861 62.6415 10.4861Z" fill="#ADDA2B"/>
<path d="M58.2714 16.2668C58.1802 16.4319 52.8754 20.7028 56.6927 22.8528C60.5099 25.0058 58.2714 16.2668 58.2714 16.2668Z" fill="#ADDA2B"/>
<path d="M34.3618 8.57672C34.2868 8.74971 34.4865 15.1324 30.1145 14.139C25.7399 13.1496 34.3618 8.57672 34.3618 8.57672Z" fill="#ADDA2B"/>
<path d="M32.861 14.9009C32.7884 15.0728 32.9866 21.4519 28.6149 20.4627C24.24 19.4691 32.861 14.9009 32.861 14.9009Z" fill="#ADDA2B"/>
<path d="M41.7551 8.12598C41.8595 8.29079 42.7987 14.6233 46.9458 13.0914C51.0954 11.5585 41.7551 8.12598 41.7551 8.12598Z" fill="#ADDA2B"/>
<path d="M69.1326 13.3181C69.233 13.4803 70.1747 19.8118 74.3199 18.2821C78.4689 16.748 69.1326 13.3181 69.1326 13.3181Z" fill="#ADDA2B"/>
<path d="M62.628 21.2906C62.7316 21.1348 63.8514 14.8361 67.9539 16.519C72.0556 18.2037 62.628 21.2906 62.628 21.2906Z" fill="#ADDA2B"/>
<path d="M46.5153 18.1471C46.6209 17.989 47.7404 11.6933 51.8419 13.3737C55.9441 15.0597 46.5153 18.1471 46.5153 18.1471Z" fill="#ADDA2B"/>
<path d="M42.2743 21.5191C42.0854 21.4333 37.2702 16.6621 34.8516 20.0172C32.4311 23.3746 42.2743 21.5191 42.2743 21.5191Z" fill="#ADDA2B"/>
<path d="M43.0569 18.1367C42.9157 17.9984 40.4019 12.0023 36.7566 14.3189C33.1065 16.6448 43.0569 18.1367 43.0569 18.1367Z" fill="#ADDA2B"/>
<path d="M59.2088 9.42757C59.0053 9.47576 53.2292 13.2315 51.6129 9.48574C49.9941 5.74099 59.2088 9.42757 59.2088 9.42757Z" fill="#D6F781"/>
<path d="M53.1052 20.9001C52.9042 20.9472 47.1275 24.7018 45.5075 20.9575C43.8925 17.2112 53.1052 20.9001 53.1052 20.9001Z" fill="#D6F781"/>
<path d="M61.8776 9.75751C61.7857 9.92441 56.4821 14.1948 60.2987 16.3465C64.1173 18.4961 61.8776 9.75751 61.8776 9.75751Z" fill="#D6F781"/>
<path d="M57.5042 15.5409C57.414 15.7085 52.1107 19.9759 55.9273 22.1277C59.7457 24.2802 57.5042 15.5409 57.5042 15.5409Z" fill="#D6F781"/>
<path d="M33.5942 7.8496C33.5204 8.0221 33.7208 14.403 29.3486 13.4127C24.973 12.4208 33.5942 7.8496 33.5942 7.8496Z" fill="#D6F781"/>
<path d="M32.0958 14.1727C32.0249 14.3455 32.2199 20.7272 27.8485 19.7351C23.4753 18.7422 32.0958 14.1727 32.0958 14.1727Z" fill="#D6F781"/>
<path d="M40.9914 7.4016C41.0928 7.56618 42.0325 13.8999 46.1809 12.3675C50.3294 10.8322 40.9914 7.4016 40.9914 7.4016Z" fill="#D6F781"/>
<path d="M68.3669 12.5888C68.4673 12.7509 69.4116 19.0886 73.5559 17.5535C77.706 16.0219 68.3669 12.5888 68.3669 12.5888Z" fill="#D6F781"/>
<path d="M61.8609 20.5647C61.9653 20.4072 63.0867 14.1092 67.188 15.7926C71.2892 17.4761 61.8609 20.5647 61.8609 20.5647Z" fill="#D6F781"/>
<path d="M45.7507 17.4202C45.8575 17.2616 46.9752 10.9651 51.0752 12.6491C55.1802 14.331 45.7507 17.4202 45.7507 17.4202Z" fill="#D6F781"/>
<path d="M41.5086 20.7898C41.3217 20.7089 36.5054 15.9352 34.0874 19.2915C31.6656 22.6494 41.5086 20.7898 41.5086 20.7898Z" fill="#D6F781"/>
<path d="M42.2897 17.4109C42.1493 17.2708 39.636 11.2759 35.99 13.5943C32.3418 15.9179 42.2897 17.4109 42.2897 17.4109Z" fill="#D6F781"/>
<path d="M165.879 29.7473C165.732 34.0875 160.508 36.7176 157.233 38.2376C153.198 40.1167 148.781 41.0415 144.411 41.7283C135.644 43.1063 126.769 43.4928 117.909 43.1926C91.6985 42.3046 70.6782 34.8462 70.9594 26.5308C71.2421 18.2191 92.7192 12.1999 118.929 13.0867C145.139 13.9765 166.158 21.4371 165.879 29.7473Z" fill="#C5F37C"/>
<path d="M118.905 13.8133C144.746 14.6917 165.529 21.9559 165.841 30.1266L165.879 29.7473C166.158 21.4371 145.139 13.9764 118.929 13.0867C92.7192 12.1999 71.2421 18.219 70.9594 26.5307L70.9758 26.8969C71.8642 18.7722 93.0786 12.9389 118.905 13.8133Z" fill="#4A9E00"/>
<path d="M165.352 27.3218C164.838 31.365 159.903 33.8518 156.756 35.3154C152.718 37.1931 148.303 38.1198 143.935 38.8044C135.167 40.1841 126.293 40.5718 117.433 40.2717C93.8109 39.4711 74.4137 33.332 71.0154 26.0417C70.9925 26.205 70.9662 26.3668 70.9594 26.5308C70.6782 34.8462 91.6985 42.3046 117.909 43.1926C126.769 43.4928 135.644 43.1063 144.412 41.7283C148.781 41.0415 153.198 40.1167 157.233 38.2376C160.508 36.7176 165.732 34.0875 165.879 29.7473C165.907 28.9313 165.721 28.1203 165.352 27.3218Z" fill="#98D54F"/>
<path d="M146.757 29.1008C146.669 31.6914 143.55 33.2601 141.596 34.1693C139.184 35.2911 136.55 35.8437 133.942 36.2505C128.705 37.0727 123.407 37.3076 118.114 37.1278C102.466 36.5975 89.9156 32.144 90.0836 27.1792C90.2514 22.2174 103.075 18.6235 118.725 19.1545C134.375 19.685 146.924 24.1365 146.757 29.1008Z" fill="#BAE34C"/>
<path d="M157.233 38.2376C153.198 40.1167 148.781 41.0415 144.412 41.7283C135.644 43.1063 126.769 43.4928 117.909 43.1926C91.6985 42.3046 70.6782 34.8462 70.9594 26.5308L70.7435 32.9356C70.4613 41.2486 91.4816 48.7069 117.692 49.5937C126.552 49.8969 135.425 49.5092 144.197 48.1326C148.564 47.4468 152.979 46.5201 157.017 44.6437C160.293 43.1195 165.515 40.4911 165.663 36.1521L165.879 29.7473C165.732 34.0875 160.508 36.7176 157.233 38.2376Z" fill="#4A9E00"/>
<path d="M86.0555 44.6461C93.0023 46.8927 101.871 48.5422 111.712 49.2715L111.929 42.8703C102.089 42.1394 93.22 40.4886 86.2712 38.2442L86.0555 44.6461Z" fill="#4DB034"/>
<path d="M145.217 47.9625C148.646 47.3921 152.078 46.6403 155.318 45.3663L155.533 38.9632C152.293 40.2372 148.86 40.9908 145.433 41.5606L145.217 47.9625Z" fill="#6DBF31"/>
<path d="M130.717 22.8002C130.514 22.8467 124.735 26.6005 123.117 22.857C121.5 19.1129 130.717 22.8002 130.717 22.8002Z" fill="#ADDA2B"/>
<path d="M124.612 34.2715C124.411 34.3145 118.632 38.0742 117.016 34.3284C115.397 30.5824 124.612 34.2715 124.612 34.2715Z" fill="#ADDA2B"/>
<path d="M133.382 23.1299C133.295 23.2936 127.989 27.5649 131.805 29.7155C135.623 31.868 133.382 23.1299 133.382 23.1299Z" fill="#ADDA2B"/>
<path d="M129.012 28.9106C128.921 29.0758 123.616 33.3466 127.433 35.4966C131.251 37.6496 129.012 28.9106 129.012 28.9106Z" fill="#ADDA2B"/>
<path d="M105.103 21.2205C105.028 21.3935 105.227 27.7762 100.855 26.7829C96.4806 25.7935 105.103 21.2205 105.103 21.2205Z" fill="#ADDA2B"/>
<path d="M103.602 27.5447C103.529 27.7167 103.727 34.0957 99.3556 33.1065C94.9807 32.1129 103.602 27.5447 103.602 27.5447Z" fill="#ADDA2B"/>
<path d="M112.496 20.7698C112.6 20.9346 113.539 27.2671 117.687 25.7352C121.836 24.2024 112.496 20.7698 112.496 20.7698Z" fill="#ADDA2B"/>
<path d="M139.873 25.962C139.974 26.1241 140.915 32.4556 145.061 30.926C149.21 29.3919 139.873 25.962 139.873 25.962Z" fill="#ADDA2B"/>
<path d="M133.369 33.9345C133.472 33.7786 134.592 27.4799 138.695 29.1629C142.796 30.8476 133.369 33.9345 133.369 33.9345Z" fill="#ADDA2B"/>
<path d="M117.256 30.7909C117.362 30.6328 118.481 24.3371 122.583 26.0176C126.685 27.7035 117.256 30.7909 117.256 30.7909Z" fill="#ADDA2B"/>
<path d="M113.015 34.1629C112.826 34.0771 108.011 29.3059 105.592 32.661C103.172 36.0184 113.015 34.1629 113.015 34.1629Z" fill="#ADDA2B"/>
<path d="M113.798 30.7806C113.656 30.6422 111.143 24.6461 107.497 26.9628C103.847 29.2886 113.798 30.7806 113.798 30.7806Z" fill="#ADDA2B"/>
<path d="M129.95 22.0714C129.746 22.1196 123.97 25.8753 122.354 22.1296C120.735 18.3848 129.95 22.0714 129.95 22.0714Z" fill="#D6F781"/>
<path d="M123.846 33.5439C123.645 33.5911 117.868 37.3456 116.248 33.6013C114.633 29.8551 123.846 33.5439 123.846 33.5439Z" fill="#D6F781"/>
<path d="M132.618 22.4013C132.526 22.5682 127.223 26.8386 131.039 28.9904C134.858 31.1399 132.618 22.4013 132.618 22.4013Z" fill="#D6F781"/>
<path d="M128.245 28.1847C128.155 28.3524 122.851 32.6197 126.668 34.7715C130.486 36.924 128.245 28.1847 128.245 28.1847Z" fill="#D6F781"/>
<path d="M104.335 20.4934C104.261 20.6659 104.462 27.0469 100.089 26.0565C95.7137 25.0646 104.335 20.4934 104.335 20.4934Z" fill="#D6F781"/>
<path d="M102.836 26.8166C102.766 26.9893 102.961 33.371 98.5892 32.3789C94.216 31.386 102.836 26.8166 102.836 26.8166Z" fill="#D6F781"/>
<path d="M111.732 20.0454C111.834 20.21 112.773 26.5437 116.922 25.0114C121.07 23.476 111.732 20.0454 111.732 20.0454Z" fill="#D6F781"/>
<path d="M139.108 25.2326C139.208 25.3947 140.152 31.7324 144.297 30.1973C148.447 28.6657 139.108 25.2326 139.108 25.2326Z" fill="#D6F781"/>
<path d="M132.602 33.2086C132.706 33.051 133.827 26.753 137.929 28.4365C142.03 30.1199 132.602 33.2086 132.602 33.2086Z" fill="#D6F781"/>
<path d="M116.491 30.064C116.598 29.9055 117.716 23.609 121.816 25.2929C125.921 26.9749 116.491 30.064 116.491 30.064Z" fill="#D6F781"/>
<path d="M112.249 33.4336C112.062 33.3527 107.246 28.579 104.828 31.9354C102.406 35.2932 112.249 33.4336 112.249 33.4336Z" fill="#D6F781"/>
<path d="M113.03 30.0547C112.89 29.9146 110.377 23.9197 106.731 26.2381C103.082 28.5617 113.03 30.0547 113.03 30.0547Z" fill="#D6F781"/>
<path d="M149.744 16.7473C149.891 21.0875 155.114 23.7176 158.389 25.2376C162.424 27.1167 166.841 28.0415 171.211 28.7283C179.979 30.1063 188.853 30.4928 197.713 30.1926C223.924 29.3046 244.944 21.8462 244.663 13.5308C244.38 5.21907 222.903 -0.800079 196.693 0.0867134C170.483 0.976479 149.465 8.43711 149.744 16.7473Z" fill="#C5F37C"/>
<path d="M196.717 0.813266C170.876 1.69173 150.093 8.95585 149.781 17.1266L149.744 16.7473C149.465 8.43708 170.483 0.976448 196.693 0.0866828C222.903 -0.80011 244.38 5.21904 244.663 13.5307L244.646 13.8969C243.758 5.77217 222.544 -0.0610686 196.717 0.813266Z" fill="#4A9E00"/>
<path d="M150.27 14.3218C150.784 18.365 155.719 20.8518 158.866 22.3154C162.904 24.1931 167.319 25.1198 171.687 25.8044C180.455 27.1841 189.329 27.5718 198.189 27.2717C221.811 26.4711 241.209 20.332 244.607 13.0417C244.63 13.205 244.656 13.3668 244.663 13.5308C244.944 21.8462 223.924 29.3046 197.713 30.1926C188.853 30.4928 179.979 30.1063 171.211 28.7283C166.841 28.0415 162.424 27.1167 158.389 25.2376C155.114 23.7176 149.89 21.0875 149.743 16.7473C149.715 15.9313 149.901 15.1203 150.27 14.3218Z" fill="#98D54F"/>
<path d="M168.865 16.1008C168.954 18.6914 172.072 20.2601 174.026 21.1693C176.438 22.2911 179.072 22.8437 181.68 23.2505C186.918 24.0727 192.215 24.3076 197.508 24.1278C213.156 23.5975 225.707 19.144 225.539 14.1792C225.371 9.21742 212.547 5.62347 196.897 6.15449C181.247 6.68501 168.699 11.1365 168.865 16.1008Z" fill="#BAE34C"/>
<path d="M158.389 25.2376C162.424 27.1167 166.841 28.0415 171.211 28.7283C179.979 30.1063 188.853 30.4928 197.713 30.1926C223.924 29.3046 244.944 21.8462 244.663 13.5308L244.879 19.9356C245.161 28.2486 224.141 35.7069 197.93 36.5937C189.071 36.8969 180.197 36.5092 171.425 35.1326C167.058 34.4468 162.643 33.5201 158.605 31.6437C155.33 30.1195 150.107 27.4911 149.959 23.1521L149.743 16.7473C149.89 21.0875 155.114 23.7176 158.389 25.2376Z" fill="#4A9E00"/>
<path d="M229.567 31.6461C222.62 33.8927 213.751 35.5422 203.911 36.2715L203.693 29.8703C213.533 29.1394 222.402 27.4886 229.351 25.2442L229.567 31.6461Z" fill="#4DB034"/>
<path d="M170.405 34.9625C166.977 34.3921 163.544 33.6403 160.304 32.3663L160.089 25.9632C163.329 27.2372 166.762 27.9908 170.189 28.5606L170.405 34.9625Z" fill="#6DBF31"/>
<path d="M184.906 9.80025C185.108 9.8467 190.887 13.6005 192.505 9.85695C194.122 6.11293 184.906 9.80025 184.906 9.80025Z" fill="#ADDA2B"/>
<path d="M191.01 21.2715C191.211 21.3145 196.99 25.0742 198.606 21.3284C200.225 17.5824 191.01 21.2715 191.01 21.2715Z" fill="#ADDA2B"/>
<path d="M182.24 10.1299C182.327 10.2936 187.633 14.5649 183.817 16.7155C179.999 18.868 182.24 10.1299 182.24 10.1299Z" fill="#ADDA2B"/>
<path d="M186.61 15.9106C186.701 16.0758 192.006 20.3466 188.189 22.4966C184.372 24.6496 186.61 15.9106 186.61 15.9106Z" fill="#ADDA2B"/>
<path d="M210.52 8.22054C210.595 8.39354 210.395 14.7762 214.767 13.7829C219.142 12.7935 210.52 8.22054 210.52 8.22054Z" fill="#ADDA2B"/>
<path d="M212.02 14.5447C212.093 14.7167 211.895 21.0957 216.267 20.1065C220.641 19.1129 212.02 14.5447 212.02 14.5447Z" fill="#ADDA2B"/>
<path d="M203.126 7.76981C203.022 7.93462 202.083 14.2671 197.936 12.7352C193.786 11.2024 203.126 7.76981 203.126 7.76981Z" fill="#ADDA2B"/>
<path d="M175.749 12.962C175.648 13.1241 174.707 19.4556 170.562 17.926C166.413 16.3919 175.749 12.962 175.749 12.962Z" fill="#ADDA2B"/>
<path d="M182.253 20.9345C182.15 20.7786 181.03 14.4799 176.928 16.1629C172.826 17.8476 182.253 20.9345 182.253 20.9345Z" fill="#ADDA2B"/>
<path d="M198.366 17.7909C198.261 17.6328 197.141 11.3371 193.04 13.0176C188.937 14.7035 198.366 17.7909 198.366 17.7909Z" fill="#ADDA2B"/>
<path d="M202.607 21.1629C202.796 21.0771 207.611 16.3059 210.03 19.661C212.45 23.0184 202.607 21.1629 202.607 21.1629Z" fill="#ADDA2B"/>
<path d="M201.825 17.7806C201.966 17.6422 204.48 11.6461 208.125 13.9628C211.775 16.2886 201.825 17.7806 201.825 17.7806Z" fill="#ADDA2B"/>
<path d="M185.673 9.0714C185.876 9.11958 191.652 12.8753 193.269 9.12957C194.887 5.38482 185.673 9.0714 185.673 9.0714Z" fill="#D6F781"/>
<path d="M191.776 20.5439C191.977 20.5911 197.754 24.3456 199.374 20.6013C200.989 16.8551 191.776 20.5439 191.776 20.5439Z" fill="#D6F781"/>
<path d="M183.004 9.40134C183.096 9.56824 188.399 13.8386 184.583 15.9904C180.764 18.1399 183.004 9.40134 183.004 9.40134Z" fill="#D6F781"/>
<path d="M187.377 15.1847C187.467 15.3524 192.771 19.6197 188.954 21.7715C185.136 23.924 187.377 15.1847 187.377 15.1847Z" fill="#D6F781"/>
<path d="M211.287 7.49343C211.361 7.66593 211.161 14.0469 215.533 13.0565C219.908 12.0646 211.287 7.49343 211.287 7.49343Z" fill="#D6F781"/>
<path d="M212.786 13.8166C212.857 13.9893 212.662 20.371 217.033 19.3789C221.406 18.386 212.786 13.8166 212.786 13.8166Z" fill="#D6F781"/>
<path d="M203.89 7.04543C203.789 7.21001 202.849 13.5437 198.701 12.0114C194.552 10.476 203.89 7.04543 203.89 7.04543Z" fill="#D6F781"/>
<path d="M176.515 12.2326C176.414 12.3947 175.47 18.7324 171.326 17.1973C167.175 15.6657 176.515 12.2326 176.515 12.2326Z" fill="#D6F781"/>
<path d="M183.021 20.2086C182.916 20.051 181.795 13.753 177.693 15.4365C173.592 17.1199 183.021 20.2086 183.021 20.2086Z" fill="#D6F781"/>
<path d="M199.131 17.064C199.024 16.9055 197.906 10.609 193.806 12.2929C189.701 13.9749 199.131 17.064 199.131 17.064Z" fill="#D6F781"/>
<path d="M203.373 20.4336C203.56 20.3527 208.376 15.579 210.794 18.9354C213.216 22.2932 203.373 20.4336 203.373 20.4336Z" fill="#D6F781"/>
<path d="M202.592 17.0547C202.732 16.9146 205.245 10.9197 208.891 13.2381C212.54 15.5617 202.592 17.0547 202.592 17.0547Z" fill="#D6F781"/>
</svg>
