<svg width="42" height="42" viewBox="0 0 42 42" fill="none" xmlns="http://www.w3.org/2000/svg">
<path d="M18.2841 31.8281H22.5079C22.8703 31.8281 23.1642 31.5343 23.1642 31.1719V21.6639H25.3586C25.695 21.6639 25.9769 21.4095 26.0114 21.0749L26.3814 17.4842C26.4004 17.2995 26.3403 17.1152 26.2157 16.9774C26.0913 16.8394 25.9143 16.7607 25.7286 16.7607H23.1642V15.3063C23.1642 15.0059 23.2593 14.9834 23.4044 14.9834H25.6752C26.0376 14.9834 26.3314 14.6896 26.3314 14.3272V10.8408C26.3314 10.4794 26.0392 10.1861 25.6778 10.1846L22.5461 10.1719C20.3516 10.1719 19.1804 11.1374 18.5844 11.9473C17.7521 13.0782 17.6278 14.4034 17.6278 15.0926V16.7606H16.2752C15.9128 16.7606 15.619 17.0545 15.619 17.4169V21.0075C15.619 21.37 15.9128 21.6638 16.2752 21.6638H17.6278V31.1719C17.6278 31.5343 17.9216 31.8281 18.2841 31.8281ZM16.9314 20.3514V18.0732H18.284C18.6464 18.0732 18.9402 17.7794 18.9402 17.417V15.0927C18.9402 14.6674 19.0086 13.5853 19.6414 12.7253C20.2472 11.9019 21.2246 11.4845 22.5433 11.4845L25.0187 11.4945V13.671H23.4042C22.6314 13.671 21.8515 14.1766 21.8515 15.3064V17.417C21.8515 17.7795 22.1454 18.0733 22.5078 18.0733H25.0011L24.7663 20.3515H22.5078C22.1454 20.3515 21.8515 20.6453 21.8515 21.0077V30.5156H18.9402V21.0076C18.9402 20.6452 18.6463 20.3514 18.2839 20.3514H16.9314Z" fill="#F49521"/>
<path d="M35.8495 6.15103C31.8831 2.18449 26.6094 0 21 0C15.391 0 10.1176 2.18449 6.15103 6.15103C2.18449 10.1176 0 15.391 0 21C0 26.61 2.18449 31.8837 6.15103 35.85C10.1173 39.8159 15.3908 42 21 42C26.6097 42 31.8833 39.8159 35.8494 35.85C39.8157 31.8838 42 26.61 42 21C42 15.3909 39.8157 10.1174 35.8495 6.15103ZM34.9214 34.9219C31.2031 38.6399 26.2591 40.6875 21 40.6875C15.7413 40.6875 10.7974 38.6399 7.07905 34.9219C3.36041 31.2035 1.3125 26.2593 1.3125 21C1.3125 15.7416 3.36041 10.7978 7.07905 7.07913C10.7978 3.36041 15.7416 1.3125 21 1.3125C26.2589 1.3125 31.2029 3.36041 34.9214 7.07905C38.6398 10.7976 40.6875 15.7415 40.6875 21C40.6875 26.2594 38.6398 31.2036 34.9214 34.9219Z" fill="#F49521"/>
<path d="M35.2765 9.43108C35.0482 9.14955 34.635 9.10649 34.3534 9.33494C34.072 9.56332 34.0289 9.97659 34.2573 10.258C36.7111 13.2825 38.0625 17.0974 38.0625 21C38.0625 25.5583 36.2877 29.8432 33.0652 33.0657C29.8427 36.2879 25.5579 38.0625 21 38.0625C16.795 38.0625 12.7554 36.5198 9.62527 33.7185C9.35522 33.4768 8.94031 33.4998 8.69865 33.7698C8.45698 34.0399 8.47995 34.4548 8.75 34.6965C12.1212 37.7135 16.4716 39.375 21 39.375C25.9085 39.375 30.5229 37.464 33.9932 33.9937C37.4637 30.5234 39.375 25.9088 39.375 21C39.375 16.7972 37.9194 12.6887 35.2765 9.43108Z" fill="#F49521"/>
<path d="M3.9375 21C3.9375 11.5918 11.5918 3.9375 21 3.9375C25.2049 3.9375 29.2445 5.48034 32.3746 8.28179C32.6447 8.52362 33.0597 8.50049 33.3012 8.23052C33.543 7.96048 33.52 7.54556 33.25 7.3039C29.8788 4.28662 25.5284 2.625 21 2.625C16.0922 2.625 11.4779 4.53641 8.00715 8.00715C4.53641 11.4778 2.625 16.0922 2.625 21C2.625 25.2033 4.08056 29.3121 6.72353 32.5695C6.85322 32.7294 7.04255 32.8123 7.23352 32.8123C7.37879 32.8123 7.52497 32.7643 7.64663 32.6657C7.92807 32.4373 7.97114 32.024 7.74277 31.7426C5.28888 28.7182 3.9375 24.903 3.9375 21Z" fill="#F49521"/>
</svg>
