<svg width="276" height="91" viewBox="0 0 276 91" fill="none" xmlns="http://www.w3.org/2000/svg">
<path d="M229.977 73.808L229.96 73.904C232.529 73.1427 235.084 72.172 237.743 72.6094C239.892 72.9654 240.993 73.9467 241.516 75.1854C241.733 75.0547 241.949 74.9294 242.159 74.7814C242.98 74.2 243.839 74.116 244.641 74.316C245.761 73.9867 246.964 73.9467 248.201 74.1267C249.111 72.9494 250.057 71.824 251.055 70.8014C249.34 70.3494 247.733 69.5614 246.328 68.4707C243.083 65.9574 246.827 60.1 250.109 62.644C251.304 63.564 252.479 64.1387 253.812 64.3587L253.851 64.288C254.481 63.2774 255.703 62.5774 256.841 62.6094C258.808 62.6667 260.513 63.0267 262.077 63.7507C263.877 60.4014 267.179 58.4867 271.289 56.552C273.7 55.4147 274.849 53.9027 275.321 52.0187C275.224 52.1147 275.145 52.224 275.071 52.3467C274.08 54.108 271.935 54.2947 270.437 53.5734C268.441 52.6134 266.541 52.0987 264.224 52.5854C259.983 53.4787 258.695 46.988 262.948 46.0934C266.075 45.436 268.769 45.6934 271.456 46.6027C272.579 45.608 273.817 45.1654 275.131 45.0307C274.564 42.1187 273.296 38.7614 270.555 40.0414C268.256 41.124 265.935 40.2427 265.312 37.8334C263.956 32.5534 262.265 33.3774 260.329 34.2014C259.064 34.7387 257.695 35.2774 256.247 34.1147C255.608 33.6 255 33.096 254.42 32.568C254.001 32.644 253.396 32.776 252.543 33.0094C250.379 33.6 248.839 32.296 248.211 30.4174L248.103 30.1987C247.436 30.4174 246.761 30.6187 246.085 30.7894C243.144 31.6307 241.196 28.912 241.897 26.2027C244.003 18.1214 238.311 22.5254 236.292 23.44C235.297 23.8894 234.296 24.1987 233.281 24.4227C232.74 25.4614 232.031 26.4307 231.179 27.2774C230.389 29.9187 228.551 31.8067 226.036 32.6267L225.875 32.7974C223.617 34.8787 220.239 33.3787 220.387 30.4374C220.417 29.8667 220.595 29.3627 220.789 28.8267C221.241 27.62 222.189 26.7947 223.344 26.4827C223.761 26.2907 224.188 26.2094 224.596 26.2294C225.241 25.8694 224.968 24.74 225.469 23.9654L225.716 23.6427C225.152 23.2187 224.732 22.5427 224.591 21.528C223.081 18.5467 221.221 18.3574 219.009 20.952C216.348 23.1467 212.913 21.6774 212.924 18.328C212.697 15.888 211.885 14.6547 210.517 14.5814C208.773 19.8867 204.701 22.488 198.6 22.86C196.043 23.0187 194.295 19.8667 195.628 17.5881C193.963 18.0641 192.2 17.044 191.496 15.476C191.093 15.6 190.675 15.676 190.261 15.6574L190.033 15.6787L190.003 15.676C189.069 16.704 187.724 17.2787 186.301 16.7934C184.867 16.2947 183.435 15.8 181.996 15.312C180.583 14.82 179.285 13.4147 179.567 11.7174C179.579 11.588 179.592 11.492 179.601 11.3774C177.875 12.1294 175.876 11.5187 175.059 9.88004C174.276 8.32404 172.072 9.67338 170.804 10.9374C170.799 11.6214 170.617 12.3027 170.144 12.8867C169.863 13.2347 169.557 13.5814 169.245 13.9267C168.649 15.8387 168.279 17.8507 167.696 19.732C166.217 24.5307 162.84 28.0521 157.92 28.8387C155.787 29.1787 153.049 27.904 153.531 25.2534C154.641 19.1627 158.292 15.7361 162.079 11.4707C159.127 9.25472 155.293 8.80004 152.479 12.9414C150.436 15.9534 145.963 14.9507 145.769 11.5881C145.528 11.6627 145.281 11.72 145.036 11.7494C144.66 12.6854 144.18 13.6014 143.535 14.468C141.445 17.2787 137.796 16.6627 136.873 13.596C136.101 11.032 136.388 8.80004 137.303 6.99337C137.017 6.74671 136.767 6.45072 136.575 6.10272L136.491 5.90005C135.788 6.36271 135.077 6.59072 134.409 6.60138C134.34 7.40938 134.217 8.24404 134.003 9.12804C133.421 11.512 130.227 12.5334 128.428 11.3747L128.125 11.2027C127.008 13.5054 125.079 15.444 122.195 16.4334C118.704 17.6374 114.149 17.3774 111.651 14.636C110.444 13.3134 110.192 11.476 110.176 9.54805C106.381 13.0667 100.525 13.3934 94.736 9.24404C94.312 8.94271 93.9973 8.58672 93.7533 8.20405C93.4867 8.23472 93.2227 8.26938 92.9573 8.30405C91.6467 15.7321 87.4827 22.372 78.664 19.3907C76.7293 18.7374 75.252 16.0267 76.8027 14.0134C76.5347 13.916 76.2773 13.788 76.0387 13.6307C73.8693 17.2294 69.74 19.4574 64.232 18.82C63.5813 18.7494 63.0093 18.5387 62.5227 18.248C61.5053 21.1374 59.22 23.136 55.0667 22.5454C52.2267 22.136 50.1973 21.1481 49.172 18.8561C48.24 21.8427 45.6587 23.936 41.1907 24.1987C41.072 24.7627 40.912 25.3334 40.716 25.9014C41.68 25.4947 42.728 25.4774 43.6387 26.0534C45.8773 27.4787 48.4627 27.876 51.0747 28.384C55.216 29.18 52.9467 35.68 48.828 34.8854C46.292 34.3974 43.8467 33.8734 41.576 32.808C39.412 33.8107 37.2467 33.8027 35.5213 32.9067C34.4667 33.532 33.3093 33.9041 32.0653 33.8881C29.1773 33.8574 26.332 33.0414 24.6453 31.0147C23.256 33.28 19.6067 34.1854 18.324 31.62C18.3613 32.3907 18.328 33.1627 18.2107 33.9174C17.74 36.9134 14.5987 38.4454 12.4667 37.16C10.7587 37.9347 8.46666 37.56 7.53066 35.84C7.45333 35.6974 7.38933 35.5334 7.316 35.3827C6.57867 35.988 5.88266 36.6014 5.22399 37.2227C5.18266 38.7374 4.912 40.2494 4.252 41.6814C3.65467 42.976 2.588 43.94 1.38534 44.284C1.27334 44.6614 1.16399 45.0334 1.02799 45.428C0.823995 46.012 0.458667 46.5534 0 46.9974C1.20933 47.22 2.49867 47.1787 3.784 47.1387C4.40267 47.1187 5.01999 47.0987 5.62799 47.1094C8.66666 47.1667 11.1 48.1467 13.3227 50.036C16.48 52.7094 11.3947 57.46 8.272 54.812C6.69067 53.4707 4.1 53.728 1.91867 53.8427C3.38134 56.7654 4.77333 59.544 7.32533 61.9214C8.31199 61.1787 9.61333 60.9107 10.8973 61.6387C12.428 62.508 13.9427 63.2987 15.812 62.8907C17.8733 62.4387 19.8827 61.152 21.8067 60.2507C25.7907 58.3987 28.7267 64.1974 24.7187 66.0627C22.628 67.036 20.5413 68.192 18.3693 68.9614C19.3347 69.376 20.32 69.736 21.3067 70.016C22.356 68.228 24.8747 67.22 26.376 68.3667C28.1107 67.8747 30.1987 68.748 30.4587 70.6427L30.7533 70.7307C30.9853 70.328 31.2307 69.948 31.4547 69.5227C32.6107 67.336 35.268 67.488 36.652 68.8774C37.8507 68.408 39.176 68.468 39.9827 69.2347C40.1693 69.22 40.3547 69.2134 40.54 69.2227C41.0987 68.8987 41.7173 68.7014 42.3093 68.7107C46.768 68.748 50.6933 70.3307 51.232 74.3374C52.1613 74.86 53.068 75.4187 54.0627 75.86C55.064 76.312 55.568 77.692 55.4867 78.7707L55.4547 79.22L55.4347 79.3334C56.852 79.7374 58.2987 80.0414 59.7747 80.2C62.496 80.4907 65.472 79.628 68.32 78.932L68.3173 78.7254C68.4 77.6427 68.9347 76.8067 69.7093 76.1987C68.8267 74.9427 68.7667 73.172 70.2467 71.848C71.3213 70.8867 72.4773 70.1387 73.7467 69.512C75.4253 68.6854 77.364 69.052 78.1973 70.704C78.712 71.7294 78.5787 73.1027 77.92 74.1454C78.4373 74.764 78.672 75.5774 78.6293 76.4C79.3467 76.9774 79.684 77.8947 79.6813 78.8494C81.064 79.2814 82.3853 79.8774 83.5787 80.684C87.596 83.404 88.312 86.5147 93.6227 86.7014C98.696 84.5814 103.903 83.7867 109.193 83.2734C107.921 82.8587 106.757 82.26 105.759 81.26C104.549 81.9347 103.555 82.0987 101.921 81.86C99.012 81.4494 99.1907 77.0174 101.592 75.704C102.511 75.2054 103.455 74.8227 104.413 74.4907C104.721 74.34 105.021 74.244 105.308 74.2C106.003 73.9787 106.704 73.768 107.409 73.552C109.753 72.8347 111.392 74.8547 111.341 76.856C113.363 78.1347 116.816 77.804 118.981 78.4507C120.656 78.9587 121.379 80.5947 121.033 82.1734L121.305 82.1414C123.047 81.92 124.196 83.4587 124.651 84.872C126.948 92.0507 138.919 88.7068 144.157 86.312C145.125 85.8694 146.119 85.7814 146.988 85.9987C147.136 85.852 147.303 85.732 147.459 85.5974C146.785 84.9134 146.104 84.2414 145.448 83.5467C144.011 82.0134 144.624 79.3654 146.516 78.2534C146.736 78.1214 146.943 77.9734 147.155 77.824C147.124 76.868 147.469 75.8854 148.288 75.1827L148.389 75.0907C148.872 74.6814 149.38 74.4054 149.901 74.26L150.068 74.0587C152.868 70.632 158.387 73.9667 155.54 77.4427C155.34 77.6854 155.195 78.0427 154.997 78.4147C154.907 79.5627 154.261 80.712 153.173 81.356L153.045 81.436C153.377 81.808 153.7 82.1907 154.009 82.5854C158.648 81.6374 163.923 82.216 168.359 82.7347C171.344 83.0787 172.316 85.7854 171.209 87.9227C171.983 87.7347 172.765 87.4267 173.549 86.9587C174.561 86.52 175.647 86.4334 176.575 86.704C177.427 86.2827 178.379 86.1867 179.197 86.4707C179.815 86.0494 180.572 85.896 181.32 85.9707C182.237 84.7334 183.784 83.9334 185.068 84.1867C185.269 84.0227 185.488 83.876 185.707 83.752C188.253 76.1214 194.389 71.3174 202.379 70.6707C204.577 70.4894 205.681 72.4974 205.78 74.3894C205.84 75.468 205.728 76.452 205.523 77.3694C206.007 77.7307 206.38 78.216 206.528 78.82C206.645 78.9907 206.769 79.16 206.88 79.3334C207.345 80.0707 207.4 80.9867 207.412 81.8574L207.379 82.084C209.319 81.9454 211.188 82.06 212.824 82.5254C213.397 81.8507 214.023 81.1734 214.665 80.5C215.039 78.0054 216.369 75.6654 218.711 74.436C219.48 74.0334 220.305 73.916 221.065 74.0654C222.083 72.96 222.932 71.9134 223.465 70.9534C225.772 66.812 230.827 69.964 229.977 73.808" fill="#1F6529"/>
<path d="M264.093 53.312C266.272 53.968 268.285 53.6014 270.479 52.7934C272.124 52.1854 274.204 52.528 274.789 54.348C274.832 54.48 274.893 54.5907 274.956 54.692C274.924 52.7894 274.124 51.2054 271.988 49.896C268.356 47.6827 265.523 45.5374 264.493 42.084C262.78 42.688 261.007 42.9214 259.04 42.8374C257.904 42.7854 256.847 41.9961 256.455 40.9521L256.436 40.8707C255.055 40.9974 253.757 41.4787 252.375 42.3054C248.544 44.5814 246.153 38.5001 249.94 36.2507C251.581 35.2734 253.357 34.6081 255.155 34.2881C254.035 32.6694 253.071 30.8614 252.185 28.9667C250.835 30.24 248.683 31.0334 247.235 29.6867C246.557 29.0494 245.805 28.5254 245.036 28.0467C244.915 28.268 244.787 28.484 244.683 28.7467C243.776 31.1267 240.816 31.8027 238.987 30.5547C237.727 29.6921 236.384 28.992 235.044 28.2947C234.989 28.7787 234.941 29.2654 234.935 29.7494C234.909 33.632 229.177 36.3827 227.837 32.1107C226.784 28.7774 222.481 24.2907 219.899 19.8494C218.173 20.192 216.293 20.1681 214.397 19.8894L214.381 20.116C214.176 20.9814 213.911 21.88 213.285 22.5774C213.135 22.7467 212.977 22.9014 212.819 23.0667C212.536 23.6534 212.053 24.1067 211.495 24.4267C211.489 25.3547 211.375 26.3347 211.076 27.4001C210.548 29.2707 208.995 31.1867 206.856 30.8467C198.528 29.5227 193.385 23.6401 193.18 14.9547C193.169 14.5294 193.223 14.124 193.309 13.74C192.912 13.3307 192.517 12.9267 192.123 12.512C190.708 11.0267 188.985 7.62806 187.652 10.7561C186.6 13.2281 183.927 13.6827 181.957 12.5734C181.287 12.052 180.583 11.6867 179.857 11.4467C180.473 13.6507 178.888 16.2547 175.856 16.3814C171.343 16.5667 165.976 16.756 161.595 15.476C161.2 15.8454 160.784 16.2 160.376 16.5427L160.483 16.632C161.413 17.352 161.795 18.5334 161.627 19.6827C161.733 20.0667 161.803 20.4307 161.941 20.6854C163.977 24.3454 157.749 27.2387 155.748 23.6347L155.631 23.432C155.148 23.2427 154.705 22.936 154.324 22.4934L154.239 22.3947C153.583 21.6387 153.467 20.6334 153.716 19.6881C153.539 19.5321 153.365 19.3627 153.176 19.2214C151.552 17.9747 151.545 15.3014 153.317 13.892C154.127 13.248 154.956 12.6361 155.773 12.0054C155.653 11.8614 155.515 11.7307 155.397 11.5747C154.489 11.7307 153.527 11.5681 152.667 11.0547C148.009 8.29606 136.903 4.09872 132.996 11.0547C132.225 12.4227 130.736 13.8614 129.059 13.5134L128.799 13.4614C128.78 15.052 127.695 16.6227 125.92 17.0001C123.627 17.4894 120.275 16.9054 117.98 18.0174C117.577 20.0094 115.493 21.8974 113.335 21.0067C112.685 20.7427 112.037 20.4827 111.397 20.212C111.121 20.1507 110.847 20.036 110.575 19.8574C109.7 19.4574 108.851 19.0094 108.051 18.448C105.969 16.9667 106.799 12.5654 109.775 12.3654C111.449 12.256 112.399 12.4814 113.444 13.244C114.66 12.3334 115.952 11.8187 117.305 11.5014C112.175 10.6001 107.192 9.43071 102.643 6.95738C97.332 6.75204 95.9173 9.78539 91.3173 12.1854C89.952 12.9001 88.508 13.3974 87.0373 13.724C86.824 14.664 86.28 15.556 85.44 16.0787C85.296 16.8947 84.8786 17.68 84.2253 18.2587C84.6426 19.336 84.464 20.7107 83.72 21.6894C82.5186 23.2627 80.5146 23.4894 79.0386 22.5454C77.9186 21.828 76.9426 21.0041 76.096 19.9707C74.9293 18.5521 75.388 16.7987 76.5493 15.6174C75.9173 14.9614 75.5733 14.0934 75.7413 13.0094L75.7893 12.8067C73.1253 11.908 70.3693 10.8361 67.6026 10.9174C66.1053 10.9667 64.5986 11.1667 63.1026 11.4614L63.0973 11.5774L63.0266 12.0254C62.864 13.0974 62.0506 14.4307 60.956 14.8001C59.868 15.1707 58.844 15.66 57.8013 16.1094C56.3613 20.0414 52.1106 21.3241 47.68 21.0334C46.2973 20.9454 44.9453 19.7827 44.8853 18.3227C44.9106 17.9014 44.864 17.4894 44.7706 17.0947C43.28 17.0787 42.2773 16.1641 41.8333 15.0161C38.8906 14.8227 36.3826 14.9014 33.7053 17.0947C32.6826 17.9254 31.8253 17.8907 30.8186 17.8574C30.5133 17.8467 30.1933 17.8374 29.852 17.8507C27.9533 17.9334 25.9733 18.38 23.9946 19.028C25.9773 19.9534 27.7826 21.2467 29.636 22.3667C33.1893 24.5107 28.9653 30.0454 25.4306 27.912C23.728 26.8827 22.028 25.4574 20.084 24.8614C18.324 24.3187 16.6413 24.9854 14.928 25.7374C13.4893 26.3707 12.264 26.0014 11.4506 25.196C8.38263 27.3614 6.37063 30.02 4.25863 32.8107C6.39596 33.08 8.9053 33.5307 10.78 32.3134C14.4746 29.9187 18.4413 35 14.7026 37.428C12.0733 39.1307 9.43596 39.928 6.41063 39.7587C4.55063 39.652 2.65464 39.2654 0.806641 39.4547C1.15864 39.9307 1.39864 40.4907 1.46797 41.092C1.51597 41.4894 1.53996 41.8694 1.56396 42.2507C2.67863 42.6827 3.5173 43.7161 3.8173 45.0361C4.14797 46.5121 4.07464 48.0281 3.77331 49.5347C4.28131 50.2 4.83463 50.86 5.42663 51.5147C5.53596 51.3747 5.63463 51.208 5.7453 51.0734C7.06263 49.44 9.42131 49.2334 10.94 50.1294C13.3466 49.0094 16.1133 50.7627 15.9026 53.7627C15.8466 54.5187 15.7026 55.2907 15.492 56.0534C17.3453 53.6041 20.7586 54.7654 21.6226 57.116C23.7573 55.2307 26.76 54.6307 29.6293 54.8041C30.8693 54.8841 31.9346 55.3441 32.8386 56.0387C34.752 55.2774 36.8986 55.4334 38.82 56.5747C41.312 55.6907 43.8546 55.3481 46.4786 55.0534C50.7466 54.5667 51.524 61.1734 47.2373 61.6667C44.532 61.9787 41.8773 62.1814 39.336 63.4307C38.3013 63.9347 37.264 63.8387 36.4013 63.3614C36.468 63.9454 36.496 64.5201 36.488 65.0867C40.856 65.6774 42.9413 67.9427 43.1906 70.968C44.7266 68.776 46.9653 67.944 49.872 67.7454C54.124 67.4667 55.9346 69.6134 56.2933 72.5574C56.844 72.3027 57.456 72.1414 58.1173 72.1147C63.7226 71.8894 67.312 74.4 68.6493 78.124C68.9213 77.9854 69.204 77.8841 69.4933 77.8041C68.4106 75.6961 70.4906 73.12 72.56 72.6094C81.976 70.3027 84.604 77.1907 84.22 84.6534C84.4773 84.708 84.7293 84.7627 84.9866 84.8094C85.316 84.448 85.7066 84.1174 86.1973 83.8507C92.88 80.16 98.6093 80.9147 101.579 84.68C102.031 82.7747 102.696 80.9667 104.192 79.7454C107.292 77.2107 111.865 77.2881 115.055 78.7374C117.689 79.9294 119.165 81.992 119.748 84.36L120.091 84.2094C122.136 83.1934 125.073 84.4374 125.109 86.852C125.121 87.7414 125.055 88.5798 124.936 89.3934C125.6 89.448 126.252 89.7283 126.844 90.2283L126.975 90.0344C127.243 89.7054 127.556 89.4319 127.893 89.2106C127.4 87.3467 127.623 85.1134 128.968 82.6267C130.579 79.656 134.336 79.3134 135.768 82.2547C136.212 83.1667 136.488 84.1054 136.641 85.0614C136.883 85.1107 137.113 85.1774 137.333 85.272C138.285 81.9547 142.949 81.2867 144.293 84.42C146.147 88.7387 150.051 88.5678 153.484 86.584C150.696 82.0787 147.848 78.4147 148.129 72.2934C148.248 69.6267 151.252 68.5641 153.292 69.0547C157.993 70.2001 160.544 73.944 160.921 78.8067C161.075 80.716 160.987 82.736 161.143 84.6734C161.379 85.0427 161.601 85.408 161.8 85.776C162.137 86.392 162.164 87.0787 162.016 87.7534C162.984 89.1027 164.864 90.6011 165.991 89.1199C167.172 87.5507 169.292 87.096 170.839 87.964C170.851 87.8507 170.867 87.7507 170.88 87.6294C170.991 85.9214 172.589 84.6174 174.103 84.2414C175.64 83.856 177.173 83.4721 178.708 83.0894C180.224 82.7094 181.435 83.38 182.124 84.4694L182.153 84.4667L182.377 84.5107C182.791 84.5107 183.188 84.6174 183.563 84.776C184.613 83.2707 186.592 82.3947 188.139 82.9854C187.328 80.624 189.779 77.6307 192.279 77.9707C198.241 78.7921 201.691 81.6694 202.216 87.0574C203.595 87.0854 204.681 85.9267 205.453 83.5214C206.204 80.2027 209.939 78.9987 212.084 81.3694C213.695 84.1 215.579 84.0481 217.749 81.2054C218.116 80.2094 218.689 79.5707 219.34 79.1894C219.285 79.0774 219.225 78.9707 219.179 78.8494C218.851 78.0454 219.377 76.9454 218.817 76.544C218.407 76.5334 218.007 76.4187 217.635 76.1987C216.561 75.8 215.811 74.92 215.633 73.6854C215.559 73.1427 215.501 72.628 215.603 72.0614C216.115 69.1334 219.807 67.8947 221.575 70.1201L221.696 70.3067C223.66 71.1534 224.955 72.7347 225.417 74.8334C225.643 74.768 225.88 74.712 226.132 74.6934C230.023 74.448 233.769 71.9534 237.743 72.6094C238.641 72.7574 239.348 73.02 239.917 73.368C240.323 73.368 240.741 73.4334 241.165 73.596C241.793 73.8174 242.417 74.068 243.031 74.332L243.181 74.1267C244.231 72.3027 246.056 71.1334 248.067 71.8694C248.869 72.1667 249.435 72.336 249.827 72.448C250.527 71.9627 251.241 71.508 251.991 71.048C254.02 69.796 255.385 70.9427 256.708 71.6107C256.889 71.476 257.068 71.3454 257.244 71.2041C258.169 70.4707 259.347 70.2707 260.435 70.4014C260.859 69.816 261.321 69.044 261.828 68.0307C262.991 65.6774 265.489 64.98 267.524 66.2187C269.955 67.6907 271.972 64.456 273.192 61.6094C271.923 61.3787 270.791 60.852 269.901 59.784C267.04 60.4814 264.297 60.5414 261.352 59.6587C257.336 58.4587 260.087 52.1174 264.093 53.312" fill="#69AE25"/>
<path d="M252.712 44.14C249.469 42.1933 246.936 40.312 246.005 37.256C244.488 37.8 242.913 38.02 241.171 37.956C240.163 37.916 239.219 37.2227 238.863 36.3L238.837 36.2307C237.623 36.352 236.472 36.784 235.245 37.5293C231.856 39.572 229.7 34.188 233.045 32.1707C234.5 31.288 236.072 30.6907 237.668 30.3974C236.66 28.972 235.799 27.3694 234.999 25.696C233.813 26.836 231.901 27.5534 230.609 26.364C229.993 25.8054 229.332 25.3454 228.637 24.9214C228.536 25.1214 228.424 25.308 228.336 25.5467C227.543 27.664 224.919 28.284 223.289 27.1867C222.164 26.4307 220.967 25.8173 219.773 25.212C219.727 25.636 219.683 26.068 219.685 26.5027C219.683 29.9414 214.608 32.416 213.392 28.6374C212.439 25.6854 208.592 21.736 206.275 17.812C204.744 18.124 203.072 18.1067 201.387 17.8814L201.373 18.0814C201.196 18.8467 200.965 19.6534 200.415 20.2694C200.283 20.42 200.141 20.56 200.004 20.704C199.752 21.228 199.331 21.632 198.835 21.9227C198.835 22.7494 198.739 23.616 198.48 24.5667C198.027 26.2227 196.659 27.932 194.757 27.6413C187.352 26.52 182.752 21.3374 182.511 13.6307C182.505 13.2534 182.549 12.9 182.623 12.5547C182.265 12.196 181.912 11.84 181.56 11.4707C180.293 10.1667 178.745 7.16002 177.581 9.94535C176.664 12.144 174.289 12.5587 172.532 11.588C171.933 11.1334 171.308 10.8134 170.661 10.6C171.223 12.5494 169.832 14.8747 167.14 15.0067C163.128 15.1947 158.367 15.3987 154.469 14.2907C154.116 14.62 153.755 14.94 153.392 15.244L153.484 15.3267C154.324 15.956 154.665 17.0053 154.524 18.0253C154.62 18.3627 154.685 18.688 154.809 18.9107C156.639 22.136 151.125 24.752 149.325 21.568L149.219 21.3867C148.792 21.2254 148.397 20.9547 148.055 20.56L147.979 20.4773C147.392 19.804 147.283 18.9213 147.496 18.0747C147.34 17.936 147.184 17.7907 147.017 17.6654C145.567 16.572 145.547 14.204 147.111 12.9387C147.824 12.3627 148.556 11.8134 149.283 11.2454C149.169 11.1227 149.048 11.0053 148.943 10.8733C148.132 11.012 147.283 10.8733 146.513 10.424C142.364 8.00668 132.473 4.35202 129.045 10.5427C128.372 11.7613 127.057 13.048 125.567 12.7494L125.333 12.708C125.327 14.1187 124.372 15.5174 122.799 15.8654C120.765 16.312 117.785 15.8107 115.757 16.8187C115.409 18.5854 113.572 20.2694 111.648 19.5027C111.068 19.2667 110.492 19.04 109.923 18.8014C109.673 18.7467 109.432 18.6453 109.191 18.4947C108.411 18.144 107.655 17.7547 106.941 17.2573C105.081 15.9613 105.789 12.0507 108.435 11.8534C109.92 11.7467 110.764 11.944 111.699 12.6134C112.773 11.7907 113.915 11.3307 115.115 11.0427C110.555 10.2733 106.124 9.26936 102.067 7.10536C97.352 6.95469 96.1147 9.64668 92.0427 11.812C90.832 12.4547 89.5547 12.9 88.2507 13.196C88.0667 14.036 87.5894 14.8254 86.8467 15.3014C86.7227 16.0214 86.3574 16.7227 85.78 17.2374C86.1587 18.1934 86.0067 19.4147 85.3534 20.2827C84.296 21.6907 82.5174 21.9027 81.2014 21.0733C80.2054 20.448 79.3307 19.716 78.5734 18.8093C77.5267 17.5533 77.924 16 78.948 14.9454C78.384 14.3654 78.076 13.5934 78.2134 12.636L78.256 12.4547C75.8867 11.6707 73.4334 10.7414 70.9774 10.8334C69.644 10.884 68.312 11.0707 66.9827 11.34L66.9774 11.4467L66.9187 11.84C66.7814 12.7893 66.068 13.984 65.0974 14.316C64.1334 14.652 63.228 15.0907 62.3054 15.4987C61.0467 18.9907 57.2827 20.1573 53.3454 19.9267C52.1187 19.8573 50.9094 18.8373 50.848 17.5413C50.8694 17.1667 50.824 16.804 50.7387 16.4507C49.416 16.4467 48.5187 15.6387 48.116 14.628C45.504 14.472 43.2787 14.56 40.9094 16.52C40.0134 17.2627 39.2547 17.2387 38.3667 17.2147C38.0907 17.208 37.804 17.2 37.496 17.216C35.8094 17.3 34.0547 17.712 32.3 18.2947C34.068 19.1 35.6787 20.2414 37.332 21.22C40.4987 23.1014 36.7814 28.036 33.632 26.1707C32.1094 25.264 30.5934 24.0067 28.8654 23.4987C27.2974 23.0187 25.8094 23.6254 24.2907 24.3054C23.0174 24.8747 21.9267 24.552 21.1987 23.844C18.4867 25.784 16.7174 28.156 14.8587 30.6427C16.7587 30.872 18.9894 31.2534 20.6467 30.1667C23.9134 28.016 27.4654 32.4973 24.1614 34.6733C21.8347 36.2013 19.5 36.9267 16.812 36.792C15.1587 36.7133 13.4734 36.3747 11.8334 36.5613C12.1494 36.984 12.3654 37.4774 12.432 38.004C12.4734 38.356 12.4987 38.696 12.5227 39.0307C13.5147 39.4107 14.268 40.3227 14.54 41.492C14.8427 42.7947 14.7867 44.14 14.528 45.4827C14.9854 46.0667 15.48 46.648 16.0107 47.228C16.104 47.0973 16.192 46.9574 16.2894 46.836C17.4494 45.3787 19.5427 45.1787 20.896 45.9613C23.0267 44.9547 25.4934 46.4933 25.3227 49.16C25.28 49.8307 25.1574 50.5147 24.9734 51.1867C26.6067 49.0094 29.644 50.0187 30.4267 52.0933C32.308 50.4107 34.9707 49.8574 37.5227 49.9987C38.6227 50.0614 39.572 50.4574 40.3774 51.068C42.0747 50.3814 43.9814 50.5053 45.6934 51.5067C47.9014 50.7107 50.1574 50.3933 52.4854 50.1107C56.272 49.648 57.0014 55.5147 53.1987 55.976C50.7987 56.2613 48.444 56.4654 46.192 57.5867C45.2774 58.044 44.3574 57.9587 43.5867 57.548C43.6494 58.0627 43.6787 58.5747 43.672 59.0733C47.556 59.568 49.424 61.568 49.6614 64.2547C51.0107 62.2934 52.9947 61.5427 55.576 61.356C59.3494 61.072 60.972 62.972 61.3067 65.576C61.796 65.3467 62.3347 65.2013 62.9227 65.1747C67.9 64.936 71.1014 67.1467 72.3134 70.4413C72.556 70.3173 72.8054 70.2214 73.06 70.156C72.088 68.284 73.916 65.988 75.7507 65.524C84.1014 63.4187 86.4734 69.5067 86.1787 76.1334C86.4054 76.1774 86.632 76.224 86.86 76.2707C87.1507 75.948 87.4987 75.6493 87.9294 75.408C93.84 72.0947 98.9347 72.728 101.593 76.052C101.983 74.3507 102.563 72.7493 103.884 71.6587C106.621 69.392 110.684 69.4307 113.527 70.6947C115.872 71.7373 117.195 73.5547 117.728 75.6573L118.031 75.5174C119.84 74.6027 122.455 75.6867 122.501 77.832C122.519 78.6213 122.464 79.3627 122.365 80.0773C122.952 80.1293 123.533 80.3707 124.063 80.816L124.177 80.644C124.412 80.348 124.693 80.1053 124.995 79.9067C124.539 78.256 124.721 76.2733 125.904 74.0587C127.317 71.4147 130.653 71.0867 131.94 73.6854C132.34 74.488 132.588 75.324 132.732 76.172C132.945 76.2107 133.152 76.2734 133.351 76.352C134.175 73.4054 138.313 72.7867 139.527 75.5587C141.195 79.3733 144.659 79.1987 147.697 77.4214C145.195 73.436 142.644 70.208 142.856 64.7747C142.944 62.408 145.607 61.448 147.423 61.8694C151.605 62.8547 153.888 66.16 154.259 70.4733C154.4 72.1667 154.335 73.956 154.487 75.676C154.697 76 154.899 76.3253 155.08 76.648C155.381 77.1907 155.408 77.804 155.279 78.4014C156.148 79.592 157.827 80.912 158.821 79.5867C159.861 78.1907 161.74 77.772 163.115 78.536L163.151 78.236C163.237 76.7254 164.648 75.556 165.995 75.2133C167.356 74.86 168.716 74.512 170.076 74.1573C171.424 73.812 172.496 74.4 173.117 75.364L173.143 75.3587L173.337 75.396C173.711 75.3987 174.063 75.4933 174.396 75.624C175.323 74.2867 177.069 73.492 178.447 74.0067C177.716 71.924 179.877 69.244 182.097 69.5374C187.399 70.228 190.477 72.7574 190.976 77.5334C192.195 77.5494 193.156 76.516 193.828 74.376C194.473 71.4293 197.785 70.3373 199.707 72.4253C201.149 74.8413 202.824 74.784 204.733 72.2453C205.056 71.36 205.56 70.7907 206.133 70.4494L205.988 70.1507C205.689 69.436 206.152 68.4547 205.655 68.1054C205.287 68.096 204.932 68.0014 204.6 67.8054C203.649 67.46 202.973 66.6827 202.807 65.5933C202.74 65.1067 202.688 64.652 202.769 64.148C203.207 61.5494 206.484 60.4293 208.064 62.392L208.169 62.5573C210.229 63.424 211.481 65.1934 211.659 67.5707C212.245 68.3667 212.683 69.2627 212.96 70.208C213.804 70.4627 214.628 70.796 215.416 71.256C217.013 72.1747 221.172 76.392 220.899 69.1427C220.809 66.7187 223.052 64.4374 225.481 65.3547C226.045 65.544 226.595 65.7653 227.145 65.9933L227.279 65.8093C228.2 64.1853 229.809 63.1373 231.601 63.776C232.316 64.0347 232.815 64.1853 233.167 64.2787C233.785 63.848 234.416 63.4413 235.081 63.0267C236.579 62.0893 237.677 62.6347 238.683 63.1814C240.232 64.0214 241.563 64.8627 243.792 60.284C244.812 58.1934 247.029 57.5587 248.841 58.6453C251.005 59.9413 252.783 57.056 253.851 54.5214C252.719 54.3254 251.712 53.8614 250.916 52.9174C248.377 53.556 245.947 53.6253 243.323 52.8613C239.753 51.828 242.156 46.1827 245.712 47.2187C247.661 47.7894 249.444 47.4494 251.388 46.7174C252.843 46.1707 254.697 46.4627 255.225 48.068L255.379 48.3747C255.335 46.6867 254.615 45.2853 252.712 44.14" fill="#8FC333"/>
<path d="M112.067 30.7347C111.715 30.584 111.379 30.3974 111.059 30.1787C109.887 30.804 108.827 31.5787 108.224 32.6787C106.099 36.5574 99.9613 34.436 102.109 30.5187C103.215 28.5014 104.568 26.888 106.312 25.6067C105.189 25.0614 104.54 23.9747 104.117 22.7174C102.241 23.504 100.519 23.5507 99.1906 22.1947C98.1533 22.504 97.1093 22.4734 96.2147 21.732C95.864 21.4387 95.6373 21.2694 95.488 21.1654C94.8733 21.5067 94.256 21.8427 93.7 22.344C91.9093 23.9534 89.268 23.18 87.8053 21.932C86.708 20.9974 86.544 18.716 85.8013 18.264C84.756 20.7454 82.4587 22.6787 79.896 23.9574C78.74 24.5387 77.5493 24.7134 76.3827 24.6094C75.0413 26.2227 73.0293 27.2054 70.7213 27.252C68.9227 29.2654 66.7987 30.8614 64.588 32.4627C60.9867 35.068 56.9533 30.0454 60.5693 27.4254C62.796 25.8174 65.0147 24.2974 66.668 22.06C65.3333 21.016 62.6227 19.524 60.9067 19.6667C60.4387 20.2027 59.812 20.6334 59.0053 20.836C58.7347 20.9014 58.468 20.9867 58.196 21.0587C57.4453 22.068 56.4067 22.956 55.1293 23.7934C51.988 25.8667 49.552 25.5654 47.7853 24.0574C47.2013 24.1494 46.6973 24.0774 46.2773 23.876C46.0453 24.0947 45.7853 24.2907 45.4973 24.472C40.5587 27.5534 36.0533 27.3414 32.9747 24.9814C32.7987 25.2307 32.5973 25.464 32.3747 25.672C34.412 26.8467 33.8387 30.04 32.2293 31.5214C27.86 35.556 24.024 35.6374 20.912 33.7174C21.18 36.012 20.8093 38.4174 19.86 40.9134C18.9653 43.2694 17.7533 45.5174 16.8893 47.876C15.9547 50.4307 17.284 49.6587 20.0147 49.592L20.036 49.5947C20.2893 49.356 20.5547 49.132 20.86 48.9214C22.328 47.9227 23.8627 47.996 24.9 48.78C27.844 45.7294 31.5027 43.8067 35.5573 42.6974C38.828 41.812 40.5373 46.4707 37.932 48.5334C36.636 49.5574 35.2813 50.3094 33.8187 51.0387C33.1067 51.392 31.5933 52.0387 30.724 52.416L30.6347 52.4987C30.9973 52.356 31.5413 52.1454 32.3707 51.8214C34.8627 50.8414 37.0373 52.4067 36.8893 55.0334L37.1013 54.9707C39.3493 54.2787 40.9013 56.5654 40.7573 58.52C40.504 62.0134 38.588 64.3774 35.9027 66.0174C36.0347 66.352 36.1773 66.6854 36.34 67.0174C36.5693 67.4827 36.6413 67.9734 36.6 68.4547C37.652 68.132 38.7373 68.4654 39.528 69.192C39.636 68.9947 39.744 68.792 39.8587 68.6C41.2267 66.2507 44.1333 66.8894 45.288 68.6787C46.9653 67.964 49.0693 68.6587 49.6587 70.3667C49.8013 70.3774 49.9453 70.4014 50.0853 70.4294C51.4187 69.736 52.9387 69.6054 54.412 69.876C54.98 68.4574 55.716 67.1 56.6507 65.9307C57.3 65.124 58.2013 64.632 59.12 64.512L59.228 64.208C60.264 61.5374 64.4853 61.1134 65.3613 63.828C65.6347 64.6867 65.8587 65.564 66.0813 66.4347L66.128 66.6147C66.8867 66.8347 67.524 67.3574 67.8106 68.304C67.992 68.9067 68.2133 69.4734 68.4493 70.024C68.948 69.9774 69.452 70.0374 69.9173 70.2107C70.58 69.2347 71.648 68.74 72.704 68.696C73.0267 67.6987 73.6773 67.048 74.4413 66.708C75.4546 64.3494 77.828 62.3934 80.648 60.996C81.94 60.36 83.7427 60.6147 84.5347 61.7814C84.7213 62.1427 84.9706 62.452 85.2573 62.7334C86.6066 61.9734 87.9747 62.2094 88.9507 62.9174C90.3987 62.2 91.696 61.4747 92.796 60.492C92.6453 60.1907 92.5253 59.876 92.496 59.5254C92.4667 59.18 92.428 58.8387 92.3507 58.5014L92.332 58.424C91.7413 57.7507 91.444 56.8134 91.5853 55.8427L91.8147 54.2707C92.0653 52.556 93.5933 51.2174 95.264 51.156C95.364 50.9507 95.4813 50.7454 95.6107 50.5347C92.0827 49.956 93.2013 43.9374 97.2347 43.864C97.8307 43.8534 98.4427 43.8707 99.0613 43.888C100.577 43.9294 102.135 43.972 103.592 43.6067C105.452 43.1427 106.629 41.728 107.797 40.2214C108.777 38.9614 110.068 38.6307 111.204 38.8774C111.931 37.412 112.423 35.9827 112.796 34.5587C112.421 33.2934 112.337 32.004 112.067 30.7347" fill="#BED54F"/>
<path d="M82.304 56.2253C82.7666 56.3733 83.2106 56.5747 83.636 56.808C85.0453 55.8987 86.2973 54.8227 86.9426 53.38C89.2053 48.3253 97.1733 50.2893 94.8866 55.3987C93.712 58.0267 92.1773 60.1867 90.116 61.9707C91.5893 62.5227 92.528 63.8053 93.1933 65.3227C95.4773 64.1387 97.6466 63.888 99.4653 65.4267C100.74 64.936 102.06 64.8533 103.271 65.68C103.747 66.004 104.045 66.1893 104.245 66.3053C104.987 65.8093 105.727 65.3253 106.375 64.6427C108.461 62.444 111.879 63.1107 113.856 64.5013C115.344 65.5467 115.795 68.364 116.777 68.8493C117.831 65.64 120.521 62.9787 123.617 61.108C125.012 60.2667 126.492 59.9133 127.975 59.916C129.495 57.7587 131.925 56.3133 134.832 55.996C136.885 53.292 139.389 51.0733 142.008 48.84C146.272 45.1973 151.903 51.004 147.623 54.664C144.987 56.9067 142.349 59.0453 140.501 62.012C142.299 63.1627 145.884 64.7227 148.033 64.352C148.564 63.6293 149.313 63.0267 150.304 62.6933C150.644 62.5747 150.967 62.444 151.301 62.3213C152.141 60.988 153.355 59.7667 154.879 58.58C158.615 55.6613 161.72 55.7653 164.111 57.444C164.839 57.268 165.481 57.2987 166.035 57.504C166.305 57.2053 166.611 56.9293 166.951 56.6747C172.852 52.2947 178.553 52.0627 182.692 54.668C182.893 54.328 183.121 54.0173 183.377 53.7347C180.676 52.4933 181.061 48.464 182.931 46.4413C188.015 40.9387 192.837 40.4187 196.971 42.464C196.384 39.6347 196.596 36.6014 197.524 33.3894C198.399 30.3574 199.687 27.4333 200.523 24.3987C201.423 21.1227 199.832 22.2227 196.395 22.616H196.368C196.077 22.936 195.763 23.2427 195.4 23.5333C193.657 24.944 191.712 25.02 190.319 24.1573C186.932 28.2827 182.525 31.072 177.531 32.896C173.499 34.3613 170.839 28.756 173.909 25.9013C175.429 24.4893 177.059 23.4013 178.824 22.332C179.685 21.8107 181.525 20.8427 182.583 20.28L182.687 20.168C182.243 20.3813 181.58 20.7067 180.572 21.2027C177.531 22.6973 174.621 20.984 174.523 17.7054L174.26 17.804C171.499 18.9133 169.297 16.2373 169.268 13.792C169.212 9.41601 171.375 6.26401 174.584 3.92534C174.381 3.52534 174.164 3.12135 173.927 2.73468C173.584 2.17468 173.444 1.57068 173.441 0.970684C172.155 1.48935 170.744 1.19335 169.672 0.372019C169.555 0.633352 169.44 0.892016 169.32 1.15202C167.841 4.22535 164.108 3.74534 162.46 1.64801C160.423 2.72668 157.689 2.09335 156.761 0.0346817C156.584 0.0346817 156.397 0.0173471 156.215 1.37676e-05C154.605 1.00668 152.709 1.34001 150.819 1.16535C150.257 2.99735 149.475 4.76402 148.42 6.32002C147.692 7.40135 146.604 8.10802 145.457 8.35602C145.419 8.48535 145.396 8.62001 145.356 8.74801C144.333 12.1853 139.057 13.1867 137.663 9.89868C137.22 8.86001 136.843 7.79468 136.468 6.73468L136.393 6.51601C135.411 6.33068 134.549 5.74668 134.088 4.60001C133.789 3.86801 133.46 3.18935 133.1 2.53201C132.473 2.64401 131.829 2.63334 131.225 2.45734C130.492 3.75067 129.204 4.48135 127.875 4.65202C127.573 5.93602 126.821 6.81202 125.895 7.31868C124.869 10.3667 122.089 13.0587 118.68 15.1067C117.119 16.0413 114.817 15.928 113.695 14.56C113.417 14.1347 113.071 13.776 112.68 13.46C111.059 14.5493 109.312 14.408 108 13.636C106.249 14.688 104.692 15.732 103.411 17.076C103.633 17.432 103.817 17.8147 103.892 18.2427C103.968 18.6707 104.053 19.092 104.185 19.5027L104.22 19.6013C105.04 20.3733 105.513 21.5053 105.441 22.7267L105.319 24.708C105.188 26.8653 103.403 28.7 101.305 28.9627C101.197 29.2267 101.073 29.4973 100.931 29.7773C105.444 30.1027 104.68 37.7213 99.6013 38.252C97.0093 38.524 94.1426 38.408 91.6066 39.272C89.312 40.0573 87.9773 41.9507 86.668 43.9493C85.568 45.6267 83.9786 46.18 82.5146 46.0027C81.7573 47.8947 81.2906 49.732 80.9706 51.5507C81.5826 53.076 81.8266 54.6773 82.304 56.2253" fill="#BED54F"/>
<path d="M224.1 78.6094C222.385 77.372 223.776 74.8494 226.132 74.6934C227.84 74.5894 229.517 74.0467 231.204 73.5294C230.061 73.0974 228.992 72.3054 228.044 71.3494C227.46 71.0974 226.989 70.7307 226.787 70.3C226.751 70.052 226.671 69.828 226.564 69.6174L226.408 69.4134C225.209 69.5774 223.879 69.3347 223.229 68.5974C222.848 68.168 222.468 67.7347 222.088 67.3054C220.553 65.568 221.939 63.2414 225.015 63.3694L225.196 63.384C226.82 62.3614 229.651 62.132 230.456 63.9827C230.789 64.752 231.149 65.516 231.556 66.264L231.697 66.4347C232.891 66.532 233.881 67.02 234.767 67.7187L234.967 67.7267C235.432 67.1747 235.88 66.6147 236.377 66.0974C237.683 64.7147 240.177 64.9107 241.615 65.9707C242.687 66.768 243.455 67.6387 244.1 68.56C245.603 68.212 247.419 68.8027 248.223 69.8427C250.288 71.72 251.515 71.4347 251.912 68.9814C252.013 68.7854 252.143 68.6094 252.289 68.4547C250.849 67.2294 250.085 65.4147 250.728 62.768C251.391 60.0574 252.98 57.32 255.119 55.4254C256.46 54.236 257.845 53.1907 259.268 52.1174C261.285 50.6 261.581 50.9214 258.947 49.768C256.803 48.8294 256.731 45.2467 258.928 43.968C258.453 42.9574 257.979 41.9507 257.497 40.9387C256.077 40.9027 254.891 40.332 254.38 39.0027C253.975 39.376 253.503 39.6787 253.056 39.848C250.179 40.9334 247.572 41.2374 244.631 40.9947C243.064 40.8654 242.251 39.3454 242.231 37.8747C241.799 38.124 241.381 38.4054 240.977 38.7187C238.775 40.1067 235.977 38.8334 235.963 36.2307C235.949 33.8947 235.889 31.596 235.719 29.2947C234.643 28.3667 234.232 26.7107 235.053 25.212C235.211 24.924 235.456 24.6014 235.755 24.2454C235.612 23.8667 235.461 23.4987 235.347 23.0787C233.969 23.2707 233.065 24.5707 232.656 27.0467C232.431 30.3974 228.879 32.1707 226.368 30.2014C224.337 27.7907 222.448 28.1427 220.729 31.264C220.512 32.2867 220.039 33.0014 219.447 33.476L219.667 33.7814C220.119 34.5147 219.763 35.676 220.38 35.9734C220.795 35.9254 221.212 35.968 221.621 36.124C222.751 36.34 223.648 37.0774 224.007 38.2547C224.171 38.7707 224.305 39.2654 224.292 39.836C224.235 42.7707 220.732 44.5694 218.62 42.676L218.469 42.516C216.011 41.9134 214.304 40.18 213.703 37.5987C212.908 36.8227 212.265 35.908 211.793 34.92C210.796 34.78 209.813 34.5534 208.849 34.188C206.891 33.4507 201.501 29.5214 203.02 37.4507C203.532 40.1094 201.384 43.0014 198.491 42.4067C197.824 42.2934 197.167 42.1494 196.509 41.9854L196.389 42.2134C195.62 44.16 193.983 45.5947 191.855 45.192C191.011 45.0307 190.417 44.9547 190.003 44.9094C189.379 45.4934 188.739 46.0494 188.059 46.6187C186.515 47.9174 185.173 47.4854 183.937 47.052C182.063 46.396 180.429 45.74 178.691 51.128C177.888 53.6107 175.503 54.688 173.276 53.804C170.617 52.7547 169.103 56.2307 168.319 59.2014C169.627 59.2214 170.845 59.556 171.896 60.4614C174.657 59.32 177.38 58.8294 180.468 59.216C184.671 59.7467 182.908 66.3707 178.715 65.84C176.429 65.5467 174.48 66.228 172.409 67.3654C170.856 68.2174 168.72 68.2147 167.855 66.5334L167.628 66.228C167.964 68.08 169.007 69.496 171.344 70.4294C175.323 72.012 178.495 73.6534 180.057 76.856C181.679 75.992 183.415 75.4827 185.395 75.2547C186.537 75.1227 187.717 75.7214 188.272 76.6814L188.311 76.7547C189.663 76.4107 190.887 75.7307 192.148 74.712C195.617 71.8734 198.955 77.4294 195.521 80.2227C194.027 81.4467 192.361 82.3774 190.603 82.9747C191.976 84.368 193.223 85.9787 194.404 87.6894C195.553 86.2254 197.587 85.1134 199.24 86.1947C200.024 86.712 200.851 87.0987 201.703 87.4494C201.789 87.2107 201.88 86.984 201.937 86.712C202.48 84.2414 205.341 83.1067 207.36 84.0347C208.753 84.6774 210.203 85.1454 211.652 85.6147C211.629 85.1267 211.604 84.6507 211.528 84.1734C210.959 80.3894 216.268 76.7894 218.269 80.74C218.94 82.068 220.249 83.5 221.777 85.012C222.388 84.8587 222.996 84.6774 223.583 84.4867C223.651 84.3214 223.724 84.1574 223.785 83.988C224.243 82.796 225.971 82.3254 227.501 82.5174C227.641 82.4014 227.78 82.284 227.899 82.164C226.835 80.904 225.617 79.7027 224.1 78.6094" fill="#B7D848"/>
<path d="M50.708 62.7293C49.6907 60.68 48.8587 59.6867 46.556 59.2733C45.5787 59.1 44.628 59.012 43.6667 58.7587C41.308 58.1333 42.156 55.688 42.956 54.336C43.368 53.64 43.6387 52.404 43.3427 51.6867C42.5133 49.6667 43.112 48.4014 41.7227 46.556C40.84 45.384 39.48 44.1653 37.952 44.244C38.4667 43.088 39.7987 42.6853 40.6813 41.7467C41.5653 40.8067 41.82 40.0134 41.9693 38.788C42.1987 36.8894 40.788 35.9627 39.16 35.8293C37.964 35.7347 36.748 36.3053 35.6347 36.744C34.3787 37.236 32.1133 38.984 30.9093 38.4453C29.1733 37.6587 26.9853 40.068 26.4893 41.492C26.1973 42.3253 27.4147 42.7773 27.708 41.9413C28.664 39.2 30.2413 40.032 31.9747 40.1907C33.132 40.3 35.1067 38.3867 36.1293 37.952C36.4187 37.8427 36.7053 37.724 36.9947 37.612C38.9867 36.5733 40.0187 37.5413 40.096 40.5093C39.604 41.2853 38.38 41.884 37.66 42.448C36.776 43.1374 36.4507 44.0533 36.4133 45.0907C36.3973 45.5747 36.8133 45.9974 37.3213 45.7387C38.8867 44.9494 40.3373 47.02 41.052 47.9733C41.9373 49.1493 40.9667 49.5213 41.108 50.6907C41.288 52.18 43.0147 51.7293 41.6707 53.996C41.1987 54.7947 41.0253 55.6334 40.832 56.5147C40.5333 57.8853 41.304 59.3147 42.5253 59.7894C45.3613 60.904 47.912 60.196 49.4747 63.324C49.8453 64.068 51.0853 63.4813 50.708 62.7293" fill="#E0F178"/>
<path d="M80.292 58.868C78.5667 58.8627 77.28 59.604 76.156 60.8534C75.7973 60.6014 75.4093 60.44 74.8707 60.4014C73.3413 60.3107 71.3133 61.236 71.3333 58.5667C71.34 57.704 70.0187 57.9827 70.012 58.836C70.0027 60.132 70.72 60.956 71.68 61.6613C72.8747 62.5427 74.6173 61.1454 75.6693 62.252C75.956 62.552 76.4333 62.568 76.7227 62.184C77.6347 60.9987 78.6107 60.2094 80.096 60.216C80.9453 60.216 81.1493 58.868 80.292 58.868" fill="#E0F178"/>
<path d="M166.045 59.1147C164.144 59.5667 163.539 57.9014 161.611 58.8627C160.553 59.3974 158.391 57.8134 157.093 58.076C154.812 58.5387 152.601 60.952 150.684 62.244C147.451 64.4267 143.725 63.8387 140.259 63.14C141.287 59.848 145.9 57.4054 148.087 54.7374C149.301 53.2507 149.893 51.192 148.472 49.84C145.689 47.2014 138.899 48.028 137.173 52.1254C136.825 52.948 138.045 53.3934 138.387 52.572C140.307 48.0227 151.128 49.0094 146.493 54.6614C143.921 57.7934 139.535 59.3934 138.796 63.624C138.724 64.0267 139.012 64.276 139.355 64.3454C141.712 64.8294 144.736 65.536 147.212 65.1414C149.789 64.7387 152.027 63.016 154.132 61.44C155.72 60.2507 156.917 59.3254 158.936 59.6974C159.752 59.848 160.565 60.236 161.392 60.2934C162.344 60.36 163.224 59.824 164.191 60.412C164.833 60.804 165.496 60.604 166.204 60.4374C167.051 60.236 166.896 58.9134 166.045 59.1147" fill="#E0F178"/>
<path d="M223.755 76.0214C222.512 76.464 221.319 77.472 219.885 77.512C219.527 77.5214 219.189 77.744 219.129 78.1374L218.732 80.8747C216.647 79.5867 214.04 78.8467 211.667 80.2667C211.216 80.54 210.811 80.9067 210.405 81.24C208.893 82.484 207.521 81.6694 206.176 80.8414C204.824 80.0014 200.335 82.4547 201.556 78.7774C201.831 77.944 200.62 77.492 200.337 78.3334C199.848 79.8094 199.567 81.2054 200.911 82.196C202.605 83.4347 204.512 81.0067 206.295 82.7C207.32 83.676 208.584 83.6827 209.935 83.136C210.955 82.7254 211.816 81.6814 212.763 81.116C214.653 79.9787 217.424 81.58 218.807 82.6054C219.204 82.896 219.812 82.6027 219.885 82.0934L220.376 78.7494C221.319 78.508 222.4 77.9107 223.372 77.524C223.277 77.02 223.429 76.496 223.755 76.0214" fill="#E0F178"/>
<path d="M80.2266 18.288C79.052 18.1547 77.8666 18.3454 76.688 18.352C77.4 17.156 78.4546 15.8214 78.1253 14.568C77.516 12.2267 74.4933 12.084 72.5026 11.9707C71.6533 11.928 71.456 13.2734 72.308 13.3214C73.4986 13.388 77.3893 13.4347 76.792 15.468C76.4533 16.616 75.472 17.6267 75.028 18.768C74.8586 19.1947 75.108 19.6067 75.5386 19.656C77.0306 19.8347 78.544 19.4574 80.0306 19.6334C80.8746 19.7347 81.068 18.3907 80.2266 18.288Z" fill="#E0F178"/>
<path d="M106.892 16.796C106.595 16.7173 106.332 16.5933 106.067 16.4653C106.535 15.7267 106.871 14.964 106.947 14.056C106.988 13.5814 106.656 13.3107 106.208 13.3507C106.049 13.3627 105.891 13.348 105.731 13.324C106.116 12.2707 106.411 11.068 106.059 10.1014C105.527 8.64669 104.051 8.64135 102.683 9.02801C101.849 9.26535 102 10.5854 102.843 10.3494C103.751 10.0907 104.735 9.87734 104.859 11.024C104.952 11.8893 104.536 12.8787 104.2 13.6827C104.043 14.0587 104.268 14.6013 104.709 14.5787C104.987 14.568 105.248 14.6 105.511 14.628C105.324 15.284 104.969 15.8387 104.531 16.432C104.285 16.7613 104.361 17.3413 104.777 17.4467C105.34 17.5827 105.791 17.9254 106.353 18.0667C107.163 18.2587 107.707 16.9947 106.892 16.796" fill="#E0F178"/>
<path d="M156.307 16.5334C155.501 16.1907 154.777 16.0734 153.88 16C153.423 15.9587 153.157 16.3227 153.152 16.6867C152.024 17.0467 151.263 16.8947 150.235 18.1174C148.711 19.9267 146.151 20.912 144.939 22.9667C144.561 23.6107 144.341 24.3574 144.073 25.0427C143.817 26.108 143.024 26.5547 141.691 26.3814C141.564 25.8867 141.468 25.3934 141.403 24.8814C141.184 23.4494 140.543 22.7774 139.149 22.4134C138.541 22.2547 134.193 18.5494 134.073 18.0427C133.828 17.0067 132.767 16.632 131.804 16.6134C129.907 16.58 125.247 22.484 124.78 23.6454H124.659C124.52 23.6707 124.384 23.7027 124.249 23.744C123.661 23.896 123.487 24.588 123.912 24.9627L123.968 25.0067C124.176 25.192 124.491 25.1374 124.727 24.9827L124.819 24.9654C125.113 24.908 125.279 24.7107 125.344 24.4867C126.513 23.4894 127.448 22.2707 128.391 21.0494C129.091 20.14 129.803 19.2614 130.661 18.4894C132.889 16.5107 132.776 19.16 133.179 19.8C134.049 21.1974 135.84 21.1374 136.923 22.4987C137.481 23.2027 137.819 23.328 138.608 23.684C140.249 24.4267 140.08 25.596 140.457 26.976C141.051 29.1587 143.711 28.6187 144.66 26.8134C145.963 24.336 146.645 22.6867 149.077 21.0334C149.829 20.5227 150.428 20.016 150.996 19.3134C151.785 18.344 153.185 18.172 154.308 17.632L154.547 17.44C154.965 17.512 155.379 17.6227 155.771 17.804C156.54 18.1334 157.073 16.8587 156.307 16.5334" fill="#E0F178"/>
<path d="M229.851 32.3733C230.116 31.992 230.027 31.368 229.456 31.3267L228.793 31.284C228.323 31.2467 227.852 31.8067 228.076 32.252C228.972 34.0347 231.047 34.6787 232.015 36.4C233.517 39.0547 228.468 38.8133 227.601 38.7093C225.352 38.4413 223.833 37.1267 223.071 34.9947C222.229 32.6267 220.417 31.0773 218.248 29.9773C216.977 29.336 214.313 27.9827 212.791 29.216C211.061 30.6227 211.292 32.436 211.468 34.392C211.767 37.6907 209.224 38.56 206.513 37.964C205.9 37.8333 205.196 38.004 204.676 38.436C204.143 38.872 202.223 40.8533 202.197 41.208C202.275 40.312 202.94 39.26 203.231 38.3893C203.579 37.3573 203.665 36.2387 202.723 35.6507C202.017 35.2213 201.184 36.3333 201.891 36.7653C202.987 37.4427 200.568 40.5133 200.893 41.7293C201.228 42.9987 203.145 42.196 203.825 41.5507C205.093 40.34 205.416 39.0547 207.487 39.6027C208.589 39.896 209.783 39.6667 210.851 39.2107C213.377 38.132 212.793 34.508 212.669 32.572C212.421 28.7787 216.053 30.4947 217.068 30.9413C217.999 31.3453 218.836 31.8893 219.64 32.4827C221.575 33.9027 221.428 36.124 222.808 37.7947C224.401 39.724 226.968 40.1973 229.463 40.1613C231.407 40.128 232.989 39.2293 233.475 37.2587C234.033 34.972 231.225 33.796 229.851 32.3733" fill="#E0F178"/>
<path d="M261.241 63.7507C260.531 62.8961 259.429 62.2201 258.364 61.7307C258.488 61.5267 258.655 61.3961 258.923 61.5001C259.692 61.8201 260.225 60.5414 259.456 60.2294C258.221 59.7254 257.309 60.7134 256.901 61.8854C256.777 62.2414 256.896 62.604 257.241 62.7427C257.987 63.036 258.676 63.4734 259.327 63.928C259.617 64.1334 259.897 64.3587 260.141 64.6267C260.02 64.64 259.897 64.64 259.799 64.6427C258.955 64.6787 258.747 66.0281 259.604 65.9881C260.261 65.9601 260.995 65.9187 261.464 65.3427C261.885 64.8187 261.573 64.1561 261.241 63.7507Z" fill="#E0F178"/>
<path d="M254.499 56.8774C253.565 56.376 250.408 54.96 249.968 57.0787C249.565 59 250.225 60.916 249.415 62.788C248.047 65.968 243.651 63.9054 241.757 63.0987C240.931 62.748 240.572 61.6387 239.665 61.488C237.721 61.1707 235.563 62.16 233.816 60.9707C233.181 60.5387 232.732 60.4374 231.937 60.564C231.464 60.64 230.479 61.036 230.081 61.1747C229.568 61.3654 229.044 61.508 228.515 61.6067C227.068 62.012 226.691 61.204 227.395 59.1694C227.712 59.12 227.884 58.908 227.939 58.6707C228.485 58.6894 229.045 58.0627 228.583 57.6107C228.068 57.1067 227.428 56.6614 226.641 56.94C225.885 57.208 225.584 58.008 225.456 58.72C225.412 58.9534 225.484 59.124 225.605 59.2427C224.988 60.6454 225.325 62.624 226.861 62.9094C228.652 63.2494 230.355 62.396 232.1 61.8854C233.624 61.4374 234.993 63.7067 236.965 63.0267C239.203 62.2547 240.167 63.928 242.035 64.7227C243.932 65.524 246.269 66.164 248.396 65.516C249.645 65.1334 250.857 63.452 251.045 62.212C251.213 61.1574 251.161 60.1214 251.128 59.0694C251.06 56.7534 252.632 57.444 253.957 58.1534C254.689 58.5414 255.217 57.268 254.499 56.8774" fill="#E0F178"/>
<path d="M136.709 49.448C136.371 49.0774 136.031 48.708 135.696 48.336C135.763 47.9534 135.48 47.6627 135.135 47.6187C132.692 47.268 129.596 46.652 127.112 47.6427C126.235 47.9934 125.429 48.3907 124.971 49.3027C124.633 49.968 123.487 52.632 122.799 51.7267C122.533 51.3787 122.291 51.1067 121.859 50.952C119.883 50.228 118.347 50.992 118.081 48.0627C118.008 47.2347 117.809 46.2654 117.121 45.7614C115.099 44.28 112.689 46.7987 111.351 48.3187C110.753 48.9907 111.797 49.7374 112.387 49.072C113.071 48.216 113.873 47.4987 114.8 46.9334C116.74 45.704 116.827 49.0947 116.935 49.8347C117.016 50.4027 117.328 51.0587 117.788 51.3974C118.449 51.88 119.367 51.9507 120.171 52.06C121.235 52.2054 121.528 53.0294 122.352 53.3307C123.42 53.7174 124.955 52.196 125.396 51.3174C127.225 47.684 131.088 48.3747 134.34 48.8694C134.385 49.8854 135.096 50.344 136.171 50.7214C136.957 50.9947 137.495 49.724 136.709 49.448" fill="#E0F178"/>
<path d="M79.1547 34.78C78.3947 34.128 78.128 33.1613 77.424 32.496C77.2506 32.332 76.9746 32.3733 76.76 32.448L76.4827 32.552C75.6533 32.8467 76.156 34.0494 76.9746 33.756C76.7106 33.852 77.0693 34.416 77.4853 34.936C76.5133 35.1254 75.544 35.2534 74.5613 35.404C74.172 35.456 73.9746 35.8453 73.9813 36.1987C74.008 37.7107 74.0133 39.22 73.804 40.744C73.6507 41.8693 71.1666 41.72 69.7813 41.5467C70.144 39.1613 65.36 41.1387 63.148 42.24C63.2613 40.876 63.416 39.6214 61.9093 39.104C61.116 38.8307 60.0867 39.0094 59.2493 39.156C57.008 39.556 56.344 38.3187 56.3067 36.2613C56.228 32.244 51.448 32.9493 51.2586 36.7947C51.2173 37.6587 52.532 37.7547 52.576 36.8867C53.364 36.564 54.1533 36.24 54.9426 35.9187C54.98 36.3254 54.996 36.7347 54.9933 37.1493C55.0066 37.7187 55.0333 38.2347 55.1493 38.7787C55.2813 39.4013 55.8093 40.28 56.384 40.5907C57.1973 41.0213 57.8507 40.9107 58.7733 40.6493C61.36 39.928 61.7666 41.336 61.776 43.4854C61.7786 43.8974 62.3307 44.176 62.688 43.9587C63.4707 43.4747 64.304 43.088 65.1333 42.708C65.688 42.4547 68.5626 41.3467 68.3293 41.892C68.1386 42.3333 68.428 42.7187 68.8387 42.7854C70.5067 43.064 73.036 43.3213 74.5586 42.1413C75.7293 41.2267 75.4507 38.3374 75.3387 36.6334C76.5053 36.464 77.66 36.3027 78.82 35.9933C79.4 35.8373 79.5893 35.1413 79.1547 34.78" fill="#E0F178"/>
<path d="M46.464 30.716C45.7213 29.616 44.8107 29.204 43.668 28.8414C47.5494 23.292 39.4747 18.924 37.4827 24.7707C34.3734 24.4774 28.664 24.7854 29.452 29.1614C29.604 29.996 30.9267 29.7347 30.7747 28.8934C30.1707 25.5467 35.912 25.9267 37.844 26.1774C38.2213 26.2254 38.5214 25.892 38.6027 25.5494C39.6774 20.8654 46.0134 24.36 42.036 28.8454C41.7427 29.1747 41.904 29.7467 42.2867 29.8587C43.5267 30.2294 44.572 30.3774 45.396 31.6014C45.8613 32.2934 46.9267 31.4054 46.464 30.716Z" fill="#E0F178"/>
<path d="M173.261 43.5867C171.363 41.66 168.117 42.544 167.269 39.1654C166.727 37.012 169.128 33.1427 166.885 31.5C165.993 30.8454 164.848 31.2934 163.884 31.7334C161.795 32.688 161.935 34.3374 158.985 34.468C158.349 34.496 157.732 34.456 157.117 34.416C156.315 34.364 155.515 34.312 154.675 34.4107C154.272 34.46 153.94 35.0214 154.137 35.372C154.264 35.596 154.379 35.816 154.499 36.0374C152.833 36.012 150.445 35.8987 149.828 37.36C148.769 39.86 154.623 41.72 155.663 42.5133C156.324 43.02 157.153 41.9027 156.496 41.4C156.003 41.0214 155.545 40.6893 154.973 40.424C154.376 40.156 150.167 37.8854 151.843 37.5654C153.136 37.3187 154.467 37.492 155.771 37.3267C156.284 37.2613 156.497 36.5907 156.221 36.224C156.107 36.0427 156.008 35.856 155.899 35.6707C156.404 35.664 156.903 35.688 157.4 35.7107C158.576 35.7667 159.741 35.8227 160.956 35.4894C162.713 35.012 163.591 33.08 165.407 32.5427C167.276 31.9787 165.885 38.408 165.943 39.436C166.101 42.0027 168.852 43.2267 170.94 43.7947C174.54 44.7733 169.339 46.6867 168.359 47.0174C167.203 47.4067 165.557 48.0374 164.369 47.804C163.545 47.64 163.356 48.988 164.173 49.144C166.519 49.612 171.347 47.8667 173.14 46.0987C173.72 45.5227 173.811 44.14 173.261 43.5867" fill="#E0F178"/>
<path d="M213.976 57.6653C212.941 57.028 212.057 57.1427 211.099 57.2573C210.425 57.3373 209.716 57.4173 208.891 57.2373C208.599 57.176 208.305 57.22 208.104 57.4987C207.105 58.8107 205.741 59.6347 204.32 60.352C204.405 59.38 204.601 58.404 204.696 57.428C204.733 57.068 204.509 56.7293 204.137 56.7107C202.997 56.6573 201.475 56.652 200.895 57.096C201.127 56.9147 201.329 56.7373 201.444 56.4627C201.653 55.976 201.377 55.4627 201.015 55.184C200.256 54.5987 198.16 53.884 198.575 52.5427C199.217 50.468 202.313 51.0133 204.455 51.4547C204.551 51.5693 204.679 51.6573 204.873 51.6667L206.024 51.748C206.876 51.808 207.059 50.5 206.223 50.4027C204.163 50.1733 197.416 48.3387 197.181 52.684C197.12 53.804 197.597 54.4667 198.403 55.1267C198.879 55.516 199.445 55.7947 199.957 56.1293C199.719 55.9707 199.468 56.7867 199.451 56.888C199.413 57.1653 199.565 57.504 199.843 57.572C200.992 57.8547 202.124 57.9533 203.296 58.016C203.151 59.204 202.948 60.3627 202.953 61.56C202.953 62.008 203.495 62.2053 203.863 62.0307C205.563 61.2173 207.155 60.3307 208.544 59.0027C209.075 58.4987 212.755 58.5413 213.144 58.78C213.844 59.2107 214.683 58.096 213.976 57.6653" fill="#E0F178"/>
<path d="M253.96 44.652C254.476 40.6107 246.16 38.1347 245.925 41.4814C245.865 42.3454 247.185 42.4454 247.24 41.5774C247.284 41.012 253.635 41.892 252.612 44.8307C252.485 45.192 252.609 45.54 252.949 45.6867C253.295 47.5094 252.895 48.3054 251.741 48.0814C251.476 48.0974 251.203 48.1147 250.929 48.1414C250.173 48.196 249.365 48.5667 248.645 48.8227C246.796 49.492 245.219 49.82 243.872 48.196C243.493 47.7387 243.225 47.1787 242.976 46.6134C243.323 46.4934 243.639 46.2627 244.085 45.9067C244.792 45.3534 243.997 44.3387 243.293 44.8934C242.963 45.2467 242.541 45.384 242.045 45.2854C241.555 45.1867 241.148 45.8454 241.329 46.2547C241.988 47.7547 242.789 49.904 244.463 50.5147C246.736 51.348 248.787 49.9374 251.091 49.4574C252.664 49.1347 254.259 49.9094 255.107 47.9134C255.717 46.4654 255.055 45.304 253.96 44.652" fill="#E0F178"/>
<path d="M117.055 74.8133C116.652 69.7667 107.445 67.7267 103.663 70.856C102.913 71.476 101.411 75.5693 100.807 75.436C99.4854 75.1427 98.2041 74.6987 96.8881 74.3707C95.4961 74.0333 93.9667 74.0667 92.5147 74.2173C92.2974 74.244 87.7241 75.0053 87.7294 75.2427C87.7001 74.3787 86.3774 74.652 86.4081 75.512C86.4787 77.4493 88.0001 76.868 89.3681 76.2187C92.9601 74.4987 96.8814 75.7907 100.268 76.712C102.299 77.256 103.293 74.096 103.831 72.7493C104.735 70.5093 108.327 70.9653 110.1 71.1267C112.557 71.3453 115.504 72.216 115.732 75.0827C115.799 75.94 117.121 75.6693 117.055 74.8133" fill="#E0F178"/>
<path d="M152.868 86.0907C149.013 88.6215 144.635 84.5467 142.029 82.4613C141.364 81.9333 140.74 81.8387 139.899 81.9427C139.223 82.024 137.784 84.0053 137.144 83.372C135.423 81.6693 134.063 80.888 131.507 81.784C128.731 82.7547 127.251 86.212 127.005 88.8267C126.921 89.6865 128.239 89.7855 128.321 88.9173C128.56 86.3707 129.705 84.2973 132.003 82.9907C134.405 81.62 135.436 83.9253 136.773 84.8893C138.379 86.0493 139.827 82.4867 141.775 84.0427C144.863 86.5107 149.413 89.8949 153.66 87.1067C154.409 86.6147 153.608 85.604 152.868 86.0907Z" fill="#E0F178"/>
<path d="M175.756 75.2747C171.651 75.176 167.16 74.8747 163.205 76.9774C162.668 77.2587 162.359 77.7827 162.052 78.2694C160.743 80.364 159.163 80.8854 157.232 79.5574C154.981 78.012 154.173 74.22 154.579 71.5214C154.708 70.66 153.395 70.564 153.264 71.4294C152.629 75.6547 154.613 81.2467 159.196 81.7094C162.44 82.04 162.449 78.4374 165.02 77.7027C166.353 77.32 167.688 77.0374 169.021 76.6187C171.104 75.9667 173.472 76.5667 175.56 76.6187C176.409 76.6374 176.609 75.2947 175.756 75.2747" fill="#E0F178"/>
<path d="M16.92 48.716C15.8173 48.6254 13.6453 47.7414 14.9933 46.5227C15.6906 45.8907 15.92 45.0214 15.992 44.148C16.2093 41.516 14.0613 39.496 12.9293 37.4534C12.528 36.728 11.288 37.3214 11.6933 38.0507C12.468 39.4467 13.4747 40.684 14.1987 42.112C14.7493 43.196 15.008 44.7734 13.9306 45.7507C13.6346 46.0187 13.2827 46.24 13.12 46.6267C12.24 48.7 15.2827 49.944 16.7227 50.0587C17.5707 50.1267 17.768 48.7827 16.92 48.716Z" fill="#E0F178"/>
<path d="M220.649 43.4547C219.935 43.4547 219.221 43.2147 218.62 42.676L218.469 42.516C216.011 41.9134 214.304 40.18 213.703 37.5987C213.557 37.4574 213.417 37.3107 213.283 37.16C215.457 35.6907 217.664 34.2667 219.895 32.8827C219.941 32.8547 219.981 32.8294 220.027 32.8014C220.037 32.812 220.048 32.8214 220.059 32.832C219.877 33.0827 219.671 33.2973 219.447 33.476L219.667 33.7813C220.119 34.5147 219.763 35.676 220.38 35.9733C220.487 35.9613 220.593 35.9547 220.699 35.9547C221.008 35.9547 221.316 36.008 221.621 36.124C221.711 36.1413 221.797 36.1614 221.883 36.1854C222.119 36.7467 222.395 37.296 222.808 37.7947C223.217 38.2907 223.692 38.6907 224.213 39.0107C224.267 39.2747 224.299 39.5454 224.292 39.836C224.251 41.936 222.447 43.4547 220.649 43.4547" fill="#6F9728"/>
<path d="M243.343 30.4627C242.075 29.648 241.452 27.924 241.897 26.2027C242.217 24.9747 242.357 24.036 242.357 23.328C242.357 24.036 242.217 24.9747 241.897 26.2027C241.456 27.9147 242.069 29.628 243.323 30.4454C243.907 30.0454 244.4 29.4867 244.683 28.7467C244.401 29.4854 243.924 30.0587 243.343 30.4627V30.4627ZM252.88 30.3987C252.643 29.9294 252.412 29.4507 252.185 28.9667C252.413 29.452 252.657 29.9187 252.897 30.388C252.892 30.392 252.887 30.3947 252.88 30.3987ZM249.039 30.3867C248.724 30.3867 248.415 30.3387 248.12 30.232L248.107 30.2067C248.413 30.3187 248.732 30.3707 249.057 30.3707C249.975 30.3707 250.932 29.9614 251.716 29.3654C250.927 29.9667 249.961 30.3867 249.039 30.3867V30.3867ZM248.065 30.212C247.772 30.0974 247.492 29.9267 247.235 29.6867C247.503 29.9347 247.793 30.0854 248.099 30.2C248.088 30.204 248.076 30.208 248.065 30.212" fill="#C6C5C6"/>
<path d="M241.057 31.1694C240.32 31.1694 239.591 30.9667 238.987 30.5547C238.324 30.1014 237.64 29.6934 236.944 29.3067C236.237 28.1734 235.6 26.9547 234.999 25.696C234.923 25.7694 234.843 25.8414 234.76 25.912C234.831 25.6774 234.928 25.4427 235.053 25.212C235.211 24.924 235.456 24.6014 235.755 24.2454C235.716 24.144 235.677 24.044 235.64 23.9427C236.428 23.5214 237.219 23.1041 238.008 22.6894C238 22.6881 237.992 22.6867 237.985 22.6854C238.707 22.3067 239.428 21.9307 240.149 21.5561C240.447 21.4721 240.729 21.4214 240.988 21.4214C241.792 21.4214 242.357 21.9054 242.357 23.328C242.357 24.036 242.217 24.9747 241.897 26.2027C241.452 27.924 242.075 29.648 243.343 30.4627C242.669 30.9307 241.859 31.1694 241.057 31.1694ZM248.12 30.232C248.101 30.2254 248.083 30.2187 248.065 30.212C248.076 30.208 248.088 30.204 248.099 30.2C248.1 30.2 248.101 30.2014 248.103 30.2014V30.1987L248.105 30.2067C248.107 30.2067 248.107 30.2067 248.107 30.2067L248.12 30.232" fill="#184E20"/>
<path d="M241.748 37.9667C241.557 37.9667 241.365 37.964 241.171 37.956C240.163 37.916 239.219 37.2227 238.863 36.3L238.837 36.2307C237.899 36.3253 236.999 36.604 236.072 37.0694C236.003 36.8094 235.964 36.5293 235.963 36.2307C235.952 34.4307 235.915 32.652 235.82 30.8773C236.428 30.672 237.047 30.512 237.668 30.3973C237.419 30.044 237.177 29.68 236.944 29.3067C237.64 29.6933 238.324 30.1014 238.987 30.5547C239.591 30.9667 240.32 31.1694 241.057 31.1694C241.859 31.1694 242.669 30.9307 243.343 30.4627C243.924 30.0587 244.401 29.4853 244.683 28.7467C244.787 28.484 244.915 28.268 245.036 28.0467C245.805 28.5253 246.557 29.0494 247.235 29.6867C247.492 29.9267 247.772 30.0973 248.065 30.212C248.083 30.2187 248.101 30.2253 248.12 30.232C248.415 30.3387 248.724 30.3867 249.039 30.3867C249.961 30.3867 250.927 29.9667 251.716 29.3653C251.881 29.24 252.037 29.1067 252.185 28.9667C252.412 29.4507 252.643 29.9293 252.88 30.3987C249.293 32.7933 245.789 35.304 242.417 37.952C242.356 37.9547 242.295 37.9573 242.233 37.9587C242.232 37.9307 242.231 37.9027 242.231 37.8747C242.18 37.904 242.129 37.9333 242.08 37.964C241.969 37.9653 241.86 37.9667 241.748 37.9667" fill="#51871D"/>
<path d="M239.059 39.288C237.684 39.288 236.439 38.4494 236.072 37.0694C236.999 36.604 237.899 36.3254 238.837 36.2307L238.863 36.3C239.219 37.2227 240.163 37.916 241.171 37.956C241.365 37.964 241.557 37.9667 241.748 37.9667C241.86 37.9667 241.969 37.9654 242.08 37.964C241.701 38.1907 241.335 38.4427 240.977 38.7187C240.36 39.108 239.695 39.288 239.059 39.288V39.288ZM242.24 38.092C242.236 38.048 242.235 38.004 242.233 37.9587C242.295 37.9574 242.356 37.9547 242.417 37.952C242.359 37.9987 242.299 38.0454 242.24 38.092ZM235.82 30.8774C235.792 30.3507 235.759 29.8227 235.719 29.2947C234.808 28.5094 234.375 27.2027 234.76 25.912C234.843 25.8414 234.923 25.7694 234.999 25.696C235.6 26.9547 236.237 28.1734 236.944 29.3067C237.177 29.68 237.419 30.044 237.668 30.3974C237.047 30.512 236.428 30.672 235.82 30.8774" fill="#6F9728"/>
<path d="M231.549 26.8907C231.303 26.8227 231.064 26.712 230.84 26.5507C230.84 26.5507 230.84 26.5507 230.841 26.5507C231.059 26.7027 231.291 26.8027 231.529 26.872C231.897 26.4707 232.241 26.0494 232.552 25.6094C232.561 25.6054 232.569 25.6 232.577 25.596C232.268 26.0494 231.924 26.4827 231.549 26.8907" fill="#C6C5C6"/>
<path d="M232.197 26.976C231.977 26.976 231.76 26.9494 231.549 26.8907C231.924 26.4827 232.268 26.0494 232.577 25.596C232.748 25.5027 232.917 25.4107 233.088 25.3187C232.919 25.784 232.781 26.3227 232.675 26.936C232.515 26.9627 232.356 26.976 232.197 26.976Z" fill="#184E20"/>
<path d="M228.683 31.0227C227.895 31.0227 227.088 30.7667 226.368 30.2014C226.125 29.9134 225.885 29.6654 225.647 29.456C227.039 28.652 228.439 27.8587 229.839 27.08C229.851 27.0827 229.861 27.0854 229.873 27.088C230.195 26.908 230.517 26.7294 230.84 26.5507C231.064 26.712 231.303 26.8227 231.549 26.8907C231.76 26.9494 231.977 26.976 232.197 26.976C232.356 26.976 232.515 26.9627 232.675 26.936C232.668 26.972 232.661 27.0094 232.656 27.0467C232.495 29.436 230.643 31.0227 228.683 31.0227" fill="#6F9728"/>
<path d="M229.204 40.1627C227.435 40.1627 225.647 39.8907 224.213 39.0107C223.692 38.6907 223.217 38.2907 222.808 37.7947C222.395 37.296 222.119 36.7467 221.883 36.1854C221.392 35.0147 221.073 33.7894 220.059 32.832C220.048 32.8214 220.037 32.812 220.027 32.8014C220.424 32.5574 220.823 32.3147 221.22 32.0734C222.02 32.8814 222.661 33.8414 223.071 34.9947C223.833 37.1267 225.352 38.4414 227.601 38.7094C227.807 38.7334 228.243 38.7654 228.772 38.7654C230.485 38.7654 233.163 38.428 232.015 36.4C231.047 34.6787 228.972 34.0347 228.076 32.252C227.859 31.82 228.293 31.2814 228.749 31.2814C228.764 31.2814 228.779 31.2827 228.793 31.284L229.456 31.3267C230.027 31.368 230.116 31.992 229.851 32.3734C231.225 33.796 234.033 34.972 233.475 37.2587C232.989 39.2294 231.407 40.128 229.463 40.1614C229.376 40.1627 229.291 40.1627 229.204 40.1627V40.1627ZM209.808 39.5654C210.636 38.9774 211.469 38.396 212.308 37.8214C212.009 38.42 211.549 38.912 210.851 39.2107C210.513 39.3547 210.164 39.476 209.808 39.5654" fill="#AEBA5D"/>
<path d="M203.572 62.0934C203.263 62.0934 202.953 61.8987 202.953 61.56C202.948 60.3627 203.151 59.204 203.296 58.016C202.124 57.9534 200.992 57.8547 199.843 57.572C199.565 57.504 199.413 57.1654 199.451 56.888C199.467 56.7947 199.676 56.1094 199.895 56.1094C199.915 56.1094 199.935 56.1147 199.955 56.128C199.444 55.7947 198.879 55.516 198.403 55.1267C197.597 54.4667 197.12 53.804 197.181 52.684C197.304 50.4 199.227 49.824 201.321 49.824C203.212 49.824 205.245 50.2934 206.223 50.4027C207.04 50.4974 206.883 51.7507 206.08 51.7507C206.061 51.7507 206.043 51.7494 206.024 51.748L204.873 51.6667C204.679 51.6574 204.551 51.5694 204.455 51.4547C203.507 51.26 202.372 51.044 201.345 51.044C200.053 51.044 198.933 51.3867 198.575 52.5427C198.16 53.884 200.256 54.5987 201.015 55.184C201.377 55.4627 201.653 55.976 201.444 56.4627C201.329 56.7374 201.127 56.9147 200.895 57.096C201.321 56.7694 202.259 56.6854 203.179 56.6854C203.508 56.6854 203.836 56.696 204.137 56.7107C204.509 56.7294 204.733 57.068 204.696 57.428C204.601 58.404 204.405 59.38 204.32 60.352C205.741 59.6347 207.105 58.8107 208.104 57.4987C208.255 57.2907 208.455 57.2134 208.669 57.2134C208.743 57.2134 208.816 57.2227 208.891 57.2374C209.257 57.3174 209.601 57.3467 209.929 57.3467C210.34 57.3467 210.725 57.3014 211.099 57.2574C211.473 57.212 211.836 57.168 212.2 57.168C212.771 57.168 213.345 57.2774 213.976 57.6654C214.572 58.028 214.069 58.8774 213.477 58.8774C213.368 58.8774 213.253 58.8467 213.144 58.78C212.973 58.6747 212.173 58.608 211.281 58.608C210.137 58.608 208.843 58.7187 208.544 59.0027C207.155 60.3307 205.563 61.2174 203.863 62.0307C203.772 62.0734 203.672 62.0934 203.572 62.0934V62.0934Z" fill="#AEBA5D"/>
<path d="M230.841 26.5507C230.835 26.5454 230.828 26.5414 230.82 26.536C231.407 26.2134 231.992 25.892 232.579 25.572C232.569 25.5854 232.561 25.5974 232.552 25.6094C231.981 25.9214 231.412 26.2347 230.841 26.5507" fill="#D9D9D9"/>
<path d="M230.84 26.5507C230.833 26.5467 230.827 26.5414 230.82 26.536C230.828 26.5414 230.835 26.5454 230.841 26.5507C230.84 26.5507 230.84 26.5507 230.84 26.5507" fill="#A8A7A9"/>
<path d="M229.873 27.088C229.861 27.0854 229.851 27.0827 229.839 27.08C230.165 26.8987 230.492 26.7174 230.82 26.536C230.827 26.5414 230.833 26.5467 230.84 26.5507C230.517 26.7294 230.195 26.908 229.873 27.088Z" fill="#5E8022"/>
<path d="M232.552 25.6094C232.561 25.5974 232.569 25.5854 232.579 25.572C232.587 25.568 232.596 25.5627 232.603 25.5587C232.595 25.572 232.587 25.584 232.577 25.596C232.569 25.6 232.561 25.6054 232.552 25.6094" fill="#A8A7A9"/>
<path d="M232.577 25.596C232.587 25.584 232.595 25.572 232.603 25.5587C232.769 25.4693 232.932 25.38 233.097 25.2907C233.095 25.3 233.091 25.3094 233.088 25.3187C232.917 25.4107 232.748 25.5027 232.577 25.596ZM235.64 23.9427C235.637 23.9373 235.636 23.9333 235.633 23.928C236.419 23.5107 237.201 23.096 237.985 22.6854C237.992 22.6867 238 22.688 238.008 22.6894C237.219 23.104 236.428 23.5213 235.64 23.9427" fill="#14421B"/>
<path d="M233.088 25.3187C233.091 25.3094 233.095 25.3 233.097 25.2907C233.943 24.832 234.788 24.3787 235.633 23.928C235.636 23.9334 235.637 23.9374 235.64 23.9427C234.788 24.3974 233.937 24.856 233.088 25.3187" fill="#798E30"/>
</svg>
