<svg width="74" height="40" viewBox="0 0 74 40" fill="none" xmlns="http://www.w3.org/2000/svg">
<rect x="0.628021" y="24.4933" width="38.9381" height="5.02427" rx="2.51214" fill="#3B1910"/>
<path d="M2.91263 29.9027H37.0874L36.0194 33.1066H4.17476L2.91263 29.9027Z" fill="url(#paint0_linear)"/>
<path d="M6.50488 10.0971C12.233 5.72816 25.2427 4.46602 33.0097 10.0971C40.7767 15.7282 37.9384 18.6408 37.9384 18.6408H1.75526C1.75526 18.6408 0.776725 14.466 6.50488 10.0971Z" fill="url(#paint1_linear)"/>
<rect x="3.88348" y="21.9417" width="32.233" height="2.3301" fill="#F4DF21"/>
<path d="M10.0971 30.4854C10.0971 30.4854 10.3242 26.4697 8.77999 24.8417C7.23575 23.2138 14.0725 22.124 13.2039 24.0776C12.3353 26.0311 12.4272 30.4854 12.4272 30.4854L10.0971 30.4854Z" fill="#F4DF21"/>
<rect x="3.49512" y="19.2233" width="33.0097" height="2.71845" fill="#408603"/>
<path d="M15.1541 27.5729C15.1541 27.5729 15.4109 25.1423 13.6652 24.157C11.9195 23.1716 19.3386 22.5804 18.3567 23.7629C17.3747 24.9453 17.767 26.9904 17.767 26.9904L15.1541 27.5729Z" fill="#F4DF21"/>
<path d="M14.9902 16.5168C15.1404 16.5168 15.2907 16.4595 15.4053 16.3448L16.0315 15.7186C16.2608 15.4893 16.2608 15.1177 16.0315 14.8884C15.8023 14.6591 15.4305 14.6591 15.2013 14.8884L14.5751 15.5146C14.3458 15.7439 14.3458 16.1155 14.5751 16.3448C14.6897 16.4595 14.84 16.5168 14.9902 16.5168Z" fill="black"/>
<path d="M20.8373 15.7186C20.9519 15.8332 21.1022 15.8906 21.2525 15.8906C21.4027 15.8906 21.553 15.8333 21.6676 15.7186C21.8968 15.4893 21.8968 15.1177 21.6676 14.8884L21.0413 14.2622C20.8121 14.0329 20.4403 14.0329 20.2111 14.2622C19.9818 14.4914 19.9818 14.8631 20.2111 15.0924L20.8373 15.7186Z" fill="black"/>
<path d="M31.4831 15.0924C31.5977 15.207 31.748 15.2644 31.8983 15.2644C32.0485 15.2644 32.1988 15.2071 32.3134 15.0924C32.5426 14.8631 32.5426 14.4914 32.3134 14.2622L31.6871 13.6359C31.4579 13.4067 31.0861 13.4067 30.8569 13.6359C30.6276 13.8652 30.6276 14.2369 30.8569 14.4662L31.4831 15.0924Z" fill="black"/>
<path d="M17.08 10.7086C17.1946 10.8232 17.3449 10.8806 17.4951 10.8806C17.6453 10.8806 17.7956 10.8233 17.9102 10.7086C18.1395 10.4793 18.1395 10.1077 17.9102 9.87838L17.284 9.25216C17.0547 9.02288 16.683 9.02288 16.4538 9.25216C16.2245 9.48143 16.2245 9.8531 16.4538 10.0824L17.08 10.7086Z" fill="black"/>
<path d="M12.4853 13.3856C12.6356 13.3856 12.7859 13.3283 12.9005 13.2136L13.5267 12.5874C13.756 12.3581 13.756 11.9864 13.5267 11.7572C13.2974 11.5279 12.9257 11.5279 12.6965 11.7572L12.0702 12.3834C11.841 12.6127 11.841 12.9843 12.0702 13.2136C12.1848 13.3283 12.3351 13.3856 12.4853 13.3856Z" fill="black"/>
<path d="M8.31289 15.7186C8.42749 15.8332 8.57778 15.8906 8.728 15.8906C8.87821 15.8906 9.02851 15.8333 9.14311 15.7186C9.37238 15.4893 9.37238 15.1177 9.14311 14.8884L8.51688 14.2622C8.28761 14.0329 7.91586 14.0329 7.68667 14.2622C7.45739 14.4914 7.45739 14.8631 7.68667 15.0924L8.31289 15.7186Z" fill="black"/>
<path d="M26.2622 16.5168C26.4125 16.5168 26.5627 16.4595 26.6773 16.3448L27.3036 15.7186C27.5328 15.4893 27.5328 15.1177 27.3036 14.8884C27.0743 14.6591 26.7025 14.6591 26.4734 14.8884L25.8471 15.5146C25.6179 15.7439 25.6179 16.1155 25.8471 16.3448C25.9617 16.4595 26.112 16.5168 26.2622 16.5168Z" fill="black"/>
<path d="M22.5049 11.507C22.6551 11.507 22.8054 11.4497 22.92 11.3351L23.5462 10.7088C23.7755 10.4796 23.7755 10.1079 23.5462 9.87862C23.3169 9.64935 22.9452 9.64935 22.716 9.87862L22.0898 10.5048C21.8605 10.7341 21.8605 11.1058 22.0898 11.3351C22.2044 11.4497 22.3547 11.507 22.5049 11.507Z" fill="black"/>
<path d="M26.2622 12.7594C26.4125 12.7594 26.5627 12.7021 26.6773 12.5874L27.3036 11.9612C27.5328 11.7319 27.5328 11.3602 27.3036 11.1309C27.0743 10.9017 26.7025 10.9017 26.4734 11.1309L25.8471 11.7572C25.6179 11.9864 25.6179 12.3581 25.8471 12.5874C25.9617 12.7021 26.112 12.7594 26.2622 12.7594Z" fill="black"/>
<path d="M37.5342 24.1097H36.8689V22.4215C36.869 22.4215 36.8691 22.4214 36.8692 22.4214C37.218 22.2772 37.5193 22.1527 38.1605 22.1527C38.4847 22.1527 38.7476 21.8899 38.7476 21.5657C38.7476 21.2414 38.4847 20.9786 38.1605 20.9786C37.584 20.9786 37.1883 21.0613 36.8689 21.1657V19.6478H36.908C37.9567 19.6478 38.7476 18.8568 38.7476 17.8078V15.9296C38.7476 14.6864 37.0682 12.1956 33.9559 10.0286C31.2831 8.16761 26.6923 5.94922 20 5.94922C13.3077 5.94922 8.71695 8.16761 6.04415 10.0286C2.93182 12.1956 1.25245 14.6864 1.25245 15.9296V17.8078C1.25245 18.8568 2.04329 19.6478 3.09198 19.6478H3.13112V21.1666C2.81198 21.0618 2.41644 20.9786 1.83953 20.9786C1.5153 20.9786 1.25245 21.2414 1.25245 21.5657C1.25245 21.8899 1.5153 22.1527 1.83953 22.1527C2.47843 22.1527 2.77863 22.2771 3.12626 22.4212C3.12791 22.4219 3.12955 22.4226 3.13112 22.4232V24.1097H2.46575C1.10614 24.1097 0 25.2158 0 26.5754V27.8279C0 29.1875 1.10614 30.2936 2.46575 30.2936H2.50489V30.9612C2.50489 32.6649 3.89096 34.051 5.59468 34.051H34.4054C36.109 34.051 37.4951 32.6649 37.4951 30.9612V30.2936H37.5342C38.8939 30.2936 40 29.1875 40 27.8279V26.5754C40 25.2158 38.8939 24.1097 37.5342 24.1097ZM2.42661 17.8078V15.9296C2.42661 15.2705 3.72157 13.0766 6.71515 10.9922C9.24986 9.22726 13.6123 7.12339 20 7.12339C26.3877 7.12339 30.7501 9.22726 33.2849 10.9922C36.2784 13.0766 37.5734 15.2705 37.5734 15.9296V17.8078C37.5734 18.1999 37.2998 18.4737 36.908 18.4737H3.09198C2.7002 18.4737 2.42661 18.1999 2.42661 17.8078ZM35.6947 19.6478V21.5631C35.5368 21.5892 35.3543 21.6048 35.1295 21.6048C34.4882 21.6048 34.187 21.4803 33.8382 21.3361C33.4326 21.1685 32.9728 20.9786 32.0985 20.9786C31.2247 20.9786 30.7651 21.1686 30.3597 21.3362C30.0112 21.4803 29.7102 21.6048 29.0696 21.6048C28.4297 21.6048 28.129 21.4803 27.781 21.3363C27.3758 21.1686 26.9166 20.9786 26.0434 20.9786C25.1702 20.9786 24.711 21.1686 24.3059 21.3363C23.9579 21.4803 23.6572 21.6048 23.0175 21.6048C22.3775 21.6048 22.0768 21.4803 21.7287 21.3363C21.3234 21.1686 20.8642 20.9786 19.9908 20.9786C19.1175 20.9786 18.6582 21.1686 18.2531 21.3363C17.9049 21.4803 17.6042 21.6048 16.9642 21.6048C16.3242 21.6048 16.0235 21.4803 15.6754 21.3363C15.2701 21.1686 14.811 20.9786 13.9375 20.9786C13.0645 20.9786 12.6053 21.1686 12.2003 21.3363C11.8524 21.4803 11.5518 21.6048 10.9122 21.6048C10.273 21.6048 9.97268 21.4804 9.62489 21.3364C9.21996 21.1687 8.76102 20.9786 7.8883 20.9786C7.01519 20.9786 6.55593 21.1686 6.15084 21.3363C5.80282 21.4803 5.50223 21.6048 4.86254 21.6048C4.64141 21.6048 4.46145 21.5896 4.30544 21.5642V19.6478H35.6947ZM4.30528 22.7493C4.471 22.768 4.65464 22.779 4.86239 22.779C5.7355 22.779 6.19468 22.5889 6.59976 22.4212C6.94779 22.2772 7.24838 22.1527 7.88806 22.1527C8.52728 22.1527 8.82755 22.2771 9.17534 22.4212C9.58027 22.5888 10.0392 22.779 10.9119 22.779C11.785 22.779 12.2441 22.5889 12.6492 22.4212C12.9971 22.2772 13.2977 22.1527 13.9373 22.1527C14.5773 22.1527 14.878 22.2772 15.2261 22.4212C15.6313 22.5889 16.0906 22.779 16.964 22.779C17.8373 22.779 18.2966 22.5889 18.7018 22.4212C19.05 22.2772 19.3507 22.1527 19.9907 22.1527C20.6307 22.1527 20.9314 22.2772 21.2796 22.4212C21.6849 22.5889 22.1441 22.779 23.0175 22.779C23.8906 22.779 24.3498 22.5889 24.7549 22.4212C25.103 22.2772 25.4036 22.1527 26.0434 22.1527C26.6832 22.1527 26.9839 22.2771 27.332 22.4212C27.7371 22.589 28.1964 22.779 29.0697 22.779C29.9435 22.779 30.4031 22.5889 30.8085 22.4213C31.1569 22.2772 31.4579 22.1527 32.0986 22.1527C32.7398 22.1527 33.041 22.2772 33.3898 22.4214C33.7955 22.5891 34.2553 22.779 35.1296 22.779C35.3406 22.779 35.527 22.7677 35.6948 22.7485V24.1097H19.3738H18.7476H18.7473C18.7472 24.1097 18.7472 24.1097 18.7471 24.1097C17.7329 24.11 16.908 24.935 16.908 25.9492V26.5754C16.908 26.771 16.8225 26.9558 16.6733 27.0827C16.5221 27.2112 16.3279 27.264 16.1266 27.2313C15.8186 27.1812 15.5773 26.8636 15.5773 26.5084V26.0162C15.5773 25.0858 14.9174 24.2768 14.0423 24.1344C13.5035 24.0468 12.9581 24.1973 12.5465 24.5475C12.1345 24.8979 11.8982 25.4088 11.8982 25.9492V29.6395C11.8982 29.9948 11.657 30.3123 11.349 30.3624C11.1476 30.3949 10.9534 30.3424 10.8023 30.2138C10.6531 30.0869 10.5675 29.902 10.5675 29.7066V26.5754C10.5675 25.2158 9.46129 24.1097 8.1016 24.1097H4.30528V22.7493ZM1.17417 27.8279V26.5754C1.17417 25.8633 1.75358 25.2839 2.46575 25.2839H8.10176C8.81393 25.2839 9.39335 25.8633 9.39335 26.5754V29.1195H2.46575C1.75358 29.1195 1.17417 28.5401 1.17417 27.8279ZM36.3209 30.9612C36.3209 32.0175 35.4616 32.8768 34.4053 32.8768H5.59468C4.5384 32.8768 3.67906 32.0175 3.67906 30.9612V30.2936H9.48932C9.5946 30.6067 9.78364 30.8889 10.0416 31.1083C10.3764 31.3931 10.7995 31.5458 11.2357 31.5458C11.3359 31.5458 11.4369 31.5376 11.5375 31.5213C12.198 31.4138 12.7355 30.9263 12.9595 30.2936H36.3209V30.9612ZM38.8258 27.8279C38.8258 28.5401 38.2464 29.1195 37.5342 29.1195H13.0724V25.9492C13.0724 25.7537 13.158 25.5689 13.3072 25.442C13.4583 25.3134 13.6525 25.2607 13.8539 25.2934C14.1619 25.3435 14.4031 25.6611 14.4031 26.0162V26.5084C14.4031 27.4388 15.063 28.2478 15.9381 28.3902C16.4769 28.4778 17.0222 28.3274 17.434 27.9772C17.8459 27.6268 18.0822 27.1159 18.0822 26.5754V25.9492C18.0822 25.5823 18.3807 25.2839 18.7476 25.2839H19.3738H37.5342C38.2464 25.2839 38.8258 25.8633 38.8258 26.5754V27.8279Z" fill="black"/>
<path d="M69.4875 30.184C69.8126 30.4784 70.3001 30.6256 70.9501 30.6256C71.6157 30.6256 72.1496 30.4474 72.552 30.0911C72.9545 29.7192 73.1557 29.2234 73.1557 28.6036C73.1557 28.0923 72.9777 27.6972 72.6217 27.4183C72.2657 27.1394 71.8014 27 71.2287 27C70.5942 27 70.0602 27.1859 69.6268 27.5578C69.2089 27.9142 69 28.3635 69 28.9058C69 29.4481 69.1625 29.8742 69.4875 30.184Z" fill="#F7F7F6"/>
<path d="M68.89 15.1596C68.89 16.4766 68.4257 17.6154 67.4971 18.576C66.5684 19.5212 65.2142 20.2029 63.4343 20.6212C64.3939 20.8846 65.1213 21.3185 65.6166 21.9227C66.1118 22.5115 66.3595 23.1933 66.3595 23.968C66.3595 25.192 65.9726 26.2534 65.1987 27.152C64.4403 28.0507 63.3259 28.7479 61.8556 29.2437C60.3852 29.7241 58.6131 29.9642 56.5391 29.9642C55.7652 29.9642 55.1461 29.941 54.6818 29.8945C54.6664 30.3283 54.4806 30.6537 54.1246 30.8706C53.7687 31.0875 53.3121 31.196 52.7549 31.196C52.1977 31.196 51.8108 31.072 51.5941 30.8241C51.3929 30.5762 51.3078 30.2121 51.3387 29.7318C51.478 27.5626 51.7489 25.2927 52.1513 22.9221C52.5537 20.536 53.0644 18.2351 53.6835 16.0195C53.7919 15.6321 54.0086 15.361 54.3336 15.206C54.6586 15.0511 55.0842 14.9736 55.6105 14.9736C56.5546 14.9736 57.0266 15.237 57.0266 15.7638C57.0266 15.9807 56.9802 16.2286 56.8874 16.5075C56.4849 17.7161 56.0825 19.3585 55.6801 21.4347C55.2777 23.4954 54.9914 25.4632 54.8211 27.338C55.564 27.3999 56.1677 27.4309 56.632 27.4309C58.7988 27.4309 60.3852 27.121 61.3913 26.5013C62.4128 25.866 62.9235 25.0603 62.9235 24.0842C62.9235 23.4024 62.6294 22.8292 62.0413 22.3643C61.4686 21.8995 60.5013 21.6439 59.1393 21.5974C58.8298 21.5819 58.6131 21.5044 58.4893 21.365C58.3654 21.2255 58.3035 21.0008 58.3035 20.691C58.3035 20.2416 58.3964 19.8775 58.5821 19.5986C58.7678 19.3197 59.1084 19.1725 59.6036 19.157C60.7025 19.1261 61.6931 18.9634 62.5753 18.669C63.473 18.3746 64.1772 17.964 64.6879 17.4372C65.1987 16.8949 65.4541 16.2674 65.4541 15.5547C65.4541 14.656 65.013 13.951 64.1307 13.4397C63.2485 12.9129 61.8943 12.6495 60.0679 12.6495C58.4119 12.6495 56.81 12.8664 55.2622 13.3003C53.7145 13.7186 52.3989 14.2531 51.3155 14.9039C50.8202 15.1983 50.4023 15.3455 50.0618 15.3455C49.7833 15.3455 49.5666 15.2525 49.4118 15.0666C49.2725 14.8652 49.2029 14.6173 49.2029 14.3229C49.2029 13.9355 49.2802 13.6024 49.435 13.3235C49.6053 13.0446 49.9999 12.727 50.619 12.3706C51.9191 11.6269 53.4436 11.0459 55.1926 10.6275C56.9415 10.2092 58.7292 10 60.5555 10C63.3569 10 65.4463 10.4726 66.8238 11.4177C68.2013 12.3629 68.89 13.6101 68.89 15.1596Z" fill="#F7F7F6"/>
<defs>
<linearGradient id="paint0_linear" x1="20" y1="29.9027" x2="20" y2="33.1066" gradientUnits="userSpaceOnUse">
<stop stop-color="#F49521" stop-opacity="0.65"/>
<stop offset="1" stop-color="#FC650B"/>
</linearGradient>
<linearGradient id="paint1_linear" x1="20.0681" y1="6.33228" x2="20.0681" y2="18.6408" gradientUnits="userSpaceOnUse">
<stop stop-color="#FC650B"/>
<stop offset="1" stop-color="#F49521" stop-opacity="0.63"/>
</linearGradient>
</defs>
</svg>
