<svg width="186" height="41" viewBox="0 0 186 41" fill="none" xmlns="http://www.w3.org/2000/svg">
<rect x="0.628021" y="24.4933" width="38.9381" height="5.02427" rx="2.51214" fill="#3B1910"/>
<path d="M2.91263 29.9027H37.0874L36.0194 33.1066H4.17476L2.91263 29.9027Z" fill="url(#paint0_linear)"/>
<path d="M6.50488 10.0971C12.233 5.72816 25.2427 4.46602 33.0097 10.0971C40.7767 15.7282 37.9384 18.6408 37.9384 18.6408H1.75526C1.75526 18.6408 0.776725 14.466 6.50488 10.0971Z" fill="url(#paint1_linear)"/>
<rect x="3.88348" y="21.9417" width="32.233" height="2.3301" fill="#F4DF21"/>
<path d="M10.0971 30.4854C10.0971 30.4854 10.3242 26.4697 8.77999 24.8417C7.23575 23.2138 14.0725 22.124 13.2039 24.0776C12.3353 26.0311 12.4272 30.4854 12.4272 30.4854L10.0971 30.4854Z" fill="#F4DF21"/>
<rect x="3.49512" y="19.2233" width="33.0097" height="2.71845" fill="#408603"/>
<path d="M15.1541 27.5729C15.1541 27.5729 15.4109 25.1423 13.6652 24.157C11.9195 23.1716 19.3386 22.5804 18.3567 23.7629C17.3747 24.9453 17.767 26.9904 17.767 26.9904L15.1541 27.5729Z" fill="#F4DF21"/>
<path d="M14.9902 16.5168C15.1404 16.5168 15.2907 16.4595 15.4053 16.3448L16.0315 15.7186C16.2608 15.4893 16.2608 15.1177 16.0315 14.8884C15.8023 14.6591 15.4305 14.6591 15.2013 14.8884L14.5751 15.5146C14.3458 15.7439 14.3458 16.1155 14.5751 16.3448C14.6897 16.4595 14.84 16.5168 14.9902 16.5168Z" fill="black"/>
<path d="M20.8373 15.7186C20.9519 15.8332 21.1022 15.8906 21.2525 15.8906C21.4027 15.8906 21.553 15.8333 21.6676 15.7186C21.8968 15.4893 21.8968 15.1177 21.6676 14.8884L21.0413 14.2622C20.8121 14.0329 20.4403 14.0329 20.2111 14.2622C19.9818 14.4914 19.9818 14.8631 20.2111 15.0924L20.8373 15.7186Z" fill="black"/>
<path d="M31.4831 15.0924C31.5977 15.207 31.748 15.2644 31.8983 15.2644C32.0485 15.2644 32.1988 15.2071 32.3134 15.0924C32.5426 14.8631 32.5426 14.4914 32.3134 14.2622L31.6871 13.6359C31.4579 13.4067 31.0861 13.4067 30.8569 13.6359C30.6276 13.8652 30.6276 14.2369 30.8569 14.4662L31.4831 15.0924Z" fill="black"/>
<path d="M17.08 10.7086C17.1946 10.8232 17.3449 10.8806 17.4951 10.8806C17.6453 10.8806 17.7956 10.8233 17.9102 10.7086C18.1395 10.4793 18.1395 10.1077 17.9102 9.87838L17.284 9.25216C17.0547 9.02288 16.683 9.02288 16.4538 9.25216C16.2245 9.48143 16.2245 9.8531 16.4538 10.0824L17.08 10.7086Z" fill="black"/>
<path d="M12.4853 13.3856C12.6356 13.3856 12.7859 13.3283 12.9005 13.2136L13.5267 12.5874C13.756 12.3581 13.756 11.9864 13.5267 11.7572C13.2974 11.5279 12.9257 11.5279 12.6965 11.7572L12.0702 12.3834C11.841 12.6127 11.841 12.9843 12.0702 13.2136C12.1848 13.3283 12.3351 13.3856 12.4853 13.3856Z" fill="black"/>
<path d="M8.31289 15.7186C8.42749 15.8332 8.57778 15.8906 8.728 15.8906C8.87821 15.8906 9.02851 15.8333 9.14311 15.7186C9.37238 15.4893 9.37238 15.1177 9.14311 14.8884L8.51688 14.2622C8.28761 14.0329 7.91586 14.0329 7.68667 14.2622C7.45739 14.4914 7.45739 14.8631 7.68667 15.0924L8.31289 15.7186Z" fill="black"/>
<path d="M26.2622 16.5168C26.4125 16.5168 26.5627 16.4595 26.6773 16.3448L27.3036 15.7186C27.5328 15.4893 27.5328 15.1177 27.3036 14.8884C27.0743 14.6591 26.7025 14.6591 26.4734 14.8884L25.8471 15.5146C25.6179 15.7439 25.6179 16.1155 25.8471 16.3448C25.9617 16.4595 26.112 16.5168 26.2622 16.5168Z" fill="black"/>
<path d="M22.5049 11.507C22.6551 11.507 22.8054 11.4497 22.92 11.3351L23.5462 10.7088C23.7755 10.4796 23.7755 10.1079 23.5462 9.87862C23.3169 9.64935 22.9452 9.64935 22.716 9.87862L22.0898 10.5048C21.8605 10.7341 21.8605 11.1058 22.0898 11.3351C22.2044 11.4497 22.3547 11.507 22.5049 11.507Z" fill="black"/>
<path d="M26.2622 12.7594C26.4125 12.7594 26.5627 12.7021 26.6773 12.5874L27.3036 11.9612C27.5328 11.7319 27.5328 11.3602 27.3036 11.1309C27.0743 10.9017 26.7025 10.9017 26.4734 11.1309L25.8471 11.7572C25.6179 11.9864 25.6179 12.3581 25.8471 12.5874C25.9617 12.7021 26.112 12.7594 26.2622 12.7594Z" fill="black"/>
<path d="M37.5342 24.1097H36.8689V22.4215C36.869 22.4215 36.8691 22.4214 36.8692 22.4214C37.218 22.2772 37.5193 22.1527 38.1605 22.1527C38.4847 22.1527 38.7476 21.8899 38.7476 21.5657C38.7476 21.2414 38.4847 20.9786 38.1605 20.9786C37.584 20.9786 37.1883 21.0613 36.8689 21.1657V19.6478H36.908C37.9567 19.6478 38.7476 18.8568 38.7476 17.8078V15.9296C38.7476 14.6864 37.0682 12.1956 33.9559 10.0286C31.2831 8.16761 26.6923 5.94922 20 5.94922C13.3077 5.94922 8.71695 8.16761 6.04415 10.0286C2.93182 12.1956 1.25245 14.6864 1.25245 15.9296V17.8078C1.25245 18.8568 2.04329 19.6478 3.09198 19.6478H3.13112V21.1666C2.81198 21.0618 2.41644 20.9786 1.83953 20.9786C1.5153 20.9786 1.25245 21.2414 1.25245 21.5657C1.25245 21.8899 1.5153 22.1527 1.83953 22.1527C2.47843 22.1527 2.77863 22.2771 3.12626 22.4212C3.12791 22.4219 3.12955 22.4226 3.13112 22.4232V24.1097H2.46575C1.10614 24.1097 0 25.2158 0 26.5754V27.8279C0 29.1875 1.10614 30.2936 2.46575 30.2936H2.50489V30.9612C2.50489 32.6649 3.89096 34.051 5.59468 34.051H34.4054C36.109 34.051 37.4951 32.6649 37.4951 30.9612V30.2936H37.5342C38.8939 30.2936 40 29.1875 40 27.8279V26.5754C40 25.2158 38.8939 24.1097 37.5342 24.1097ZM2.42661 17.8078V15.9296C2.42661 15.2705 3.72157 13.0766 6.71515 10.9922C9.24986 9.22726 13.6123 7.12339 20 7.12339C26.3877 7.12339 30.7501 9.22726 33.2849 10.9922C36.2784 13.0766 37.5734 15.2705 37.5734 15.9296V17.8078C37.5734 18.1999 37.2998 18.4737 36.908 18.4737H3.09198C2.7002 18.4737 2.42661 18.1999 2.42661 17.8078ZM35.6947 19.6478V21.5631C35.5368 21.5892 35.3543 21.6048 35.1295 21.6048C34.4882 21.6048 34.187 21.4803 33.8382 21.3361C33.4326 21.1685 32.9728 20.9786 32.0985 20.9786C31.2247 20.9786 30.7651 21.1686 30.3597 21.3362C30.0112 21.4803 29.7102 21.6048 29.0696 21.6048C28.4297 21.6048 28.129 21.4803 27.781 21.3363C27.3758 21.1686 26.9166 20.9786 26.0434 20.9786C25.1702 20.9786 24.711 21.1686 24.3059 21.3363C23.9579 21.4803 23.6572 21.6048 23.0175 21.6048C22.3775 21.6048 22.0768 21.4803 21.7287 21.3363C21.3234 21.1686 20.8642 20.9786 19.9908 20.9786C19.1175 20.9786 18.6582 21.1686 18.2531 21.3363C17.9049 21.4803 17.6042 21.6048 16.9642 21.6048C16.3242 21.6048 16.0235 21.4803 15.6754 21.3363C15.2701 21.1686 14.811 20.9786 13.9375 20.9786C13.0645 20.9786 12.6053 21.1686 12.2003 21.3363C11.8524 21.4803 11.5518 21.6048 10.9122 21.6048C10.273 21.6048 9.97268 21.4804 9.62489 21.3364C9.21996 21.1687 8.76102 20.9786 7.8883 20.9786C7.01519 20.9786 6.55593 21.1686 6.15084 21.3363C5.80282 21.4803 5.50223 21.6048 4.86254 21.6048C4.64141 21.6048 4.46145 21.5896 4.30544 21.5642V19.6478H35.6947ZM4.30528 22.7493C4.471 22.768 4.65464 22.779 4.86239 22.779C5.7355 22.779 6.19468 22.5889 6.59976 22.4212C6.94779 22.2772 7.24838 22.1527 7.88806 22.1527C8.52728 22.1527 8.82755 22.2771 9.17534 22.4212C9.58027 22.5888 10.0392 22.779 10.9119 22.779C11.785 22.779 12.2441 22.5889 12.6492 22.4212C12.9971 22.2772 13.2977 22.1527 13.9373 22.1527C14.5773 22.1527 14.878 22.2772 15.2261 22.4212C15.6313 22.5889 16.0906 22.779 16.964 22.779C17.8373 22.779 18.2966 22.5889 18.7018 22.4212C19.05 22.2772 19.3507 22.1527 19.9907 22.1527C20.6307 22.1527 20.9314 22.2772 21.2796 22.4212C21.6849 22.5889 22.1441 22.779 23.0175 22.779C23.8906 22.779 24.3498 22.5889 24.7549 22.4212C25.103 22.2772 25.4036 22.1527 26.0434 22.1527C26.6832 22.1527 26.9839 22.2771 27.332 22.4212C27.7371 22.589 28.1964 22.779 29.0697 22.779C29.9435 22.779 30.4031 22.5889 30.8085 22.4213C31.1569 22.2772 31.4579 22.1527 32.0986 22.1527C32.7398 22.1527 33.041 22.2772 33.3898 22.4214C33.7955 22.5891 34.2553 22.779 35.1296 22.779C35.3406 22.779 35.527 22.7677 35.6948 22.7485V24.1097H19.3738H18.7476H18.7473C18.7472 24.1097 18.7472 24.1097 18.7471 24.1097C17.7329 24.11 16.908 24.935 16.908 25.9492V26.5754C16.908 26.771 16.8225 26.9558 16.6733 27.0827C16.5221 27.2112 16.3279 27.264 16.1266 27.2313C15.8186 27.1812 15.5773 26.8636 15.5773 26.5084V26.0162C15.5773 25.0858 14.9174 24.2768 14.0423 24.1344C13.5035 24.0468 12.9581 24.1973 12.5465 24.5475C12.1345 24.8979 11.8982 25.4088 11.8982 25.9492V29.6395C11.8982 29.9948 11.657 30.3123 11.349 30.3624C11.1476 30.3949 10.9534 30.3424 10.8023 30.2138C10.6531 30.0869 10.5675 29.902 10.5675 29.7066V26.5754C10.5675 25.2158 9.46129 24.1097 8.1016 24.1097H4.30528V22.7493ZM1.17417 27.8279V26.5754C1.17417 25.8633 1.75358 25.2839 2.46575 25.2839H8.10176C8.81393 25.2839 9.39335 25.8633 9.39335 26.5754V29.1195H2.46575C1.75358 29.1195 1.17417 28.5401 1.17417 27.8279ZM36.3209 30.9612C36.3209 32.0175 35.4616 32.8768 34.4053 32.8768H5.59468C4.5384 32.8768 3.67906 32.0175 3.67906 30.9612V30.2936H9.48932C9.5946 30.6067 9.78364 30.8889 10.0416 31.1083C10.3764 31.3931 10.7995 31.5458 11.2357 31.5458C11.3359 31.5458 11.4369 31.5376 11.5375 31.5213C12.198 31.4138 12.7355 30.9263 12.9595 30.2936H36.3209V30.9612ZM38.8258 27.8279C38.8258 28.5401 38.2464 29.1195 37.5342 29.1195H13.0724V25.9492C13.0724 25.7537 13.158 25.5689 13.3072 25.442C13.4583 25.3134 13.6525 25.2607 13.8539 25.2934C14.1619 25.3435 14.4031 25.6611 14.4031 26.0162V26.5084C14.4031 27.4388 15.063 28.2478 15.9381 28.3902C16.4769 28.4778 17.0222 28.3274 17.434 27.9772C17.8459 27.6268 18.0822 27.1159 18.0822 26.5754V25.9492C18.0822 25.5823 18.3807 25.2839 18.7476 25.2839H19.3738H37.5342C38.2464 25.2839 38.8258 25.8633 38.8258 26.5754V27.8279Z" fill="black"/>
<path d="M68.89 15.1596C68.89 16.4766 68.4257 17.6154 67.4971 18.576C66.5684 19.5212 65.2142 20.2029 63.4343 20.6212C64.3939 20.8846 65.1213 21.3185 65.6166 21.9227C66.1118 22.5115 66.3595 23.1933 66.3595 23.968C66.3595 25.192 65.9726 26.2534 65.1987 27.152C64.4403 28.0507 63.3259 28.7479 61.8556 29.2437C60.3852 29.7241 58.6131 29.9642 56.5391 29.9642C55.7652 29.9642 55.1461 29.941 54.6818 29.8945C54.6664 30.3283 54.4806 30.6537 54.1246 30.8706C53.7687 31.0875 53.3121 31.196 52.7549 31.196C52.1977 31.196 51.8108 31.072 51.5941 30.8241C51.3929 30.5762 51.3078 30.2121 51.3387 29.7318C51.478 27.5626 51.7489 25.2927 52.1513 22.9221C52.5537 20.536 53.0644 18.2351 53.6835 16.0195C53.7919 15.6321 54.0086 15.361 54.3336 15.206C54.6586 15.0511 55.0842 14.9736 55.6105 14.9736C56.5546 14.9736 57.0266 15.237 57.0266 15.7638C57.0266 15.9807 56.9802 16.2286 56.8874 16.5075C56.4849 17.7161 56.0825 19.3585 55.6801 21.4347C55.2777 23.4954 54.9914 25.4632 54.8211 27.338C55.564 27.3999 56.1677 27.4309 56.632 27.4309C58.7988 27.4309 60.3852 27.121 61.3913 26.5013C62.4128 25.866 62.9235 25.0603 62.9235 24.0842C62.9235 23.4024 62.6294 22.8292 62.0413 22.3643C61.4686 21.8995 60.5013 21.6439 59.1393 21.5974C58.8298 21.5819 58.6131 21.5044 58.4893 21.365C58.3654 21.2255 58.3035 21.0008 58.3035 20.691C58.3035 20.2416 58.3964 19.8775 58.5821 19.5986C58.7678 19.3197 59.1084 19.1725 59.6036 19.157C60.7025 19.1261 61.6931 18.9634 62.5753 18.669C63.473 18.3746 64.1772 17.964 64.6879 17.4372C65.1987 16.8949 65.4541 16.2674 65.4541 15.5547C65.4541 14.656 65.013 13.951 64.1307 13.4397C63.2485 12.9129 61.8943 12.6495 60.0679 12.6495C58.4119 12.6495 56.81 12.8664 55.2622 13.3003C53.7145 13.7186 52.3989 14.2531 51.3155 14.9039C50.8202 15.1983 50.4023 15.3455 50.0618 15.3455C49.7833 15.3455 49.5666 15.2525 49.4118 15.0666C49.2725 14.8652 49.2029 14.6173 49.2029 14.3229C49.2029 13.9355 49.2802 13.6024 49.435 13.3235C49.6053 13.0446 49.9999 12.727 50.619 12.3706C51.9191 11.6269 53.4436 11.0459 55.1926 10.6275C56.9415 10.2092 58.7292 10 60.5555 10C63.3569 10 65.4463 10.4726 66.8238 11.4177C68.2013 12.3629 68.89 13.6101 68.89 15.1596Z" fill="#F7F7F6"/>
<path d="M70.9706 30.1501C70.2741 30.1501 69.7014 29.8325 69.2526 29.1973C68.8192 28.5465 68.6025 27.7408 68.6025 26.7802C68.6025 25.6181 68.6799 24.5568 68.8347 23.5961C68.9895 22.62 69.2449 21.5896 69.6008 20.505C69.7556 20.0402 69.9723 19.7071 70.2509 19.5057C70.5295 19.3042 70.9706 19.2035 71.5742 19.2035C71.9147 19.2035 72.1469 19.2578 72.2707 19.3662C72.41 19.4747 72.4796 19.6374 72.4796 19.8543C72.4796 19.9782 72.3945 20.3966 72.2242 21.1093C72.0695 21.6826 71.9457 22.2016 71.8528 22.6665C71.5432 24.2934 71.3885 25.3779 71.3885 25.9202C71.3885 26.2456 71.4272 26.478 71.5045 26.6175C71.5819 26.7414 71.7058 26.8034 71.876 26.8034C72.1082 26.8034 72.3945 26.571 72.735 26.1062C73.091 25.6413 73.4624 24.9364 73.8494 23.9912C74.2518 23.0461 74.6387 21.884 75.0102 20.505C75.134 20.0402 75.3197 19.7071 75.5674 19.5057C75.8305 19.3042 76.2174 19.2035 76.7282 19.2035C77.0841 19.2035 77.3318 19.25 77.4711 19.343C77.6104 19.4204 77.68 19.5754 77.68 19.8078C77.68 20.1952 77.4865 21.2565 77.0996 22.9918C76.6662 24.9751 76.4496 26.1991 76.4496 26.664C76.4496 26.9583 76.5115 27.1908 76.6353 27.3612C76.7591 27.5161 76.9216 27.5936 77.1228 27.5936C77.4324 27.5936 77.7961 27.4077 78.214 27.0358C78.6473 26.6485 79.22 26.0287 79.932 25.1765C80.1177 24.9596 80.3266 24.8511 80.5588 24.8511C80.76 24.8511 80.9148 24.9441 81.0231 25.13C81.1469 25.316 81.2088 25.5716 81.2088 25.897C81.2088 26.5168 81.0618 26.9971 80.7677 27.338C80.1022 28.1591 79.3825 28.8331 78.6087 29.3599C77.8503 29.8867 76.9835 30.1501 76.0085 30.1501C75.2655 30.1501 74.7161 29.8635 74.3601 29.2902C74.0196 28.7169 73.8494 27.9112 73.8494 26.8731C73.5863 27.9267 73.1916 28.7402 72.6654 29.3135C72.1391 29.8713 71.5742 30.1501 70.9706 30.1501Z" fill="#F7F7F6"/>
<path d="M80.9747 30.1501C80.3865 30.1501 79.9687 29.8403 79.721 29.2205C79.4889 28.6007 79.3728 27.6091 79.3728 26.2456C79.3728 24.2314 79.6591 22.3178 80.2318 20.505C80.3711 20.0557 80.5955 19.7303 80.905 19.5289C81.2301 19.312 81.6789 19.2035 82.2516 19.2035C82.5611 19.2035 82.7778 19.2423 82.9016 19.3197C83.0254 19.3972 83.0873 19.5444 83.0873 19.7613C83.0873 20.0092 82.9713 20.567 82.7391 21.4347C82.5843 22.0545 82.4605 22.5967 82.3676 23.0616C82.2748 23.5264 82.1974 24.0997 82.1355 24.7814C82.6462 23.4489 83.2189 22.3643 83.8535 21.5276C84.488 20.691 85.1071 20.0944 85.7108 19.7381C86.3298 19.3817 86.8948 19.2035 87.4055 19.2035C88.4116 19.2035 88.9146 19.7071 88.9146 20.7142C88.9146 20.9156 88.8449 21.4037 88.7056 22.1784C88.5818 22.7982 88.5199 23.1855 88.5199 23.3405C88.5199 23.8828 88.7134 24.1539 89.1003 24.1539C89.5337 24.1539 90.0908 23.813 90.7718 23.1313C90.9731 22.9299 91.182 22.8292 91.3987 22.8292C91.5999 22.8292 91.7547 22.9221 91.863 23.1081C91.9868 23.2785 92.0487 23.5109 92.0487 23.8053C92.0487 24.3786 91.894 24.8279 91.5844 25.1533C91.151 25.6026 90.6403 25.99 90.0522 26.3153C89.4795 26.6252 88.8681 26.7802 88.2181 26.7802C87.3978 26.7802 86.771 26.571 86.3376 26.1527C85.9197 25.7343 85.7108 25.1688 85.7108 24.456C85.7108 24.2236 85.734 23.9912 85.7804 23.7588C85.8114 23.4489 85.8268 23.2398 85.8268 23.1313C85.8268 22.8834 85.7417 22.7594 85.5715 22.7594C85.3393 22.7594 85.0298 23.0228 84.6428 23.5496C84.2714 24.0609 83.8999 24.7427 83.5285 25.5949C83.157 26.447 82.8552 27.3457 82.623 28.2908C82.4528 29.0191 82.2516 29.5149 82.0194 29.7783C81.8027 30.0262 81.4545 30.1501 80.9747 30.1501Z" fill="#F7F7F6"/>
<path d="M101.778 24.8976C101.979 24.8976 102.134 24.9983 102.242 25.1998C102.366 25.3857 102.428 25.6259 102.428 25.9202C102.428 26.2766 102.374 26.5555 102.266 26.7569C102.157 26.9583 101.987 27.1365 101.755 27.2915C100.424 28.1901 99.4487 28.8564 98.8296 29.2902L97.3438 30.2896C96.7557 33.4969 95.9818 36.0147 95.0222 37.843C94.0781 39.6868 92.8708 40.6087 91.4005 40.6087C90.6111 40.6087 89.9688 40.3608 89.4736 39.865C88.9783 39.3847 88.7306 38.7494 88.7306 37.9592C88.7306 36.8591 89.164 35.6738 90.0307 34.4033C90.8975 33.1483 92.5226 31.5988 94.9061 29.755L95.0454 28.8486C94.7823 29.267 94.434 29.5924 94.0007 29.8248C93.5828 30.0417 93.1649 30.1501 92.747 30.1501C91.7874 30.1501 91.0213 29.8015 90.4486 29.1043C89.876 28.4071 89.5896 27.4929 89.5896 26.3618C89.5896 25.1223 89.876 23.9525 90.4486 22.8524C91.0213 21.7368 91.7797 20.8459 92.7238 20.1797C93.6834 19.4979 94.6972 19.157 95.7651 19.157C96.1056 19.157 96.33 19.2268 96.4384 19.3662C96.5622 19.4902 96.6628 19.7226 96.7402 20.0635C97.0342 20.0015 97.3747 19.9705 97.7617 19.9705C98.1486 19.9705 98.4195 20.0325 98.5742 20.1564C98.7445 20.2649 98.8296 20.4895 98.8296 20.8304C98.8296 21.0163 98.8219 21.1635 98.8064 21.272C98.7445 21.7523 98.551 22.9686 98.226 24.9209C98.1641 25.2927 98.0944 25.7033 98.0171 26.1527C97.9551 26.5865 97.8855 27.0513 97.8081 27.5471C98.9999 26.6175 100.145 25.7963 101.244 25.0836C101.445 24.9596 101.623 24.8976 101.778 24.8976ZM93.5828 27.8028C93.9388 27.8028 94.2793 27.5859 94.6043 27.152C94.9293 26.7182 95.1615 26.0984 95.3008 25.2927L96.0437 21.3185C95.4091 21.334 94.821 21.5819 94.2793 22.0622C93.7376 22.527 93.3042 23.1468 92.9792 23.9215C92.6542 24.6962 92.4916 25.5174 92.4916 26.3851C92.4916 26.8654 92.5845 27.2218 92.7702 27.4542C92.9714 27.6866 93.2423 27.8028 93.5828 27.8028ZM91.6559 38.3543C92.0428 38.3543 92.4762 37.8895 92.956 36.9598C93.4512 36.0302 93.9233 34.5505 94.3721 32.5207C93.1804 33.5434 92.3214 34.4653 91.7952 35.2865C91.2689 36.1076 91.0058 36.8281 91.0058 37.4479C91.0058 37.7113 91.0522 37.9282 91.1451 38.0986C91.2535 38.2691 91.4237 38.3543 91.6559 38.3543Z" fill="#F7F7F6"/>
<path d="M111.355 24.8511C111.556 24.8511 111.711 24.9441 111.819 25.13C111.943 25.316 112.005 25.5716 112.005 25.897C112.005 26.5168 111.858 26.9971 111.564 27.338C110.991 28.0352 110.179 28.6782 109.126 29.267C108.089 29.8558 106.975 30.1501 105.783 30.1501C104.158 30.1501 102.897 29.7086 101.999 28.8254C101.101 27.9422 100.652 26.7337 100.652 25.1998C100.652 24.1307 100.877 23.139 101.326 22.2249C101.775 21.2952 102.394 20.5593 103.183 20.017C103.988 19.4747 104.893 19.2035 105.899 19.2035C106.797 19.2035 107.517 19.4747 108.058 20.017C108.6 20.5438 108.871 21.2642 108.871 22.1784C108.871 23.2475 108.484 24.1694 107.71 24.9441C106.952 25.7033 105.659 26.3076 103.833 26.7569C104.22 27.4697 104.955 27.826 106.039 27.826C106.735 27.826 107.524 27.5859 108.407 27.1055C109.304 26.6097 110.078 25.9667 110.728 25.1765C110.914 24.9596 111.123 24.8511 111.355 24.8511ZM105.505 21.4812C104.932 21.4812 104.444 21.8143 104.042 22.4805C103.655 23.1468 103.462 23.9525 103.462 24.8976V24.9441C104.375 24.7272 105.094 24.4018 105.621 23.968C106.147 23.5341 106.41 23.0306 106.41 22.4573C106.41 22.1629 106.325 21.9305 106.155 21.7601C106 21.5741 105.783 21.4812 105.505 21.4812Z" fill="#F7F7F6"/>
<path d="M111.763 30.1501C111.175 30.1501 110.757 29.8403 110.509 29.2205C110.277 28.6007 110.161 27.6091 110.161 26.2456C110.161 24.2314 110.448 22.3178 111.02 20.505C111.159 20.0557 111.384 19.7303 111.693 19.5289C112.018 19.312 112.467 19.2035 113.04 19.2035C113.35 19.2035 113.566 19.2423 113.69 19.3197C113.814 19.3972 113.876 19.5444 113.876 19.7613C113.876 20.0092 113.76 20.567 113.528 21.4347C113.373 22.0545 113.249 22.5967 113.156 23.0616C113.063 23.5264 112.986 24.0997 112.924 24.7814C113.435 23.4489 114.007 22.3643 114.642 21.5276C115.276 20.691 115.896 20.0944 116.499 19.7381C117.118 19.3817 117.683 19.2035 118.194 19.2035C119.2 19.2035 119.703 19.7071 119.703 20.7142C119.703 20.9156 119.633 21.4037 119.494 22.1784C119.37 22.7982 119.308 23.1855 119.308 23.3405C119.308 23.8828 119.502 24.1539 119.889 24.1539C120.322 24.1539 120.879 23.813 121.56 23.1313C121.761 22.9299 121.97 22.8292 122.187 22.8292C122.388 22.8292 122.543 22.9221 122.651 23.1081C122.775 23.2785 122.837 23.5109 122.837 23.8053C122.837 24.3786 122.682 24.8279 122.373 25.1533C121.939 25.6026 121.429 25.99 120.841 26.3153C120.268 26.6252 119.657 26.7802 119.007 26.7802C118.186 26.7802 117.559 26.571 117.126 26.1527C116.708 25.7343 116.499 25.1688 116.499 24.456C116.499 24.2236 116.522 23.9912 116.569 23.7588C116.6 23.4489 116.615 23.2398 116.615 23.1313C116.615 22.8834 116.53 22.7594 116.36 22.7594C116.128 22.7594 115.818 23.0228 115.431 23.5496C115.06 24.0609 114.688 24.7427 114.317 25.5949C113.945 26.447 113.644 27.3457 113.411 28.2908C113.241 29.0191 113.04 29.5149 112.808 29.7783C112.591 30.0262 112.243 30.1501 111.763 30.1501Z" fill="#F7F7F6"/>
<path d="M132.52 22.8989C132.721 22.8989 132.876 22.9996 132.984 23.201C133.093 23.4024 133.147 23.6581 133.147 23.968C133.147 24.7117 132.922 25.1533 132.474 25.2927C131.545 25.6181 130.523 25.804 129.409 25.8505C129.115 27.152 128.535 28.1979 127.668 28.9881C126.801 29.7628 125.818 30.1501 124.719 30.1501C123.791 30.1501 122.994 29.9255 122.328 29.4761C121.678 29.0268 121.183 28.4303 120.842 27.6866C120.502 26.9429 120.332 26.1372 120.332 25.2695C120.332 24.0919 120.556 23.0461 121.005 22.1319C121.454 21.2023 122.073 20.4818 122.862 19.9705C123.652 19.4437 124.526 19.1803 125.486 19.1803C126.662 19.1803 127.606 19.5909 128.318 20.4121C129.045 21.2178 129.471 22.2171 129.595 23.4102C130.322 23.3637 131.189 23.2088 132.195 22.9454C132.319 22.9144 132.427 22.8989 132.52 22.8989ZM124.905 27.6866C125.4 27.6866 125.826 27.4851 126.182 27.0823C126.554 26.6795 126.801 26.0984 126.925 25.3392C126.445 25.0138 126.074 24.5877 125.811 24.0609C125.563 23.5341 125.439 22.9764 125.439 22.3876C125.439 22.1397 125.462 21.8918 125.509 21.6439H125.393C124.774 21.6439 124.255 21.946 123.837 22.5503C123.435 23.139 123.234 23.9757 123.234 25.0603C123.234 25.9125 123.396 26.5632 123.721 27.0126C124.062 27.4619 124.456 27.6866 124.905 27.6866Z" fill="#F7F7F6"/>
<path d="M132.803 30.1501C132.214 30.1501 131.797 29.8403 131.549 29.2205C131.317 28.6007 131.201 27.6091 131.201 26.2456C131.201 24.2314 131.487 22.3178 132.06 20.505C132.199 20.0557 132.423 19.7303 132.733 19.5289C133.058 19.312 133.507 19.2035 134.079 19.2035C134.389 19.2035 134.606 19.2423 134.73 19.3197C134.853 19.3972 134.915 19.5444 134.915 19.7613C134.915 20.0092 134.799 20.567 134.567 21.4347C134.412 22.0545 134.288 22.5967 134.196 23.0616C134.103 23.5109 134.025 24.0764 133.963 24.7582C134.381 23.5496 134.877 22.527 135.449 21.6903C136.037 20.8537 136.633 20.2339 137.237 19.831C137.856 19.4127 138.436 19.2035 138.978 19.2035C139.52 19.2035 139.899 19.3275 140.116 19.5754C140.348 19.8233 140.464 20.2029 140.464 20.7142C140.464 21.21 140.317 22.1087 140.023 23.4102C139.899 23.968 139.814 24.3863 139.767 24.6652C140.541 22.7594 141.4 21.3727 142.344 20.505C143.289 19.6374 144.171 19.2035 144.991 19.2035C145.997 19.2035 146.5 19.7071 146.5 20.7142C146.5 21.3185 146.33 22.4108 145.989 23.9912C145.695 25.3392 145.548 26.2301 145.548 26.664C145.548 27.2837 145.773 27.5936 146.221 27.5936C146.531 27.5936 146.895 27.4077 147.313 27.0358C147.746 26.6485 148.319 26.0287 149.031 25.1765C149.216 24.9596 149.425 24.8511 149.657 24.8511C149.859 24.8511 150.013 24.9441 150.122 25.13C150.246 25.316 150.307 25.5716 150.307 25.897C150.307 26.5168 150.16 26.9971 149.866 27.338C149.201 28.1591 148.481 28.8331 147.707 29.3599C146.949 29.8867 146.082 30.1501 145.107 30.1501C144.318 30.1501 143.722 29.9255 143.319 29.4761C142.917 29.0113 142.716 28.3451 142.716 27.4774C142.716 27.0436 142.824 26.2689 143.041 25.1533C143.242 24.1771 143.343 23.5032 143.343 23.1313C143.343 22.8834 143.258 22.7594 143.087 22.7594C142.886 22.7594 142.6 23.0228 142.228 23.5496C141.857 24.0609 141.485 24.7427 141.114 25.5949C140.743 26.447 140.441 27.3457 140.209 28.2908C140.038 29.0346 139.837 29.5304 139.605 29.7783C139.388 30.0262 139.032 30.1501 138.537 30.1501C138.026 30.1501 137.639 29.91 137.376 29.4297C137.129 28.9339 137.005 28.3373 137.005 27.6401C137.005 27.0513 137.082 26.1991 137.237 25.0836C137.361 24.0919 137.423 23.4412 137.423 23.1313C137.423 22.8834 137.337 22.7594 137.167 22.7594C136.935 22.7594 136.641 23.0383 136.285 23.5961C135.929 24.1539 135.581 24.8666 135.24 25.7343C134.915 26.602 134.652 27.4542 134.451 28.2908C134.281 29.0191 134.08 29.5149 133.847 29.7783C133.631 30.0262 133.282 30.1501 132.803 30.1501Z" fill="#F7F7F6"/>
<path d="M151.286 30.1501C150.326 30.1501 149.56 29.8015 148.987 29.1043C148.415 28.4071 148.128 27.4929 148.128 26.3618C148.128 25.1223 148.415 23.9525 148.987 22.8524C149.56 21.7368 150.319 20.8459 151.263 20.1797C152.222 19.4979 153.236 19.157 154.304 19.157C154.644 19.157 154.869 19.2268 154.977 19.3662C155.101 19.4902 155.202 19.7226 155.279 20.0635C155.604 20.0015 155.945 19.9705 156.3 19.9705C157.059 19.9705 157.438 20.2416 157.438 20.7839C157.438 21.1093 157.322 21.884 157.09 23.1081C156.734 24.8899 156.556 26.1294 156.556 26.8266C156.556 27.0591 156.61 27.245 156.718 27.3844C156.842 27.5239 156.997 27.5936 157.183 27.5936C157.477 27.5936 157.833 27.4077 158.251 27.0358C158.669 26.6485 159.233 26.0287 159.945 25.1765C160.131 24.9596 160.34 24.8511 160.572 24.8511C160.773 24.8511 160.928 24.9441 161.037 25.13C161.16 25.316 161.222 25.5716 161.222 25.897C161.222 26.5168 161.075 26.9971 160.781 27.338C160.147 28.1282 159.473 28.7944 158.761 29.3367C158.049 29.879 157.361 30.1501 156.695 30.1501C156.184 30.1501 155.712 29.9797 155.279 29.6388C154.861 29.2825 154.544 28.8022 154.327 28.1979C153.522 29.4994 152.509 30.1501 151.286 30.1501ZM152.122 27.8028C152.462 27.8028 152.787 27.6014 153.097 27.1985C153.406 26.7957 153.631 26.2611 153.77 25.5949L154.629 21.3185C153.979 21.334 153.375 21.5819 152.818 22.0622C152.276 22.527 151.843 23.1468 151.518 23.9215C151.193 24.6962 151.03 25.5174 151.03 26.3851C151.03 26.8654 151.123 27.2218 151.309 27.4542C151.51 27.6866 151.781 27.8028 152.122 27.8028Z" fill="#F7F7F6"/>
<path d="M160.984 30.1501C160.396 30.1501 159.978 29.8403 159.73 29.2205C159.498 28.6007 159.382 27.6091 159.382 26.2456C159.382 24.2314 159.668 22.3178 160.241 20.505C160.38 20.0557 160.605 19.7303 160.914 19.5289C161.239 19.312 161.688 19.2035 162.261 19.2035C162.57 19.2035 162.787 19.2423 162.911 19.3197C163.035 19.3972 163.096 19.5444 163.096 19.7613C163.096 20.0092 162.98 20.567 162.748 21.4347C162.593 22.0545 162.47 22.5967 162.377 23.0616C162.284 23.5264 162.206 24.0997 162.145 24.7814C162.655 23.4489 163.228 22.3643 163.863 21.5276C164.497 20.691 165.116 20.0944 165.72 19.7381C166.339 19.3817 166.904 19.2035 167.415 19.2035C168.421 19.2035 168.924 19.7071 168.924 20.7142C168.924 21.3185 168.753 22.4108 168.413 23.9912C168.119 25.3392 167.972 26.2301 167.972 26.664C167.972 27.2837 168.196 27.5936 168.645 27.5936C168.955 27.5936 169.318 27.4077 169.736 27.0358C170.17 26.6485 170.742 26.0287 171.454 25.1765C171.64 24.9596 171.849 24.8511 172.081 24.8511C172.282 24.8511 172.437 24.9441 172.545 25.13C172.669 25.316 172.731 25.5716 172.731 25.897C172.731 26.5168 172.584 26.9971 172.29 27.338C171.624 28.1591 170.905 28.8331 170.131 29.3599C169.372 29.8867 168.506 30.1501 167.531 30.1501C166.741 30.1501 166.145 29.9255 165.743 29.4761C165.341 29.0113 165.139 28.3451 165.139 27.4774C165.139 27.0436 165.248 26.2689 165.464 25.1533C165.666 24.1771 165.766 23.5032 165.766 23.1313C165.766 22.8834 165.681 22.7594 165.511 22.7594C165.31 22.7594 165.023 23.0228 164.652 23.5496C164.296 24.0609 163.924 24.7427 163.538 25.5949C163.166 26.447 162.864 27.3457 162.632 28.2908C162.462 29.0191 162.261 29.5149 162.029 29.7783C161.812 30.0262 161.464 30.1501 160.984 30.1501Z" fill="#F7F7F6"/>
<path d="M173.894 17.6696C173.244 17.6696 172.756 17.5224 172.431 17.228C172.106 16.9181 171.944 16.492 171.944 15.9498C171.944 15.4075 172.153 14.9581 172.571 14.6018C173.004 14.2299 173.538 14.044 174.173 14.044C174.745 14.044 175.21 14.1834 175.566 14.4623C175.922 14.7412 176.1 15.1363 176.1 15.6476C176.1 16.2674 175.898 16.7632 175.496 17.1351C175.094 17.4914 174.56 17.6696 173.894 17.6696ZM173.708 30.1501C172.702 30.1501 171.967 29.7938 171.503 29.081C171.054 28.3683 170.83 27.4232 170.83 26.2456C170.83 25.5484 170.915 24.6575 171.085 23.5729C171.271 22.4728 171.503 21.4502 171.781 20.505C171.921 20.0092 172.106 19.6684 172.339 19.4824C172.571 19.2965 172.942 19.2035 173.453 19.2035C174.242 19.2035 174.637 19.4669 174.637 19.9937C174.637 20.3811 174.49 21.2797 174.196 22.6897C173.824 24.3941 173.639 25.5484 173.639 26.1527C173.639 26.6175 173.701 26.9738 173.824 27.2217C173.948 27.4697 174.157 27.5936 174.451 27.5936C174.73 27.5936 175.078 27.3999 175.496 27.0126C175.914 26.6252 176.471 26.0132 177.168 25.1765C177.353 24.9596 177.562 24.8511 177.794 24.8511C177.996 24.8511 178.15 24.9441 178.259 25.13C178.382 25.316 178.444 25.5716 178.444 25.897C178.444 26.5168 178.297 26.9971 178.003 27.338C176.471 29.2127 175.039 30.1501 173.708 30.1501Z" fill="#F7F7F6"/>
<path d="M179.236 30.1501C178.354 30.1501 177.634 29.8015 177.077 29.1043C176.535 28.4071 176.264 27.4929 176.264 26.3618C176.264 25.1223 176.551 23.9525 177.123 22.8524C177.696 21.7368 178.454 20.8459 179.398 20.1797C180.358 19.4979 181.372 19.157 182.44 19.157C182.78 19.157 183.005 19.2268 183.113 19.3662C183.237 19.4902 183.337 19.7226 183.415 20.0635C183.709 20.0015 184.034 19.9705 184.39 19.9705C184.761 19.9705 185.048 20.0635 185.249 20.2494C185.45 20.4353 185.551 20.6987 185.551 21.0396C185.551 21.3959 185.473 22.0157 185.319 22.8989C185.148 23.844 185.017 24.7504 184.924 25.6181C184.831 26.4703 184.785 27.4309 184.785 28.5C184.785 29.0888 184.661 29.5149 184.413 29.7783C184.181 30.0262 183.794 30.1501 183.252 30.1501C182.726 30.1501 182.331 30.0262 182.068 29.7783C181.821 29.5149 181.697 29.0965 181.697 28.5233L181.72 28.1514C181.24 29.4839 180.412 30.1501 179.236 30.1501ZM180.141 27.8028C180.575 27.8028 180.969 27.5006 181.325 26.8964C181.681 26.2921 181.999 25.2153 182.277 23.6658L182.718 21.3185C182.084 21.334 181.496 21.5819 180.954 22.0622C180.412 22.527 179.979 23.1468 179.654 23.9215C179.329 24.6962 179.166 25.5174 179.166 26.3851C179.166 26.8499 179.251 27.2063 179.422 27.4542C179.607 27.6866 179.847 27.8028 180.141 27.8028Z" fill="#F7F7F6"/>
<defs>
<linearGradient id="paint0_linear" x1="20" y1="29.9027" x2="20" y2="33.1066" gradientUnits="userSpaceOnUse">
<stop stop-color="#F49521" stop-opacity="0.65"/>
<stop offset="1" stop-color="#FC650B"/>
</linearGradient>
<linearGradient id="paint1_linear" x1="20.0681" y1="6.33228" x2="20.0681" y2="18.6408" gradientUnits="userSpaceOnUse">
<stop stop-color="#FC650B"/>
<stop offset="1" stop-color="#F49521" stop-opacity="0.63"/>
</linearGradient>
</defs>
</svg>
