<svg width="258" height="93" viewBox="0 0 258 93" fill="none" xmlns="http://www.w3.org/2000/svg">
<path d="M86.1713 89.2302C85.4772 89.1512 84.4475 88.5416 83.4257 87.9329C82.7468 87.5309 82.072 87.128 81.4992 86.879C81.2075 86.7532 80.9434 86.6682 80.7169 86.6424C80.342 86.5997 80.0755 86.7251 79.9804 87.1128C79.9428 87.2655 79.9316 87.4588 79.9513 87.6986C79.7278 87.6692 79.5068 87.6427 79.2868 87.6176C78.7874 87.5608 78.2975 87.5145 77.8126 87.4714C77.7023 87.4615 77.5921 87.4517 77.4831 87.442C76.9664 87.3953 76.4562 87.3506 75.9419 87.2948C75.8636 87.2872 75.7841 87.2782 75.7059 87.2693C75.0594 87.1958 74.4056 87.1039 73.7348 86.9726C73.4197 86.9112 73.1003 86.8413 72.7766 86.7616C72.4568 86.6823 72.1315 86.5929 71.8008 86.4922C71.7996 86.4907 71.7996 86.4907 71.7996 86.4907C71.7878 86.4881 71.7775 86.4842 71.7671 86.4817C71.7051 86.4719 71.6443 86.4637 71.5847 86.4569C70.8269 86.3707 70.2073 86.4854 69.5968 86.6025C68.9865 86.7182 68.384 86.8362 67.6633 86.7542C66.7372 86.6488 65.6126 86.2136 64.0205 85.0273C63.341 85.1849 62.5891 85.2121 61.773 85.1192C60.3144 84.9533 58.6473 84.4026 56.807 83.5223C55.0227 81.8552 53.9668 81.299 53.2263 81.2147C52.6791 81.1525 52.304 81.3473 51.9369 81.5431C51.5682 81.74 51.2077 81.9365 50.6871 81.8773C50.4592 81.8514 50.202 81.7765 49.9004 81.6321C49.7671 81.884 49.5233 81.9623 49.2094 81.9266C48.5721 81.8541 47.6423 81.3108 46.723 80.7688C45.8024 80.2265 44.8938 79.6844 44.299 79.6167C43.9943 79.582 43.772 79.6722 43.6734 79.9494C42.2139 79.1071 41.0556 78.6841 40.014 78.4032C40.014 78.4032 40.014 78.4032 40.0127 78.4031C39.2186 78.1879 38.4928 78.057 37.757 77.8834C37.5532 77.8347 37.3495 77.7847 37.1427 77.7276C37.0313 77.8451 36.8715 77.882 36.6741 77.8595C36.3747 77.8255 35.9889 77.6541 35.5607 77.4081C35.3704 77.2992 35.1698 77.1757 34.9662 77.0425C34.8761 76.9853 34.7849 76.9253 34.6939 76.864C34.6365 76.8266 34.5791 76.7878 34.5218 76.7491C34.3499 76.6329 34.1757 76.5125 34.0027 76.3935C34.0002 76.3918 33.9979 76.3889 33.994 76.3871C33.7502 76.2185 33.5075 76.0513 33.2707 75.8915L33.2694 75.8914C32.5316 75.3941 31.8587 74.9861 31.4255 74.9368C31.2241 74.9139 31.0744 74.968 30.9933 75.1265C29.2926 74.6351 27.0387 73.132 25.6702 72.8582C23.9217 72.1507 22.3995 71.6233 20.2822 69.9935C19.1722 68.9225 18.6427 68.7281 18.2241 68.6804C18.1406 68.6709 18.062 68.666 17.9846 68.6626C17.9058 68.659 17.8297 68.6557 17.7489 68.6465C17.3024 68.5957 16.7657 68.3709 15.5021 66.9872L15.5022 66.9859L15.5009 66.9858C15.4759 66.9574 15.4496 66.9289 15.4235 66.8991C14.5527 65.8835 13.9144 65.2191 13.4336 64.7859C13.2923 64.6598 13.1649 64.5528 13.0491 64.4618C12.6176 64.1268 12.3434 64.0245 12.1288 64.0001C12.0215 63.9879 11.9294 63.9948 11.84 64.0021C11.7493 64.0092 11.6612 64.0167 11.5632 64.0055C11.4811 63.9962 11.3897 63.9737 11.2851 63.9256C11.256 63.9102 11.2282 63.895 11.2004 63.8797C11.0412 63.7932 10.8844 63.7082 10.7318 63.6224C10.5566 63.5233 10.384 63.4245 10.2118 63.3217L10.2105 63.3216C8.74231 62.4379 7.33781 61.2422 4.56114 57.5285C4.55876 57.5376 4.55286 57.5423 4.54358 57.5413C4.39256 57.5241 3.38646 55.8933 2.53404 54.2799C1.68294 52.6667 0.985517 51.0709 1.45052 51.1238C1.48099 51.1273 1.51601 51.138 1.5569 51.156C1.60447 49.8061 -1.03649 43.6374 0.459196 43.8076C0.505564 43.8128 0.555308 43.8238 0.609743 43.8408C1.62342 43.1992 0.510363 39.1823 0.56035 37.5281C0.585304 36.8841 0.61693 36.3348 0.645741 35.9046C0.702319 36.1151 0.776503 36.3476 0.864059 36.5924C1.29432 39.1682 2.71069 41.6751 5.014 44.0882C5.8436 45.2535 6.46847 46.0478 6.62877 46.0661C6.70296 46.0745 6.6757 45.9131 6.51957 45.5397C9.74046 48.4156 14.2292 51.1404 19.8077 53.6645C20.0008 53.8891 20.1987 54.1197 20.4 54.3559C21.3144 55.3537 21.8123 55.6948 22.1184 55.7296C22.3873 55.7602 22.5086 55.5553 22.6351 55.351C22.719 55.2156 22.8056 55.0792 22.9379 55.0137C23.3084 55.1659 23.6779 55.3153 24.0566 55.4657C24.0886 55.4908 24.1192 55.5171 24.1523 55.545C24.1435 55.5279 24.1347 55.5108 24.1259 55.4937C25.3869 55.9928 26.6878 56.483 28.0354 56.9637C28.3755 57.2775 28.684 57.5381 28.9378 57.7132C28.9552 57.7139 28.9726 57.7145 28.9911 57.7166C29.472 57.7713 30.2813 58.325 31.1 58.8784C31.9187 59.4318 32.7466 59.9863 33.2659 60.0454C33.6051 60.084 33.8114 59.9102 33.795 59.3823C35.183 60.7345 35.9807 61.1541 36.5596 61.2199C36.9133 61.2602 37.1869 61.1678 37.4631 61.0758C37.7404 60.9852 38.0205 60.8936 38.3902 60.9357C38.5929 60.9588 38.8231 61.0225 39.0934 61.1472C40.4134 62.0717 42.4099 64.0205 43.7779 64.9706C44.223 65.2816 44.6008 65.4869 44.8698 65.5175C45.4275 65.581 45.5075 64.8896 44.7079 62.8233C45.1512 63.126 45.4886 63.2623 45.7602 63.2932C46.2385 63.3476 46.5087 63.0724 46.784 62.7991C46.8988 62.6861 47.0138 62.5716 47.1448 62.4819C47.8141 62.6385 48.4889 62.7931 49.168 62.9456C49.4917 63.1796 49.8631 63.4889 50.2954 63.8884C51.6876 65.0264 52.5787 65.368 53.3113 65.4513C53.6664 65.4917 53.984 65.4715 54.3044 65.4516C54.6245 65.433 54.9461 65.4132 55.3091 65.4545C55.7543 65.5051 56.2601 65.6472 56.9 65.9911C57.921 66.6655 58.6729 66.9094 59.3207 66.9831C59.746 67.0315 60.1259 67.0063 60.5085 66.9814C60.8925 66.9566 61.2776 66.9333 61.7134 66.9829C61.8114 66.9941 61.9105 67.008 62.0143 67.0279C62.9404 67.097 63.7212 66.9215 64.6989 67.0327C65.405 67.113 66.2135 67.3432 67.2533 67.9231C68.1792 69.1034 68.9412 70.0248 69.5826 70.7566C70.0305 70.6412 70.4922 70.6051 70.9453 70.6567C71.5362 70.7239 72.1113 70.941 72.6136 71.3269C72.5412 70.4531 72.4843 69.5972 73.0155 69.6576C73.0963 69.6668 73.1894 69.6975 73.3 69.7517C73.9577 69.173 74.4439 68.3078 75.5832 68.4374C76.2774 68.5164 77.214 68.9651 78.579 70.0719C79.0908 70.3622 79.5048 70.4979 79.8585 70.5381C80.4573 70.6063 80.8809 70.3981 81.3086 70.1891C81.7349 69.98 82.1666 69.7715 82.7787 69.8411C83.1085 69.8786 83.4923 69.9974 83.9559 70.2394C84.5698 70.6581 85.0321 70.8409 85.4057 70.8834C85.9343 70.9435 86.2851 70.7258 86.64 70.5085C86.9935 70.2911 87.3508 70.0754 87.8887 70.1366C88.416 70.1966 89.117 70.5219 90.1605 71.376C90.7022 72.0053 91.1781 72.5278 91.6081 72.9712C92.0203 72.9336 92.4439 72.9375 92.8599 72.9848C93.5077 73.0585 94.1367 73.2388 94.6731 73.5373C94.7878 73.6027 94.8956 73.6928 95.0063 73.7698C95.0951 72.7292 95.0213 71.4325 95.8532 71.5272C95.8731 71.5294 95.8941 71.5332 95.9165 71.5371C97.9816 71.7747 100.355 72.4419 102.546 72.7757C102.342 71.1811 102.864 70.7051 103.764 70.8074C105.021 70.9505 107.018 72.2243 108.8 73.1477C108.882 71.8943 109.556 71.5509 110.528 71.6616C111.776 71.8035 113.517 72.694 115.127 73.3697C115.865 74.1125 116.539 74.738 117.142 75.271C117.162 75.2746 117.181 75.2767 117.201 75.279C117.985 75.3682 118.606 74.9907 119.231 74.5746C119.869 74.1507 120.536 74.0213 121.167 74.093C121.428 74.1227 121.682 74.1866 121.927 74.2788L121.898 74.0193C122.251 72.5444 122.784 71.3302 124.212 71.4926C125.134 71.5975 126.427 72.2747 128.287 73.8228C128.331 73.4252 128.541 73.2842 128.867 73.3212C129.505 73.3937 130.582 74.1484 131.716 74.9899C132.212 74.6492 132.76 74.3626 133.366 74.1632C133.976 73.8689 134.654 73.7206 135.333 73.6825L135.246 73.4605C134.913 71.9747 135.054 71.2231 135.494 70.9364C135.929 70.9322 136.365 70.9281 136.799 70.9224C138.488 71.4232 141.025 73.2336 142.617 73.5677C142.828 72.9073 143.365 72.751 144.054 72.8294C144.647 72.8969 145.354 73.1383 146.06 73.3798C146.767 73.6225 147.475 73.8641 148.072 73.932C148.854 74.021 149.445 73.8105 149.592 72.9093C149.887 72.637 150.321 72.5749 150.83 72.6328C151.49 72.7078 152.28 72.9829 153.07 73.258C153.86 73.533 154.651 73.8082 155.313 73.8836C156.173 73.9814 156.817 73.7447 156.969 72.7395C157.273 71.8723 158.038 71.7178 158.972 71.824C159.51 71.8852 160.102 72.0331 160.698 72.18C161.29 72.3279 161.885 72.4748 162.425 72.5362C163.133 72.6168 163.748 72.5485 164.141 72.1356C164.435 72.2173 164.711 72.2702 164.972 72.2999C166.987 72.5291 168.116 71.3761 169.976 71.3528C170.261 71.4739 170.511 71.5413 170.735 71.5667C171.524 71.6564 171.975 71.2234 172.429 70.7892C172.882 70.355 173.335 69.9221 174.125 70.0119C174.614 70.0675 175.231 70.323 176.059 70.9029C176.778 71.0289 177.495 71.1522 178.184 71.2305C179.797 71.4141 181.251 71.3501 182.191 70.4867C183.418 71.571 184.232 72.0153 184.803 72.0803C185.639 72.1754 185.951 71.4566 186.263 70.738C186.574 70.0193 186.889 69.2995 187.726 69.3947C187.788 69.4018 187.854 69.4147 187.922 69.4305C188.154 69.3844 188.415 69.386 188.696 69.4179C189.213 69.4767 189.796 69.6383 190.377 69.7997C190.96 69.9626 191.542 70.1242 192.058 70.1828C193.057 70.2964 193.806 70.0234 193.827 68.6195C195.76 68.5093 197.091 67.4623 199.252 67.7081C199.399 67.7249 199.55 67.7475 199.706 67.7759C201.119 69.0008 202.072 69.5064 202.75 69.5836C204.394 69.7706 204.436 67.4526 205.542 66.7705C206.382 67.4754 206.969 67.7836 207.389 67.8314C208.182 67.9217 208.38 67.0826 208.58 66.2425C208.78 65.4025 208.983 64.564 209.786 64.6553C210.153 64.6971 210.643 64.9313 211.315 65.448C211.769 65.7908 212.232 66.1333 212.682 66.4703C212.996 66.3934 213.326 66.3302 213.654 66.2831C213.993 66.233 214.348 66.2332 214.702 66.2735C214.954 66.3021 215.205 66.3508 215.448 66.4187C216.202 66.2696 216.972 66.1895 217.771 66.2013C217.603 65.5581 217.363 64.7982 217.024 63.886C218.498 62.6795 221.743 64.204 222.657 62.1194C222.666 61.3086 223.056 61.0899 223.63 61.1552C224.159 61.2153 224.84 61.5142 225.522 61.8146C226.205 62.115 226.887 62.4141 227.414 62.4741C228.227 62.5665 228.672 62.0925 228.19 60.1764C228.367 59.9321 228.657 59.8646 229.018 59.9055C229.578 59.9693 230.306 60.2937 231.034 60.6193C231.761 60.9436 232.489 61.2693 233.048 61.3329C233.996 61.4408 234.459 60.7943 233.609 58.1117C234.852 57.2225 237.105 57.5204 238.41 56.1029C238.377 55.3785 238.455 54.8157 238.618 54.3807C238.832 54.2775 239.043 54.1741 239.258 54.0683C239.885 54.2283 240.513 54.3842 241.142 54.5377C240.673 54.9003 240.631 55.6792 241.396 55.8186C241.442 55.8279 241.489 55.8345 241.534 55.8396C241.622 55.8497 241.709 55.8529 241.8 55.8538C242.121 55.8567 242.333 55.7213 242.461 55.5412C242.698 55.3749 242.797 55.1513 242.796 54.9312C243.164 55.0173 243.532 55.1021 243.9 55.1856C243.67 55.2238 243.461 55.357 243.302 55.5388C243.052 55.8231 242.973 56.1376 242.962 56.4986C242.952 56.9282 243.284 57.1647 243.655 57.2069C244.103 57.2578 244.607 57.0253 244.626 56.5068L244.73 56.2878C244.992 55.9941 244.821 55.5372 244.514 55.3238C245.651 55.5767 246.791 55.8191 247.932 56.0496C250.053 56.4788 252.193 56.8591 254.345 57.1697C255.181 55.9202 255.762 54.4565 255.948 52.5707C255.66 55.5103 254.419 57.4398 252.735 59.0946C252.301 61.6244 247.779 58.033 248.611 62.9479C247.347 64.6143 246.004 66.3658 243.627 66.6938C241.948 68.1292 238.971 67.7369 237.727 70.235C235.178 70.6991 233.583 72.8553 231.041 73.7201C229.594 76.2944 224.778 73.8315 223.52 77.0648C223.238 76.983 222.973 76.9301 222.723 76.9016C221.089 76.7157 220.106 77.5767 219.097 78.4349C218.088 79.2917 217.053 80.1468 215.315 79.949C215.194 79.9353 215.069 79.9157 214.942 79.8918C211.131 79.5455 209.513 82.7847 205.487 82.4663C203.674 82.6116 201.874 82.8255 200.15 83.2023C198.427 83.582 196.781 84.1288 195.279 84.9361C195.034 84.8479 194.81 84.7956 194.606 84.7724C193.803 84.6811 193.281 85.0282 192.753 85.3734C192.225 85.7187 191.694 86.0634 190.875 85.9703C190.732 85.954 190.58 85.9246 190.417 85.8793C190.456 87.6242 189.826 88.3389 188.639 88.2038C187.812 88.1098 186.714 87.6025 185.386 86.7427C184.335 88.0524 182.009 87.3985 180.256 87.6783C178.508 87.9611 176.702 88.1864 174.774 88.2583C171.614 89.4863 167.835 89.8802 163.423 89.4185C162.972 89.5431 162.426 89.5212 161.851 89.4558C161.607 89.428 161.358 89.3916 161.109 89.3566C160.86 89.3215 160.61 89.2851 160.365 89.2572C159.362 89.1431 158.44 89.1603 157.942 89.8444C156.041 89.8898 153.86 89.537 152.307 90.1951C151.836 90.0367 151.407 89.9437 151.009 89.8983C149.276 89.7012 148.107 90.3962 146.514 90.4552C146.248 90.6986 145.854 90.7491 145.394 90.6968C144.887 90.6391 144.3 90.4569 143.711 90.2759C143.123 90.0935 142.534 89.9125 142.023 89.8543C141.318 89.7741 140.764 89.9284 140.567 90.6428C140.552 90.6411 140.538 90.6395 140.523 90.6378C139.682 90.5421 139.049 90.7707 138.413 90.9989C137.778 91.2272 137.139 91.4551 136.289 91.3585C135.775 91.3 135.186 91.123 134.472 90.7572C133.435 90.8271 132.316 90.779 131.2 90.7406C131.106 90.738 131.013 90.7354 130.919 90.7328C130.153 90.7087 129.392 90.6933 128.663 90.7311C128.51 90.7378 128.357 90.7486 128.206 90.761C128.192 90.7727 128.177 90.7845 128.162 90.7962C127.785 91.0901 127.317 91.2395 126.791 91.2923C126.476 91.3249 126.14 91.3217 125.79 91.2966C125.669 91.2869 125.547 91.2757 125.424 91.2617C124.751 91.1851 124.036 91.038 123.324 90.8926C123.137 90.8538 122.949 90.8151 122.763 90.7778C122.762 90.7776 122.762 90.7776 122.762 90.7776C122.243 90.6744 121.732 90.5813 121.248 90.5263C120.562 90.4482 119.929 90.4459 119.4 90.6018C119.398 90.603 119.396 90.6027 119.394 90.6025C119.36 90.6133 119.325 90.6241 119.291 90.6364C119.021 91.8805 118.149 92.1718 117.018 92.0431C116.117 91.9406 115.052 91.5725 113.993 91.2038C112.935 90.8352 111.884 90.4687 111.012 90.3695C110.916 90.3585 110.821 90.3505 110.729 90.3467C109.495 89.5688 108.551 89.2361 107.77 89.1472C106.817 89.0388 106.107 89.2934 105.405 89.5491C104.703 89.8033 104.009 90.0599 103.092 89.9556C102.899 89.9336 102.695 89.8957 102.481 89.8377C101.503 90.4887 100.279 90.7171 98.8204 90.5512C97.5937 90.4116 96.2028 89.993 94.6567 89.3099C94.163 89.2027 93.659 89.0796 93.1555 88.9526C93.149 88.9505 93.1412 88.9483 93.1333 88.9474C91.8393 88.6203 90.5475 88.2734 89.4109 88.1441C89.0042 88.0978 88.6171 88.0793 88.2566 88.0987C87.796 88.1254 87.3791 88.2162 87.0208 88.3929C86.9918 89.0726 86.6668 89.2866 86.1713 89.2302ZM256.526 38.0953C256.496 37.9281 256.465 37.7716 256.438 37.6223C256.437 37.6168 256.436 37.61 256.436 37.6046C256.464 37.7568 256.494 37.9212 256.526 38.0953Z" fill="url(#paint0_radial)"/>
<path d="M256.213 36.0869C256.166 46.3085 242.335 52.851 233.643 56.6541C222.933 61.3443 211.142 63.8179 199.449 65.7257C175.981 69.552 152.146 71.0662 128.3 70.9512C57.7488 70.6207 0.630469 54.4632 0.725766 34.871C0.817961 15.2826 58.0845 -0.32946 128.637 0.00529981C199.192 0.340211 256.302 16.4968 256.213 36.0869Z" fill="#993923"/>
<path d="M256.217 36.0042C256.044 38.8201 254.143 39.6733 252.048 40.6131C250.601 42.5662 247.545 42.3956 246.107 44.7763C244.311 46.5996 240.964 46.0591 239.639 48.348C240.725 54.3868 237.271 53.0505 233.674 50.8472C233.166 53.5309 230.221 52.4323 228.237 52.8011C228.525 55.154 226.976 54.649 225.43 54.1443C224.166 53.7321 222.904 53.3202 222.647 54.4651C222.339 54.1362 222.063 53.8525 221.795 53.5886C221.659 53.6777 221.524 53.7644 221.362 53.8318C220.318 54.2633 219.206 54.5112 218.166 54.3097C218.12 55.3873 217.954 56.293 216.944 55.8788C215.995 55.7119 215.65 56.4818 215.306 57.2505C214.752 58.4878 214.202 59.7243 211.161 57.0809C208.885 55.1486 208.762 56.5571 208.641 57.9657C208.507 59.5259 208.375 61.0849 205.331 58.1191C205.762 60.4442 204.07 59.468 202.382 58.4909C200.654 57.4932 198.93 56.4959 199.481 59.0251C195.345 56.5886 192.996 56.9144 192.433 59.9959C189.724 59.7467 186.963 59.4098 185.358 60.8443C180.016 56.4791 179.713 59.9161 178.263 61.5669C175.91 61.8091 175.568 65.1625 171.167 62.1954C169.681 61.5688 169.007 62.198 168.335 62.8273C167.458 63.6468 166.583 64.4665 163.925 62.5108C161.345 62.3462 161.141 65.8509 156.922 63.1057C156.267 63.062 155.577 62.9648 154.889 62.869C152.888 62.5877 150.892 62.3083 149.739 63.3271C147.913 62.1827 147.431 63.1223 146.951 64.0621C146.357 65.2251 145.767 66.3885 142.636 63.5993C141.933 66.2583 139.002 65.4416 135.451 63.6448C132.833 63.3053 130.701 63.6934 128.333 63.7112C126.912 63.033 126.4 63.7624 125.893 64.4911C125.379 65.2311 124.87 65.9703 123.423 65.246C122.477 66.801 118.833 64.1374 116.709 63.814C113.904 61.3759 113.13 62.0755 112.362 62.7745C111.941 63.1587 111.521 63.5431 110.772 63.4108C110.659 64.7641 109.234 64.0705 107.815 63.3777C106.534 62.7529 105.256 62.1271 104.958 63.0125C103.12 63.0047 101.199 62.8358 99.3195 62.6917C99.1636 62.588 99.0076 62.4844 98.8487 62.3711C98.1936 62.3972 97.5356 62.3773 96.8773 62.2541C96.5166 62.299 96.1524 62.3273 95.7898 62.3062C95.2283 62.5121 94.6086 62.6388 93.9382 62.6699C94.55 66.2916 92.8728 66.337 88.2563 61.7739C86.4928 61.6699 85.6397 62.9523 82.8737 61.2206C82.6432 60.9823 82.4329 60.7665 82.2173 60.5501C82.0906 60.5907 81.9691 60.6439 81.8403 60.6789C80.4877 61.0444 79.1853 61.0036 77.9222 60.629C77.9969 60.9046 78.0815 61.1987 78.1774 61.5115C77.0646 62.2693 77.0658 64.7238 72.5303 60.0867C73.4502 62.8055 71.7607 61.4606 70.0807 60.1154C68.6171 58.9437 67.1587 57.7727 67.4384 59.29C69.306 64.5187 68.0814 64.9027 62.4962 58.4742C60.3746 57.9792 57.8588 56.8086 56.7892 57.8115C55.0407 57.7642 53.5496 58.0494 51.0716 56.7235C50.8866 57.5116 49.452 56.3447 48.0255 55.1773C46.0993 53.6014 44.1918 52.0264 45.4079 55.2794C46.1166 57.6131 44.4267 56.201 42.7514 54.7906C41.1925 53.478 39.6456 52.1654 40.0572 53.8789C36.4652 49.5115 36.6099 50.9289 36.772 52.347C36.9073 53.5286 37.0545 54.7114 35.0638 52.558C35.7754 54.8196 34.2554 53.5892 32.7525 52.3621C31.5689 51.3954 30.396 50.4286 30.3354 51.1732C31.1812 54.0714 27.6044 50.0426 25.4868 48.2263C24.3089 47.8695 21.7983 45.3791 23.2404 48.9691C22.1323 48.2942 21.5885 48.4618 21.0712 48.6324C20.2544 48.9005 19.5036 49.1774 16.6956 46.1633C12.7505 41.5263 12.3039 42.2082 11.9419 42.9011C11.7689 43.2303 11.6143 43.5629 11.109 43.3216C5.9451 36.1398 6.22963 37.3545 6.20257 38.017C4.46709 36.0267 4.45779 36.651 6.67005 40.6547C5.64203 40.1956 2.62156 36.3602 1.45279 35.1094L1.34134 34.9921C1.44988 35.2057 1.34612 35.2449 0.725508 34.7905C-0.406192 35.1247 3.69543 42.4084 2.98161 41.11C5.194 44.4522 7.33187 47.3994 6.47507 45.4353C6.75792 45.6621 6.69139 45.315 6.64474 44.9702C6.55378 44.2835 6.54349 43.6073 9.52739 47.4694C10.4274 48.287 10.7149 48.0836 11.046 47.8864C11.5946 47.5583 12.2664 47.2442 16.0658 51.6164C14.244 47.5658 16.6088 49.9109 20.4 54.3559C22.1166 56.2286 22.3653 55.7886 22.6351 55.3509C22.8556 54.9936 23.092 54.638 24.1523 55.545C20.7006 48.5285 26.7865 56.2285 28.9378 57.7132C29.4097 57.7293 30.249 58.3025 31.1 58.8784C32.4557 59.7948 33.8367 60.7142 33.795 59.3823C36.0323 61.5611 36.7337 61.3175 37.463 61.0757C37.891 60.9352 38.3297 60.7946 39.0934 61.1472C40.4134 62.0717 42.4099 64.0205 43.7779 64.9706C45.1467 65.9261 45.8923 65.8834 44.7079 62.8233C45.932 63.659 46.3514 63.2276 46.784 62.7991C47.3436 62.2442 47.9233 61.6901 50.2954 63.8883C52.3604 65.5766 53.3218 65.5129 54.3043 65.4515C55.0152 65.4076 55.738 65.3651 56.9 65.9911C58.5927 67.1069 59.542 67.0432 60.5085 66.9813C60.9776 66.9515 61.4506 66.9221 62.0142 67.0278C63.6096 67.1476 64.7738 66.5393 67.2533 67.9231C68.1792 69.1033 68.9412 70.0247 69.5826 70.7566C70.6155 70.489 71.7275 70.6463 72.6136 71.3269C72.5295 70.3202 72.4667 69.3388 73.3 69.7517C74.3575 68.8199 74.9744 67.1483 78.579 70.0718C79.9582 70.8527 80.6293 70.5211 81.3086 70.1891C81.9651 69.8679 82.6309 69.5478 83.9559 70.2394C85.4377 71.2507 86.0341 70.8797 86.64 70.5085C87.3409 70.0796 88.0513 69.6505 90.1605 71.376C90.7022 72.0053 91.1781 72.5277 91.6081 72.9712C92.6629 72.8765 93.7909 73.0464 94.6731 73.5373C94.7878 73.6027 94.8956 73.6928 95.0063 73.7698C95.0967 72.7038 95.0177 71.369 95.9165 71.537C97.9815 71.7747 100.355 72.4418 102.546 72.7756C102.056 68.9505 105.744 71.5641 108.8 73.1476C108.987 70.2838 112.262 72.1674 115.127 73.3697C115.865 74.1125 116.539 74.738 117.142 75.271C117.956 75.3863 118.592 75.0011 119.231 74.5746C120.135 73.9756 121.092 73.9637 121.927 74.2788L121.898 74.0193C122.479 71.5933 123.544 69.8734 128.287 73.8228C128.418 72.6461 130.003 73.7175 131.716 74.9899C132.212 74.6491 132.76 74.3626 133.366 74.1632C133.975 73.8688 134.654 73.7206 135.333 73.6824L135.246 73.4605C133.955 67.7017 139.781 72.9726 142.617 73.5677C143.011 72.3363 144.533 72.8585 146.06 73.3797C147.694 73.9387 149.332 74.4981 149.592 72.9093C150.271 72.2834 151.669 72.7712 153.07 73.2579C154.882 73.8895 156.699 74.5217 156.969 72.7394C157.448 71.3728 159.072 71.7762 160.698 72.18C162.072 72.5215 163.449 72.862 164.141 72.1356C166.706 72.8474 167.876 71.3782 169.976 71.3528C171.268 71.9023 171.847 71.3457 172.429 70.7892C173.162 70.0876 173.895 69.3859 176.059 70.9029C178.463 71.324 180.851 71.7192 182.191 70.4867C185.214 73.1575 185.738 71.9477 186.263 70.738C186.598 69.9656 186.934 69.1933 187.922 69.4304C188.578 69.2998 189.478 69.5498 190.377 69.7997C192.086 70.2759 193.794 70.7507 193.827 68.6194C195.892 68.5015 197.269 67.3148 199.706 67.7759C204.54 71.9652 203.98 67.7348 205.542 66.7705C207.974 68.8091 208.274 67.5255 208.58 66.2425C208.872 65.021 209.168 63.7986 211.315 65.448C211.769 65.7907 212.232 66.1333 212.682 66.4703C212.996 66.3934 213.326 66.3302 213.654 66.2831C214.233 66.1986 214.861 66.2553 215.448 66.4187C216.202 66.2696 216.972 66.1894 217.771 66.2012C217.603 65.5581 217.363 64.7981 217.024 63.886C218.498 62.6795 221.743 64.204 222.657 62.1194C222.674 60.5619 224.099 61.1883 225.522 61.8146C227.254 62.5766 228.986 63.3372 228.19 60.1763C228.641 59.55 229.837 60.0846 231.034 60.6193C232.997 61.4961 234.958 62.3728 233.609 58.1116C234.852 57.2225 237.105 57.5204 238.41 56.1029C238.246 52.4099 240.935 52.9292 243.323 52.9084C244.769 51.4411 245.262 48.4269 248.097 49.1506C252.937 52.9984 250.204 45.178 252.262 45.0766C253.928 44.3698 254.511 42.2434 255.124 40.6102C256.484 40.1181 256.691 38.2965 256.217 36.0042Z" fill="#C17528"/>
<path d="M16.5704 53.9283C16.2066 53.8238 15.8891 53.7595 15.61 53.5238L15.4023 53.4035C15.4418 52.513 13.8551 52.5297 13.7498 53.4436C13.7777 53.1986 13.6981 53.5089 13.6658 53.5804C13.6034 53.7276 13.577 53.9366 13.6331 54.092C13.7664 54.4534 14.0379 54.6506 14.3752 54.8702C14.5579 54.9862 14.7979 54.988 15.0147 54.9349C15.3521 55.1061 15.7157 55.2253 16.122 55.3453C17.1405 55.641 17.5824 54.2219 16.5704 53.9283" fill="#C17528"/>
<path d="M27.5348 57.8958L27.524 57.8852C27.4928 57.6991 27.3792 57.5184 27.1495 57.3903C26.9188 57.2594 26.7229 57.1888 26.449 57.1549C26.0016 57.1 25.6151 57.5257 25.6166 57.8896C25.6165 58.327 26.035 58.6471 26.358 58.9334C27.1122 59.6056 28.2924 58.5738 27.5348 57.8958" fill="#C17528"/>
<path d="M32.2354 63.2051L32.1405 63.1903L32.1502 63.1525C32.4512 62.2407 30.8521 61.8467 30.5517 62.7533C30.1762 63.8834 30.9707 64.626 32.2276 64.6777C33.2977 64.7203 33.3012 63.2499 32.2354 63.2051" fill="#C17528"/>
<path d="M39.0689 63.3331C39.0441 63.5155 39.0317 63.5302 39.0362 63.3844C39.0258 62.6733 37.9313 62.4093 37.5309 62.9206L37.4699 62.8559C36.7548 62.1466 35.5803 63.1871 36.2917 63.8934C36.6318 64.23 36.8882 64.5598 37.3402 64.7977C37.6688 64.976 38.1321 64.9026 38.3882 64.6566C39.2375 64.9291 39.9296 63.8001 39.0689 63.3331Z" fill="#C17528"/>
<path d="M49.7598 64.6326L49.6529 64.4164C49.6362 63.4658 47.9776 63.4543 47.9938 64.4089C48.0011 64.7693 48.0742 65.0823 48.3251 65.3658C48.5981 65.6907 49.0283 65.8604 49.4574 65.6395C49.8109 65.457 50.0361 64.9525 49.7598 64.6326" fill="#C17528"/>
<path d="M57.695 66.4224C57.3134 65.8959 56.173 66.0117 56.1692 66.8003L56.1667 67.5891C56.1622 67.9938 56.5389 68.3279 56.9922 68.3298L57.4347 68.3332C57.8718 68.3359 58.2857 68.0006 58.267 67.5986C58.2487 67.1698 58.1152 66.6446 57.695 66.4224" fill="#C17528"/>
<path d="M65.0051 69.0241C64.4943 68.2292 63.6692 68.2629 62.9654 68.7638C62.7621 68.8521 62.618 69.0101 62.5884 69.247L62.6043 69.544C62.7616 70.414 63.6012 70.5833 64.4829 70.2287C64.6884 70.1448 64.8097 70.0217 64.8685 69.8821C65.1067 69.6757 65.219 69.3611 65.0051 69.0241" fill="#C17528"/>
<path d="M87.7371 70.7608L87.4079 70.824C87.4574 70.5062 87.5146 70.192 87.6554 69.898C87.8638 69.4588 87.3505 68.9455 86.86 68.9635C86.6811 68.9673 86.5042 68.9887 86.3255 69.002L86.1412 69.0186C85.9763 68.9341 85.7742 68.9057 85.5318 68.9841C85.327 69.0507 85.1625 69.1045 84.9999 69.2363C84.6461 69.5275 84.7142 69.9781 84.9955 70.2771C85.182 70.4781 85.4801 70.5242 85.7928 70.5235C85.7474 70.8404 85.7059 71.1577 85.6044 71.4602C85.4487 71.9202 85.8684 72.3947 86.3988 72.392C87.0084 72.4009 87.5884 72.3394 88.1708 72.1856C89.1921 71.914 88.7625 70.4883 87.7371 70.7608Z" fill="#C17528"/>
<path d="M99.5907 73.7546C99.3879 73.5906 99.0981 73.508 99.1459 73.288C99.3021 72.5516 98.4118 72.0853 97.7611 72.5682C97.6265 72.6656 97.43 72.7184 97.2292 72.7613C97.1951 72.6246 97.142 72.4897 97.068 72.3497C96.9767 72.185 96.8078 72.0303 96.651 71.9105L96.4126 71.729C95.8709 70.9119 94.431 71.6431 94.9774 72.4662C95.1238 72.6895 95.32 72.8286 95.5365 72.9901C95.7235 73.1388 95.636 73.3771 95.5504 73.6693C95.3294 74.4212 96.3161 74.8541 96.9325 74.3902C97.1197 74.2545 97.4289 74.2024 97.6941 74.1481C97.8347 74.4096 98.3067 74.7076 98.4122 74.7947C99.2091 75.4221 100.393 74.3894 99.5907 73.7546" fill="#C17528"/>
<path d="M115.829 72.4403L115.716 72.4383L115.774 72.1926C115.82 71.7376 115.208 71.3257 114.728 71.4751C114.497 71.5507 114.255 71.5648 114.001 71.5708C113.966 70.6503 112.343 70.6441 112.348 71.5881C112.35 72.0566 112.414 72.4987 112.75 72.8765C112.994 73.1525 113.463 73.1361 113.788 73.0307L113.923 73.0099L113.889 73.1657C113.844 73.5632 114.292 73.908 114.712 73.9075L115.821 73.9089C116.89 73.9151 116.899 72.4427 115.829 72.4403" fill="#C17528"/>
<path d="M124.641 74.9379C124.149 74.6108 123.603 74.4198 123.7 73.8015C123.767 73.3891 123.499 72.7964 122.903 72.8655C122.509 72.9092 122.329 72.9155 122.065 72.6708C121.788 72.4139 121.511 72.2334 121.14 72.0946C120.149 71.7415 119.714 73.1575 120.692 73.5156C120.833 73.5666 121.189 73.952 121.362 74.071C121.564 74.2094 121.813 74.2886 122.067 74.327C122.104 74.6076 122.196 74.8743 122.392 75.1341C122.739 75.5924 123.308 75.8798 123.798 76.2053C124.658 76.7755 125.493 75.4964 124.641 74.9379" fill="#C17528"/>
<path d="M130.86 75.4575C130.756 75.4537 130.418 75.363 130.56 75.473C129.751 74.8616 128.564 75.8967 129.382 76.5079C129.831 76.8448 130.274 76.9234 130.852 76.9287C131.922 76.9377 131.929 75.4637 130.86 75.4575Z" fill="#C17528"/>
<path d="M136.908 76.485L137.048 76.4674C135.982 76.487 135.971 77.9606 137.043 77.9389C137.483 77.9299 137.759 77.799 138.073 77.5328C138.845 76.8759 137.678 75.8278 136.908 76.485" fill="#C17528"/>
<path d="M145.29 76.655L145.289 77.0467C145.284 77.9936 146.944 78.004 146.951 77.0532L146.948 76.6598C146.954 75.7117 145.294 75.7027 145.29 76.655Z" fill="#C17528"/>
<path d="M84.0541 73.9409C84.1701 73.5112 83.928 73.0207 83.2984 73.0699C82.0298 73.1684 81.7921 74.2552 82.871 74.8328C83.6046 75.2263 84.2722 74.5011 84.0541 73.9409Z" fill="#C17528"/>
<path d="M76.9375 72.4213C76.8324 72.2134 76.834 72.0338 76.8338 71.811C76.8318 70.862 75.1728 70.8531 75.1747 71.8034C75.1759 72.3001 75.2723 72.7029 75.5022 73.1598C75.9406 74.0242 77.3749 73.2829 76.9375 72.4213Z" fill="#C17528"/>
<path d="M69.75 72.6584L69.75 72.5644C69.7535 71.6134 68.0942 71.6071 68.0907 72.5582L68.0852 73.5385C68.084 73.9382 68.4601 74.2776 68.9122 74.278C69.4891 74.2793 69.9322 74.2062 70.3847 73.8739C71.0378 73.394 70.4353 72.6505 69.75 72.6584" fill="#C17528"/>
<path d="M108.172 75.9843C108.059 75.444 107.318 75.0282 106.819 75.5578C106.1 76.3175 106.54 77.1177 107.621 77.2124C108.44 77.2869 108.619 76.4202 108.172 75.9843" fill="#C17528"/>
<path d="M118.16 76.7904L118.186 76.9181C118.162 75.972 116.502 75.9603 116.524 76.9103C116.537 77.3009 116.683 77.5497 116.987 77.8245C117.727 78.5111 118.906 77.4738 118.16 76.7904" fill="#C17528"/>
<path d="M119.613 78.8882L119.613 79.084C119.609 80.0337 121.268 80.0413 121.274 79.0932L121.274 78.8946C121.277 77.9449 119.619 77.9388 119.613 78.8882" fill="#C17528"/>
<path d="M122.056 77.3277L122.054 77.5233C122.05 78.4757 123.708 78.4831 123.714 77.5324L123.715 77.3379C123.718 76.3869 122.06 76.378 122.056 77.3277" fill="#C17528"/>
<path d="M110.338 75.5059L110.336 75.8976C110.333 76.8473 111.99 76.8587 111.993 75.9077L111.995 75.5134C112.002 74.5613 110.341 74.5536 110.338 75.5059Z" fill="#C17528"/>
<path d="M152.707 75.9261C152.385 76.535 152.132 77.2026 152.396 77.8687C152.749 78.7556 154.353 78.3812 153.997 77.4832C153.885 77.2008 153.995 76.9408 154.138 76.6753C154.592 75.8212 153.166 75.0671 152.707 75.9261" fill="#C17528"/>
<path d="M157.482 76.7807C157.291 76.9159 157.048 76.9621 156.889 77.1372C156.61 77.4276 156.524 77.8875 156.886 78.1809C157.112 78.3596 157.316 78.4043 157.617 78.4318C158.025 78.4635 158.275 78.2679 158.37 78.0103L158.649 77.8273C159.476 77.2303 158.3 76.1866 157.482 76.7807" fill="#C17528"/>
<path d="M162.564 77.5895C162.344 77.7847 162.122 77.9808 161.897 78.174C161.142 78.8476 162.307 79.8926 163.067 79.2236C163.29 79.0275 163.515 78.8304 163.734 78.6352C164.494 77.9676 163.332 76.9228 162.564 77.5895Z" fill="#C17528"/>
<path d="M165.674 75.4461C165.443 75.6547 165.257 75.8428 165.147 76.1229C165.037 76.4056 165.202 76.8363 165.524 76.9602L165.61 76.9929C166.026 77.1489 166.498 77.114 166.751 76.7348L166.839 76.4952L166.844 76.4918C167.595 75.8163 166.429 74.7725 165.674 75.4461" fill="#C17528"/>
<path d="M170.092 75.8561C169.794 76.1295 169.535 76.3927 169.438 76.768C169.196 77.6933 170.794 78.0912 171.04 77.1678L171.266 76.9036C172.013 76.2263 170.848 75.1799 170.092 75.8561" fill="#C17528"/>
<path d="M172.619 76.0188C172.341 76.3508 172.287 76.7674 172.279 77.1745C172.268 78.1273 173.93 78.1312 173.941 77.1811C173.946 77.0138 173.934 76.9025 174.053 76.7684C174.687 76.0019 173.247 75.2636 172.619 76.0188" fill="#C17528"/>
<path d="M175.397 73.8482L175.388 74.6336C175.387 75.5863 177.044 75.5964 177.052 74.6445L177.055 73.8585C177.059 72.9088 175.4 72.8985 175.397 73.8482Z" fill="#C17528"/>
<path d="M179.246 75.0014C179.549 74.1516 178.007 73.7856 177.633 74.6475C177.252 75.5261 177.882 76.2539 178.867 76.3687C179.316 76.4225 179.697 76.0002 179.698 75.6366C179.705 75.3288 179.508 75.1158 179.246 75.0014" fill="#C17528"/>
<path d="M180.698 75.588L180.698 75.8389C180.691 76.7896 182.346 76.7981 182.358 75.8479L182.358 75.5971C182.359 74.6484 180.702 74.637 180.698 75.588Z" fill="#C17528"/>
<path d="M186.856 72.7191C186.441 72.2062 185.333 72.3311 185.354 73.1131C185.371 73.6893 185.749 74.0317 186.405 74.0485C187.286 74.075 187.432 73.0825 186.856 72.7191" fill="#C17528"/>
<path d="M191.559 75.7621L191.334 75.9593C190.576 76.6273 191.744 77.674 192.509 77.0069L192.729 76.8078C193.492 76.1391 192.322 75.0948 191.559 75.7621" fill="#C17528"/>
<path d="M187.489 77.6878C187.198 77.6869 187.185 77.6854 186.973 77.5096C186.769 77.3416 186.543 77.289 186.331 77.3092C186.124 77.2655 185.91 77.2733 185.749 77.3892L185.496 77.4838C184.433 77.4984 184.421 78.9705 185.492 78.9581C185.747 78.951 185.974 78.9083 186.197 78.8291C186.577 79.0561 186.973 79.1576 187.484 79.1607C188.555 79.1711 188.563 77.6999 187.489 77.6878" fill="#C17528"/>
<path d="M193.763 73.3452L193.761 73.5422C193.757 74.4932 195.415 74.4993 195.425 73.5517L195.422 73.3541C195.428 72.4073 193.766 72.3981 193.763 73.3452Z" fill="#C17528"/>
<path d="M196.237 70.6127C196.022 71.2551 195.984 71.9109 195.982 72.5697C195.973 73.5215 197.634 73.5279 197.64 72.5811C197.643 72.0421 197.667 71.5308 197.836 71.0119C198.143 70.0995 196.546 69.7057 196.237 70.6127" fill="#C17528"/>
<path d="M201.001 74.6101L200.929 74.6099C200.449 74.1783 199.368 74.5665 199.535 75.3384C199.674 75.9795 200.382 76.0762 200.991 76.0811C202.067 76.0934 202.072 74.6206 201.001 74.6101" fill="#C17528"/>
<path d="M205.488 72.8379L205.381 72.6178C205.364 71.6698 203.706 71.6637 203.722 72.6089C203.728 72.9692 203.803 73.2823 204.052 73.5709C204.326 73.8921 204.757 74.0631 205.189 73.8453C205.541 73.6598 205.764 73.1565 205.488 72.8379" fill="#C17528"/>
<path d="M206.609 69.6791L206.613 70.07C206.607 71.0208 208.264 71.0308 208.268 70.0772L208.275 69.6861C208.278 68.7391 206.617 68.7272 206.609 69.6791Z" fill="#C17528"/>
<path d="M210.745 68.275C210.399 68.0423 210.286 67.7101 210.273 67.3396C210.245 66.3944 208.585 66.384 208.615 67.3335C208.646 68.2709 209.057 68.9847 209.903 69.5439C210.76 70.1125 211.59 68.838 210.745 68.275" fill="#C17528"/>
<path d="M216.17 68.8667C216.011 68.5264 215.586 68.3883 215.217 68.4443C215.468 68.3681 215.664 68.1904 215.775 67.9548C216.038 67.3997 216.038 66.7434 215.784 66.1885C215.611 65.8187 215.244 65.5541 214.763 65.6698C214.368 65.7631 214.013 66.1991 214.178 66.5722C214.338 66.9258 214.337 67.2035 214.174 67.554C214.007 67.9268 214.352 68.3632 214.752 68.4638L215.038 68.4802C214.772 68.5815 214.568 68.7877 214.582 69.1261C214.634 70.4096 215.75 70.8183 216.929 70.1702C217.812 69.6775 217.051 68.465 216.17 68.8667" fill="#C17528"/>
<path d="M220.484 67.3392C219.978 67.0897 219.781 66.8351 220.127 66.3821C220.721 65.5948 219.287 64.8493 218.697 65.6343C217.849 66.7442 218.383 67.9845 219.643 68.607C220.574 69.0712 221.419 67.8025 220.484 67.3392" fill="#C17528"/>
<path d="M221.901 65.2324L221.897 65.8211C221.896 66.7711 223.552 66.7784 223.557 65.8315L223.56 65.24C223.561 64.2928 221.907 64.2844 221.901 65.2324Z" fill="#C17528"/>
<path d="M225.083 62.9832C224.856 62.7239 224.484 62.5984 224.092 62.8395C223.866 62.9843 223.669 63.1095 223.504 63.3202C223.343 63.5393 223.366 63.8386 223.503 64.0621C223.789 64.5308 224.421 64.4322 224.727 64.4148C225.65 64.3574 225.78 63.2208 225.083 62.9832" fill="#C17528"/>
<path d="M228.07 64.0382C227.474 64.3301 226.994 64.7532 226.663 65.2805C226.132 66.1044 227.56 66.8533 228.092 66.0294C228.29 65.7111 228.547 65.4935 228.9 65.3122C229.837 64.8538 229.004 63.5781 228.07 64.0382" fill="#C17528"/>
<path d="M232.548 63.3856L232.33 63.5835C231.568 64.2537 232.739 65.298 233.498 64.6315L233.721 64.4396C234.482 63.7666 233.312 62.721 232.548 63.3856Z" fill="#C17528"/>
<path d="M236.743 61.0045C236.565 60.7319 236.118 60.5617 235.758 60.6831C235.215 60.5972 234.575 60.9564 234.783 61.5625C235.012 62.2502 235.81 62.4348 236.445 62.0118C236.801 61.7692 236.992 61.3844 236.743 61.0045Z" fill="#C17528"/>
<path d="M239.505 58.3168L239.27 58.0526C239.038 57.1243 237.436 57.511 237.67 58.4328C237.771 58.8133 238.024 59.0796 238.323 59.3524C239.073 60.0363 240.25 58.996 239.505 58.3168" fill="#C17528"/>
<path d="M239.229 55.1748C238.523 55.7239 238.325 56.3709 239.163 56.9198C239.786 57.3208 240.368 56.7886 240.357 56.2492L240.398 56.2216C241.2 55.5909 240.028 54.5492 239.229 55.1748Z" fill="#C17528"/>
<path d="M241.613 54.2839L241.402 54.3995C240.707 54.6318 240.508 55.6571 241.396 55.8186C241.534 55.8437 241.664 55.8531 241.8 55.8539C242.121 55.8568 242.333 55.7213 242.461 55.5412C243.271 54.9731 242.464 53.7245 241.613 54.2839Z" fill="#C17528"/>
<path d="M244.44 55.2778C244.012 55.0507 243.579 55.2215 243.302 55.5388C243.052 55.8231 242.973 56.1376 242.962 56.4986C242.939 57.4488 244.592 57.453 244.626 56.5067L244.73 56.2878C245.012 55.9709 244.792 55.4641 244.44 55.2778Z" fill="#C17528"/>
<path d="M247.924 50.5587C247.934 50.3922 247.899 50.2178 247.798 50.0654C248.337 49.3819 247.264 48.4654 246.558 49.1177C246.212 49.4408 245.896 49.7926 245.896 50.261C245.897 50.8797 246.547 51.1254 247.135 51.1681L247.385 51.1536C247.211 51.5646 246.921 51.9034 246.579 52.2201C246.421 51.7419 245.73 51.4055 245.217 51.8625C244.787 52.2484 244.582 52.6249 244.526 53.166C244.433 54.0828 245.965 54.1027 246.162 53.2595C246.384 53.6714 247.015 53.9215 247.489 53.5045C248.173 52.8979 248.761 52.2523 249.044 51.4189C249.264 50.7556 248.479 50.371 247.924 50.5587" fill="#C17528"/>
<path d="M93.6955 73.7079L93.6201 73.71C93.138 73.2768 92.0586 73.6585 92.2288 74.4388C92.368 75.0786 93.0748 75.1765 93.6877 75.1804C94.7585 75.1922 94.7637 73.7194 93.6955 73.7079Z" fill="#C17528"/>
<path d="M101.503 76.3178C101.135 76.6424 100.765 76.9652 100.396 77.2936L100.393 77.2933L100.365 77.3196C99.6193 77.997 100.772 79.0326 101.535 78.3666C101.915 78.0328 102.293 77.6973 102.673 77.3661C103.431 76.6942 102.265 75.6463 101.503 76.3178Z" fill="#C17528"/>
<path d="M19.4252 57.8401L18.1 57.8342C17.0283 57.8304 17.0207 59.3003 18.0923 59.3054L19.4185 59.3141C20.489 59.3178 20.4953 57.8464 19.4252 57.8401Z" fill="#C17528"/>
<path d="M22.289 61C21.6397 61.0107 21.2521 61.3504 21.2312 61.9237C21.2035 62.7096 22.3187 62.8391 22.732 62.332C23.3097 61.9723 23.1733 60.9771 22.289 61Z" fill="#C17528"/>
<path d="M27.8191 61.0239L27.4893 61.0213C26.8399 61.0199 26.5887 61.5536 26.7223 61.9835C26.4278 61.7997 26.0238 61.7537 25.6798 62.0165C25.4097 62.2206 25.0537 62.3425 24.7398 62.4825C23.7804 62.9061 24.6161 64.1835 25.5713 63.7607C26.0277 63.559 26.4589 63.3545 26.8475 63.0645C27.115 62.8601 27.1536 62.6149 27.0766 62.3955C27.1913 62.4488 27.3192 62.4928 27.4816 62.4925L27.8126 62.4966C28.8832 62.499 28.8907 61.0291 27.8191 61.0239" fill="#C17528"/>
<path d="M48.5821 68.3902L47.7335 68.3835C46.6618 68.3784 46.6539 69.8523 47.7268 69.8576L48.5748 69.8588C49.6446 69.8678 49.6524 68.3952 48.5821 68.3902Z" fill="#C17528"/>
<path d="M53.7356 71.1813L53.6597 71.1646C52.5904 71.1745 52.5821 72.651 53.6528 72.6292C54.1628 72.6282 54.5034 72.5006 54.9048 72.2282C55.754 71.6525 54.5748 70.6112 53.7356 71.1813" fill="#C17528"/>
<path d="M58.4445 71.6647C58.6775 70.8082 57.1604 70.4491 56.8406 71.3252C56.4937 72.2748 56.8814 73.0073 58.0752 73.0478C59.004 73.081 59.1281 71.9787 58.4445 71.6647Z" fill="#C17528"/>
<path d="M64.4983 71.8274C63.6953 71.9857 62.8841 71.9913 62.0632 71.9879C60.9928 71.9842 60.9864 73.4555 62.0549 73.4644C63.0251 73.4647 63.9833 73.4409 64.9345 73.2539C65.9771 73.0424 65.5418 71.6201 64.4983 71.8274Z" fill="#C17528"/>
<path d="M6.23987 49.8974L6.11283 49.6105C6.82365 48.9063 5.6579 47.8531 4.94265 48.5608C4.28703 49.2162 4.41499 49.8843 4.80484 50.6332C5.25579 51.4937 6.68878 50.7523 6.23987 49.8974Z" fill="#C17528"/>
<path d="M10.0868 51.528C9.70116 51.1902 9.28747 50.8278 8.72874 50.7495C7.6821 50.5955 7.22561 52.013 8.27948 52.1624C8.55383 52.2044 8.71675 52.4 8.90699 52.568C9.66367 53.2418 10.8445 52.2046 10.0868 51.528" fill="#C17528"/>
<path d="M88.4481 76.3544C88.0732 76.6888 87.8774 76.9832 87.8687 77.46C87.8543 78.4125 89.5109 78.4184 89.528 77.4663L89.6186 77.4014C90.3742 76.7278 89.2066 75.6798 88.4481 76.3544" fill="#C17528"/>
<path d="M86.5606 73.6235L86.554 74.8023C86.5492 75.7532 88.2068 75.762 88.2127 74.8139L88.2193 73.6351C88.2227 72.6854 86.5636 72.6778 86.5606 73.6235Z" fill="#C17528"/>
<path d="M149.57 72.3325C149.406 72.3553 149.268 72.4054 149.125 72.4777L148.906 72.6205C147.853 72.7812 148.29 74.2023 149.341 74.0455C149.503 74.0184 149.642 73.9724 149.785 73.8934L150.006 73.7548C151.059 73.5955 150.618 72.1739 149.57 72.3325Z" fill="#C17528"/>
<path d="M138.499 73.7259L136.509 73.7168C135.44 73.7107 135.435 75.1835 136.503 75.1869L138.494 75.1961C139.567 75.2014 139.572 73.7312 138.499 73.7259" fill="#C17528"/>
<path d="M162.81 72.8765C162.676 72.9996 162.52 73.1253 162.428 73.2826C162.259 73.5882 162.282 73.9195 162.555 74.1733C162.781 74.3897 163.076 74.4259 163.388 74.4345C163.962 74.4394 164.221 74.0247 164.183 73.6299C164.413 72.9959 163.461 72.2984 162.81 72.8765" fill="#C17528"/>
<path d="M132.989 80.3025C132.954 79.3807 131.326 79.378 131.332 80.318C131.337 80.901 131.536 81.4953 132.269 81.6243C133.206 81.7805 133.657 80.6684 132.989 80.3025Z" fill="#C17528"/>
<path d="M141.96 78.8969L141.958 79.4885C141.952 80.4353 143.613 80.4443 143.616 79.492L143.618 78.9017C143.626 77.9539 141.963 77.9472 141.96 78.8969" fill="#C17528"/>
<path d="M149.755 79.9608C148.685 79.9586 148.675 81.4295 149.749 81.4377C150.816 81.4437 150.825 79.9672 149.755 79.9608Z" fill="#C17528"/>
<path d="M253.137 45.9908C252.06 45.9863 252.052 47.4576 253.13 47.462C254.198 47.4682 254.204 45.9953 253.137 45.9908Z" fill="#C17528"/>
<path d="M15.8294 46.9236L15.4952 46.9245C14.4249 46.9195 14.4173 48.3894 15.4888 48.3959L15.8217 48.3948C16.8905 48.401 16.8969 46.9297 15.8294 46.9236Z" fill="#DC9656"/>
<path d="M26.9136 53.8973L26.9106 54.1948C26.9059 55.1444 28.5653 55.1493 28.5695 54.2038L28.5722 53.9088C28.5771 52.958 26.9165 52.9516 26.9136 53.8973Z" fill="#DC9656"/>
<path d="M35.3905 55.856C34.9874 55.2586 33.7294 55.6536 33.9017 56.4864C34.0344 57.1363 34.702 57.3196 35.36 57.3273C36.421 57.3434 36.4337 55.8982 35.3905 55.856" fill="#DC9656"/>
<path d="M42.1088 60.2261C42.1508 59.8337 41.8978 59.4158 41.3242 59.4203C41.0116 59.4196 40.7166 59.4532 40.4873 59.6646C40.2152 59.9208 40.187 60.2517 40.3537 60.5552C40.4384 60.7192 40.593 60.8468 40.7294 60.9683C41.3753 61.5544 42.3329 60.8635 42.1088 60.2261" fill="#DC9656"/>
<path d="M44.1379 61.0515L44.1348 61.6442C44.1293 62.5897 45.7898 62.5961 45.7928 61.6504L45.7958 61.0576C45.8017 60.1095 44.1426 60.1019 44.1379 61.0515Z" fill="#DC9656"/>
<path d="M49.3662 59.3757C48.955 59.8053 48.7943 60.2151 48.7835 60.7816C48.7734 61.7318 50.4313 61.7379 50.4451 60.7908C50.4456 60.6446 50.4256 60.5376 50.535 60.4252C51.2217 59.7089 50.0604 58.6522 49.3662 59.3757" fill="#DC9656"/>
<path d="M53.3311 63.5198L53.2682 63.5301C53.1359 63.3956 52.9399 63.3022 52.6785 63.2993L52.2571 63.2997C51.1865 63.2973 51.1804 64.766 52.2519 64.7725L52.4143 64.7722C53.0975 65.0781 53.8494 65.0267 54.4975 64.5677C55.3339 63.9745 54.157 62.9361 53.3311 63.5198" fill="#DC9656"/>
<path d="M57.0845 60.5235L57.0779 61.9976C57.072 62.9456 58.7312 62.9519 58.7373 62.0025L58.7425 60.5297C58.7472 59.5801 57.0879 59.5738 57.0845 60.5235Z" fill="#DC9656"/>
<path d="M62.8609 66.8866C62.6581 66.877 62.7043 66.9185 62.697 66.7351C62.6502 65.7904 60.99 65.7801 61.0377 66.7289C61.0852 67.7152 61.7444 68.3028 62.8529 68.3605C63.9252 68.4073 63.9276 66.9355 62.8609 66.8866" fill="#DC9656"/>
<path d="M66.847 66.3163C65.776 66.3058 65.769 67.7825 66.8405 67.789C67.9108 67.794 67.9175 66.3199 66.847 66.3163Z" fill="#DC9656"/>
<path d="M72.7466 63.8594C72.2221 63.9513 71.9883 64.5675 71.78 64.9357L71.7517 65.0197L71.7356 65.0782L71.6916 65.3C71.6868 65.6376 71.9172 65.9591 72.3557 66.021L72.4724 66.045L72.4923 66.0473L72.5088 66.0438C72.7193 66.057 72.9212 65.9928 73.0808 65.8284L73.1069 65.7992L73.2084 65.6859L73.2417 65.6293C73.408 65.5476 73.5499 65.4202 73.6284 65.2144C73.7055 65.0085 73.7908 64.8008 73.7939 64.573C73.8016 64.0693 73.2682 63.7684 72.7466 63.8594" fill="#DC9656"/>
<path d="M78.4619 66.6661C78.258 66.6536 78.3053 66.6979 78.2937 66.5168C78.2498 65.5698 76.5912 65.5582 76.6388 66.5083C76.6865 67.492 77.3467 68.0824 78.4544 68.136C79.5262 68.1868 79.5283 66.7176 78.4619 66.6661" fill="#DC9656"/>
<path d="M83.0232 68.0814C82.835 67.907 82.6181 67.7616 82.5759 67.5192C82.4169 66.5806 80.8144 66.9726 80.9742 67.9033C81.0602 68.3975 81.4646 68.771 81.8452 69.1176C82.5976 69.7936 83.7754 68.7588 83.0232 68.0814" fill="#DC9656"/>
<path d="M90.4003 68.7838L89.0728 68.7751C88.0009 68.7725 87.9932 70.2438 89.065 70.2476L90.3938 70.2565C91.4605 70.2584 91.4694 68.7874 90.4003 68.7838Z" fill="#DC9656"/>
<path d="M96.3847 66.7486C95.9204 66.7253 95.5215 66.4921 95.0582 66.4474C93.9935 66.3464 93.9978 67.819 95.0503 67.9213L95.4392 68.0648C95.7335 68.1788 96.058 68.205 96.3782 68.2213C97.4454 68.277 97.4475 66.8078 96.3847 66.7486" fill="#DC9656"/>
<path d="M103.597 69.0628C103.371 68.8572 103.196 68.7004 103.179 68.4005C103.123 67.4548 101.464 67.4459 101.517 68.3927C101.563 69.0984 101.869 69.6016 102.419 70.0989C103.169 70.7747 104.347 69.7398 103.597 69.0628" fill="#DC9656"/>
<path d="M108.319 69.4577C107.783 69.453 107.246 69.4577 106.746 69.256C105.782 68.8671 104.93 70.1323 105.903 70.5221C106.689 70.8382 107.454 70.9253 108.313 70.9304C109.381 70.9379 109.388 69.4665 108.319 69.4577" fill="#DC9656"/>
<path d="M120.861 67.9646C120.606 67.6953 120.465 67.3545 120.199 67.076C119.51 66.3508 118.338 67.3943 119.025 68.1166C119.279 68.383 119.42 68.7238 119.684 68.9994C120.375 69.7276 121.548 68.6868 120.861 67.9646Z" fill="#DC9656"/>
<path d="M125.952 71.3792C125.7 70.9024 125.55 70.3834 125.295 69.8995C124.843 69.0415 123.407 69.7826 123.86 70.6406C124.113 71.1176 124.263 71.6366 124.518 72.1152C124.968 72.9756 126.406 72.236 125.952 71.3792" fill="#DC9656"/>
<path d="M129.164 70.8295C128.511 71.147 128.632 72.2142 129.548 72.2097C130.292 72.2044 130.703 71.8459 130.713 71.1828C130.725 70.3709 129.522 70.2529 129.164 70.8295Z" fill="#DC9656"/>
<path d="M139.122 66.2833L139.033 66.2142C139.025 65.2685 137.365 65.2568 137.375 66.2107C137.376 66.6872 137.574 66.9848 137.944 67.3194C138.696 67.9981 139.873 66.9605 139.122 66.2833" fill="#DC9656"/>
<path d="M142.507 68.7349L142.175 68.7348C141.106 68.7326 141.095 70.2035 142.17 70.209L142.498 70.2114C143.567 70.215 143.573 68.7408 142.507 68.7349" fill="#DC9656"/>
<path d="M146.826 67.8724L146.162 67.8693C145.092 67.8656 145.082 69.3379 146.155 69.3405L146.822 69.3493C147.889 69.3526 147.895 67.8786 146.826 67.8724" fill="#DC9656"/>
<path d="M154.149 63.4867C153.49 63.4895 152.822 63.6699 152.68 64.318C152.503 65.1485 153.757 65.5489 154.164 64.9578C155.202 64.9296 155.208 63.4837 154.149 63.4867" fill="#DC9656"/>
<path d="M158.029 68.4344C157.66 68.0716 157.409 67.6217 157.039 67.2535C156.325 66.5456 155.147 67.5844 155.861 68.291C156.233 68.6554 156.478 69.1033 156.851 69.4732C157.569 70.1815 158.741 69.138 158.029 68.4344Z" fill="#DC9656"/>
<path d="M159.087 71.1714C158.021 71.1642 158.01 72.6404 159.082 72.6429C160.15 72.6491 160.157 71.1751 159.087 71.1714Z" fill="#DC9656"/>
<path d="M168.477 67.6033C167.891 68.1164 167.302 68.6251 166.513 68.8748C165.51 69.1968 165.936 70.6181 166.946 70.3023C168.027 69.9516 168.84 69.3569 169.642 68.6498C170.405 67.9824 169.239 66.9358 168.477 67.6033Z" fill="#DC9656"/>
<path d="M175.122 62.5059C174.762 61.9241 173.561 62.0303 173.565 62.844C173.57 63.5035 173.976 63.869 174.722 63.8814C175.639 63.8959 175.769 62.8264 175.122 62.5059Z" fill="#DC9656"/>
<path d="M178.203 64.9283C178.148 63.9814 176.488 63.9697 176.542 64.9206C176.571 65.4338 176.841 65.8979 176.868 66.3975C176.92 67.3428 178.579 67.3517 178.528 66.4038C178.498 65.8932 178.233 65.4283 178.203 64.9283" fill="#DC9656"/>
<path d="M179.84 68.0668L179.853 67.8804C179.851 66.9314 178.192 66.9252 178.189 67.8736C178.188 68.7954 178.546 69.4494 179.674 69.5026C180.687 69.5494 180.727 68.2576 179.84 68.0668Z" fill="#DC9656"/>
<path d="M185.41 66.2084C185.187 66.4059 184.964 66.5992 184.747 66.7973C183.981 67.463 185.153 68.5142 185.914 67.8399C186.131 67.6458 186.358 67.449 186.577 67.2565C187.339 66.5863 186.174 65.5426 185.41 66.2084" fill="#DC9656"/>
<path d="M193.2 62.8167C192.853 62.7705 192.562 62.5656 192.212 62.5191C191.761 62.4571 191.321 62.6028 191.181 63.0284C191.074 63.3813 191.313 63.8754 191.761 63.9358C192.11 63.9822 192.402 64.1846 192.754 64.2367C193.203 64.2958 193.647 64.1491 193.778 63.7238C193.887 63.3753 193.651 62.8801 193.2 62.8167Z" fill="#DC9656"/>
<path d="M197.204 65.9709C197.042 65.8061 196.809 65.5408 196.788 65.3129C196.687 64.3715 195.03 64.3561 195.128 65.3039C195.195 65.9516 195.54 66.525 196.022 67.0079C196.744 67.7167 197.916 66.6732 197.204 65.9709Z" fill="#DC9656"/>
<path d="M200.68 64.5145C200.557 64.6105 200.432 64.5909 200.274 64.5931C199.207 64.5952 199.198 66.0662 200.267 66.063C200.904 66.0617 201.368 65.9239 201.853 65.5645C202.676 64.9522 201.502 63.9102 200.68 64.5145Z" fill="#DC9656"/>
<path d="M212.181 57.7941C211.802 57.4612 211.472 57.2867 210.93 57.2773C209.859 57.2629 209.854 58.7344 210.924 58.7515L211.001 58.834C211.754 59.5008 212.939 58.4667 212.181 57.7941" fill="#DC9656"/>
<path d="M212.568 62.0653C211.831 61.7734 210.957 62.6522 211.643 63.2509C212.256 63.7917 212.863 63.7936 213.481 63.2615C214.17 62.6689 213.309 61.7805 212.568 62.0653Z" fill="#DC9656"/>
<path d="M217.14 60.0586C216.828 60.1894 216.567 60.251 216.23 60.2476C215.161 60.2454 215.148 61.7213 216.223 61.7201C216.854 61.7222 217.395 61.5677 217.969 61.3351C218.931 60.9346 218.102 59.662 217.14 60.0586Z" fill="#DC9656"/>
<path d="M224.874 56.7529C224.412 56.7312 224.013 56.5006 223.55 56.4533C222.482 56.3519 222.487 57.8273 223.542 57.9272L223.925 58.0741C224.225 58.1806 224.551 58.2124 224.869 58.2271C225.932 58.285 225.937 56.8108 224.874 56.7529Z" fill="#DC9656"/>
<path d="M229.186 57.0704C228.907 57.0453 228.623 56.5662 228.448 56.3986C227.72 55.6971 226.547 56.7366 227.27 57.4348C227.851 57.9974 228.263 58.4629 229.181 58.5445C230.244 58.636 230.243 57.1597 229.186 57.0704" fill="#DC9656"/>
<path d="M234.842 54.4435L233.845 54.4415C232.776 54.434 232.768 55.9079 233.84 55.913L234.831 55.9197C235.905 55.9239 235.913 54.4487 234.842 54.4435" fill="#DC9656"/>
<path d="M238.166 52.3982C237.254 52.3857 237.123 53.4564 237.771 53.7757C238.126 54.3542 239.335 54.2489 239.329 53.4336C239.323 52.7728 238.912 52.412 238.166 52.3982Z" fill="#DC9656"/>
<path d="M241.833 49.4699L241.177 49.4691C240.1 49.4633 240.089 50.9355 241.161 50.9394L241.828 50.9428C242.896 50.9489 242.902 49.4748 241.833 49.4699Z" fill="#DC9656"/>
<path d="M244.176 46.5359C243.097 46.53 243.093 48.0056 244.165 48.0068C245.234 48.0143 245.244 46.5421 244.176 46.5359Z" fill="#DC9656"/>
<path d="M247.5 44.1954L246.507 44.1884C245.435 44.1859 245.427 45.6571 246.501 45.6639L247.495 45.6669C248.564 45.6718 248.569 44.2003 247.5 44.1954Z" fill="#DC9656"/>
<path d="M254.345 57.1697C252.193 56.8591 250.053 56.4787 247.932 56.0496C246.791 55.8191 245.651 55.5767 244.514 55.3238C244.49 55.3064 244.465 55.2914 244.44 55.2778C244.336 55.2231 244.231 55.191 244.128 55.1792C244.051 55.1705 243.974 55.1725 243.9 55.1856C243.532 55.1021 243.164 55.0172 242.796 54.9312C242.796 54.5554 242.508 54.1911 242.126 54.1477C241.966 54.1295 241.791 54.1673 241.613 54.2839L241.402 54.3995C241.305 54.4313 241.219 54.4793 241.142 54.5377C240.513 54.3842 239.885 54.2283 239.258 54.0683C240.016 53.6943 240.781 53.3049 241.546 52.8968C242.125 52.8861 242.733 52.9138 243.323 52.9084C243.781 52.4439 244.144 51.8236 244.515 51.2163C244.981 50.9351 245.444 50.6457 245.901 50.3501C245.957 50.8691 246.503 51.0989 247.031 51.159C247.066 51.163 247.1 51.1656 247.135 51.1681L247.385 51.1536C247.211 51.5646 246.921 51.9034 246.579 52.2201C246.484 51.9274 246.187 51.6884 245.855 51.6505C245.643 51.6264 245.418 51.684 245.217 51.8625C244.787 52.2483 244.582 52.6249 244.526 53.166C244.482 53.5932 244.792 53.8256 245.154 53.8669C245.57 53.9142 246.057 53.7092 246.162 53.2595C246.29 53.4969 246.554 53.6812 246.845 53.7144C247.06 53.7388 247.288 53.6815 247.489 53.5045C248.173 52.8979 248.761 52.2523 249.044 51.4189C249.213 50.9134 248.795 50.5692 248.342 50.5177C248.2 50.5016 248.055 50.5133 247.924 50.5587C247.934 50.3922 247.899 50.2178 247.798 50.0654C248.053 49.7414 247.947 49.3657 247.689 49.1297C247.712 49.1135 247.736 49.0961 247.758 49.0798C247.867 49.0976 247.98 49.1212 248.097 49.1506C248.965 49.8398 249.589 50.1551 250.041 50.2065C251.599 50.3837 251.113 47.4352 251.498 45.9304C251.788 45.6387 252.069 45.3445 252.338 45.0437C253.595 44.4661 254.22 43.0651 254.722 41.7131C254.928 41.33 255.116 40.9394 255.283 40.5437C256.182 40.12 256.511 39.0436 256.438 37.6222C256.465 37.7716 256.496 37.9281 256.526 38.0953C256.559 38.2762 256.594 38.4693 256.63 38.672C257.252 40.294 257.266 41.1344 257.173 41.9612C257.138 42.2685 257.089 42.5742 257.05 42.9174C256.99 43.442 256.955 44.054 257.037 44.8952C256.671 44.9959 256.502 45.4463 256.427 46.0873C256.284 47.3351 256.505 49.3074 256.335 50.8205C256.274 51.3491 256.167 51.82 255.979 52.1864C255.979 52.1985 255.978 52.2104 255.977 52.221C255.976 52.2223 255.978 52.2238 255.977 52.2251C255.972 52.2983 255.966 52.3702 255.959 52.4432C255.958 52.4551 255.958 52.4658 255.957 52.4778C255.957 52.4791 255.956 52.4804 255.956 52.483C255.955 52.491 255.954 52.499 255.953 52.5082C255.953 52.5122 255.952 52.5162 255.952 52.5201C255.953 52.5269 255.952 52.5322 255.951 52.5388C255.95 52.5481 255.949 52.5574 255.948 52.568C255.948 52.568 255.948 52.5693 255.948 52.5706C255.763 54.4565 255.181 55.9201 254.345 57.1697ZM253.253 45.9973C253.216 45.9931 253.178 45.9913 253.137 45.9908C252.102 45.9857 252.054 47.3464 253.01 47.4551C253.048 47.4594 253.088 47.4613 253.13 47.462C254.158 47.4677 254.201 46.1051 253.253 45.9973Z" fill="url(#paint1_radial)"/>
<path d="M244.514 55.3238C244.31 55.2778 244.104 55.2316 243.9 55.1856C243.974 55.1725 244.051 55.1705 244.128 55.1792C244.231 55.191 244.336 55.2231 244.44 55.2778C244.465 55.2914 244.49 55.3064 244.514 55.3238Z" fill="#965A1F"/>
<path d="M174.523 63.8695C174.112 63.8228 173.827 63.6495 173.68 63.363C173.605 63.2189 173.568 63.0442 173.565 62.844C173.562 62.3256 174.049 62.0952 174.495 62.146C174.751 62.175 174.992 62.2951 175.122 62.5059C175.357 62.6225 175.49 62.8375 175.519 63.0649C175.571 63.4613 175.306 63.8901 174.722 63.8814C174.652 63.8802 174.587 63.8768 174.523 63.8695Z" fill="#BB8049"/>
<path d="M176.866 66.3678C176.829 65.8791 176.571 65.4243 176.543 64.9205C176.513 64.4006 176.997 64.1684 177.45 64.22C177.825 64.2626 178.179 64.5002 178.203 64.9283C178.23 65.385 178.455 65.8132 178.514 66.2734C177.981 66.3147 177.431 66.3461 176.866 66.3678Z" fill="#BB8049"/>
<path d="M250.914 27.5265C250.976 27.5228 251.04 27.5193 251.102 27.5143C251.274 27.5043 251.445 27.493 251.619 27.4791C251.383 27.498 251.149 27.5129 250.914 27.5265Z" fill="#67311D"/>
<defs>
<radialGradient id="paint0_radial" cx="0" cy="0" r="1" gradientUnits="userSpaceOnUse" gradientTransform="translate(123.392 -138.921) rotate(0.273114) scale(261.109 231.769)">
<stop stop-color="#9B2B3E"/>
<stop offset="0.914738" stop-color="#9B2B3E"/>
<stop offset="0.990319" stop-color="#813229"/>
<stop offset="1" stop-color="#813229"/>
</radialGradient>
<radialGradient id="paint1_radial" cx="0" cy="0" r="1" gradientUnits="userSpaceOnUse" gradientTransform="translate(123.392 -138.921) rotate(0.273114) scale(261.109 231.769)">
<stop stop-color="#993923"/>
<stop offset="0.9999" stop-color="#83312A"/>
<stop offset="1" stop-color="#993923"/>
</radialGradient>
</defs>
</svg>
