<svg width="184" height="53" viewBox="0 0 184 53" fill="none" xmlns="http://www.w3.org/2000/svg">
<path d="M175.502 42.1152C174.627 44.5778 170.229 45.0592 167.473 45.2818C164.065 45.5725 160.513 45.2205 157.037 44.7392C150.063 43.7672 143.169 42.2018 136.401 40.2338C116.457 34.4325 101.558 25.8525 103.005 21.0272L95.3915 18.8085L94.1395 22.6072C92.2221 28.4312 110.298 38.8685 134.523 45.9152C142.714 48.2992 151.053 50.1952 159.495 51.3698C163.701 51.9525 167.993 52.3725 172.122 52.0298C175.477 51.7552 180.866 51.1685 181.866 48.1272L183.115 44.3312L175.502 42.1152" fill="#B26EB2"/>
<path d="M167.473 45.2818C164.065 45.5725 160.513 45.2205 157.037 44.7392C150.063 43.7672 143.169 42.2018 136.401 40.2338C116.378 34.4072 101.431 25.7805 103.017 20.9672C104.609 16.1498 122.126 16.9712 142.153 22.7938C162.175 28.6205 177.117 37.2472 175.529 42.0605C174.702 44.5752 170.249 45.0592 167.473 45.2818V45.2818ZM142.749 20.9672C118.527 13.9178 97.3355 12.9245 95.4115 18.7552C93.4902 24.5818 111.569 35.0152 135.795 42.0605C143.985 44.4458 152.321 46.3445 160.763 47.5112C164.966 48.0978 169.261 48.5192 173.393 48.1792C176.747 47.8992 182.137 47.3165 183.138 44.2738C185.059 38.4485 166.979 28.0098 142.749 20.9672" fill="#F1B4B8"/>
<path d="M173.393 48.1792C169.261 48.5192 164.966 48.0978 160.764 47.5112C152.321 46.3445 143.985 44.4458 135.796 42.0605C121.912 38.0272 110.048 32.8738 102.809 28.1112L101.538 31.9645C108.778 36.7205 120.642 41.8778 134.524 45.9152C142.714 48.2992 151.053 50.1952 159.496 51.3698C163.701 51.9525 167.993 52.3725 172.122 52.0298C172.624 51.9898 173.178 51.9432 173.749 51.8792L175.017 48.0285C174.445 48.0885 173.9 48.1378 173.393 48.1792Z" fill="#D27CD0"/>
<path d="M141.15 25.8325C159.065 31.0445 172.907 38.4952 174.486 43.4578C174.973 43.0752 175.345 42.6218 175.529 42.0605C177.117 37.2472 162.175 28.6205 142.153 22.7938C122.126 16.9712 104.609 16.1499 103.017 20.9672C102.847 21.4845 102.884 22.0538 103.08 22.6485C107.416 19.4258 123.282 20.6352 141.15 25.8325" fill="#9D639F"/>
<path d="M142.3 22.3499C121.102 16.1832 101.806 15.1685 100.169 20.1405C98.5315 25.0992 115.059 34.5059 136.251 40.6752C144.143 42.9712 151.479 44.5752 158.682 45.5725C162.099 46.0459 166.109 46.4899 169.95 46.1685C173.679 45.8632 177.607 45.2299 178.382 42.8912C180.017 37.9245 163.494 28.5192 142.3 22.3499V22.3499ZM136.021 41.3792C113.582 34.8485 97.4342 25.4032 99.2595 19.8725C101.081 14.3419 120.089 15.1205 142.525 21.6525C164.961 28.1792 181.111 37.6245 179.291 43.1552C178.278 46.2459 172.785 46.6979 170.148 46.9139C166.193 47.2432 162.105 46.7925 158.626 46.3152C151.362 45.3032 143.97 43.6885 136.021 41.3792Z" fill="white"/>
<path d="M168.861 48.2738C166.161 48.1898 163.45 47.8858 160.763 47.5112C152.321 46.3445 143.985 44.4458 135.795 42.0605C129.335 40.1858 123.321 38.0658 118.002 35.8525L116.73 39.7098C122.055 41.9165 128.065 44.0392 134.523 45.9152C142.714 48.2992 151.053 50.1952 159.495 51.3698C162.178 51.7365 164.894 52.0458 167.585 52.1285L168.861 48.2738Z" fill="#E990E9"/>
<path d="M144.959 48.6445C146.55 49.0138 148.141 49.3672 149.741 49.6912L151.01 45.8365C149.414 45.5112 147.821 45.1605 146.233 44.7938L144.959 48.6445Z" fill="#F5B1F8"/>
<path d="M152.914 50.3018C155.099 50.7045 157.295 51.0618 159.495 51.3698C159.753 51.4045 160.01 51.4338 160.27 51.4645L161.541 47.6138C161.279 47.5845 161.026 47.5485 160.763 47.5112C158.561 47.2072 156.367 46.8512 154.182 46.4485L152.914 50.3018Z" fill="#F5B1F8"/>
<path d="M142.51 21.7125C119.752 15.0899 99.7875 14.1005 98.0022 19.5072C96.2235 24.9152 113.289 34.7032 136.046 41.3219C144.333 43.7312 152.047 45.4139 159.621 46.4672C163.219 46.9632 167.445 47.4285 171.505 47.0925C175.502 46.7632 179.702 46.0819 180.544 43.5205C182.332 38.1152 165.265 28.3299 142.51 21.7125V21.7125ZM135.928 41.6672C112.917 34.9712 95.7062 24.9739 97.5488 19.3765C99.3928 13.7752 119.616 14.6659 142.623 21.3592C165.629 28.0485 182.846 38.0512 181.001 43.6565C179.968 46.7712 174.324 47.2419 171.605 47.4645C167.489 47.8072 163.225 47.3352 159.592 46.8312C151.989 45.7819 144.248 44.0885 135.928 41.6672" fill="#F79AFC"/>
<path d="M140.967 12.0486C141.75 16.2392 136.673 19.8646 133.442 22.0299C129.433 24.7179 124.778 26.5632 120.115 28.1659C110.754 31.3939 101.038 33.6806 91.1726 35.3032C62.1046 40.0779 37.1659 37.4352 35.2966 29.4032L24.1993 31.2246L25.5299 37.6179C27.5766 47.4166 57.8566 50.6699 93.1673 44.8672C105.099 42.9072 116.854 40.1379 128.181 36.2392C133.823 34.2966 139.45 32.0592 144.309 28.8046C148.241 26.1712 154.462 21.7299 153.397 16.6166L152.063 10.2259L140.967 12.0486" fill="#7A2B2B"/>
<path d="M133.442 22.0299C129.433 24.7179 124.778 26.5632 120.115 28.1659C110.754 31.3939 101.038 33.6805 91.1727 35.3032C61.9847 40.0965 36.958 37.4112 35.2687 29.3072C33.5767 21.2059 55.8673 10.7499 85.0513 5.95119C114.234 1.16319 139.267 3.84587 140.955 11.9485C141.838 16.1819 136.698 19.8485 133.442 22.0299V22.0299ZM84.4127 2.8752C49.102 8.67787 22.134 21.3272 24.1807 31.1312C26.2233 40.9339 56.5047 44.1832 91.814 38.3845C103.746 36.4205 115.505 33.6525 126.826 29.7525C132.467 27.8085 138.101 25.5752 142.954 22.3232C146.894 19.6845 153.11 15.2445 152.045 10.1299C150.002 0.325873 119.719 -2.92346 84.4127 2.8752Z" fill="#ED797D"/>
<path d="M142.954 22.3232C138.101 25.5752 132.467 27.8085 126.826 29.7525C115.505 33.6525 103.746 36.4205 91.8139 38.3845C71.5766 41.7059 52.9953 42.0579 40.4286 39.9059L41.7793 46.3925C54.3446 48.5419 72.9326 48.1925 93.1673 44.8672C105.099 42.9072 116.854 40.1379 128.181 36.2392C133.823 34.2965 139.45 32.0592 144.309 28.8045C144.894 28.4125 145.538 27.9805 146.195 27.5059L144.847 21.0232C144.185 21.4885 143.542 21.9232 142.954 22.3232" fill="#993444"/>
<path d="M86.118 11.0659C112.231 6.78058 135.006 8.47791 140.721 14.6899C141.041 13.8099 141.151 12.8979 140.955 11.9486C139.267 3.84591 114.234 1.16323 85.0513 5.95123C55.8673 10.7499 33.5766 21.2059 35.2686 29.3072C35.4473 30.1806 35.9167 30.9859 36.6153 31.7286C39.538 24.1326 60.0727 15.3432 86.118 11.0659" fill="#7A2B2B"/>
<path d="M84.8966 5.20853C54.0033 10.2805 29.37 21.6312 31.114 29.9885C32.8553 38.3525 60.434 41.1245 91.3273 36.0485C102.831 34.1645 113.117 31.6272 122.783 28.3005C127.365 26.7219 132.659 24.6979 137.167 21.6779C141.557 18.7419 145.929 15.2059 145.106 11.2659C143.363 2.90854 115.793 0.129864 84.8966 5.20853ZM91.5753 37.2299C58.8673 42.6019 31.7273 39.5165 29.786 30.2099C27.842 20.9005 51.946 9.3992 84.6513 4.02586C117.355 -1.3448 144.498 1.73921 146.437 11.0499C147.522 16.2485 141.077 20.5632 137.982 22.6339C133.337 25.7459 127.945 27.8085 123.277 29.4139C113.527 32.7685 103.155 35.3312 91.5753 37.2299" fill="#EDADD4"/>
<path d="M137.415 25.4832C134.025 27.1485 130.43 28.5138 126.826 29.7525C115.505 33.6525 103.746 36.4205 91.814 38.3845C82.3993 39.9285 73.3486 40.8245 65.09 41.1352L66.4406 47.6165C74.7019 47.3085 83.7499 46.4165 93.1673 44.8672C105.099 42.9072 116.854 40.1378 128.181 36.2392C131.782 34.9978 135.373 33.6378 138.769 31.9698L137.415 25.4832" fill="#B9345E"/>
<path d="M108.143 41.9179C110.393 41.4059 112.623 40.8619 114.842 40.2752L113.493 33.7899C111.274 34.3779 109.039 34.9206 106.793 35.4379L108.143 41.9179" fill="#D882BA"/>
<path d="M119.231 39.0619C122.238 38.1939 125.222 37.2539 128.181 36.2392C128.529 36.1179 128.871 35.9912 129.217 35.8685L127.866 29.3859C127.521 29.5099 127.175 29.6339 126.826 29.7525C123.869 30.7672 120.889 31.7006 117.879 32.5752L119.231 39.0619" fill="#D882BA"/>
<path d="M50.55 21.0939C59.502 17.0325 71.9967 13.3859 86.118 11.0659C101.133 8.59788 115.029 8.11654 125.229 9.32988L124.162 4.21786C113.959 3.0072 100.061 3.48853 85.0513 5.9512C70.9367 8.2752 58.4407 11.9179 49.482 15.9792L50.55 21.0939Z" fill="#993444"/>
<path d="M84.6713 4.12726C51.502 9.57659 26.0606 21.4099 27.9566 30.5099C29.8553 39.6099 58.3886 42.5779 91.5553 37.1286C103.639 35.1446 114.453 32.4806 124.621 28.9779C129.445 27.3166 135.027 25.1899 139.794 21.9926C144.483 18.8499 149.163 15.0539 148.266 10.7499C146.367 1.64859 117.841 -1.31941 84.6713 4.12726V4.12726ZM91.6766 37.7192C58.1393 43.2272 29.2593 40.0392 27.2939 30.6192C25.3313 21.1952 51.0126 9.04725 84.5473 3.54059C118.079 -1.96875 146.963 1.21525 148.929 10.6406C150.021 15.8913 143.39 20.3326 140.201 22.4726C135.367 25.7086 129.734 27.8619 124.865 29.5392C114.657 33.0539 103.803 35.7286 91.6766 37.7192" fill="#A23546"/>
<path d="M57.3619 18.3365C65.4153 15.4072 75.2846 12.8459 86.118 11.0659C88.9313 10.6032 91.7046 10.2112 94.4246 9.88855L93.358 4.77656C90.6393 5.10189 87.8686 5.49121 85.0513 5.95121C74.2206 7.73388 64.3526 10.2992 56.2926 13.2219L57.3619 18.3365Z" fill="#D45382"/>
<path d="M140.805 11.4059C139.763 8.41255 135.391 6.21255 128.759 4.92055C135.393 6.21255 139.763 8.41255 140.806 11.4059H140.805V11.4059ZM118.89 3.75655C116.81 3.63788 114.618 3.57789 112.334 3.57789C114.619 3.57789 116.81 3.63788 118.89 3.75655Z" fill="#D9D9D9"/>
<path d="M128.759 4.92053C127.305 4.63653 125.742 4.39653 124.079 4.20186C125.742 4.39653 127.305 4.63653 128.759 4.92053ZM123.386 4.1232C121.955 3.96853 120.453 3.84587 118.89 3.75653C120.453 3.84587 121.955 3.96853 123.386 4.1232Z" fill="#CD9913"/>
<path d="M124.079 4.20184C123.85 4.17518 123.619 4.14851 123.386 4.12318C123.619 4.14851 123.85 4.17518 124.079 4.20184Z" fill="#D4B22E"/>
<path d="M48.1926 16.5752C47.5806 16.4752 46.9366 16.3285 46.2633 16.1392C56.0353 11.7125 69.7099 7.70186 84.8966 5.20853C95.4006 3.48186 105.519 2.6632 114.37 2.6632C130.933 2.6632 143.055 5.5312 144.938 10.6792C143.477 10.8045 141.955 10.8685 140.806 11.4059C139.763 8.41253 135.393 6.21252 128.759 4.92052C127.305 4.63652 125.742 4.39652 124.079 4.20186C123.85 4.17519 123.619 4.14853 123.386 4.12319C121.955 3.96853 120.453 3.84586 118.89 3.75653C116.81 3.63786 114.619 3.57787 112.334 3.57787C112.333 3.57787 112.331 3.57787 112.33 3.57787C112.329 3.57787 112.327 3.57787 112.326 3.57787C104.394 3.57787 95.3286 4.30453 85.7979 5.82987C85.7406 5.8392 85.6833 5.84853 85.6273 5.85786H85.6246C85.5993 5.86186 85.578 5.86586 85.5526 5.86986C85.5393 5.87119 85.5246 5.87386 85.51 5.87653C85.3566 5.90053 85.2033 5.92586 85.0513 5.95119C74.2606 7.72452 64.4099 10.2739 56.3673 13.1899C53.3766 14.2739 50.6393 15.4085 48.1926 16.5752ZM44.5753 15.4752C44.5273 15.4405 44.4793 15.4059 44.4313 15.3725C47.3393 14.0752 50.5699 12.8152 54.0699 11.6165C50.5899 12.8459 47.41 14.1405 44.5753 15.4752Z" fill="#CA676A"/>
<path d="M136.519 11.9832C134.737 11.2285 132.57 10.5952 130.074 10.0925C130.073 10.0899 130.073 10.0872 130.071 10.0845C132.575 10.5872 134.749 11.2205 136.534 11.9792C136.529 11.9805 136.525 11.9819 136.519 11.9832V11.9832ZM87.2487 10.8832C88.8153 10.6352 90.37 10.4099 91.9087 10.2045C92.7527 10.0925 93.5913 9.9872 94.4247 9.88854V9.8872C99.9593 9.22587 105.266 8.84588 110.193 8.72988C110.193 8.72988 110.19 8.73121 110.189 8.73255C110.027 8.73521 109.866 8.73921 109.705 8.74454C109.113 8.75788 108.518 8.7792 107.919 8.80187C107.722 8.8112 107.53 8.81788 107.334 8.82588C106.641 8.85654 105.942 8.88988 105.235 8.92988L104.934 8.94721C104.134 8.99255 103.327 9.04721 102.517 9.10587C102.259 9.12721 101.999 9.14853 101.738 9.16853C101.187 9.20987 100.635 9.25253 100.079 9.30187C99.7313 9.33253 99.3873 9.36455 99.042 9.39921C98.5607 9.44188 98.0793 9.48854 97.5926 9.54054C97.2153 9.57654 96.8393 9.61521 96.4606 9.66054C95.9966 9.70721 95.53 9.76188 95.062 9.81388C94.7873 9.84588 94.5113 9.87788 94.2326 9.91388C93.058 10.0552 91.8686 10.2112 90.674 10.3765C90.4233 10.4125 90.174 10.4472 89.9247 10.4819C89.0353 10.6099 88.1447 10.7419 87.2487 10.8832" fill="#D9D9D9"/>
<path d="M130.074 10.0925C130.073 10.0925 130.073 10.0925 130.073 10.0925C130.073 10.0899 130.071 10.0872 130.07 10.0845H130.071C130.073 10.0872 130.073 10.0899 130.074 10.0925ZM125.141 9.32186C123.21 9.09253 121.147 8.92719 118.97 8.82319C118.971 8.82186 118.971 8.82186 118.973 8.82052C121.153 8.92586 123.215 9.09252 125.149 9.32052C125.146 9.32052 125.143 9.32053 125.141 9.32186ZM110.189 8.73254C110.19 8.7312 110.193 8.72987 110.193 8.72987C111.278 8.70453 112.345 8.69119 113.391 8.69119C113.755 8.69119 114.118 8.69253 114.477 8.69653C114.785 8.6992 115.093 8.70186 115.398 8.70719C115.397 8.70853 115.397 8.70853 115.395 8.70853C115.195 8.70586 114.994 8.70187 114.793 8.6992C114.671 8.6992 114.547 8.6992 114.426 8.6992C114.069 8.69654 113.71 8.6952 113.349 8.6952C113.097 8.6952 112.845 8.69653 112.591 8.69653C112.413 8.69653 112.235 8.6992 112.058 8.6992C111.482 8.70587 110.898 8.71653 110.307 8.72987C110.267 8.72987 110.229 8.7312 110.189 8.73254Z" fill="#CD9913"/>
<path d="M118.97 8.82324C118.299 8.79124 117.619 8.76458 116.929 8.74458H116.923C116.419 8.72991 115.91 8.71791 115.395 8.70858C115.397 8.70858 115.397 8.70858 115.398 8.70724C116.621 8.72724 117.813 8.76457 118.973 8.82057C118.971 8.82191 118.971 8.82191 118.97 8.82324Z" fill="#D4B22E"/>
<path d="M130.073 10.0925C128.569 9.78986 126.945 9.5352 125.213 9.32987C125.189 9.3272 125.165 9.32453 125.141 9.32186C125.143 9.32053 125.146 9.32052 125.149 9.32052C125.175 9.32319 125.202 9.3272 125.229 9.32987V9.3272C126.954 9.5312 128.57 9.78452 130.07 10.0845C130.071 10.0872 130.073 10.0899 130.073 10.0925Z" fill="#AE8210"/>
<path d="M146.238 10.3459C144.237 4.75389 132.685 1.59388 116.297 1.40054C133.218 1.43788 145.487 4.38855 147.923 9.71255C147.225 9.75255 146.611 9.90189 146.238 10.3459Z" fill="#CA676A"/>
<path d="M49.638 16.7245C49.178 16.7072 48.6966 16.6565 48.1926 16.5752C50.6393 15.4085 53.3766 14.2739 56.3673 13.1899C64.41 10.2739 74.2607 7.72454 85.0513 5.95121C85.2033 5.92588 85.3566 5.90055 85.51 5.87655C85.5246 5.87388 85.5393 5.87121 85.5527 5.86988C85.578 5.86588 85.5993 5.86188 85.6247 5.85788H85.6273C85.6833 5.84855 85.7406 5.83922 85.798 5.82989C95.3286 4.30455 104.394 3.57789 112.326 3.57789C112.327 3.57789 112.329 3.57789 112.33 3.57789C112.331 3.57789 112.333 3.57789 112.334 3.57789C114.618 3.57789 116.81 3.63788 118.89 3.75655C120.453 3.84588 121.955 3.96855 123.386 4.12321C123.619 4.14855 123.85 4.17521 124.079 4.20188C125.742 4.39654 127.305 4.63655 128.759 4.92055C135.391 6.21255 139.763 8.41255 140.805 11.4059C140.713 11.4485 140.623 11.4952 140.537 11.5446C140.049 11.4392 139.61 11.3952 139.207 11.3952C138.161 11.3952 137.353 11.6912 136.534 11.9792C134.749 11.2206 132.575 10.5872 130.071 10.0845H130.07C128.57 9.78454 126.954 9.53122 125.229 9.32722L124.162 4.21788C120.618 3.79654 116.626 3.58055 112.298 3.58055C104.167 3.58055 94.846 4.34454 85.0513 5.95121C83.6753 6.17788 82.3153 6.41654 80.974 6.66721C68.5353 8.98854 57.5673 12.3139 49.482 15.9792L49.638 16.7245V16.7245ZM86.886 10.9405C87.0033 10.9219 87.1206 10.9032 87.2366 10.8845C87.25 10.8832 87.2633 10.8806 87.2766 10.8792C87.2966 10.8752 87.318 10.8725 87.3393 10.8685C87.3646 10.8645 87.39 10.8605 87.4153 10.8565C87.4273 10.8552 87.438 10.8539 87.4486 10.8512C88.9486 10.6165 90.4353 10.4005 91.9086 10.2045C90.37 10.4099 88.8153 10.6352 87.2486 10.8832C87.1286 10.9019 87.0073 10.9219 86.886 10.9405V10.9405ZM94.4247 9.88721L94.4233 9.88588C101.169 9.07921 107.569 8.69122 113.362 8.69122C113.737 8.69122 114.107 8.69255 114.477 8.69655C114.118 8.69255 113.755 8.69122 113.391 8.69122C112.345 8.69122 111.278 8.70455 110.193 8.72989C105.266 8.84589 99.9593 9.22588 94.4247 9.88721Z" fill="#682525"/>
<path d="M46.2632 16.1392C45.8192 16.0139 45.3619 15.8699 44.8926 15.7072C44.7846 15.6272 44.6793 15.5499 44.5753 15.4752C47.4099 14.1406 50.5899 12.8459 54.0699 11.6166C62.8352 8.6139 73.2979 5.99523 84.6713 4.12723C95.9246 2.27923 106.641 1.39923 115.966 1.39923C116.077 1.39923 116.187 1.40055 116.297 1.40055C132.685 1.59388 144.237 4.7539 146.238 10.3459C146.185 10.4099 146.137 10.4779 146.094 10.5539C145.718 10.6072 145.33 10.6446 144.938 10.6792C143.055 5.53123 130.933 2.66323 114.37 2.66323C105.519 2.66323 95.4006 3.48189 84.8966 5.20856C69.7099 7.70189 56.0352 11.7126 46.2632 16.1392" fill="#CA93B5"/>
<path d="M56.046 17.6899C55.114 17.6899 53.9473 17.3859 52.23 16.3872C51.5726 16.6205 50.8287 16.7326 50.006 16.7326C49.8847 16.7326 49.762 16.7299 49.638 16.7245L49.482 15.9792C57.5673 12.3139 68.5353 8.98854 80.974 6.66721C71.7433 8.39121 63.33 10.6699 56.2926 13.2219L57.1953 17.5392C56.8406 17.6272 56.466 17.6899 56.046 17.6899V17.6899ZM86.8686 10.9432C86.9913 10.9246 87.114 10.9045 87.2366 10.8845C87.1206 10.9032 87.0033 10.9219 86.886 10.9405C86.8807 10.9419 86.8753 10.9432 86.8686 10.9432ZM87.2767 10.8792C87.2967 10.8752 87.318 10.8725 87.3393 10.8685C87.318 10.8725 87.2967 10.8752 87.2767 10.8792ZM87.4153 10.8565C87.4273 10.8552 87.438 10.8539 87.4487 10.8512C87.438 10.8539 87.4273 10.8552 87.4153 10.8565ZM94.4233 9.88588L93.358 4.77655C90.6393 5.10188 87.8687 5.49121 85.0513 5.95121C94.846 4.34454 104.167 3.58056 112.298 3.58056C116.626 3.58056 120.618 3.79654 124.162 4.21788L125.229 9.32722V9.32989C125.202 9.32722 125.175 9.32321 125.149 9.32054C123.215 9.09254 121.153 8.92588 118.973 8.82054C117.813 8.76454 116.621 8.72721 115.398 8.70721C115.093 8.70188 114.785 8.69922 114.477 8.69655C114.107 8.69255 113.737 8.69122 113.362 8.69122C107.569 8.69122 101.169 9.07921 94.4233 9.88588" fill="#822C3A"/>
<path d="M60.9686 17.0952C60.9646 17.0952 60.9593 17.0939 60.9553 17.0939C67.946 14.7939 76.0673 12.7805 84.8527 11.2779H84.854C84.874 11.2739 84.894 11.2712 84.9153 11.2672C84.9166 11.2672 84.918 11.2672 84.9193 11.2659C84.9793 11.2566 85.0393 11.2459 85.1006 11.2352C85.1033 11.2352 85.1046 11.2352 85.1073 11.2339C85.1233 11.2312 85.138 11.2299 85.154 11.2272C85.1633 11.2245 85.1753 11.2232 85.186 11.2205C85.1993 11.2192 85.2126 11.2166 85.226 11.2139C85.238 11.2126 85.2473 11.2112 85.2593 11.2085C85.2793 11.2059 85.3007 11.2019 85.3207 11.1979C85.3353 11.1966 85.35 11.1939 85.3633 11.1912C85.374 11.1899 85.3846 11.1872 85.3953 11.1859C85.4113 11.1832 85.4286 11.1805 85.446 11.1779C85.4526 11.1765 85.4606 11.1752 85.4673 11.1739C85.486 11.1712 85.5047 11.1672 85.522 11.1646C85.53 11.1632 85.538 11.1619 85.546 11.1605C85.57 11.1565 85.5926 11.1526 85.6166 11.1486C85.6233 11.1472 85.6326 11.1459 85.6393 11.1445C85.6566 11.1419 85.6753 11.1392 85.6926 11.1365C85.7006 11.1352 85.7087 11.1339 85.718 11.1312C85.7393 11.1286 85.7606 11.1245 85.7833 11.1205C85.7846 11.1205 85.7873 11.1205 85.79 11.1205C85.8153 11.1152 85.8406 11.1112 85.8673 11.1072C85.8726 11.1059 85.878 11.1059 85.8833 11.1045C85.9033 11.1005 85.926 11.0979 85.946 11.0939C85.9526 11.0925 85.958 11.0925 85.9633 11.0912C85.982 11.0885 86.002 11.0846 86.0207 11.0819C86.0287 11.0806 86.0366 11.0792 86.0446 11.0779C86.0686 11.0739 86.094 11.0699 86.118 11.0659C84.9153 11.2632 83.7273 11.4739 82.5527 11.6912C82.266 11.7405 81.978 11.7952 81.6926 11.8499C80.5726 12.0606 79.4633 12.2792 78.3686 12.5045C78.2206 12.5339 78.07 12.5672 77.922 12.5965C76.862 12.8219 75.8193 13.0512 74.786 13.2872C74.554 13.3419 74.3153 13.3939 74.0833 13.4486C72.962 13.7086 71.8526 13.9765 70.7646 14.2539L70.5193 14.3166C69.4593 14.5872 68.414 14.8672 67.3873 15.1539C67.258 15.1899 67.126 15.2232 66.994 15.2605C65.894 15.5685 64.8153 15.8859 63.7567 16.2085L63.6686 16.2339C62.7486 16.5139 61.8553 16.8032 60.9686 17.0952" fill="#D9D9D9"/>
<path d="M84.8526 11.2779H84.8539H84.8526ZM84.9153 11.2672C84.9166 11.2672 84.9179 11.2672 84.9193 11.2659C84.9179 11.2672 84.9166 11.2672 84.9153 11.2672ZM85.1006 11.2352C85.1032 11.2352 85.1046 11.2352 85.1073 11.2339C85.1046 11.2352 85.1032 11.2352 85.1006 11.2352ZM85.1539 11.2272C85.1633 11.2246 85.1753 11.2232 85.1859 11.2206C85.1753 11.2232 85.1633 11.2246 85.1539 11.2272ZM85.2259 11.2139C85.2379 11.2126 85.2472 11.2112 85.2592 11.2086C85.2472 11.2112 85.2379 11.2126 85.2259 11.2139ZM85.3206 11.1979C85.3353 11.1952 85.3486 11.1939 85.3632 11.1912C85.3499 11.1939 85.3353 11.1966 85.3206 11.1979ZM85.3952 11.1859C85.4112 11.1832 85.4286 11.1806 85.4459 11.1779C85.4286 11.1806 85.4112 11.1832 85.3952 11.1859ZM85.4672 11.1739C85.4859 11.1712 85.5046 11.1672 85.5219 11.1646C85.5046 11.1672 85.4859 11.1712 85.4672 11.1739ZM85.5459 11.1606C85.5686 11.1566 85.5926 11.1526 85.6166 11.1486C85.5926 11.1526 85.5699 11.1566 85.5459 11.1606ZM85.6393 11.1446C85.6579 11.1419 85.6739 11.1392 85.6926 11.1366C85.6752 11.1392 85.6566 11.1419 85.6393 11.1446ZM85.7179 11.1312C85.7393 11.1286 85.7606 11.1246 85.7833 11.1206C85.7606 11.1246 85.7393 11.1286 85.7179 11.1312ZM85.7899 11.1206C85.8153 11.1152 85.8406 11.1112 85.8672 11.1072C85.8406 11.1112 85.8153 11.1152 85.7899 11.1206ZM85.8833 11.1046C85.9046 11.1006 85.9246 11.0979 85.9459 11.0939C85.9259 11.0979 85.9033 11.1006 85.8833 11.1046ZM85.9632 11.0912C85.9819 11.0886 86.0019 11.0846 86.0206 11.0819C86.0019 11.0846 85.9819 11.0886 85.9632 11.0912ZM86.0446 11.0779C86.0686 11.0739 86.0939 11.0699 86.1179 11.0659C86.0939 11.0699 86.0686 11.0739 86.0446 11.0779Z" fill="#822C3A"/>
<path d="M43.9046 15.0112C43.4993 14.7432 43.1393 14.5299 42.8167 14.3619C43.694 13.9806 44.5993 13.6019 45.5286 13.2272C46.5393 12.8206 47.5766 12.4192 48.6446 12.0219C50.938 11.1686 53.3606 10.3392 55.8953 9.54189C58.194 8.81923 60.5833 8.12189 63.058 7.45523C64.9607 6.94323 66.914 6.44856 68.91 5.97389C68.9633 5.96189 69.0153 5.94856 69.0686 5.93656C69.0673 5.93789 69.0646 5.94056 69.062 5.9419C73.9433 4.78723 79.0806 3.75123 84.4126 2.87523C96.2753 0.927229 107.565 0.00188892 117.41 0.00188892C136.221 0.00188892 149.75 3.3859 151.853 9.4939C151.726 9.49656 151.617 9.5139 151.491 9.5139C151.058 9.68723 150.514 9.72723 149.935 9.72723C149.69 9.72723 149.438 9.72057 149.186 9.7139C149.002 9.70857 148.817 9.70322 148.635 9.70055C146.245 4.00055 133.357 0.837891 115.631 0.837891C106.33 0.837891 95.6953 1.70989 84.5473 3.54056C68.466 6.18189 54.1913 10.3486 43.9046 15.0112" fill="#CA676A"/>
<path d="M44.4313 15.3726C44.2473 15.2419 44.0713 15.1219 43.9047 15.0112C54.1913 10.3486 68.466 6.18189 84.5473 3.54056C95.6953 1.70989 106.33 0.837891 115.631 0.837891C133.357 0.837891 146.245 4.00055 148.635 9.70055C148.567 9.69922 148.501 9.69924 148.434 9.69924C148.261 9.69924 148.089 9.7019 147.923 9.71257C145.487 4.38857 133.218 1.43789 116.297 1.40055C116.187 1.40055 116.077 1.39924 115.966 1.39924C106.641 1.39924 95.9247 2.27923 84.6713 4.12723C73.298 5.99523 62.8353 8.6139 54.07 11.6166C50.57 12.8152 47.3393 14.0752 44.4313 15.3726" fill="#8A2D3C"/>
<path d="M57.1953 17.5392L56.2926 13.2219C63.3299 10.6699 71.7433 8.39118 80.9739 6.66718C82.3153 6.41651 83.6753 6.17785 85.0513 5.95118C87.8686 5.49118 90.6393 5.10186 93.358 4.77652L94.4233 9.88585L94.4246 9.88718V9.88852C93.5913 9.98718 92.7526 10.0925 91.9086 10.2045C90.4353 10.4005 88.9486 10.6165 87.4486 10.8512C87.438 10.8538 87.4273 10.8552 87.4153 10.8565C87.39 10.8605 87.3646 10.8645 87.3393 10.8685C87.3179 10.8725 87.2966 10.8752 87.2766 10.8792C87.2633 10.8805 87.2499 10.8832 87.2366 10.8845C87.1139 10.9045 86.9913 10.9245 86.8686 10.9432C86.6193 10.9832 86.3686 11.0245 86.118 11.0659C86.094 11.0699 86.0686 11.0739 86.0446 11.0779C86.0366 11.0792 86.0286 11.0805 86.0206 11.0819C86.002 11.0845 85.9819 11.0885 85.9633 11.0912C85.9579 11.0925 85.9526 11.0925 85.946 11.0939C85.9246 11.0979 85.9046 11.1005 85.8833 11.1045C85.878 11.1059 85.8726 11.1059 85.8673 11.1072C85.8406 11.1112 85.8153 11.1152 85.79 11.1205C85.7873 11.1205 85.7846 11.1205 85.7833 11.1205C85.7606 11.1245 85.7393 11.1285 85.718 11.1312C85.7086 11.1339 85.7006 11.1352 85.6926 11.1365C85.6739 11.1392 85.6579 11.1419 85.6393 11.1445C85.6326 11.1459 85.6233 11.1472 85.6166 11.1485C85.5926 11.1525 85.5686 11.1565 85.546 11.1605C85.538 11.1619 85.53 11.1632 85.522 11.1645C85.5046 11.1672 85.4859 11.1712 85.4673 11.1739C85.4606 11.1752 85.4526 11.1765 85.446 11.1779C85.4286 11.1805 85.4113 11.1832 85.3953 11.1858C85.3846 11.1872 85.3739 11.1899 85.3633 11.1912C85.3486 11.1939 85.3353 11.1952 85.3206 11.1979C85.3006 11.2019 85.2793 11.2059 85.2593 11.2085C85.2473 11.2112 85.2379 11.2125 85.2259 11.2139C85.2126 11.2165 85.1993 11.2192 85.186 11.2205C85.1753 11.2232 85.1633 11.2245 85.154 11.2272C85.138 11.2299 85.1233 11.2312 85.1073 11.2338C85.1046 11.2352 85.1033 11.2352 85.1006 11.2352C85.0393 11.2458 84.9793 11.2565 84.9193 11.2659C84.918 11.2672 84.9166 11.2672 84.9153 11.2672C84.894 11.2712 84.874 11.2739 84.854 11.2779H84.8526C76.0673 12.7805 67.946 14.7939 60.9553 17.0939C60.6726 17.0539 60.386 17.0139 60.09 16.9565C60.0273 16.9539 59.9659 16.9525 59.9059 16.9525C59.1446 16.9525 58.542 17.1365 57.9486 17.3205C57.6993 17.3978 57.4526 17.4752 57.1953 17.5392" fill="#B4476F"/>
<path d="M7.80872 39.3817C8.50138 42.2922 12.83 43.2354 15.5425 43.7423C18.9119 44.372 22.455 44.2848 25.938 44.0398C32.9237 43.5489 39.8756 42.3588 46.73 40.6966C66.9297 35.8002 82.3281 27.2592 81.2382 21.5781L88.9494 19.7104L89.9176 24.1873C91.3996 31.0585 72.7131 41.4503 48.1782 47.3989C39.8841 49.4093 31.4755 50.85 23.0228 51.4432C18.8105 51.7388 14.5223 51.8439 10.4442 51.0837C7.13953 50.4652 1.83759 49.3136 1.06421 45.7301L0.0974906 41.2513L7.80872 39.3817" fill="#B26EB2"/>
<path d="M15.5425 43.7422C18.9119 44.372 22.455 44.2847 25.938 44.0398C32.9237 43.5489 39.8756 42.3588 46.73 40.6966C67.0113 35.7795 82.4564 27.1898 81.2305 21.5105C80.004 15.8294 62.5691 15.2128 42.2887 20.128C22.0092 25.0451 6.56232 33.6377 7.79089 39.315C8.43006 42.279 12.8103 43.2335 15.5425 43.7422V43.7422ZM41.8232 17.9712C66.359 12.0226 87.4517 12.7706 88.9359 19.6437C90.4192 26.5131 71.7323 36.9048 47.1964 42.8534C38.9042 44.8648 30.4947 46.3064 22.0411 46.9005C17.8279 47.1971 13.5405 47.3003 9.46341 46.5392C6.15779 45.9244 0.856798 44.7681 0.0824844 41.1828C-1.40044 34.3116 17.2873 23.9198 41.8232 17.9712Z" fill="#F1B4B8"/>
<path d="M9.46341 46.5392C13.5405 47.3004 17.8279 47.1971 22.0411 46.9005C30.4947 46.3064 38.9033 44.8648 47.1964 42.8534C61.258 39.4455 73.3973 34.5763 80.9214 29.7455L81.9017 34.2909C74.379 39.1198 62.2406 43.9891 48.1781 47.3989C39.8841 49.4093 31.4755 50.85 23.0228 51.4432C18.8105 51.7388 14.5223 51.8439 10.4442 51.0837C9.95053 50.9908 9.41272 50.8866 8.85146 50.7646L7.86785 46.221C8.43099 46.3411 8.96972 46.4472 9.46341 46.5392Z" fill="#D27CD0"/>
<path d="M43.063 23.7087C24.9159 28.1086 10.6488 35.4473 8.72664 41.0129C8.26768 40.5343 7.93262 39.9777 7.7909 39.3151C6.56232 33.6377 22.0092 25.0452 42.2887 20.128C62.5691 15.2128 80.004 15.8294 81.2305 21.5105C81.362 22.1197 81.2902 22.7673 81.0501 23.4374C76.9816 19.3472 61.1613 19.3246 43.063 23.7087Z" fill="#9D639F"/>
<path d="M42.1761 19.6072C63.6457 14.4 82.8513 14.9528 84.1162 20.8095C85.3807 26.6689 68.3122 36.016 46.8435 41.2213C38.8507 43.1576 31.4586 44.3476 24.242 44.8545C20.8219 45.0957 16.817 45.2459 13.0271 44.5363C9.34515 43.8502 5.49705 42.7746 4.90294 40.0143C3.6387 34.1558 20.7074 24.8105 42.1761 19.6072V19.6072ZM47.0228 42.0463C69.7482 36.5379 86.449 27.111 85.0397 20.587C83.6307 14.064 64.725 13.2681 41.9977 18.7812C19.2723 24.2887 2.57156 33.7147 3.98034 40.2396C4.76686 43.8812 10.1748 44.8911 12.7756 45.3763C16.6753 46.1056 20.7618 45.9516 24.2458 45.7086C31.5206 45.1952 38.9718 43.9985 47.0228 42.0463" fill="white"/>
<path d="M13.9582 47.0564C16.634 47.199 19.3531 47.0911 22.0411 46.9005C30.4947 46.3064 38.9033 44.8648 47.1964 42.8535C53.7392 41.2673 59.8567 39.3639 65.2966 37.2962L66.2774 41.8417C60.8384 43.9084 54.7218 45.8109 48.1782 47.3989C39.8841 49.4093 31.4755 50.85 23.0228 51.4432C20.3348 51.6328 17.6139 51.7426 14.9399 51.6009L13.9582 47.0564Z" fill="#E990E9"/>
<path d="M37.6297 49.6083C36.0294 49.8917 34.4264 50.1536 32.8167 50.3854L31.835 45.84C33.4437 45.611 35.0468 45.3482 36.6489 45.0656L37.6297 49.6083Z" fill="#F5B1F8"/>
<path d="M29.6284 50.8097C27.4303 51.0715 25.2266 51.2893 23.0228 51.4432C22.7638 51.461 22.5038 51.4751 22.2457 51.4911L21.264 46.9456C21.523 46.9306 21.7811 46.9156 22.0411 46.9005C24.2467 46.7457 26.4476 46.5261 28.6467 46.2642L29.6284 50.8097Z" fill="#F5B1F8"/>
<path d="M68.9785 20.4134C62.0135 20.2538 52.8756 21.3294 43.063 23.7086C32.6318 26.239 23.4874 29.7398 17.2272 33.3176L16.4547 29.7333C22.7168 26.1583 31.8603 22.6565 42.2887 20.128C52.1004 17.7516 61.2392 16.6741 68.2042 16.8309L68.9785 20.4134" fill="#B76EB7"/>
<path d="M42.0137 18.8507C65.061 13.2606 84.9326 13.9035 86.3089 20.2782C87.6856 26.6557 70.0542 36.3877 47.0059 41.9759C38.6086 44.0116 30.8382 45.2599 23.2518 45.7977C19.6459 46.0493 15.4214 46.2079 11.4175 45.4598C7.47742 44.725 3.36371 43.563 2.7114 40.5446C1.3336 34.1699 18.9654 24.437 42.0137 18.8507V18.8507ZM47.096 42.3889C70.3986 36.7406 88.197 26.7693 86.7709 20.1684C85.3436 13.5628 65.2262 12.7857 41.9236 18.4377C18.62 24.0841 0.823014 34.0554 2.24963 40.6563C3.04459 44.3401 8.61495 45.3782 11.2908 45.8803C15.3519 46.6377 19.6158 46.481 23.2528 46.2229C30.8711 45.6879 38.6686 44.433 47.096 42.3889" fill="#F79AFC"/>
<path d="M63.7771 20.5053C57.7177 20.8282 50.5903 21.8841 43.063 23.7087C41.1089 24.1836 39.198 24.6932 37.3453 25.2291L36.5719 21.6466C38.4256 21.1117 40.3355 20.603 42.2887 20.128C49.816 18.3035 56.9443 17.2485 63.0028 16.9229L63.7771 20.5053Z" fill="#D27CD0"/>
<path d="M2.83624 35.177C3.05399 35.085 3.27361 34.9921 3.49511 34.9001L3.59835 34.8597C4.06951 34.6617 4.54818 34.4683 5.0353 34.2769L5.15448 34.2318C5.38256 34.1408 5.61157 34.0516 5.84246 33.9625C7.40235 32.5781 9.41838 31.1627 11.823 29.7558C11.5292 29.6291 11.2307 29.5052 10.9257 29.3823C10.1749 29.8046 9.45592 30.2279 8.77265 30.6512C6.31361 32.1754 4.30697 33.6997 2.83624 35.177V35.177ZM6.85892 33.5767C7.21932 33.4425 7.58255 33.3083 7.94953 33.1759C9.18749 32.1304 10.6873 31.0726 12.418 30.0196C12.3608 29.9933 12.3035 29.967 12.2453 29.9417C10.1345 31.1571 8.32214 32.3782 6.85892 33.5767V33.5767ZM10.6413 32.2421C11.0102 32.1191 11.3828 31.9971 11.7573 31.876C11.8727 31.8394 11.991 31.8028 12.1074 31.7662C12.5504 31.6245 12.9971 31.4828 13.4486 31.3458C13.6128 31.2941 13.778 31.2434 13.9441 31.1946C14.0126 31.174 14.0821 31.1533 14.1516 31.1318C14.2266 31.083 14.3045 31.0332 14.3806 30.9835C14.0624 30.8145 13.7358 30.6475 13.4007 30.4823C12.4049 31.0698 11.4823 31.6583 10.6413 32.2421Z" fill="#CD999D"/>
<path d="M14.1515 31.1317C14.2595 31.0998 14.3683 31.067 14.4772 31.0351C14.4453 31.0182 14.4134 31.0013 14.3805 30.9834C14.3045 31.0332 14.2266 31.0829 14.1515 31.1317Z" fill="#865487"/>
<path d="M7.94954 33.1759C8.82803 32.8587 9.72624 32.548 10.6413 32.2421C11.4823 31.6583 12.4049 31.0698 13.4007 30.4823C13.0807 30.3255 12.7531 30.1716 12.418 30.0196C10.6873 31.0726 9.1875 32.1304 7.94954 33.1759" fill="#D9D9D9"/>
<path d="M5.84246 33.9624C6.12966 33.8517 6.41968 33.7419 6.71157 33.6321L6.72846 33.6255C6.77163 33.6095 6.81575 33.5927 6.85892 33.5767C8.32214 32.3782 10.1345 31.1571 12.2453 29.9416C12.1055 29.8797 11.9647 29.8178 11.823 29.7558C9.41838 31.1627 7.40235 32.5781 5.84246 33.9624" fill="#D283D7"/>
</svg>
