<svg width="31" height="28" viewBox="0 0 31 28" fill="none" xmlns="http://www.w3.org/2000/svg">
<path d="M14.888 5.14133C14.8577 5.11088 14.8218 5.09436 14.7884 5.07064C14.5917 4.32795 14.2891 3.59921 14.0578 2.87656C13.8949 2.36711 13.8362 1.60808 13.6153 1.01607C13.7298 0.705405 13.5918 0.278516 13.2309 0.19115C6.89057 -1.34568 2.1087 6.74004 0.659557 11.7106C-0.147733 14.4798 0.0146544 17.6468 0.0213872 20.4951C0.0241124 21.68 -0.229488 25.1926 0.94089 26.2332C0.635992 26.5695 0.675427 27.2309 1.2179 27.3223C3.19252 27.6544 5.23062 27.7834 7.22945 27.8679C8.18678 27.9085 10.3381 28.3166 11.0979 27.4567C11.4209 27.6249 11.8866 27.4681 11.9347 26.9765C12.287 23.3887 12.4982 19.7558 12.5198 16.1507C12.5216 15.8485 12.3952 15.6303 12.2122 15.4905C12.35 15.0774 12.0578 14.5736 11.4796 14.686C10.1606 14.9422 8.93091 14.8365 7.6791 14.4935C7.70651 14.4042 7.68872 14.3061 7.58901 14.2266C5.41737 12.4958 13.4372 6.97681 14.7354 6.32582C14.9564 6.21489 15.1259 5.92169 15.1087 5.67466C15.0936 5.45585 15.0452 5.29971 14.888 5.14133ZM3.466 8.6499C3.4684 8.65263 3.46872 8.65551 3.47113 8.65824C4.356 9.59137 5.37169 10.8441 6.55617 11.5373C6.14227 12.2577 5.94942 12.9398 6.10732 13.5222C4.95875 12.5536 3.79334 11.6057 2.61639 10.6758C2.84995 9.97385 3.13769 9.29897 3.466 8.6499ZM1.74353 26.0509C1.86328 25.1784 1.91506 24.2779 1.93157 23.3639C2.60452 24.1973 3.32958 24.9823 4.11827 25.7082C4.28002 25.8569 4.45683 26.0225 4.64439 26.1886C3.67744 26.1387 2.71145 26.0829 1.74353 26.0509ZM7.22945 26.2833C6.80609 26.2779 6.38321 26.2647 5.96048 26.2487C5.41561 25.8782 4.85823 25.5278 4.35248 25.0839C3.55785 24.3868 2.82799 23.6093 2.15118 22.7983C2.08466 22.7188 2.00675 22.701 1.93413 22.7156C1.93445 21.7302 1.89951 20.7314 1.86344 19.7332C3.01442 20.7795 4.06762 21.9207 5.13364 23.0562C6.1179 24.1048 7.15811 25.3569 8.3838 26.2011C7.9412 26.2426 7.53098 26.2872 7.22945 26.2833ZM9.56187 26.1362C8.34228 24.8736 6.88303 23.8066 5.62657 22.5633C4.40361 21.3532 3.16879 20.1661 1.84035 19.0735C1.8107 18.2346 1.7881 17.3998 1.78713 16.5744C3.33904 18.0508 4.78562 19.6429 6.26955 21.1842C7.11115 22.0582 8.81485 24.523 10.2233 24.4706C10.6298 24.4552 10.6654 23.9352 10.3145 23.7965C9.76017 23.5772 9.15021 22.8539 8.70681 22.463C7.84293 21.7014 7.0156 20.8974 6.18603 20.0991C4.73031 18.6981 3.32765 17.217 1.7921 15.9009C1.79932 15.4631 1.81278 15.0281 1.84019 14.5994C1.86857 14.1568 1.91987 13.721 1.98399 13.2889C3.47401 14.7932 4.95442 16.3065 6.42264 17.8323C7.76278 19.2248 9.08288 20.8793 10.6559 22.0301C10.6378 23.4629 10.6495 24.8948 10.7464 26.3216C10.4229 26.1811 10.004 26.1378 9.56187 26.1362ZM10.7747 16.2182C10.7714 16.7127 10.759 17.2082 10.7489 17.7035C10.286 17.2539 9.81772 16.8099 9.34338 16.3716C9.82621 16.3655 10.3074 16.3185 10.7747 16.2182ZM7.89215 16.2595C8.74624 17.0936 9.59634 17.9331 10.4416 18.7809C10.5299 18.8694 10.6276 18.9036 10.7247 18.9143C10.7084 19.5549 10.6907 20.1955 10.6765 20.836C9.49454 19.6136 8.13244 18.502 6.91926 17.3353C5.326 15.8033 3.73899 14.2625 2.06686 12.8165C2.16561 12.2672 2.30011 11.7313 2.45464 11.2042C3.70966 12.3043 4.94047 13.4262 6.14692 14.5725C6.01835 14.7416 5.95455 14.8809 5.94269 15.114C5.92281 15.5045 6.21986 15.8177 6.56723 15.9343C6.99284 16.0774 7.43849 16.1847 7.89215 16.2595ZM6.9906 10.8733C6.58246 10.5684 6.14852 10.2897 5.75834 9.96985C5.10158 9.43155 4.48665 8.84259 3.8706 8.25892C3.81899 8.21019 3.7632 8.19111 3.70822 8.18502C4.02754 7.606 4.39672 7.06257 4.78834 6.53822C5.30693 7.03821 5.83945 7.52297 6.39699 7.98047C6.95469 8.43798 7.64047 9.11927 8.35943 9.30651C7.84165 9.82493 7.36891 10.3538 6.9906 10.8733ZM8.79241 8.88571C8.77734 8.8591 8.75987 8.83281 8.7339 8.80844C8.2368 8.34116 7.5422 8.04139 6.98643 7.63775C6.33543 7.16485 5.72772 6.62671 5.13829 6.07526C5.50458 5.62513 5.90374 5.20529 6.32197 4.80614C7.05616 5.36624 7.76134 5.95984 8.44087 6.58743C8.90318 7.01448 9.35748 7.54765 9.89386 7.90978C9.51955 8.22494 9.14764 8.55019 8.79241 8.88571ZM8.69334 5.89845C8.05726 5.38435 7.40803 4.89094 6.74132 4.42013C7.28283 3.94547 7.86361 3.51537 8.47822 3.13241C9.10869 3.61524 9.70374 4.14024 10.2908 4.68286C10.8461 5.196 11.4105 5.81541 12.0677 6.23348C11.5828 6.57637 11.0569 6.96784 10.5211 7.39537C10.0144 6.81891 9.27012 6.36461 8.69334 5.89845ZM12.846 5.70143C12.1865 5.03585 11.326 4.49932 10.6075 3.90763C10.1212 3.5072 9.62551 3.12247 9.11302 2.76194C10.0285 2.26099 11.0133 1.86312 12.0628 1.59108C12.1466 2.06558 12.3694 2.55243 12.5336 2.95303C12.8444 3.71142 13.2125 4.48377 13.6057 5.22613C13.3901 5.35197 13.1309 5.51436 12.846 5.70143Z" fill="#F49521"/>
<path d="M30.2095 7.23282C29.9939 6.45919 29.7319 5.70272 29.4572 4.94705C29.1491 4.09872 28.9474 3.18771 28.5128 2.39453C28.5072 2.38411 28.499 2.37994 28.4931 2.37C28.5808 2.06398 28.4346 1.70618 28.0582 1.5672C25.5033 0.62349 22.4761 3.33599 21.0924 5.19568C19.6568 7.12509 18.5626 9.37191 18.4647 11.7404C18.26 11.7484 18.0605 11.8869 18.0452 12.1622C17.7662 17.1011 17.9039 22.0494 17.3958 26.9765C17.3151 27.7572 18.2123 27.9389 18.7024 27.5414C18.7263 27.5456 18.7441 27.5571 18.7696 27.559C19.695 27.6318 20.6227 27.6682 21.5504 27.6744C21.6196 27.7148 21.686 27.7633 21.7573 27.7961C21.929 27.8756 22.0871 27.7979 22.1533 27.6701C22.823 27.6648 23.4926 27.6486 24.1619 27.6126C25.2183 27.5553 26.863 27.5558 27.6775 26.7264C27.9614 26.9109 28.3017 26.6604 28.2626 26.3466C28.445 26.4154 28.6486 26.422 28.8203 26.3061C29.8661 25.6011 29.5224 22.9371 29.5936 21.8293C29.727 19.7525 29.8878 17.6633 29.8406 15.581C29.8307 15.1404 29.5487 14.8961 29.2236 14.8246C29.2026 14.8139 29.1887 14.7982 29.1654 14.7892C27.5435 14.1589 25.7684 14.3013 24.0596 14.3994C24.0723 14.0214 24.1631 13.6498 24.3053 13.2865C24.4318 13.2357 24.4783 13.0895 24.4475 12.9557C25.474 10.8725 28.3057 9.15358 30.0857 8.63323C30.8461 8.41105 30.7494 7.52633 30.2095 7.23282ZM27.2118 3.06299C27.2868 3.46279 27.4165 3.86419 27.5763 4.26367C27.1721 3.93409 26.7618 3.61059 26.3684 3.2762C26.6472 3.2015 26.9279 3.13353 27.2118 3.06299ZM20.228 10.3592C20.7216 10.952 21.2487 11.5107 21.8355 12.0192C22.14 12.2829 22.4867 12.5681 22.8584 12.8045C22.5826 13.5028 22.5569 14.1685 22.9152 14.7336C22.8839 14.7721 22.8499 14.8083 22.8293 14.8545C22.7643 14.9983 22.7308 15.117 22.7201 15.2333C21.6975 14.278 20.6762 13.3212 19.6625 12.3566C19.7973 11.6776 19.9985 11.0136 20.228 10.3592ZM19.0567 26.3749C19.0921 25.9993 19.1166 25.6235 19.1429 25.2481C19.4257 25.6161 19.7202 25.9739 20.0347 26.316C19.7085 26.3346 19.3824 26.3515 19.0567 26.3749ZM20.8904 26.2654C20.7892 26.1812 20.6876 26.0967 20.5932 26.0078C20.1035 25.5456 19.6625 25.0346 19.2444 24.5078C19.2292 24.4887 19.211 24.4788 19.1936 24.4666C19.2175 24.0277 19.2396 23.5889 19.2538 23.1499C19.9451 24.0057 20.7245 24.783 21.5237 25.5386C21.7424 25.7453 21.9646 25.9706 22.1938 26.1921C21.7596 26.2198 21.325 26.2424 20.8904 26.2654ZM23.7036 26.0698C23.638 26.0769 23.5719 26.0805 23.5062 26.087C23.0502 25.6989 22.5551 25.3428 22.1117 24.9504C21.2269 24.168 20.3655 23.3445 19.59 22.4527C19.5018 22.3512 19.3827 22.3352 19.2721 22.3645C19.2843 21.7389 19.2861 21.1127 19.2821 20.4866C20.3763 21.5372 21.4753 22.5826 22.5561 23.6481C23.1952 24.2784 23.916 25.1836 24.696 25.8883C24.3566 25.9674 24.0229 26.0361 23.7036 26.0698ZM26.0422 25.5722C25.213 24.6474 24.0041 23.8453 23.1423 23.0617C21.8617 21.8969 20.6052 20.6886 19.2678 19.587C19.2588 19.0671 19.2418 18.5471 19.224 18.027C20.2681 19.488 21.5633 20.7482 22.8751 21.97C24.0977 23.1088 25.2399 24.3305 26.414 25.5115C26.2902 25.531 26.1677 25.5466 26.0422 25.5722ZM24.2895 22.1398C22.5008 20.5858 20.7527 19.0312 19.3079 17.142C19.2731 17.0968 19.2309 17.0686 19.1867 17.0482C19.1676 16.5994 19.1493 16.1505 19.1267 15.7018C20.5117 17.1777 22.034 18.5406 23.4762 19.9553C24.914 21.3654 26.1318 22.9985 27.56 24.3962C27.5523 24.7014 27.5712 24.9839 27.6082 25.2473C26.6985 24.0591 25.364 23.0729 24.2895 22.1398ZM27.8865 21.3674C27.8666 21.728 27.7717 22.306 27.6882 22.9405C26.816 21.7198 25.4456 20.6812 24.4219 19.7465C22.6683 18.1453 20.8804 16.5708 19.0916 15.0085C19.0777 14.7554 19.0681 14.5024 19.0531 14.2493C19.2397 14.2342 19.4266 14.0957 19.4443 13.8715C19.4662 13.5961 19.4997 13.322 19.5393 13.049C20.774 14.3126 22.0216 15.5638 23.2627 16.8214C24.6008 18.1776 25.8556 19.9476 27.396 21.0605C27.5917 21.202 27.798 21.111 27.9119 20.9475C27.9038 21.0876 27.8944 21.2277 27.8865 21.3674ZM28.2041 15.7145C28.1674 16.6164 28.1172 17.5181 28.0637 18.4196C27.69 18.0471 27.2378 17.7335 26.8468 17.3942C26.3183 16.9354 25.835 16.4432 25.352 15.942C26.3029 15.7974 27.2559 15.6475 28.2041 15.7145ZM24.926 16.0053C25.3048 16.6047 25.8135 17.1188 26.3139 17.616C26.858 18.1567 27.3808 18.8215 28.0135 19.2537C27.9888 19.6629 27.9638 20.072 27.9396 20.4813C27.1108 19.0042 25.435 17.7891 24.2185 16.6374C24.0445 16.4726 23.8685 16.31 23.6941 16.1457C24.1037 16.1185 24.5145 16.0652 24.926 16.0053ZM23.1975 12.1206C22.8006 11.9163 22.4045 11.7061 22.0407 11.4196C21.4458 10.9511 20.9165 10.4014 20.4157 9.8323C20.7589 8.95416 21.182 8.10888 21.6614 7.30111C22.0906 7.79741 22.5377 8.27639 23.0186 8.72685C23.5564 9.23052 24.1574 9.85218 24.8507 10.1457C24.1832 10.7771 23.5968 11.4535 23.1975 12.1206ZM25.3197 9.72185C25.3191 9.72089 25.3191 9.71993 25.3183 9.71881C24.8653 9.10196 24.1218 8.69254 23.5359 8.20955C22.9915 7.76086 22.4883 7.26776 22.0069 6.75351C22.1702 6.50985 22.3479 6.27661 22.5314 6.04833C23.2743 6.5783 24.0049 7.12253 24.7192 7.69097C25.2301 8.0975 25.7221 8.57424 26.2567 8.96795C25.9396 9.20584 25.6242 9.45751 25.3197 9.72185ZM26.9795 8.45642C26.4355 7.94665 25.7739 7.52201 25.1849 7.0879C24.4602 6.55393 23.7175 6.04609 22.9641 5.55396C23.3656 5.11424 23.8113 4.71925 24.2776 4.35071C25.0001 4.95073 25.7003 5.57512 26.3668 6.23893C26.8877 6.75784 27.3532 7.36058 27.8509 7.9194C27.5678 8.08163 27.2774 8.25716 26.9795 8.45642ZM28.8339 7.42165C28.2801 6.76425 27.5903 6.17946 26.9845 5.62112C26.3136 5.00251 25.5934 4.44481 24.855 3.91084C25.1033 3.74637 25.3565 3.62855 25.6118 3.52611C26.5736 4.51823 27.5933 5.52173 28.665 6.38305C28.8445 6.68666 29.0253 6.98515 29.1985 7.27482C29.0848 7.31441 28.9591 7.36811 28.8339 7.42165Z" fill="#F49521"/>
</svg>
