<svg width="22" height="21" viewBox="0 0 22 21" fill="none" xmlns="http://www.w3.org/2000/svg">
<path d="M20.7766 6.9378C20.4775 6.67397 20.1093 6.50389 19.7118 6.44596L14.8446 5.73663L12.6679 1.31325C12.4901 0.951969 12.215 0.653252 11.8725 0.449496C11.5546 0.260499 11.1904 0.160559 10.8191 0.160559C10.4478 0.160559 10.0835 0.260464 9.76569 0.449496C9.42309 0.653252 9.14805 0.951934 8.97025 1.31325L6.79359 5.73667L1.9264 6.44596C1.52884 6.50389 1.16061 6.67397 0.861525 6.9378C0.584075 7.18253 0.376802 7.4991 0.262049 7.8533C0.147331 8.20746 0.129494 8.58577 0.210488 8.94734C0.29783 9.33707 0.496059 9.69176 0.783758 9.97298L4.30568 13.4161L3.47425 18.2779C3.37124 18.8804 3.5366 19.4929 3.92795 19.9585C4.32221 20.4275 4.89747 20.6965 5.5062 20.6965C5.83773 20.6965 6.16954 20.6139 6.46575 20.4577L10.8191 18.1623L15.1725 20.4577C15.4687 20.6139 15.8004 20.6965 16.132 20.6965C16.7407 20.6965 17.316 20.4275 17.7103 19.9585C18.1016 19.4929 18.267 18.8804 18.164 18.2779L17.3326 13.4161L20.8545 9.97298C21.1421 9.69173 21.3404 9.33707 21.4277 8.94734C21.5088 8.58577 21.4909 8.20746 21.3762 7.8533C21.2614 7.49913 21.0541 7.18256 20.7766 6.9378ZM19.794 8.88193L15.9045 12.6846C15.7766 12.8096 15.7182 12.9897 15.7484 13.1662L16.6666 18.5355C16.7268 18.8873 16.4481 19.1729 16.132 19.1729C16.0485 19.1729 15.9625 19.153 15.8794 19.1092L11.0716 16.5741C10.9926 16.5325 10.9058 16.5116 10.8191 16.5116C10.7324 16.5116 10.6457 16.5325 10.5667 16.5741L5.75886 19.1092C5.67577 19.153 5.58967 19.1729 5.50627 19.1729C5.19009 19.1729 4.91147 18.8873 4.97162 18.5355L5.88982 13.1662C5.92003 12.9897 5.86166 12.8096 5.73379 12.6846L1.84413 8.88193C1.5221 8.56714 1.6998 8.01864 2.1448 7.95377L7.52013 7.1704C7.69683 7.14465 7.8496 7.03333 7.92864 6.87271L10.3326 1.98754C10.4321 1.78531 10.6256 1.6842 10.8191 1.6842C11.0127 1.6842 11.2061 1.78535 11.3056 1.98754L13.7095 6.87271C13.7886 7.03329 13.9413 7.14465 14.118 7.1704L19.4933 7.95377C19.9384 8.01864 20.116 8.56714 19.794 8.88193Z" fill="#F49521"/>
<path d="M16.1319 20.7143C15.7975 20.7143 15.4629 20.631 15.1642 20.4735L10.8191 18.1824L6.47401 20.4735C6.17525 20.6311 5.8406 20.7143 5.5062 20.7143C4.89222 20.7143 4.31203 20.443 3.91437 19.97C3.51965 19.5004 3.35287 18.8826 3.45677 18.2749L4.28661 13.4224L0.771346 9.98575C0.481201 9.70211 0.281304 9.34439 0.193183 8.95128C0.111479 8.58659 0.129458 8.20504 0.245169 7.84786C0.360915 7.49067 0.569996 7.17136 0.849822 6.92453C1.15149 6.65843 1.52292 6.4869 1.92388 6.42846L6.78185 5.72049L8.9544 1.30546C9.13373 0.941051 9.41114 0.639808 9.75671 0.434274C10.0773 0.243641 10.4446 0.142883 10.8191 0.142883C11.1936 0.142883 11.561 0.243641 11.8816 0.434274C12.2271 0.639773 12.5046 0.941051 12.6839 1.30546L14.8564 5.72049L19.7144 6.42846C20.1154 6.48686 20.4867 6.65839 20.7884 6.92453C21.0683 7.17136 21.2774 7.49067 21.3931 7.84789C21.5088 8.20511 21.5268 8.58666 21.4451 8.95132C21.357 9.34443 21.157 9.70211 20.8669 9.98579L17.3516 13.4224L18.1814 18.2749C18.2853 18.8826 18.1186 19.5004 17.7238 19.97C17.3261 20.443 16.7459 20.7143 16.1319 20.7143ZM10.8191 18.1423L10.8273 18.1466L15.1807 20.442C15.4743 20.5969 15.8033 20.6787 16.1319 20.6787C16.7354 20.6787 17.3057 20.412 17.6966 19.947C18.0846 19.4854 18.2485 18.8782 18.1464 18.2809L17.3134 13.4099L20.8421 9.96025C21.1273 9.68141 21.3238 9.32981 21.4103 8.94346C21.4907 8.58503 21.473 8.20995 21.3593 7.85881C21.2455 7.50767 21.04 7.1938 20.7649 6.95117C20.4684 6.68962 20.1034 6.521 19.7092 6.4636L14.8328 5.75296L14.8287 5.74457L12.652 1.32111C12.4758 0.962888 12.2031 0.666803 11.8634 0.464789C11.5483 0.277393 11.1872 0.178342 10.8191 0.178342C10.451 0.178342 10.0898 0.277393 9.77476 0.464789C9.43515 0.666767 9.16245 0.962888 8.98617 1.32111L6.80536 5.75289L1.92895 6.46356C1.53483 6.521 1.16976 6.68958 0.873227 6.95114C0.598188 7.19377 0.392653 7.5076 0.278893 7.85877C0.165133 8.20992 0.147473 8.58496 0.227793 8.94342C0.31439 9.32981 0.510917 9.68141 0.796134 9.96025L4.32473 13.4099L4.32317 13.4192L3.49174 18.2809C3.38961 18.8782 3.55355 19.4854 3.94153 19.947C4.33242 20.412 4.90271 20.6787 5.50623 20.6787C5.83489 20.6787 6.16383 20.5968 6.45752 20.442L10.8191 18.1423ZM16.1319 19.1906C16.0416 19.1906 15.9539 19.1685 15.8712 19.1248L11.0634 16.5898C10.9134 16.5107 10.725 16.5107 10.5749 16.5898L5.76709 19.1248C5.68435 19.1685 5.59659 19.1906 5.50627 19.1906C5.34112 19.1906 5.18428 19.1167 5.07591 18.9878C4.96892 18.8606 4.92569 18.6989 4.95413 18.5325L5.87234 13.1631C5.90156 12.9924 5.8451 12.8182 5.72138 12.6973L1.83175 8.89466C1.67792 8.74429 1.62359 8.52357 1.68998 8.31864C1.75636 8.11371 1.92966 7.96718 2.14229 7.9362L7.51761 7.15283C7.68856 7.1279 7.8363 7.02024 7.91275 6.86489L10.3167 1.97971C10.4118 1.78649 10.6042 1.66645 10.8191 1.66645C11.0339 1.66645 11.2264 1.78649 11.3215 1.97971L13.7254 6.86489C13.8019 7.02028 13.9496 7.12793 14.1206 7.15283L19.4959 7.9362C19.7085 7.96718 19.8818 8.11375 19.9482 8.31868C20.0146 8.52357 19.9603 8.74429 19.8064 8.89466L15.9168 12.6973C15.7931 12.8182 15.7367 12.9924 15.7659 13.1632L16.6841 18.5325C16.7125 18.6989 16.6693 18.8606 16.5623 18.9878C16.4539 19.1167 16.2971 19.1906 16.1319 19.1906ZM10.8191 16.4938C10.9096 16.4938 10.9997 16.5161 11.0798 16.5583L15.8876 19.0934C15.9652 19.1343 16.0474 19.155 16.1319 19.155C16.2866 19.155 16.4336 19.0857 16.5352 18.9648C16.6353 18.8457 16.6758 18.6943 16.6491 18.5385L15.7309 13.1691C15.6997 12.9868 15.7599 12.8009 15.8921 12.6718L19.7817 8.86916C19.9257 8.72829 19.9766 8.52154 19.9145 8.32963C19.8523 8.13768 19.6899 8.0004 19.4907 7.97134L14.1155 7.18797C13.933 7.16136 13.7752 7.04645 13.6936 6.88057L11.2897 1.9954C11.2006 1.8144 11.0203 1.70198 10.8191 1.70198C10.6178 1.70198 10.4375 1.8144 10.3485 1.9954L7.94453 6.88057C7.86289 7.04645 7.7052 7.1614 7.52268 7.18797L2.14736 7.97138C1.94821 8.0004 1.78586 8.13768 1.7237 8.32963C1.66154 8.52158 1.71242 8.72832 1.8565 8.8692L5.74609 12.6718C5.87819 12.8009 5.93844 12.9869 5.90723 13.1692L4.98903 18.5385C4.96239 18.6944 5.00286 18.8458 5.10296 18.9649C5.20456 19.0857 5.35155 19.1551 5.5062 19.1551C5.59074 19.1551 5.67294 19.1343 5.75053 19.0934L10.5583 16.5584C10.6385 16.5161 10.7286 16.4938 10.8191 16.4938Z" fill="#F49521"/>
</svg>
