<svg width="226" height="52" viewBox="0 0 226 52" fill="none" xmlns="http://www.w3.org/2000/svg">
<path d="M99.5977 22.5961C99.6436 28.1174 106.362 31.6306 110.584 33.6729C115.79 36.1901 121.515 37.5073 127.188 38.5223C138.568 40.5488 150.137 41.3269 161.697 41.2261C195.907 40.9358 223.574 32.1227 223.485 21.5462C223.396 10.9705 197.89 1.11747 163.681 1.40813C159.04 1.44681 151.976 1.79308 147.803 3.24525C146.603 3.66364 146.293 4.19758 146.404 4.73923L146.405 4.74926C146.655 6.02259 149.126 7.36659 147.643 7.53376C146.956 7.61213 146.277 7.60557 145.564 7.5415C142.782 7.28867 139.521 6.2147 132.982 6.38286C113.564 6.88353 99.5372 15.3675 99.5977 22.5961Z" fill="#F05C5C"/>
<path d="M147.632 6.12569L147.298 6.15209C146.669 5.46458 146.021 4.63249 146.644 3.92853C147.313 4.99674 148.88 5.98529 147.632 6.12569Z" fill="#F68484"/>
<path d="M110.57 32.2613C115.774 34.7752 121.5 36.0969 127.171 37.107C138.563 39.1379 150.124 39.9182 161.688 39.8226C195.168 39.5368 222.359 31.0877 223.419 20.8118C223.45 21.0562 223.48 21.3003 223.482 21.548C223.573 32.1266 195.91 40.9365 161.699 41.2294C150.136 41.3266 138.575 40.5463 127.183 38.5183C121.511 37.5037 115.788 36.1868 110.582 33.6697C106.362 31.6306 99.6396 28.1219 99.5928 22.5989C99.593 22.356 99.6087 22.1118 99.6382 21.8629C100.199 26.9977 106.524 30.3034 110.57 32.2613Z" fill="#F68484"/>
<path d="M110.582 33.6697C115.788 36.1868 121.511 37.5037 127.183 38.5183C138.575 40.5463 150.136 41.3266 161.699 41.2293C195.91 40.9365 223.573 32.1266 223.482 21.548L223.552 29.7067C223.64 40.2861 195.98 49.098 161.77 49.3883C150.205 49.4852 138.644 48.7037 127.253 46.6744C121.581 45.6623 115.856 44.3451 110.651 41.8296C106.433 39.7883 99.7099 36.2821 99.6631 30.7592L99.5927 22.5989C99.6396 28.1219 106.362 31.6306 110.582 33.6697Z" fill="#DC1C13"/>
<path d="M203.348 29.5786C208.889 28.1605 212.695 27.3471 214.033 24.2766C215.375 21.2047 216.782 19.4919 213.267 16.6312C209.753 13.7709 204.22 12.0248 200.726 10.7891C196.499 9.29487 189.484 7.55877 186.326 6.83387C179.644 5.29192 172.488 5.25466 168.309 5.13294C163.978 5.00897 155.711 5.16262 153.573 6.48084C150.425 8.42148 153.038 11.0224 156.307 12.6962C159.578 14.3677 166.618 14.5191 169.106 14.1573C171.592 13.802 175.501 13.8597 180.464 15.2116C182.551 15.7791 185.869 17.6839 186.959 19.2337C187.924 20.5993 188.561 21.8147 187.999 23.1798C187.436 24.542 187.63 25.1779 189.171 26.016C190.711 26.8537 192.821 27.8054 195.652 28.8968C199.384 30.326 203.348 29.5786 203.348 29.5786Z" fill="#C31A1D"/>
<path d="M210.212 24.8071C211.551 21.7344 212.959 20.0246 209.446 17.1646C205.931 14.3027 200.4 12.5527 196.906 11.317C192.679 9.82407 185.664 8.08796 182.509 7.36118C175.823 5.82369 168.668 5.78386 164.489 5.66342C162.069 5.59199 158.422 5.6128 155.302 5.87145C158.605 5.11521 164.77 5.03197 168.309 5.13292C172.488 5.25464 179.644 5.2919 186.326 6.83385C189.484 7.55875 196.499 9.29485 200.726 10.789C204.22 12.0248 209.753 13.7709 213.267 16.6312C216.782 19.4918 215.375 21.2046 214.033 24.2766C212.695 27.347 208.89 28.1605 203.348 29.5786C203.348 29.5786 202.334 29.7692 200.85 29.7704C205.664 28.5467 208.986 27.6258 210.212 24.8071Z" fill="#B21E10"/>
<path d="M149.166 13.1831C146.639 11.8187 143.853 11.2379 141.157 10.7873C135.834 9.89956 129.698 10.4846 125.162 11.5991C121.135 12.5922 115.842 13.718 113.128 15.5278C110.414 17.3334 105.751 22.5029 113.082 27.2567C121.364 32.6275 128.365 33.9264 136.324 34.8815C143.598 35.7539 152.142 36.8271 161.412 36.6661C170.347 36.5095 176.127 36.2002 180.285 35.5282C184.447 34.8543 186.704 35.1611 188.844 33.882C190.828 32.6951 189.546 31.9623 186.804 30.5856C184.065 29.2057 184.207 29.2023 181.615 28.3352C179.02 27.4591 175.922 28.9756 169.216 28.6516C163.367 28.3653 160.783 27.8525 157.041 26.8649C153.297 25.8756 150.813 24.9683 148.535 23.5228C146.993 22.5492 145.613 21.3319 146.056 19.3276C146.563 17.0272 153.351 15.4405 149.166 13.1831Z" fill="#C31A1D"/>
<path d="M113.128 15.5278C115.842 13.718 121.135 12.5922 125.162 11.5991C126.477 11.2764 127.933 11.0069 129.457 10.7955C129.206 10.8511 128.943 10.9033 128.698 10.9619C124.673 11.9528 119.379 13.0824 116.667 14.8887C113.951 16.6979 109.289 21.8661 116.62 26.6215C124.9 31.9903 131.904 33.2912 139.86 34.2443C147.136 35.1157 155.678 36.187 164.948 36.0263C173.883 35.8723 179.665 35.565 183.824 34.8904C185.318 34.6516 186.559 34.5341 187.647 34.4253C185.811 35.0681 183.689 34.9771 180.285 35.5282C176.127 36.2002 170.347 36.5095 161.412 36.6661C152.142 36.8271 143.598 35.7539 136.324 34.8815C128.365 33.9264 121.364 32.6275 113.082 27.2567C105.751 22.5029 110.414 17.3334 113.128 15.5278Z" fill="#B21E10"/>
<path d="M142.847 17.5705C140.569 16.0616 135.581 13.2564 132.644 15.1902C129.596 17.2005 136.493 18.2175 137.845 18.2982C139.721 18.4116 141 17.8596 142.847 17.5705Z" fill="#B21E10"/>
<path d="M142.88 21.6488C139.989 21.2648 131.351 19.1019 130.006 22.6357C128.428 26.7859 136.047 25.3144 137.913 24.3597C139.601 23.4976 141.168 22.4793 142.88 21.6488" fill="#B21E10"/>
<path d="M146.217 25.5314C144.024 26.3807 139.731 27.7108 139.984 30.2841C140.309 33.5639 143.853 30.9854 144.765 29.478C145.504 28.2556 145.879 26.8738 146.217 25.5314" fill="#B21E10"/>
<path d="M150.407 28.4694C150.26 29.9359 149.512 34.1153 151.981 34.4498C154.976 34.8576 154.506 32.1213 153.523 30.9938C152.803 30.1715 151.236 29.4533 150.407 28.4694Z" fill="#B21E10"/>
<path d="M190.427 21.372C193.087 19.9797 198.643 18.3406 200.989 21.1916C203.632 24.405 196.301 24.2422 194.52 23.6696C192.965 23.1715 191.543 22.4412 190.427 21.372" fill="#B21E10"/>
<path d="M187.081 16.812C188.954 16.8157 194.191 17.4015 194.232 14.939C194.267 12.541 190.407 13.0596 188.99 14.0134C187.959 14.7047 187.424 15.7307 187.081 16.812Z" fill="#B21E10"/>
<path d="M183.204 14.6759C184.504 13.5761 187.185 8.53275 183.158 9.27455C180.273 9.80721 182.207 13.1843 183.204 14.6759Z" fill="#B21E10"/>
<path d="M175.741 13.082C176.776 12.3432 177.958 10.4487 177.648 9.08607C177.406 8.01889 175.917 7.25837 174.74 7.54486C171.457 8.33118 174.255 11.9094 175.558 13.0853L175.741 13.082Z" fill="#B21E10"/>
<path d="M168.801 12.1236C169.58 10.0811 167.636 6.50812 164.694 8.2294C161.761 9.94596 167.249 11.6373 168.801 12.1236Z" fill="#B21E10"/>
<path d="M159.757 29.793C161.044 30.1157 167.24 32.0991 164.806 33.9424C162.21 35.9069 159.459 31.6318 159.757 29.793Z" fill="#B21E10"/>
<path d="M143.43 16.6307C141.153 15.1247 136.163 12.3192 133.227 14.253C130.178 16.259 137.076 17.279 138.43 17.3587C140.304 17.4731 141.583 16.9228 143.43 16.6307Z" fill="#F68484"/>
<path d="M143.464 20.7107C140.571 20.326 131.933 18.1635 130.591 21.695C129.012 25.8452 136.63 24.3789 138.498 23.4203C140.184 22.5579 141.753 21.5387 143.464 20.7107" fill="#F68484"/>
<path d="M146.799 24.5926C144.609 25.4387 140.315 26.7714 140.569 29.3421C140.891 32.6225 144.437 30.046 145.349 28.5357C146.086 27.3171 146.462 25.9353 146.799 24.5926" fill="#F68484"/>
<path d="M150.992 27.5313C150.843 28.9975 150.096 33.1771 152.562 33.5081C155.56 33.9153 155.09 31.1831 154.105 30.0566C153.386 29.2288 151.818 28.5106 150.992 27.5313Z" fill="#F68484"/>
<path d="M191.009 20.4335C193.672 19.0391 199.226 17.3979 201.571 20.2515C204.214 23.4636 196.883 23.3009 195.105 22.7318C193.549 22.2292 192.128 21.4993 191.009 20.4335Z" fill="#F68484"/>
<path d="M187.665 15.8726C189.539 15.8763 194.775 16.4634 194.815 13.9963C194.851 11.6029 190.991 12.1227 189.572 13.0734C188.544 13.764 188.01 14.7929 187.665 15.8726Z" fill="#F68484"/>
<path d="M183.79 13.7368C185.088 12.6367 187.769 7.592 183.741 8.33182C180.858 8.86517 182.789 12.2442 183.79 13.7368Z" fill="#F68484"/>
<path d="M176.325 12.1438C177.36 11.4038 178.541 9.50898 178.233 8.14669C177.99 7.0795 176.502 6.31898 175.322 6.60349C172.04 7.39016 174.838 10.971 176.142 12.143L176.325 12.1438Z" fill="#F68484"/>
<path d="M169.383 11.1823C170.166 9.14071 168.22 5.56872 165.278 7.28836C162.344 9.00492 167.832 10.6963 169.383 11.1823Z" fill="#F68484"/>
<path d="M160.34 28.8545C161.626 29.1756 167.822 31.1602 165.386 33.0061C162.794 34.9687 160.042 30.6907 160.34 28.8545Z" fill="#F68484"/>
<path d="M179.626 23.6529C179.545 21.6103 179.184 21.5441 177.741 20.699C176.903 20.2082 176.21 20.0639 175.412 19.8914C174.832 19.7665 174.198 19.6255 173.413 19.3283C171.545 18.6164 170.107 18.1814 168.022 18.0079C165.937 17.8357 165.582 18.2224 163.853 18.0436C162.131 17.8678 161.339 17.8198 159.972 17.637C158.607 17.4508 158.131 18.0479 158.766 19.4522C159.405 20.8547 158.31 21.2156 159.414 21.9739C160.521 22.726 159.921 22.3485 161.842 23.0991C163.76 23.8491 164.048 23.8449 165.704 24.2114C167.358 24.5801 167.932 24.495 170.594 24.8315C173.254 25.166 174.04 24.8714 175.403 24.5589C176.763 24.2441 178.055 23.8519 178.773 23.9752C179.492 24.0947 179.626 23.6529 179.626 23.6529" fill="#F68484"/>
<path d="M145.564 7.5415C146.277 7.60557 146.956 7.61213 147.642 7.53376C149.126 7.3666 146.655 6.02259 146.405 4.74926L145.564 7.5415Z" fill="#B21E10"/>
<path d="M110.448 33.6063L110.582 33.6697C111.757 34.2357 112.959 34.7372 114.179 35.1898L114.247 43.3523C113.028 42.8945 111.824 42.3966 110.651 41.8296L110.326 41.6721C110.39 38.9823 110.43 36.2917 110.448 33.6063" fill="#B21E10"/>
<path d="M104.721 30.3475C104.702 32.9624 104.594 35.6114 104.455 38.2728C101.834 36.3418 99.6884 33.869 99.6631 30.7592L99.5927 22.5989C99.6207 25.8379 101.949 28.3832 104.721 30.3475" fill="#B21E10"/>
<path d="M182.564 39.928C186.825 39.4201 190.874 38.7727 194.642 38.0072L194.711 46.1671C190.93 46.9373 186.862 47.584 182.583 48.0951C182.574 45.3707 182.568 42.6484 182.564 39.928" fill="#F61A1A"/>
<path d="M176.823 40.5167C176.826 43.2397 176.831 45.9563 176.84 48.6806C175.751 48.7739 174.653 48.8621 173.54 48.9353L173.471 40.7766C174.603 40.699 175.715 40.6132 176.823 40.5167" fill="#F61A1A"/>
<path d="M212.882 40.5906C212.888 40.5882 212.896 40.5847 212.901 40.5819C212.894 40.5857 212.889 40.5885 212.882 40.5906ZM212.91 40.5775C212.916 40.575 212.924 40.5716 212.931 40.5678C212.924 40.5716 212.916 40.575 212.91 40.5775ZM212.934 40.566C212.942 40.5625 212.949 40.5604 212.956 40.5566C212.949 40.5604 212.941 40.5638 212.934 40.566ZM212.962 40.5529C219.625 37.4543 223.523 33.7532 223.552 29.8021C223.523 33.7532 219.625 37.4543 212.962 40.5529ZM223.552 29.7979C223.551 29.7949 223.551 29.7895 223.552 29.7869C223.551 29.7895 223.552 29.7937 223.552 29.7979ZM223.552 29.7827C223.552 29.7785 223.551 29.7743 223.552 29.7704C223.551 29.7743 223.552 29.7785 223.552 29.7827ZM223.552 29.7662C223.552 29.762 223.552 29.7578 223.552 29.7552C223.552 29.7578 223.552 29.762 223.552 29.7662ZM223.552 29.7481C223.552 29.7455 223.552 29.7426 223.553 29.7387C223.552 29.7426 223.552 29.7455 223.552 29.7481ZM223.552 29.7316C223.552 29.7274 223.552 29.7261 223.552 29.7219C223.552 29.7261 223.551 29.7286 223.552 29.7316ZM223.552 29.7067L223.484 21.7418C223.484 21.7376 223.484 21.7363 223.484 21.7321L223.552 29.7067V29.7067ZM223.485 21.5255C223.485 21.5225 223.485 21.5183 223.485 21.5158C223.485 21.5183 223.485 21.5225 223.485 21.5255ZM223.484 21.5044C223.485 21.5005 223.485 21.4976 223.484 21.4934C223.485 21.4976 223.485 21.5005 223.484 21.5044ZM223.484 21.4795C223.485 21.4769 223.484 21.474 223.485 21.4714C223.484 21.474 223.485 21.4769 223.484 21.4795ZM223.483 21.4517C223.483 21.4504 223.484 21.4491 223.483 21.4475C223.484 21.4491 223.483 21.4504 223.483 21.4517Z" fill="#D9D9D9"/>
<path d="M190.391 37.3968C189.2 36.5048 188.021 35.5952 186.854 34.671C187.56 34.5027 188.207 34.262 188.844 33.882C190.828 32.6951 189.546 31.9623 186.804 30.5856C184.065 29.2057 184.207 29.2023 181.615 28.3352C181.52 28.3029 181.425 28.2748 181.329 28.2489C180.641 28.0646 179.911 28.032 179.085 28.0769C177.885 26.9865 176.724 25.8942 175.603 24.8029L175.442 24.6465C175.415 24.6199 175.388 24.5949 175.361 24.5682C175.375 24.5652 175.39 24.5622 175.403 24.5589C176.763 24.2441 178.055 23.8518 178.773 23.9752C179.492 24.0946 179.626 23.6528 179.626 23.6528C179.545 21.6103 179.184 21.5441 177.741 20.699C177.211 20.3886 176.738 20.2164 176.26 20.0884C175.983 20.0142 175.705 19.9548 175.412 19.8913C175.119 19.8282 174.812 19.7609 174.478 19.6715C174.152 19.5842 173.801 19.4748 173.413 19.3283C172.539 18.9947 171.758 18.7218 170.962 18.5085C170.412 18.3612 169.854 18.2422 169.252 18.1512C169.054 17.9269 168.859 17.7034 168.665 17.4789L168.53 17.3214C167.898 16.5902 167.287 15.8619 166.7 15.1415L166.596 15.0142C166.407 14.7814 166.221 14.5493 166.037 14.3178C167.305 14.3233 168.392 14.2614 169.106 14.1573C171.564 13.8054 175.416 13.8589 180.299 15.1674C180.355 15.1823 180.409 15.1968 180.464 15.2116C182.551 15.7791 185.869 17.6839 186.959 19.2337C187.924 20.5992 188.561 21.8147 187.999 23.1798C187.436 24.542 187.63 25.1779 189.171 26.016C190.711 26.8537 192.821 27.8054 195.652 28.8967C196.049 29.0486 196.447 29.176 196.842 29.2819C200.18 30.1764 203.348 29.5786 203.348 29.5786C208.889 28.1605 212.695 27.347 214.033 24.2766C214.554 23.0829 215.086 22.0934 215.335 21.1635C215.725 19.7001 215.416 18.3805 213.267 16.6312C209.753 13.7709 204.22 12.0248 200.726 10.789C200.676 10.7714 200.625 10.7537 200.575 10.736C200.531 10.7201 200.485 10.7051 200.441 10.6892C200.44 10.6888 200.44 10.6888 200.438 10.6885C198.465 10.0052 195.948 9.27814 193.507 8.62419C193.506 8.62384 193.504 8.6235 193.502 8.62281C193.501 8.62246 193.499 8.62212 193.498 8.62178C190.735 7.88155 188.075 7.23618 186.416 6.8538C186.384 6.8468 186.356 6.8405 186.326 6.83385C179.644 5.2919 172.488 5.25464 168.309 5.13291C166.09 5.06971 162.837 5.07871 159.906 5.28039C159.205 3.99913 158.615 2.76861 158.144 1.60023C160.133 1.47619 162.06 1.42222 163.681 1.4081C177.8 1.28887 190.433 2.89601 200.41 5.56944C206.991 7.33286 212.418 9.56134 216.352 12.0619C218.647 14.2148 220.783 16.3689 222.751 18.4974C223.208 19.4702 223.46 20.4545 223.483 21.4474C223.484 21.4491 223.483 21.4504 223.483 21.4517C223.484 21.4588 223.484 21.4656 223.485 21.4714C223.484 21.474 223.485 21.4769 223.484 21.4795C223.484 21.4837 223.484 21.4892 223.484 21.4934C223.485 21.4976 223.485 21.5005 223.484 21.5044C223.484 21.5086 223.485 21.5115 223.485 21.5157C223.485 21.5183 223.485 21.5225 223.485 21.5254C223.485 21.5322 223.485 21.539 223.485 21.5461L223.483 21.5856L223.484 21.7321C223.484 21.7363 223.484 21.7376 223.484 21.7418L223.482 21.548C223.48 21.3002 223.45 21.0562 223.419 20.8118C222.687 27.9068 209.503 34.1293 190.391 37.3968Z" fill="#CC4E4E"/>
<path d="M191.926 38.5301C191.412 38.1563 190.901 37.7777 190.391 37.3969C209.503 34.1293 222.687 27.9068 223.419 20.8118C223.45 21.0562 223.48 21.3002 223.482 21.548C223.487 22.1057 223.414 22.6588 223.268 23.2065C221.62 29.3575 210.603 34.7636 194.642 38.0127L194.642 38.0072C193.752 38.1882 192.846 38.3625 191.926 38.5301Z" fill="#D17070"/>
<path d="M201.098 44.6885C198.914 43.3467 196.768 41.9409 194.663 40.4782L194.642 38.0127C210.603 34.7636 221.62 29.3575 223.268 23.2065C223.414 22.6588 223.487 22.1057 223.482 21.548L223.484 21.7418L223.552 29.7066C223.551 29.7121 223.551 29.7176 223.552 29.7219C223.552 29.7261 223.552 29.7273 223.552 29.7315C223.552 29.7345 223.552 29.7358 223.553 29.7387C223.552 29.7425 223.552 29.7455 223.552 29.748C223.552 29.751 223.552 29.7523 223.552 29.7552C223.552 29.7578 223.552 29.7619 223.552 29.7662C223.552 29.7674 223.551 29.7687 223.552 29.7704C223.551 29.7742 223.552 29.7784 223.552 29.7827C223.552 29.7839 223.551 29.7852 223.552 29.7869C223.551 29.7894 223.551 29.7949 223.552 29.7978C223.552 29.7991 223.551 29.8004 223.552 29.8021C223.523 33.7532 219.625 37.4543 212.962 40.5528C212.961 40.5538 212.959 40.556 212.956 40.5566C212.949 40.5603 212.942 40.5625 212.934 40.5659C212.934 40.5672 212.932 40.5682 212.931 40.5678C212.924 40.5716 212.916 40.575 212.91 40.5775C212.907 40.5794 212.904 40.58 212.901 40.5819C212.896 40.5847 212.888 40.5881 212.882 40.5906C209.582 42.1179 205.609 43.4981 201.098 44.6885" fill="#BB1810"/>
<path d="M196.842 29.2819C196.447 29.176 196.049 29.0487 195.652 28.8968C192.821 27.8054 190.711 26.8537 189.171 26.016C187.63 25.1779 187.436 24.5421 187.999 23.1799C188.561 21.8147 187.924 20.5993 186.959 19.2337C185.869 17.6839 182.551 15.7791 180.464 15.2117C180.409 15.1968 180.355 15.1823 180.299 15.1675C175.416 13.8589 171.564 13.8054 169.106 14.1573C168.392 14.2614 167.305 14.3233 166.037 14.3179C165.643 13.8216 165.259 13.3267 164.887 12.8363L164.682 12.5661C162.864 10.1505 161.328 7.82577 160.108 5.64509C161.73 5.61448 163.266 5.62704 164.489 5.66346C168.668 5.78389 175.823 5.82373 182.508 7.36122C184.158 7.74118 186.865 8.39735 189.676 9.15068C192.239 9.83742 194.891 10.6058 196.906 11.317C200.4 12.5527 205.931 14.3027 209.446 17.1646C212.959 20.0246 211.551 21.7345 210.212 24.8071C208.986 27.6259 205.664 28.5467 200.849 29.7705C202.334 29.7692 203.348 29.5787 203.348 29.5787C203.348 29.5787 200.18 30.1764 196.842 29.2819V29.2819ZM191.503 20.8681C191.109 21.0345 190.747 21.2053 190.427 21.372C191.543 22.4413 192.965 23.1716 194.52 23.6696C194.564 23.6843 194.612 23.6986 194.664 23.7124C196.365 24.1683 201.607 24.2917 201.557 22.3943C202.243 21.9595 202.415 21.2784 201.571 20.2515C201.002 19.5592 200.243 19.1308 199.381 18.9C196.698 18.1812 193.025 19.3778 191.009 20.4335C191.168 20.585 191.332 20.7297 191.503 20.8681V20.8681ZM164.432 8.39807C162.117 10.0568 167.3 11.6524 168.801 12.1237C168.926 11.7968 168.981 11.4307 168.973 11.0531C169.128 11.103 169.267 11.1457 169.383 11.1823C169.957 9.68379 169.062 7.36111 167.383 6.91111C166.774 6.74788 166.061 6.83032 165.278 7.28836C164.636 7.66309 164.398 8.03816 164.432 8.39807V8.39807ZM188.057 14.8746C187.6 15.4478 187.301 16.1187 187.081 16.812C188.898 16.8157 193.874 17.3665 194.214 15.1564C194.581 14.8767 194.807 14.4994 194.815 13.9963C194.829 13.0877 194.279 12.5982 193.517 12.3939C192.27 12.0599 190.452 12.4837 189.572 13.0734C188.868 13.546 188.396 14.1772 188.057 14.8746V14.8746ZM173.802 7.94375C172.111 9.16081 174.412 12.0509 175.558 13.0854L175.741 13.082C176.284 12.6933 176.869 11.9858 177.256 11.2048C177.936 10.309 178.449 9.09764 178.233 8.14669C178.07 7.43209 177.349 6.85528 176.536 6.63752C176.134 6.52985 175.712 6.50914 175.322 6.6035C174.328 6.84228 173.892 7.33689 173.802 7.94375ZM182.251 9.62378C180.768 10.6674 182.339 13.3825 183.204 14.6759C183.592 14.3477 184.102 13.6699 184.521 12.8988C185.593 11.3984 186.677 8.76679 185.02 8.32266C184.7 8.23707 184.282 8.2326 183.741 8.33184C182.786 8.50822 182.36 8.9959 182.251 9.62378V9.62378ZM215.335 21.1636C215.725 19.7002 215.416 18.3806 213.267 16.6312C209.753 13.7709 204.22 12.0248 200.726 10.7891C200.676 10.7714 200.625 10.7537 200.575 10.7361C200.625 10.7537 200.676 10.7714 200.726 10.7891C204.22 12.0248 209.753 13.7709 213.267 16.6312C215.416 18.3806 215.725 19.7002 215.335 21.1636ZM159.906 5.28042C162.837 5.07875 166.09 5.06974 168.309 5.13295C172.488 5.25467 179.644 5.29194 186.326 6.83389C179.644 5.29194 172.488 5.25467 168.309 5.13295C166.09 5.06974 162.837 5.07875 159.906 5.28042ZM200.441 10.6892C200.44 10.6888 200.44 10.6888 200.438 10.6885C200.44 10.6888 200.44 10.6888 200.441 10.6892ZM186.416 6.85383C188.075 7.23621 190.735 7.88159 193.498 8.62181C190.737 7.88193 188.075 7.23621 186.416 6.85383ZM193.507 8.62422C193.506 8.62388 193.504 8.62353 193.502 8.62284C193.504 8.62353 193.506 8.62388 193.507 8.62422Z" fill="#A61619"/>
<path d="M200.85 29.7704C205.664 28.5467 208.986 27.6259 210.212 24.8071C211.551 21.7345 212.959 20.0246 209.446 17.1646C205.931 14.3027 200.4 12.5527 196.906 11.317C194.891 10.6058 192.239 9.8374 189.676 9.15067C186.865 8.39733 184.158 7.74117 182.508 7.3612C175.823 5.82371 168.668 5.78388 164.489 5.66344C163.266 5.62702 161.73 5.61446 160.108 5.64507C160.04 5.52329 159.972 5.4015 159.906 5.28041C162.837 5.07873 166.09 5.06973 168.309 5.13294C172.488 5.25466 179.644 5.29192 186.326 6.83387C186.356 6.84052 186.384 6.84683 186.416 6.85382C188.075 7.2362 190.737 7.88192 193.498 8.6218C193.499 8.62214 193.501 8.62249 193.502 8.62283C193.504 8.62352 193.506 8.62387 193.507 8.62421C195.948 9.27816 198.465 10.0052 200.438 10.6885C200.44 10.6888 200.44 10.6888 200.441 10.6892C200.485 10.7051 200.531 10.7201 200.575 10.736C200.625 10.7537 200.676 10.7714 200.726 10.7891C204.22 12.0248 209.753 13.7709 213.267 16.6312C215.416 18.3805 215.725 19.7002 215.335 21.1636C215.086 22.0934 214.554 23.0829 214.033 24.2766C212.695 27.3471 208.889 28.1605 203.348 29.5786C203.348 29.5786 202.334 29.7692 200.85 29.7704" fill="#971A0E"/>
<path d="M186.854 34.671C186.849 34.667 186.845 34.6631 186.84 34.6592C187.117 34.594 187.385 34.5166 187.647 34.4253C187.335 34.4563 187.009 34.4877 186.669 34.5237C186.238 34.1804 185.809 33.8348 185.38 33.488C183.804 32.2086 182.284 30.9165 180.81 29.62L180.808 29.6209L180.673 29.5006C180.136 29.0268 179.606 28.5521 179.085 28.077C179.911 28.032 180.641 28.0646 181.329 28.2489C181.425 28.2748 181.52 28.3029 181.615 28.3352C184.207 29.2023 184.065 29.2057 186.804 30.5856C189.546 31.9623 190.828 32.6951 188.844 33.882C188.207 34.262 187.56 34.5027 186.854 34.671" fill="#A61619"/>
<path d="M186.84 34.6592C186.783 34.6149 186.726 34.5692 186.669 34.5237C187.009 34.4876 187.335 34.4563 187.647 34.4253C187.385 34.5166 187.117 34.594 186.84 34.6592Z" fill="#971A0E"/>
<path d="M194.664 23.7124C194.613 23.6986 194.564 23.6842 194.52 23.6695C192.965 23.1715 191.543 22.4412 190.427 21.3719C190.747 21.2053 191.109 21.0344 191.503 20.868C192.533 21.7017 193.768 22.3004 195.105 22.7317C195.148 22.746 195.195 22.7601 195.245 22.7736C196.585 23.1325 200.151 23.2846 201.557 22.3943C201.607 24.2917 196.365 24.1682 194.664 23.7124" fill="#971A0E"/>
<path d="M187.081 16.812C187.301 16.1187 187.6 15.4477 188.057 14.8746C187.902 15.196 187.775 15.5319 187.665 15.8725C189.157 15.8759 192.777 16.2483 194.214 15.1564C193.874 17.3664 188.898 16.8157 187.081 16.812" fill="#971A0E"/>
<path d="M183.204 14.6759C182.339 13.3825 180.768 10.6674 182.251 9.62375C182.034 10.8947 183.121 12.7375 183.79 13.7368C184.008 13.5535 184.264 13.2577 184.521 12.8988C184.102 13.6699 183.592 14.3476 183.204 14.6759" fill="#971A0E"/>
<path d="M175.558 13.0853C174.412 12.0508 172.111 9.16079 173.802 7.94372C173.598 9.33847 175.233 11.3266 176.142 12.143L176.325 12.1438C176.636 11.9207 176.962 11.5924 177.256 11.2047C176.869 11.9858 176.284 12.6933 175.741 13.082L175.558 13.0853Z" fill="#971A0E"/>
<path d="M168.801 12.1236C167.3 11.6524 162.117 10.0568 164.432 8.39804C164.544 9.56264 167.51 10.588 168.973 11.0531C168.981 11.4307 168.926 11.7968 168.801 12.1236" fill="#971A0E"/>
<path d="M195.245 22.7736C195.195 22.7601 195.148 22.7461 195.105 22.7318C193.768 22.3005 192.533 21.7017 191.503 20.8681C191.332 20.7297 191.168 20.5849 191.009 20.4335C193.025 19.3778 196.698 18.1811 199.381 18.9C200.243 19.1308 201.002 19.5592 201.571 20.2515C202.415 21.2784 202.243 21.9595 201.557 22.3943C200.151 23.2847 196.585 23.1325 195.245 22.7736" fill="#D17070"/>
<path d="M187.665 15.8726C187.775 15.5319 187.902 15.196 188.057 14.8746C188.396 14.1772 188.868 13.546 189.572 13.0734C190.452 12.4837 192.27 12.0599 193.517 12.3939C194.28 12.5982 194.829 13.0877 194.815 13.9963C194.807 14.4994 194.581 14.8767 194.214 15.1564C192.777 16.2484 189.157 15.876 187.665 15.8726" fill="#D17070"/>
<path d="M183.79 13.7368C183.121 12.7375 182.034 10.8947 182.252 9.62375C182.36 8.99587 182.786 8.5082 183.741 8.33181C184.282 8.23257 184.701 8.23705 185.02 8.32263C186.677 8.76677 185.593 11.3983 184.521 12.8988C184.264 13.2577 184.008 13.5535 183.79 13.7368" fill="#D17070"/>
<path d="M176.142 12.143C175.233 11.3266 173.598 9.33848 173.802 7.94374C173.892 7.33687 174.328 6.84226 175.322 6.60348C175.712 6.50913 176.134 6.52984 176.536 6.63751C177.349 6.85526 178.07 7.43207 178.233 8.14668C178.449 9.09763 177.936 10.309 177.256 11.2047C176.962 11.5924 176.636 11.9207 176.325 12.1438L176.142 12.143Z" fill="#D17070"/>
<path d="M169.383 11.1823C169.267 11.1457 169.128 11.103 168.973 11.0531C167.51 10.588 164.544 9.56268 164.432 8.39809C164.398 8.03818 164.636 7.66311 165.278 7.28838C166.062 6.83033 166.774 6.7479 167.383 6.91112C169.062 7.36112 169.957 9.6838 169.383 11.1823Z" fill="#D17070"/>
<path d="M175.361 24.5682C173.774 23.014 172.271 21.4653 170.857 19.9299L170.714 19.7755C170.215 19.2318 169.728 18.6899 169.252 18.1512C169.854 18.2422 170.412 18.3612 170.962 18.5086C171.758 18.7218 172.539 18.9947 173.413 19.3283C173.801 19.4749 174.152 19.5843 174.478 19.6716C174.812 19.7609 175.119 19.8282 175.412 19.8914C175.705 19.9548 175.983 20.0142 176.26 20.0884C176.738 20.2164 177.211 20.3886 177.741 20.699C179.184 21.5441 179.545 21.6103 179.626 23.6528C179.626 23.6528 179.492 24.0947 178.773 23.9752C178.055 23.8519 176.763 24.2441 175.403 24.5589C175.39 24.5622 175.375 24.5652 175.361 24.5682" fill="#D17070"/>
<path d="M194.663 40.4782C193.744 39.8398 192.83 39.1905 191.926 38.5301C192.846 38.3625 193.752 38.1882 194.642 38.0072L194.642 38.0127L194.663 40.4782" fill="#D11616"/>
<path d="M3.5977 23.5961C3.64357 29.1174 10.3619 32.6306 14.5838 34.6729C19.7897 37.1901 25.5145 38.5073 31.1878 39.5223C42.5684 41.5488 54.1372 42.3269 65.6972 42.2261C99.9074 41.9358 127.574 33.1227 127.485 22.5462C127.396 11.9705 101.89 2.11747 67.6811 2.40813C63.0396 2.44681 55.976 2.79308 51.8033 4.24525C50.6034 4.66364 50.2934 5.19758 50.4036 5.73923L50.405 5.74926C50.6547 7.02259 53.1257 8.36659 51.6425 8.53376C50.9562 8.61213 50.2774 8.60557 49.5644 8.5415C46.7817 8.28867 43.5205 7.2147 36.9822 7.38286C17.5643 7.88353 3.53721 16.3675 3.5977 23.5961Z" fill="#F05C5C"/>
<path d="M51.6319 7.12569L51.2977 7.15209C50.6689 6.46458 50.0208 5.63249 50.6443 4.92853C51.3133 5.99674 52.8801 6.98529 51.6319 7.12569Z" fill="#F68484"/>
<path d="M14.57 33.2613C19.774 35.7752 25.5004 37.0969 31.1708 38.107C42.5627 40.1379 54.124 40.9182 65.6881 40.8226C99.1682 40.5368 126.359 32.0877 127.419 21.8118C127.45 22.0562 127.48 22.3003 127.482 22.548C127.573 33.1266 99.9099 41.9365 65.6991 42.2294C54.1359 42.3266 42.5746 41.5463 31.1833 39.5183C25.5113 38.5037 19.7878 37.1868 14.5819 34.6697C10.3618 32.6306 3.63958 29.1219 3.59277 23.5989C3.59298 23.356 3.60874 23.1118 3.63815 22.8629C4.19895 27.9977 10.5242 31.3034 14.57 33.2613Z" fill="#F68484"/>
<path d="M14.5819 34.6697C19.7878 37.1868 25.5113 38.5037 31.1833 39.5183C42.5745 41.5463 54.1359 42.3266 65.699 42.2293C99.9099 41.9365 127.573 33.1266 127.482 22.548L127.552 30.7067C127.64 41.2861 99.9799 50.098 65.7697 50.3883C54.2053 50.4852 42.6443 49.7037 31.2534 47.6744C25.5807 46.6623 19.8559 45.3451 14.6509 42.8296C10.4329 40.7883 3.70992 37.2821 3.66311 31.7592L3.59274 23.5989C3.63955 29.1219 10.3618 32.6306 14.5819 34.6697Z" fill="#DC1C13"/>
<path d="M107.348 30.5786C112.889 29.1605 116.695 28.3471 118.033 25.2766C119.375 22.2047 120.782 20.4919 117.267 17.6312C113.753 14.7709 108.22 13.0248 104.726 11.7891C100.499 10.2949 93.4844 8.55877 90.3257 7.83387C83.6438 6.29192 76.4883 6.25466 72.3094 6.13294C67.9779 6.00897 59.7111 6.16262 57.5731 7.48084C54.4249 9.42148 57.0381 12.0224 60.3069 13.6962C63.5778 15.3677 70.6185 15.5191 73.1062 15.1573C75.5922 14.802 79.5011 14.8597 84.4643 16.2116C86.5513 16.7791 89.8686 18.6839 90.9593 20.2337C91.9241 21.5993 92.5605 22.8147 91.9987 24.1798C91.4364 25.542 91.6304 26.1779 93.1713 27.016C94.711 27.8537 96.8205 28.8054 99.6519 29.8968C103.384 31.326 107.348 30.5786 107.348 30.5786Z" fill="#C31A1D"/>
<path d="M114.212 25.8071C115.551 22.7344 116.959 21.0246 113.446 18.1646C109.931 15.3027 104.4 13.5527 100.906 12.317C96.679 10.8241 89.6639 9.08796 86.5085 8.36118C79.8227 6.82369 72.6678 6.78386 68.4886 6.66342C66.0686 6.59199 62.4216 6.6128 59.3017 6.87145C62.6047 6.11521 68.7696 6.03197 72.3094 6.13292C76.4883 6.25464 83.6438 6.2919 90.3258 7.83385C93.4844 8.55875 100.499 10.2949 104.726 11.789C108.22 13.0248 113.753 14.7709 117.267 17.6312C120.782 20.4918 119.375 22.2046 118.033 25.2766C116.695 28.347 112.89 29.1605 107.348 30.5786C107.348 30.5786 106.334 30.7692 104.85 30.7704C109.664 29.5467 112.986 28.6258 114.212 25.8071Z" fill="#B21E10"/>
<path d="M53.1656 14.1831C50.6393 12.8187 47.8533 12.2379 45.1567 11.7873C39.8345 10.8996 33.698 11.4846 29.1616 12.5991C25.1354 13.5922 19.8423 14.718 17.1281 16.5278C14.4136 18.3334 9.75145 23.5029 17.0815 28.2567C25.3643 33.6275 32.3654 34.9264 40.324 35.8815C47.5981 36.7539 56.1421 37.8271 65.4116 37.6661C74.3473 37.5095 80.127 37.2002 84.2853 36.5282C88.4468 35.8543 90.7043 36.1611 92.8443 34.882C94.8284 33.6951 93.5464 32.9623 90.804 31.5856C88.0651 30.2057 88.2068 30.2023 85.6149 29.3352C83.0199 28.4591 79.9219 29.9756 73.2159 29.6516C67.3667 29.3653 64.7834 28.8525 61.0408 27.8649C57.2973 26.8756 54.8128 25.9683 52.5346 24.5228C50.9927 23.5492 49.6128 22.3319 50.0559 20.3276C50.5633 18.0272 57.3506 16.4405 53.1656 14.1831Z" fill="#C31A1D"/>
<path d="M17.1281 16.5278C19.8423 14.718 25.1354 13.5922 29.1616 12.5991C30.4766 12.2764 31.9333 12.0069 33.4573 11.7955C33.2064 11.8511 32.9425 11.9033 32.6977 11.9619C28.6734 12.9528 23.3793 14.0824 20.6674 15.8887C17.9506 17.6979 13.2888 22.8661 20.6198 27.6215C28.9004 32.9903 35.9037 34.2912 43.8601 35.2443C51.1358 36.1157 59.6776 37.187 68.9484 37.0263C77.8834 36.8723 83.6653 36.565 87.8242 35.8904C89.3183 35.6516 90.559 35.5341 91.6469 35.4253C89.8113 36.0681 87.6892 35.9771 84.2853 36.5282C80.127 37.2002 74.3473 37.5095 65.4116 37.6661C56.1421 37.8271 47.5981 36.7539 40.324 35.8815C32.3654 34.9264 25.3643 33.6275 17.0815 28.2567C9.75145 23.5029 14.4136 18.3334 17.1281 16.5278Z" fill="#B21E10"/>
<path d="M46.8467 18.5705C44.5689 17.0616 39.581 14.2564 36.6445 16.1902C33.5963 18.2005 40.4934 19.2175 41.8453 19.2982C43.7212 19.4116 44.9996 18.8596 46.8467 18.5705Z" fill="#B21E10"/>
<path d="M46.8803 22.6488C43.9892 22.2648 35.3506 20.1019 34.0062 23.6357C32.4276 27.7859 40.0467 26.3144 41.9134 25.3597C43.6007 24.4976 45.1683 23.4793 46.8803 22.6488" fill="#B21E10"/>
<path d="M50.2171 26.5314C48.0239 27.3807 43.7306 28.7108 43.9839 31.2841C44.3088 34.5639 47.8529 31.9854 48.7648 30.478C49.5037 29.2556 49.8795 27.8738 50.2171 26.5314" fill="#B21E10"/>
<path d="M54.4075 29.4694C54.2602 30.9359 53.5117 35.1153 55.9812 35.4498C58.9764 35.8576 58.5059 33.1213 57.5229 31.9938C56.8032 31.1715 55.2357 30.4533 54.4075 29.4694Z" fill="#B21E10"/>
<path d="M94.4267 22.372C97.087 20.9797 102.643 19.3406 104.989 22.1916C107.632 25.405 100.301 25.2422 98.5195 24.6696C96.9648 24.1715 95.5427 23.4412 94.4267 22.372" fill="#B21E10"/>
<path d="M91.0809 17.812C92.9545 17.8157 98.1906 18.4015 98.232 15.939C98.2672 13.541 94.4068 14.0596 92.9903 15.0134C91.9589 15.7047 91.4245 16.7307 91.0809 17.812Z" fill="#B21E10"/>
<path d="M87.2044 15.6759C88.504 14.5761 91.1847 9.53275 87.1581 10.2746C84.2726 10.8072 86.2071 14.1843 87.2044 15.6759Z" fill="#B21E10"/>
<path d="M79.7413 14.082C80.7757 13.3432 81.9584 11.4487 81.6485 10.0861C81.4057 9.01889 79.9172 8.25837 78.7403 8.54486C75.4569 9.33118 78.2554 12.9094 79.5582 14.0853L79.7413 14.082Z" fill="#B21E10"/>
<path d="M72.8009 13.1236C73.5801 11.0811 71.6359 7.50812 68.6942 9.2294C65.7606 10.946 71.2485 12.6373 72.8009 13.1236Z" fill="#B21E10"/>
<path d="M63.7568 30.793C65.0438 31.1157 71.2403 33.0991 68.8056 34.9424C66.21 36.9069 63.4588 32.6318 63.7568 30.793Z" fill="#B21E10"/>
<path d="M47.4298 17.6307C45.1527 16.1247 40.1635 13.3192 37.2269 15.253C34.1785 17.259 41.0762 18.279 42.4297 18.3587C44.304 18.4731 45.5833 17.9228 47.4298 17.6307Z" fill="#F68484"/>
<path d="M47.4644 21.7107C44.5707 21.326 35.9334 19.1635 34.5909 22.695C33.0123 26.8452 40.6301 25.3789 42.4978 24.4203C44.1838 23.5579 45.7531 22.5387 47.4644 21.7107" fill="#F68484"/>
<path d="M50.7986 25.5926C48.609 26.4387 44.3151 27.7714 44.5691 30.3421C44.891 33.6225 48.4374 31.046 49.3486 29.5357C50.0865 28.3171 50.4623 26.9353 50.7986 25.5926" fill="#F68484"/>
<path d="M54.9915 28.5313C54.843 29.9975 54.0957 34.1771 56.5621 34.5081C59.5602 34.9153 59.09 32.1831 58.1054 31.0566C57.3858 30.2288 55.8182 29.5106 54.9915 28.5313Z" fill="#F68484"/>
<path d="M95.0095 21.4335C97.6717 20.0391 103.226 18.3979 105.571 21.2515C108.214 24.4636 100.883 24.3009 99.1048 23.7318C97.5485 23.2292 96.1277 22.4993 95.0095 21.4335Z" fill="#F68484"/>
<path d="M91.6653 16.8726C93.5389 16.8763 98.7747 17.4634 98.8146 14.9963C98.8513 12.6029 94.9905 13.1227 93.5721 14.0734C92.5437 14.764 92.0098 15.7929 91.6653 16.8726Z" fill="#F68484"/>
<path d="M87.7901 14.7368C89.0884 13.6367 91.7694 8.592 87.7406 9.33182C84.8577 9.86517 86.789 13.2442 87.7901 14.7368Z" fill="#F68484"/>
<path d="M80.3253 13.1438C81.3601 12.4038 82.5415 10.509 82.2329 9.14669C81.9902 8.0795 80.5016 7.31898 79.3224 7.60349C76.0403 8.39016 78.8382 11.971 80.142 13.143L80.3253 13.1438Z" fill="#F68484"/>
<path d="M73.383 12.1823C74.1661 10.1407 72.2203 6.56872 69.2776 8.28836C66.344 10.0049 71.8319 11.6963 73.383 12.1823Z" fill="#F68484"/>
<path d="M64.3396 29.8545C65.6256 30.1756 71.8218 32.1602 69.3864 34.0061C66.7941 35.9687 64.0422 31.6907 64.3396 29.8545Z" fill="#F68484"/>
<path d="M83.6257 24.6529C83.5449 22.6103 83.1845 22.5441 81.7407 21.699C80.9032 21.2082 80.2102 21.0639 79.4117 20.8914C78.8323 20.7665 78.1978 20.6255 77.4133 20.3283C75.5446 19.6164 74.1068 19.1814 72.022 19.0079C69.9369 18.8357 69.582 19.2224 67.8534 19.0436C66.1309 18.8678 65.339 18.8198 63.9717 18.637C62.6068 18.4508 62.1306 19.0479 62.7662 20.4522C63.4049 21.8547 62.3102 22.2156 63.4143 22.9739C64.5213 23.726 63.9212 23.3485 65.8417 24.0991C67.7597 24.8491 68.0479 24.8449 69.7041 25.2114C71.3584 25.5801 71.932 25.495 74.5943 25.8315C77.2543 26.166 78.04 25.8714 79.4034 25.5589C80.7632 25.2441 82.0554 24.8519 82.7733 24.9752C83.4922 25.0947 83.6257 24.6529 83.6257 24.6529" fill="#F68484"/>
<path d="M49.5643 8.5415C50.2774 8.60557 50.9561 8.61213 51.6425 8.53376C53.1256 8.3666 50.6546 7.02259 50.405 5.74926L49.5643 8.5415Z" fill="#B21E10"/>
<path d="M14.4484 34.6063L14.5819 34.6697C15.7568 35.2357 16.9586 35.7372 18.179 36.1898L18.2474 44.3523C17.0284 43.8945 15.8242 43.3966 14.651 42.8296L14.326 42.6721C14.3897 39.9823 14.4301 37.2917 14.4484 34.6063" fill="#B21E10"/>
<path d="M8.72066 31.3475C8.7019 33.9624 8.59396 36.6114 8.45507 39.2728C5.83352 37.3418 3.68842 34.869 3.66311 31.7592L3.59275 23.5989C3.62074 26.8379 5.94927 29.3832 8.72066 31.3475" fill="#B21E10"/>
<path d="M86.5642 40.928C90.8248 40.4201 94.8743 39.7727 98.6422 39.0072L98.7113 47.1671C94.9297 47.9373 90.8624 48.584 86.583 49.0951C86.5745 46.3707 86.5682 43.6484 86.5642 40.928" fill="#F61A1A"/>
<path d="M80.8228 41.5167C80.8262 44.2397 80.8313 46.9563 80.8398 49.6806C79.7505 49.7739 78.6529 49.8621 77.5401 49.9353L77.4707 41.7766C78.6027 41.699 79.7148 41.6132 80.8228 41.5167" fill="#F61A1A"/>
<path d="M116.882 41.5906C116.888 41.5882 116.896 41.5847 116.901 41.5819C116.894 41.5857 116.889 41.5885 116.882 41.5906ZM116.91 41.5775C116.916 41.575 116.924 41.5716 116.931 41.5678C116.924 41.5716 116.916 41.575 116.91 41.5775ZM116.934 41.566C116.942 41.5625 116.949 41.5604 116.956 41.5566C116.949 41.5604 116.941 41.5638 116.934 41.566ZM116.962 41.5529C123.625 38.4543 127.523 34.7532 127.552 30.8021C127.523 34.7532 123.625 38.4543 116.962 41.5529ZM127.552 30.7979C127.551 30.7949 127.551 30.7895 127.552 30.7869C127.551 30.7895 127.552 30.7937 127.552 30.7979ZM127.552 30.7827C127.552 30.7785 127.551 30.7743 127.552 30.7704C127.551 30.7743 127.552 30.7785 127.552 30.7827ZM127.552 30.7662C127.552 30.762 127.552 30.7578 127.552 30.7552C127.552 30.7578 127.552 30.762 127.552 30.7662ZM127.552 30.7481C127.552 30.7455 127.552 30.7426 127.553 30.7387C127.552 30.7426 127.552 30.7455 127.552 30.7481ZM127.552 30.7316C127.552 30.7274 127.552 30.7261 127.552 30.7219C127.552 30.7261 127.551 30.7286 127.552 30.7316ZM127.552 30.7067L127.484 22.7418C127.484 22.7376 127.484 22.7363 127.484 22.7321L127.552 30.7067V30.7067ZM127.485 22.5255C127.485 22.5225 127.485 22.5183 127.485 22.5158C127.485 22.5183 127.485 22.5225 127.485 22.5255ZM127.484 22.5044C127.485 22.5005 127.485 22.4976 127.484 22.4934C127.485 22.4976 127.485 22.5005 127.484 22.5044ZM127.484 22.4795C127.485 22.4769 127.484 22.474 127.485 22.4714C127.484 22.474 127.485 22.4769 127.484 22.4795ZM127.483 22.4517C127.483 22.4504 127.484 22.4491 127.483 22.4475C127.484 22.4491 127.483 22.4504 127.483 22.4517Z" fill="#D9D9D9"/>
<path d="M94.3913 38.3968C93.2002 37.5048 92.0208 36.5952 90.8536 35.671C91.5599 35.5027 92.2069 35.262 92.8443 34.882C94.8284 33.6951 93.5464 32.9623 90.8039 31.5856C88.0651 30.2057 88.2068 30.2023 85.6149 29.3352C85.52 29.3029 85.4254 29.2748 85.3288 29.2489C84.6411 29.0646 83.9113 29.032 83.0849 29.0769C81.8849 27.9865 80.724 26.8942 79.603 25.8029L79.4419 25.6465C79.4146 25.6199 79.3881 25.5949 79.3608 25.5682C79.3754 25.5652 79.39 25.5622 79.4033 25.5589C80.7631 25.2441 82.0553 24.8518 82.7732 24.9752C83.4921 25.0946 83.6257 24.6528 83.6257 24.6528C83.5449 22.6103 83.1844 22.5441 81.7406 21.699C81.2109 21.3886 80.738 21.2164 80.2602 21.0884C79.9833 21.0142 79.7052 20.9548 79.4116 20.8913C79.1193 20.8282 78.8116 20.7609 78.478 20.6715C78.1522 20.5842 77.8005 20.4748 77.4133 20.3283C76.5392 19.9947 75.7578 19.7218 74.9619 19.5085C74.412 19.3612 73.8545 19.2422 73.2521 19.1512C73.0541 18.9269 72.8586 18.7034 72.6648 18.4789L72.5303 18.3214C71.898 17.5902 71.287 16.8619 70.7002 16.1415L70.5962 16.0142C70.4074 15.7814 70.2211 15.5493 70.0374 15.3178C71.3045 15.3233 72.3922 15.2614 73.1062 15.1573C75.5637 14.8054 79.4158 14.8589 84.2995 16.1674C84.3549 16.1823 84.409 16.1968 84.4643 16.2116C86.5512 16.7791 89.8686 18.6839 90.9593 20.2337C91.9241 21.5992 92.5605 22.8147 91.9987 24.1798C91.4363 25.542 91.6304 26.1779 93.1713 27.016C94.711 27.8537 96.8205 28.8054 99.6519 29.8967C100.049 30.0486 100.447 30.176 100.842 30.2819C104.18 31.1764 107.348 30.5786 107.348 30.5786C112.889 29.1605 116.695 28.347 118.033 25.2766C118.554 24.0829 119.086 23.0934 119.335 22.1635C119.725 20.7001 119.416 19.3805 117.267 17.6312C113.753 14.7709 108.22 13.0248 104.726 11.789C104.676 11.7714 104.625 11.7537 104.575 11.736C104.531 11.7201 104.485 11.7051 104.441 11.6892C104.44 11.6888 104.44 11.6888 104.438 11.6885C102.465 11.0052 99.9476 10.2781 97.507 9.62419C97.5057 9.62384 97.5045 9.6235 97.5019 9.62281C97.5006 9.62246 97.4993 9.62212 97.498 9.62178C94.7355 8.88155 92.0745 8.23618 90.4156 7.8538C90.3844 7.8468 90.3557 7.8405 90.3257 7.83385C83.6438 6.2919 76.4883 6.25464 72.3094 6.13291C70.0901 6.06971 66.8369 6.07871 63.9062 6.28039C63.2046 4.99913 62.615 3.76861 62.144 2.60023C64.1332 2.47619 66.0595 2.42222 67.6811 2.4081C81.7997 2.28887 94.4328 3.89601 104.41 6.56944C110.991 8.33286 116.418 10.5613 120.352 13.0619C122.647 15.2148 124.783 17.3689 126.751 19.4974C127.208 20.4702 127.46 21.4545 127.483 22.4474C127.484 22.4491 127.483 22.4504 127.483 22.4517C127.484 22.4588 127.484 22.4656 127.485 22.4714C127.484 22.474 127.485 22.4769 127.484 22.4795C127.484 22.4837 127.484 22.4892 127.484 22.4934C127.485 22.4976 127.485 22.5005 127.484 22.5044C127.484 22.5086 127.485 22.5115 127.485 22.5157C127.485 22.5183 127.485 22.5225 127.485 22.5254C127.485 22.5322 127.485 22.539 127.485 22.5461L127.483 22.5856L127.484 22.7321C127.484 22.7363 127.484 22.7376 127.484 22.7418L127.482 22.548C127.48 22.3002 127.45 22.0562 127.419 21.8118C126.687 28.9068 113.503 35.1293 94.3913 38.3968Z" fill="#CC4E4E"/>
<path d="M95.9263 39.5301C95.4122 39.1563 94.9008 38.7777 94.3913 38.3969C113.503 35.1293 126.687 28.9068 127.419 21.8118C127.45 22.0562 127.48 22.3002 127.482 22.548C127.487 23.1057 127.414 23.6588 127.268 24.2065C125.62 30.3575 114.603 35.7636 98.6421 39.0127L98.6422 39.0072C97.7516 39.1882 96.8463 39.3625 95.9263 39.5301Z" fill="#D17070"/>
<path d="M105.098 45.6885C102.914 44.3467 100.768 42.9409 98.6633 41.4782L98.6421 39.0127C114.603 35.7636 125.62 30.3575 127.268 24.2065C127.414 23.6588 127.487 23.1057 127.482 22.548L127.484 22.7418L127.552 30.7066C127.551 30.7121 127.551 30.7176 127.552 30.7219C127.552 30.7261 127.552 30.7273 127.552 30.7315C127.552 30.7345 127.552 30.7358 127.553 30.7387C127.552 30.7425 127.552 30.7455 127.552 30.748C127.552 30.751 127.552 30.7523 127.552 30.7552C127.552 30.7578 127.552 30.7619 127.552 30.7662C127.552 30.7674 127.551 30.7687 127.552 30.7704C127.551 30.7742 127.552 30.7784 127.552 30.7827C127.552 30.7839 127.551 30.7852 127.552 30.7869C127.551 30.7894 127.551 30.7949 127.552 30.7978C127.552 30.7991 127.551 30.8004 127.552 30.8021C127.523 34.7532 123.625 38.4543 116.962 41.5528C116.961 41.5538 116.959 41.556 116.956 41.5566C116.949 41.5603 116.942 41.5625 116.934 41.5659C116.934 41.5672 116.932 41.5682 116.931 41.5678C116.924 41.5716 116.916 41.575 116.91 41.5775C116.907 41.5794 116.904 41.58 116.901 41.5819C116.896 41.5847 116.888 41.5881 116.882 41.5906C113.582 43.1179 109.609 44.4981 105.098 45.6885" fill="#BB1810"/>
<path d="M100.842 30.2819C100.447 30.176 100.049 30.0487 99.6519 29.8968C96.8205 28.8054 94.711 27.8537 93.1713 27.016C91.6304 26.1779 91.4363 25.5421 91.9987 24.1799C92.5605 22.8147 91.9241 21.5993 90.9593 20.2337C89.8686 18.6839 86.5512 16.7791 84.4643 16.2117C84.409 16.1968 84.3549 16.1823 84.2995 16.1675C79.4158 14.8589 75.5637 14.8054 73.1062 15.1573C72.3922 15.2614 71.3045 15.3233 70.0374 15.3179C69.6431 14.8216 69.2594 14.3267 68.887 13.8363L68.6819 13.5661C66.8638 11.1505 65.3279 8.82577 64.108 6.64509C65.7299 6.61448 67.2656 6.62704 68.4886 6.66346C72.6678 6.78389 79.8226 6.82373 86.5085 8.36122C88.1584 8.74118 90.8648 9.39735 93.6762 10.1507C96.2392 10.8374 98.8906 11.6058 100.906 12.317C104.4 13.5527 109.931 15.3027 113.446 18.1646C116.959 21.0246 115.551 22.7345 114.212 25.8071C112.986 28.6259 109.664 29.5467 104.849 30.7705C106.334 30.7692 107.348 30.5787 107.348 30.5787C107.348 30.5787 104.18 31.1764 100.842 30.2819V30.2819ZM95.5031 21.8681C95.1093 22.0345 94.7474 22.2053 94.4267 22.372C95.5427 23.4413 96.9648 24.1716 98.5195 24.6696C98.5639 24.6843 98.6125 24.6986 98.664 24.7124C100.365 25.1683 105.607 25.2917 105.557 23.3943C106.243 22.9595 106.415 22.2784 105.571 21.2515C105.002 20.5592 104.243 20.1308 103.381 19.9C100.698 19.1812 97.0247 20.3778 95.0095 21.4335C95.1676 21.585 95.3318 21.7297 95.5031 21.8681V21.8681ZM68.4322 9.39807C66.1174 11.0568 71.2996 12.6524 72.8008 13.1237C72.9256 12.7968 72.981 12.4307 72.9731 12.0531C73.1281 12.103 73.2671 12.1457 73.383 12.1823C73.957 10.6838 73.0624 8.36111 71.3829 7.91111C70.7738 7.74788 70.0615 7.83032 69.2776 8.28836C68.636 8.66309 68.3975 9.03816 68.4322 9.39807V9.39807ZM92.0569 15.8746C91.5997 16.4478 91.3012 17.1187 91.0809 17.812C92.8979 17.8157 97.8742 18.3665 98.2138 16.1564C98.5814 15.8767 98.8067 15.4994 98.8145 14.9963C98.8288 14.0877 98.2795 13.5982 97.517 13.3939C96.2703 13.0599 94.452 13.4837 93.5721 14.0734C92.8685 14.546 92.3957 15.1772 92.0569 15.8746V15.8746ZM77.8024 8.94375C76.1111 10.1608 78.4122 13.0509 79.5581 14.0854L79.7413 14.082C80.2844 13.6933 80.8687 12.9858 81.2561 12.2048C81.9364 11.309 82.4487 10.0976 82.2328 9.14669C82.0696 8.43209 81.349 7.85528 80.5363 7.63752C80.1345 7.52985 79.7121 7.50914 79.3224 7.6035C78.3281 7.84228 77.8919 8.33689 77.8024 8.94375ZM86.2515 10.6238C84.7681 11.6674 86.339 14.3825 87.2044 15.6759C87.5918 15.3477 88.102 14.6699 88.5212 13.8988C89.5927 12.3984 90.6774 9.76679 89.0199 9.32266C88.7005 9.23707 88.2821 9.2326 87.7406 9.33184C86.7864 9.50822 86.3604 9.9959 86.2515 10.6238V10.6238ZM119.335 22.1636C119.725 20.7002 119.416 19.3806 117.267 17.6312C113.753 14.7709 108.22 13.0248 104.726 11.7891C104.676 11.7714 104.625 11.7537 104.575 11.7361C104.625 11.7537 104.676 11.7714 104.726 11.7891C108.22 13.0248 113.753 14.7709 117.267 17.6312C119.416 19.3806 119.725 20.7002 119.335 22.1636ZM63.9062 6.28042C66.8369 6.07875 70.0901 6.06974 72.3094 6.13295C76.4883 6.25467 83.6438 6.29194 90.3257 7.83389C83.6438 6.29194 76.4883 6.25467 72.3094 6.13295C70.0901 6.06974 66.8369 6.07875 63.9062 6.28042ZM104.441 11.6892C104.44 11.6888 104.44 11.6888 104.438 11.6885C104.44 11.6888 104.44 11.6888 104.441 11.6892ZM90.4156 7.85383C92.0745 8.23621 94.7355 8.88159 97.498 9.62181C94.7368 8.88193 92.0745 8.23621 90.4156 7.85383ZM97.507 9.62422C97.5057 9.62388 97.5044 9.62353 97.5019 9.62284C97.5044 9.62353 97.5057 9.62388 97.507 9.62422Z" fill="#A61619"/>
<path d="M104.85 30.7704C109.664 29.5467 112.986 28.6259 114.212 25.8071C115.551 22.7345 116.959 21.0246 113.446 18.1646C109.931 15.3027 104.4 13.5527 100.906 12.317C98.8906 11.6058 96.2392 10.8374 93.6763 10.1507C90.8648 9.39733 88.1584 8.74117 86.5085 8.3612C79.8226 6.82371 72.6678 6.78388 68.4886 6.66344C67.2657 6.62702 65.7299 6.61446 64.1081 6.64507C64.0399 6.52329 63.9718 6.4015 63.9062 6.28041C66.837 6.07873 70.0901 6.06973 72.3094 6.13294C76.4883 6.25466 83.6438 6.29192 90.3257 7.83387C90.3557 7.84052 90.3844 7.84683 90.4156 7.85382C92.0745 8.2362 94.7368 8.88192 97.498 9.6218C97.4993 9.62214 97.5006 9.62249 97.5019 9.62283C97.5045 9.62352 97.5058 9.62387 97.507 9.62421C99.9476 10.2782 102.465 11.0052 104.438 11.6885C104.44 11.6888 104.44 11.6888 104.441 11.6892C104.485 11.7051 104.531 11.7201 104.575 11.736C104.625 11.7537 104.676 11.7714 104.726 11.7891C108.22 13.0248 113.753 14.7709 117.267 17.6312C119.416 19.3805 119.725 20.7002 119.335 22.1636C119.086 23.0934 118.554 24.0829 118.033 25.2766C116.695 28.3471 112.889 29.1605 107.348 30.5786C107.348 30.5786 106.334 30.7692 104.85 30.7704" fill="#971A0E"/>
<path d="M90.8536 35.671C90.8491 35.667 90.8447 35.6631 90.8402 35.6592C91.1172 35.594 91.385 35.5166 91.6469 35.4253C91.3349 35.4563 91.009 35.4877 90.6695 35.5237C90.2383 35.1804 89.8091 34.8348 89.3802 34.488C87.8044 33.2086 86.2843 31.9165 84.8096 30.62L84.808 30.6209L84.6732 30.5006C84.1362 30.0268 83.6063 29.5521 83.0849 29.077C83.9114 29.032 84.6411 29.0646 85.3288 29.2489C85.4254 29.2748 85.52 29.3029 85.6149 29.3352C88.2068 30.2023 88.0651 30.2057 90.804 31.5856C93.5464 32.9623 94.8284 33.6951 92.8443 34.882C92.2069 35.262 91.5599 35.5027 90.8536 35.671" fill="#A61619"/>
<path d="M90.8402 35.6592C90.783 35.6149 90.7262 35.5692 90.6694 35.5237C91.009 35.4876 91.3349 35.4563 91.6469 35.4253C91.385 35.5166 91.1172 35.594 90.8402 35.6592Z" fill="#971A0E"/>
<path d="M98.664 24.7124C98.6125 24.6986 98.5639 24.6842 98.5195 24.6695C96.9648 24.1715 95.5427 23.4412 94.4267 22.3719C94.7475 22.2053 95.1093 22.0344 95.5031 21.868C96.5331 22.7017 97.7683 23.3004 99.1048 23.7317C99.1479 23.746 99.1953 23.7601 99.2455 23.7736C100.585 24.1325 104.151 24.2846 105.557 23.3943C105.607 25.2917 100.365 25.1682 98.664 24.7124" fill="#971A0E"/>
<path d="M91.0809 17.812C91.3012 17.1187 91.5997 16.4477 92.057 15.8746C91.9018 16.196 91.7746 16.5319 91.6653 16.8725C93.1566 16.8759 96.7769 17.2483 98.2138 16.1564C97.8742 18.3664 92.8979 17.8157 91.0809 17.812" fill="#971A0E"/>
<path d="M87.2044 15.6759C86.339 14.3825 84.7681 11.6674 86.2515 10.6238C86.0338 11.8947 87.1205 13.7375 87.79 14.7368C88.0075 14.5535 88.2635 14.2577 88.5212 13.8988C88.102 14.6699 87.5918 15.3476 87.2044 15.6759" fill="#971A0E"/>
<path d="M79.5581 14.0853C78.4122 13.0508 76.1111 10.1608 77.8024 8.94372C77.5985 10.3385 79.2329 12.3266 80.1419 13.143L80.3253 13.1438C80.6363 12.9207 80.9617 12.5924 81.2561 12.2047C80.8687 12.9858 80.2843 13.6933 79.7412 14.082L79.5581 14.0853Z" fill="#971A0E"/>
<path d="M72.8008 13.1236C71.2996 12.6524 66.1174 11.0568 68.4322 9.39804C68.5439 10.5626 71.5103 11.588 72.9731 12.0531C72.981 12.4307 72.9256 12.7968 72.8008 13.1236" fill="#971A0E"/>
<path d="M99.2455 23.7736C99.1953 23.7601 99.1479 23.7461 99.1048 23.7318C97.7683 23.3005 96.5331 22.7017 95.5031 21.8681C95.3318 21.7297 95.1677 21.5849 95.0095 21.4335C97.0247 20.3778 100.698 19.1811 103.381 19.9C104.243 20.1308 105.002 20.5592 105.571 21.2515C106.415 22.2784 106.243 22.9595 105.557 23.3943C104.151 24.2847 100.585 24.1325 99.2455 23.7736" fill="#D17070"/>
<path d="M91.6653 16.8726C91.7746 16.5319 91.9018 16.196 92.057 15.8746C92.3957 15.1772 92.8685 14.546 93.5721 14.0734C94.4521 13.4837 96.2704 13.0599 97.5171 13.3939C98.2795 13.5982 98.8289 14.0877 98.8146 14.9963C98.8067 15.4994 98.5814 15.8767 98.2138 16.1564C96.7769 17.2484 93.1566 16.876 91.6653 16.8726" fill="#D17070"/>
<path d="M87.7901 14.7368C87.1206 13.7375 86.0338 11.8947 86.2515 10.6238C86.3604 9.99587 86.7865 9.5082 87.7407 9.33181C88.2821 9.23257 88.7006 9.23705 89.02 9.32263C90.6775 9.76677 89.5928 12.3983 88.5212 13.8988C88.2636 14.2577 88.0076 14.5535 87.7901 14.7368" fill="#D17070"/>
<path d="M80.1419 13.143C79.2329 12.3266 77.5985 10.3385 77.8024 8.94374C77.8919 8.33687 78.3281 7.84226 79.3224 7.60348C79.7121 7.50913 80.1345 7.52984 80.5363 7.63751C81.349 7.85526 82.0696 8.43207 82.2328 9.14668C82.4487 10.0976 81.9364 11.309 81.2561 12.2047C80.9617 12.5924 80.6363 12.9207 80.3253 13.1438L80.1419 13.143Z" fill="#D17070"/>
<path d="M73.383 12.1823C73.2672 12.1457 73.1282 12.103 72.9731 12.0531C71.5103 11.588 68.544 10.5627 68.4323 9.39809C68.3976 9.03818 68.6361 8.66311 69.2776 8.28838C70.0615 7.83033 70.7738 7.7479 71.383 7.91112C73.0624 8.36112 73.9571 10.6838 73.383 12.1823Z" fill="#D17070"/>
<path d="M79.3608 25.5682C77.7744 24.014 76.2706 22.4653 74.8572 20.9299L74.7136 20.7755C74.2146 20.2318 73.7276 19.6899 73.2522 19.1512C73.8545 19.2422 74.412 19.3612 74.9619 19.5086C75.7579 19.7218 76.5392 19.9947 77.4133 20.3283C77.8006 20.4749 78.1522 20.5843 78.4781 20.6716C78.8116 20.7609 79.1194 20.8282 79.4117 20.8914C79.7052 20.9548 79.9834 21.0142 80.2603 21.0884C80.7381 21.2164 81.2109 21.3886 81.7407 21.699C83.1845 22.5441 83.5449 22.6103 83.6257 24.6528C83.6257 24.6528 83.4922 25.0947 82.7732 24.9752C82.0554 24.8519 80.7632 25.2441 79.4033 25.5589C79.39 25.5622 79.3754 25.5652 79.3608 25.5682" fill="#D17070"/>
<path d="M98.6634 41.4782C97.7439 40.8398 96.8302 40.1905 95.9263 39.5301C96.8464 39.3625 97.7517 39.1882 98.6422 39.0072L98.6421 39.0127L98.6634 41.4782" fill="#D11616"/>
</svg>
