<svg width="28" height="28" viewBox="0 0 28 28" fill="none" xmlns="http://www.w3.org/2000/svg">
<path d="M1.39533 2.79047C2.1659 2.79047 2.79056 2.1658 2.79056 1.39523C2.79056 0.624668 2.1659 0 1.39533 0C0.624762 0 9.40807e-05 0.624668 9.40807e-05 1.39523C9.40807e-05 2.1658 0.624762 2.79047 1.39533 2.79047Z" fill="#F49521"/>
<path d="M5.53879 7.01842C6.30936 7.01842 6.93402 6.39375 6.93402 5.62318C6.93402 4.85261 6.30936 4.22795 5.53879 4.22795C4.76822 4.22795 4.14356 4.85261 4.14356 5.62318C4.14356 6.39375 4.76822 7.01842 5.53879 7.01842Z" fill="#F49521"/>
<path d="M5.53879 2.79047C6.30936 2.79047 6.93402 2.1658 6.93402 1.39523C6.93402 0.624668 6.30936 0 5.53879 0C4.76822 0 4.14356 0.624668 4.14356 1.39523C4.14356 2.1658 4.76822 2.79047 5.53879 2.79047Z" fill="#F49521"/>
<path d="M9.76693 7.01842C10.5375 7.01842 11.1622 6.39375 11.1622 5.62318C11.1622 4.85261 10.5375 4.22795 9.76693 4.22795C8.99636 4.22795 8.37169 4.85261 8.37169 5.62318C8.37169 6.39375 8.99636 7.01842 9.76693 7.01842Z" fill="#F49521"/>
<path d="M9.76693 11.1619C10.5375 11.1619 11.1622 10.5372 11.1622 9.76664C11.1622 8.99608 10.5375 8.37141 9.76693 8.37141C8.99636 8.37141 8.37169 8.99608 8.37169 9.76664C8.37169 10.5372 8.99636 11.1619 9.76693 11.1619Z" fill="#F49521"/>
<path d="M9.76693 2.79047C10.5375 2.79047 11.1622 2.1658 11.1622 1.39523C11.1622 0.624668 10.5375 0 9.76693 0C8.99636 0 8.37169 0.624668 8.37169 1.39523C8.37169 2.1658 8.99636 2.79047 9.76693 2.79047Z" fill="#F49521"/>
<path d="M13.9104 7.01842C14.681 7.01842 15.3056 6.39375 15.3056 5.62318C15.3056 4.85261 14.681 4.22795 13.9104 4.22795C13.1398 4.22795 12.5152 4.85261 12.5152 5.62318C12.5152 6.39375 13.1398 7.01842 13.9104 7.01842Z" fill="#F49521"/>
<path d="M13.9104 11.1619C14.681 11.1619 15.3056 10.5372 15.3056 9.76664C15.3056 8.99608 14.681 8.37141 13.9104 8.37141C13.1398 8.37141 12.5152 8.99608 12.5152 9.76664C12.5152 10.5372 13.1398 11.1619 13.9104 11.1619Z" fill="#F49521"/>
<path d="M13.9104 2.79047C14.681 2.79047 15.3056 2.1658 15.3056 1.39523C15.3056 0.624668 14.681 0 13.9104 0C13.1398 0 12.5152 0.624668 12.5152 1.39523C12.5152 2.1658 13.1398 2.79047 13.9104 2.79047Z" fill="#F49521"/>
<path d="M18.0538 7.01842C18.8244 7.01842 19.4491 6.39375 19.4491 5.62318C19.4491 4.85261 18.8244 4.22795 18.0538 4.22795C17.2833 4.22795 16.6586 4.85261 16.6586 5.62318C16.6586 6.39375 17.2833 7.01842 18.0538 7.01842Z" fill="#F49521"/>
<path d="M18.0538 11.1619C18.8244 11.1619 19.4491 10.5372 19.4491 9.76664C19.4491 8.99608 18.8244 8.37141 18.0538 8.37141C17.2833 8.37141 16.6586 8.99608 16.6586 9.76664C16.6586 10.5372 17.2833 11.1619 18.0538 11.1619Z" fill="#F49521"/>
<path d="M13.9104 15.3054C14.681 15.3054 15.3056 14.6808 15.3056 13.9102C15.3056 13.1396 14.681 12.515 13.9104 12.515C13.1398 12.515 12.5152 13.1396 12.5152 13.9102C12.5152 14.6808 13.1398 15.3054 13.9104 15.3054Z" fill="#F49521"/>
<path d="M18.0538 15.3054C18.8244 15.3054 19.4491 14.6808 19.4491 13.9102C19.4491 13.1396 18.8244 12.515 18.0538 12.515C17.2833 12.515 16.6586 13.1396 16.6586 13.9102C16.6586 14.6808 17.2833 15.3054 18.0538 15.3054Z" fill="#F49521"/>
<path d="M9.76693 19.5334C10.5375 19.5334 11.1623 18.9087 11.1623 18.1381C11.1623 17.3674 10.5375 16.7427 9.76693 16.7427C8.99631 16.7427 8.3716 17.3674 8.3716 18.1381C8.3716 18.9087 8.99631 19.5334 9.76693 19.5334Z" fill="#F49521"/>
<path d="M13.9104 19.5334C14.681 19.5334 15.3057 18.9087 15.3057 18.1381C15.3057 17.3674 14.681 16.7427 13.9104 16.7427C13.1398 16.7427 12.5151 17.3674 12.5151 18.1381C12.5151 18.9087 13.1398 19.5334 13.9104 19.5334Z" fill="#F49521"/>
<path d="M18.0538 19.5334C18.8245 19.5334 19.4492 18.9087 19.4492 18.1381C19.4492 17.3674 18.8245 16.7427 18.0538 16.7427C17.2832 16.7427 16.6585 17.3674 16.6585 18.1381C16.6585 18.9087 17.2832 19.5334 18.0538 19.5334Z" fill="#F49521"/>
<path d="M5.53879 23.682C6.30936 23.682 6.93402 23.0573 6.93402 22.2868C6.93402 21.5162 6.30936 20.8915 5.53879 20.8915C4.76822 20.8915 4.14356 21.5162 4.14356 22.2868C4.14356 23.0573 4.76822 23.682 5.53879 23.682Z" fill="#F49521"/>
<path d="M9.76693 23.682C10.5375 23.682 11.1622 23.0573 11.1622 22.2868C11.1622 21.5162 10.5375 20.8915 9.76693 20.8915C8.99636 20.8915 8.37169 21.5162 8.37169 22.2868C8.37169 23.0573 8.99636 23.682 9.76693 23.682Z" fill="#F49521"/>
<path d="M13.9104 23.682C14.681 23.682 15.3056 23.0573 15.3056 22.2868C15.3056 21.5162 14.681 20.8915 13.9104 20.8915C13.1398 20.8915 12.5152 21.5162 12.5152 22.2868C12.5152 23.0573 13.1398 23.682 13.9104 23.682Z" fill="#F49521"/>
<path d="M18.0538 23.682C18.8244 23.682 19.4491 23.0573 19.4491 22.2868C19.4491 21.5162 18.8244 20.8915 18.0538 20.8915C17.2833 20.8915 16.6586 21.5162 16.6586 22.2868C16.6586 23.0573 17.2833 23.682 18.0538 23.682Z" fill="#F49521"/>
<path d="M22.3717 11.1619C23.1423 11.1619 23.767 10.5372 23.767 9.76664C23.767 8.99608 23.1423 8.37141 22.3717 8.37141C21.6012 8.37141 20.9765 8.99608 20.9765 9.76664C20.9765 10.5372 21.6012 11.1619 22.3717 11.1619Z" fill="#F49521"/>
<path d="M22.3717 15.3054C23.1423 15.3054 23.767 14.6808 23.767 13.9102C23.767 13.1396 23.1423 12.515 22.3717 12.515C21.6012 12.515 20.9765 13.1396 20.9765 13.9102C20.9765 14.6808 21.6012 15.3054 22.3717 15.3054Z" fill="#F49521"/>
<path d="M22.3717 19.5334C23.1424 19.5334 23.7671 18.9087 23.7671 18.1381C23.7671 17.3674 23.1424 16.7427 22.3717 16.7427C21.6011 16.7427 20.9764 17.3674 20.9764 18.1381C20.9764 18.9087 21.6011 19.5334 22.3717 19.5334Z" fill="#F49521"/>
<path d="M1.39533 28C2.16595 28 2.79066 27.3753 2.79066 26.6047C2.79066 25.8341 2.16595 25.2093 1.39533 25.2093C0.62471 25.2093 0 25.8341 0 26.6047C0 27.3753 0.62471 28 1.39533 28Z" fill="#F49521"/>
<path d="M5.53879 28C6.30941 28 6.93412 27.3753 6.93412 26.6047C6.93412 25.8341 6.30941 25.2093 5.53879 25.2093C4.76817 25.2093 4.14346 25.8341 4.14346 26.6047C4.14346 27.3753 4.76817 28 5.53879 28Z" fill="#F49521"/>
<path d="M9.76693 28C10.5375 28 11.1623 27.3753 11.1623 26.6047C11.1623 25.8341 10.5375 25.2093 9.76693 25.2093C8.99631 25.2093 8.3716 25.8341 8.3716 26.6047C8.3716 27.3753 8.99631 28 9.76693 28Z" fill="#F49521"/>
<path d="M13.9104 28C14.681 28 15.3057 27.3753 15.3057 26.6047C15.3057 25.8341 14.681 25.2093 13.9104 25.2093C13.1398 25.2093 12.5151 25.8341 12.5151 26.6047C12.5151 27.3753 13.1398 28 13.9104 28Z" fill="#F49521"/>
<path d="M26.5204 15.3054C27.2909 15.3054 27.9156 14.6808 27.9156 13.9102C27.9156 13.1396 27.2909 12.515 26.5204 12.515C25.7498 12.515 25.1251 13.1396 25.1251 13.9102C25.1251 14.6808 25.7498 15.3054 26.5204 15.3054Z" fill="#F49521"/>
</svg>
