<svg width="14" height="84" viewBox="0 0 14 84" fill="none" xmlns="http://www.w3.org/2000/svg">
<path d="M7.00009 84C7.39829 84 7.75811 83.7762 7.9148 83.4311L13.3192 71.5374C13.4794 71.1847 13.3958 70.7754 13.1081 70.5041L7.99521 65.6817L7.99511 15.4865L13.7085 10.0978C14.0972 9.73123 14.0972 9.13691 13.7085 8.77036C13.3199 8.40382 12.6898 8.40382 12.3011 8.77036L7.99511 12.8317V11.2388L13.7085 5.85005C14.0972 5.48351 14.0972 4.88918 13.7085 4.52263C13.3199 4.15609 12.6898 4.15609 12.3011 4.52263L7.99511 8.58399V6.99109L13.7085 1.60232C14.0972 1.23578 14.0972 0.641451 13.7085 0.274908C13.3199 -0.0916359 12.6898 -0.0916359 12.3011 0.274908L7 5.27484L1.69885 0.274908C1.31023 -0.0916359 0.680095 -0.0916359 0.291469 0.274908C-0.0971564 0.641451 -0.0971564 1.23578 0.291469 1.60232L6.00489 6.9911V8.58399L1.69885 4.52263C1.31023 4.15609 0.680095 4.15609 0.291469 4.52263C-0.0971564 4.88918 -0.0971564 5.48351 0.291469 5.85005L6.00489 11.2388V12.8317L1.69885 8.77036C1.31023 8.40382 0.680095 8.40382 0.291469 8.77036C-0.0971564 9.13691 -0.0971564 9.73123 0.291469 10.0978L6.00489 15.4866V65.6816L0.891953 70.504C0.604189 70.7754 0.520592 71.1847 0.68094 71.5373L6.08529 83.431C6.24208 83.7762 6.6019 84 7.00009 84ZM2.77569 71.3821L6.00479 68.3365L6.00479 74.566C6.00479 75.0844 6.45037 75.5046 6.99991 75.5045C7.54954 75.5045 7.99511 75.0843 7.99502 74.566L7.99521 68.3365L11.2243 71.3821L7.0001 80.6786L2.77569 71.3821Z" fill="#F7F7F6"/>
</svg>
