<svg width="97" height="100" viewBox="0 0 97 100" fill="none" xmlns="http://www.w3.org/2000/svg">
<path d="M96.0312 65.376C94.7655 44.558 78.609 38.1324 60.0731 40.558C54.2473 41.3187 46.7104 43.5304 42.5979 48.0265C34.6068 56.763 34.9199 66.2118 35.3212 77.4246C35.3322 77.709 35.6277 77.8479 36.0357 77.881C36.5472 77.9163 38.1459 79.3738 39.76 81.1974C44.3267 86.3595 49.9386 90.7652 56.7766 92.1655C62.4149 93.3165 69.5241 92.1831 74.5671 94.7785C79.1669 97.1445 82.8868 99.0673 88.0401 99.9405C90.4855 100.353 94.6818 98.6329 94.0313 95.4642C93.6299 93.526 93.5175 92.9438 92.3995 91.2018C88.6465 85.3363 88.9927 82.1213 93.1029 76.5712C95.48 73.3672 96.2738 69.3231 96.0312 65.376ZM38.3797 65.526C38.5031 63.0938 40.19 59.7222 41.8879 57.9758C45.7181 54.0309 49.5219 50.1191 53.2837 46.2537C54.9838 44.5072 55.319 43.3628 54.0643 43.7906C52.8052 44.2162 50.3819 46.0045 48.6244 47.6892C47.039 49.2063 45.2992 50.8711 43.3741 52.7123C42.8074 53.2746 42.2495 53.8303 41.6961 54.3816C40.7699 55.3011 40.0357 55.989 40.0555 55.9229C40.0665 55.881 40.0753 55.8435 40.0908 55.7994C43.5461 45.5061 54.7501 42.1103 64.986 41.7509C67.4204 41.6649 67.9408 43.1092 66.1856 44.8005C63.0743 47.8016 56.8934 53.892 41.491 69.3099C39.7688 71.032 38.2892 70.4587 38.3135 68.0221C38.3157 67.193 38.34 66.3573 38.3797 65.526ZM88.4811 78.7983C85.738 82.5006 85.6564 84.9527 87.4271 89.2834C87.5329 89.537 88.0643 90.2603 88.6729 91.1842C89.3675 92.2338 88.9199 94.075 87.7666 95.2349C86.6178 96.397 85.2881 97.2548 84.8052 97.1291C84.5274 97.0563 84.2385 96.9769 83.932 96.8865C83.6211 96.7961 83.3256 96.6858 83.0301 96.5646C82.5362 96.3661 82.8493 95.4775 83.7137 94.6087C84.5781 93.7377 85.0632 93.0276 84.8096 93.0166C84.5583 93.0034 83.7314 93.6495 82.964 94.4609C82.1944 95.2702 80.5957 95.44 79.4359 94.7542C78.2782 94.0684 77.6233 93.2018 77.9585 92.8424C78.2914 92.4852 77.319 91.9075 75.8262 91.3959C74.3378 90.8799 72.9618 90.5469 72.695 90.816C72.4259 91.0872 70.2694 90.8953 67.8416 90.7586C66.5715 90.6859 65.2815 90.6594 63.9982 90.6219C61.5638 90.5513 60.8074 89.1379 62.2981 87.6406C63.7931 86.1456 64.6619 84.6285 64.2518 84.2404C63.8416 83.8545 62.0643 84.8623 60.2628 86.5028C60.1459 86.6109 60.0335 86.7167 59.9188 86.8204C58.1239 88.4631 56.5649 89.7729 56.437 89.7465C56.362 89.7311 56.287 89.7134 56.2077 89.6936C55.0103 89.3187 53.8659 88.8336 52.7633 88.2691C50.9353 87.3209 51.0191 84.9747 52.792 83.3011C53.6608 82.4808 54.5208 81.6649 55.3808 80.8534C57.1514 79.1798 58.5517 77.7752 58.5142 77.7178C58.4723 77.6583 57.0279 78.988 55.2859 80.6925C54.4215 81.537 53.5616 82.3793 52.6994 83.2195C50.9596 84.9218 47.9188 85.1776 46.1283 83.5304C44.3378 81.881 44.5009 79.0431 46.2892 77.3893C48.7589 75.1092 51.2286 72.827 53.6961 70.5425C55.4844 68.8865 56.9309 66.1853 57.0632 64.5205C57.1999 62.8512 56.0026 62.8578 54.2143 64.5139C50.7082 67.7685 47.2043 71.0232 43.7005 74.2823C41.9144 75.9383 40.0004 76.6881 39.4381 75.9339C38.8758 75.1842 38.4237 74.2911 38.4127 73.9582C38.4017 73.6208 39.8372 71.9957 41.6145 70.333C47.5395 64.8005 53.4756 59.2504 59.3278 53.773C61.1073 52.1081 62.9353 50.2978 63.4403 49.7553C63.7402 49.4356 64.0467 49.118 64.3819 48.7961C64.6751 48.5161 64.9861 48.2448 65.3168 47.9802C65.8504 47.5502 67.5506 46.0684 69.0831 44.6329C70.6134 43.1974 70.6729 43.1577 71.1823 42.7476C71.6895 42.3375 72.2099 41.9802 72.3708 41.9935C72.4723 42.0001 72.5715 42.0089 72.6663 42.0199C89.8857 43.8391 98.6156 65.1291 88.4811 78.7983Z" fill="#B0573A"/>
<path d="M8.01569 71.5965C6.99915 76.247 -3.26546 83.9604 5.79077 86.0883C10.9617 87.3033 17.2108 83.0387 22.5736 79.5392C22.9198 79.3253 23.2682 79.1202 23.6122 78.913C24.1855 78.5712 24.7169 78.2338 24.8007 78.161C24.8823 78.0838 25.7974 77.4775 26.8845 76.8865C27.5945 76.4962 28.2737 76.1699 28.9087 75.9207C29.3917 75.7332 29.8856 75.3782 29.8724 74.8203C29.5945 65.301 30.0532 57.1291 34.8073 49.3826C36.0818 47.3077 38.7831 44.408 40.7654 42.9923C54.9969 32.8248 78.7831 32.311 91.4644 44.4168C92.1899 45.1114 94.2847 44.5954 94.5427 43.5921C100.137 21.6737 83.1006 7.79719 63.7268 2.09487C46.2715 -3.04294 25.5681 1.42012 12.3046 13.8325C5.0675 20.6064 0.952842 30.5557 0.0708131 40.2603C-1.01408 52.2117 10.7676 59.0166 8.01569 71.5965ZM26.6441 65.7597C26.6177 66.0508 26.6177 67.0629 26.6375 68.3066C26.6574 69.7178 25.2417 72.2051 23.46 73.8611C21.3784 75.795 19.2946 77.7288 17.2108 79.6649C15.4269 81.3209 12.7742 83.0982 11.374 82.6792C9.97379 82.2647 10.5625 79.9978 12.3442 78.333C16.0532 74.8733 19.7797 71.3937 23.5173 67.9008C25.2968 66.2382 26.7191 65.0827 26.6882 65.3231C26.6728 65.4642 26.6552 65.612 26.6441 65.7597ZM2.95725 38.0596C3.07633 36.6263 3.33873 35.1798 3.7158 33.7399C4.33101 31.3826 4.96166 29.9582 4.77644 30.4499C4.59342 30.9416 5.8459 29.9405 7.56144 28.2117C14.223 21.4951 20.8933 14.7939 27.5659 8.09487C29.2836 6.3683 29.6276 5.33633 28.3575 5.85672C27.0918 6.37933 24.6949 8.25805 22.9771 9.98462C18.5074 14.4697 14.0399 18.9548 9.57688 23.4444C7.86133 25.1732 7.33873 24.7983 8.61767 22.7255C10.578 19.5392 12.7985 16.6682 14.8779 14.3815C21.4931 7.10038 31.1006 3.68252 40.8095 2.57117C43.2307 2.29333 43.7555 3.55463 41.9606 5.20182C36.5251 10.2007 31.3343 14.9813 26.4611 19.4686C19.8305 25.9736 13.0609 32.6263 6.21194 39.365C4.47434 41.0739 2.75218 40.4852 2.95725 38.0596ZM5.64964 49.4333C5.18658 48.6042 6.23178 46.5182 7.94071 44.7829C9.69816 42.9967 12.2097 40.4411 15.6276 36.9549C18.0796 34.4323 20.4391 32.0111 22.7103 29.6759C24.406 27.9317 25.8393 26.4036 25.9054 26.2603C25.9716 26.1169 24.6552 27.4201 22.9595 29.1687C17.5195 34.7807 11.5107 40.9747 7.88559 44.7211C6.19209 46.4719 4.76541 47.7729 4.69485 47.6186C4.62208 47.4664 5.94512 45.9295 7.64965 44.1875C13.7753 37.9251 19.1425 32.4653 23.4181 28.1522C25.1315 26.4234 27.4313 23.268 28.7764 21.2349C31.5173 17.0872 34.8911 13.473 38.5383 10.8843C39.471 10.2117 40.4347 9.57668 41.4269 8.97911C43.0631 7.99123 45.5835 6.15441 46.9705 4.72773C48.3575 3.30105 50.084 2.15 50.8294 2.17205C51.2814 2.18528 51.7312 2.20292 52.1767 2.22497C52.4413 2.2382 52.7059 2.25584 52.9727 2.27569C53.4093 2.30876 53.3145 2.8005 52.761 3.37161C52.2053 3.94052 53.0918 3.97359 54.7676 3.55022C56.4457 3.12685 59.7797 3.18418 62.1392 3.79278C78.2671 7.96477 92.5251 20.0706 92.3222 36.6814C92.2913 39.1158 90.8977 40.258 89.5195 39.3981C88.1414 38.5359 87.5681 37.4069 88.3222 36.741C89.0785 36.0772 89.299 35.5238 88.8272 35.4995C88.3553 35.4752 87.5129 35.9185 86.9484 36.4609C86.3861 37.0034 84.1502 36.5756 81.8481 35.795C66.2164 30.505 46.0598 34.5028 34.7125 45.3099C34.6463 45.3738 34.6375 45.4179 34.5912 45.4752C31.0499 49.7685 28.9462 53.9449 27.7599 58.7057C27.1689 61.0695 25.546 64.4323 23.8238 66.1544C20.4545 69.5216 16.5427 73.44 12.0025 77.9912C10.2825 79.7156 8.34865 80.6064 7.78195 79.892C7.21745 79.1864 7.7158 77.6583 8.60665 76.4124C9.14027 75.6561 9.62318 74.8711 10.0532 74.0442C10.6684 73.032 11.0785 71.9471 11.3586 70.8225C11.8216 68.9504 13.2571 65.9626 14.955 64.214C17.4732 61.6208 19.976 59.0364 22.4699 56.4763C24.1678 54.7299 25.2593 52.827 24.922 52.2073C24.5846 51.5899 23.546 51.8281 22.5824 52.7498C22.0157 53.2878 21.438 53.8435 20.836 54.4168C18.8977 56.344 16.9903 58.2426 15.1006 60.1257C13.374 61.8435 11.7489 61.2503 10.8382 58.9879C10.7213 58.7057 10.6022 58.4212 10.4765 58.139C9.48426 55.9118 9.8481 52.8402 11.5813 51.1269C14.0047 48.7343 16.428 46.3418 18.8536 43.9515C20.589 42.2404 22.0377 39.2592 22.3376 37.3187C22.6375 35.3782 21.6849 35.2547 19.9892 37.0012C16.514 40.5822 13.0455 44.1676 9.57026 47.7509C7.87677 49.5061 6.11271 50.2625 5.64964 49.4333Z" fill="#B0573A"/>
</svg>
