<svg width="43" height="42" viewBox="0 0 43 42" fill="none" xmlns="http://www.w3.org/2000/svg">
<path d="M36.568 6.15108C32.6019 2.18458 27.3279 0 21.7188 0C16.1096 0 10.8364 2.18458 6.86983 6.15108C2.90333 10.1177 0.71875 15.3908 0.71875 21C0.71875 26.61 2.90333 31.8834 6.86983 35.8496C10.836 39.8158 16.1096 42 21.7188 42C27.3283 42 32.6019 39.8158 36.568 35.8496C40.5342 31.8834 42.7188 26.61 42.7188 21C42.7188 15.3908 40.5342 10.1173 36.568 6.15108ZM35.6399 34.9216C31.9217 38.6398 26.9778 40.6874 21.7188 40.6874C16.4601 40.6874 11.5162 38.6398 7.79791 34.9216C4.07925 31.2034 2.03135 26.2591 2.03135 21C2.03135 15.7417 4.07925 10.7978 7.79791 7.07916C11.5166 3.3605 16.4605 1.3126 21.7188 1.3126C26.9774 1.3126 31.9213 3.3605 35.6399 7.07916C39.3582 10.7974 41.4062 15.7413 41.4062 21C41.4062 26.2595 39.3582 31.2034 35.6399 34.9216Z" fill="#F49521"/>
<path d="M35.9952 9.43119C35.7669 9.14952 35.3535 9.10635 35.0719 9.33501C34.7904 9.56337 34.7475 9.9767 34.9759 10.2579C37.4296 13.2823 38.781 17.0971 38.781 21C38.781 25.5582 37.0062 29.8431 33.7838 33.0655C30.5615 36.2879 26.2765 38.0622 21.7187 38.0622C17.5138 38.0622 13.474 36.5197 10.3441 33.7184C10.0737 33.4765 9.65919 33.4997 9.4173 33.7696C9.17582 34.0396 9.19858 34.4546 9.46857 34.6961C12.8399 37.7134 17.1902 39.3748 21.7187 39.3748C26.627 39.3748 31.2416 37.4638 34.7119 33.9936C38.1821 30.5233 40.0936 25.9086 40.0936 21C40.0936 16.7971 38.638 12.6887 35.9952 9.43119Z" fill="#F49521"/>
<path d="M4.65603 21C4.65603 11.5917 12.3104 3.93728 21.7188 3.93728C25.9237 3.93728 29.9631 5.48018 33.0933 8.28163C33.3632 8.52352 33.7782 8.50025 34.0198 8.23036C34.2617 7.96038 34.2384 7.54541 33.9685 7.30383C30.5976 4.28663 26.2469 2.6252 21.7188 2.6252C16.811 2.6252 12.1967 4.53652 8.72599 8.00724C5.25527 11.4779 3.34395 16.0921 3.34395 21C3.34395 25.2033 4.79948 29.312 7.44221 32.5692C7.57202 32.7294 7.7611 32.8123 7.95213 32.8123C8.09753 32.8123 8.24375 32.7643 8.36547 32.6653C8.64663 32.4371 8.6899 32.0237 8.46165 31.7425C6.00749 28.718 4.65603 24.9028 4.65603 21Z" fill="#F49521"/>
<path d="M27.2342 10.4718H16.2441C13.4575 10.4718 11.1905 12.7389 11.1905 15.5255V26.5154C11.1905 29.3021 13.4575 31.5692 16.2441 31.5692H27.2342C30.0208 31.5692 32.2877 29.3021 32.2877 26.5154V15.5255C32.2877 12.7389 30.0208 10.4718 27.2342 10.4718ZM30.9572 26.5153C30.9572 28.5682 29.287 30.2384 27.2342 30.2384H16.2441C14.1914 30.2384 12.5215 28.5682 12.5215 26.5153V15.5255C12.5215 13.4727 14.1915 11.8028 16.2441 11.8028H27.2342C29.287 11.8028 30.9572 13.4728 30.9572 15.5255V26.5153Z" fill="#F49521"/>
<path d="M27.6354 14.3275C27.1886 14.3275 26.825 14.691 26.825 15.1376C26.825 15.5843 27.1886 15.9477 27.6354 15.9477C28.0821 15.9477 28.4455 15.5843 28.4455 15.1376C28.4455 14.691 28.0821 14.3275 27.6354 14.3275Z" fill="#F49521"/>
<path d="M21.7389 15.8494C18.8878 15.8494 16.5681 18.169 16.5681 21.0202C16.5681 23.8716 18.8878 26.1914 21.7389 26.1914C24.5903 26.1914 26.9102 23.8716 26.9102 21.0202C26.9102 18.169 24.5903 15.8494 21.7389 15.8494ZM21.7389 24.8609C19.6213 24.8609 17.8986 23.1379 17.8986 21.0202C17.8986 18.903 19.6213 17.1805 21.7389 17.1805C23.8564 17.1805 25.5789 18.903 25.5789 21.0202C25.579 23.1379 23.8564 24.8609 21.7389 24.8609Z" fill="#F49521"/>
</svg>
