<svg width="28" height="28" viewBox="0 0 28 28" fill="none" xmlns="http://www.w3.org/2000/svg">
<path d="M6.31277 0.21875H0.736999C0.331543 0.21875 0 0.550293 0 0.955749V6.53152C0 6.93677 0.331543 7.26831 0.736999 7.26831H6.31277C6.71802 7.26831 7.04956 6.93677 7.04956 6.53152V0.955749C7.04956 0.550293 6.71802 0.21875 6.31277 0.21875V0.21875Z" fill="#F7F7F6"/>
<path d="M6.31277 10.4891H0.736999C0.331543 10.4891 0 10.8207 0 11.2259V16.8017C0 17.2072 0.331543 17.5387 0.736999 17.5387H6.31277C6.71802 17.5387 7.04956 17.2072 7.04956 16.8017V11.2259C7.04956 10.8207 6.71802 10.4891 6.31277 10.4891Z" fill="#F7F7F6"/>
<path d="M6.31277 20.7593H0.736999C0.331543 20.7593 0 21.091 0 21.4963V27.0721C0 27.4773 0.331543 27.8091 0.736999 27.8091H6.31277C6.71802 27.8091 7.04956 27.4773 7.04956 27.0721V21.4963C7.04956 21.091 6.71802 20.7593 6.31277 20.7593Z" fill="#F7F7F6"/>
<path d="M1.69019 6.53152V0.955749C1.69019 0.550293 2.02194 0.21875 2.42719 0.21875H0.736999C0.331543 0.21875 0 0.550293 0 0.955749V6.53152C0 6.93677 0.331543 7.26831 0.736999 7.26831H2.42719C2.02194 7.26831 1.69019 6.93677 1.69019 6.53152Z" fill="#F7F7F6"/>
<path d="M1.69019 16.8017V11.2259C1.69019 10.8207 2.02194 10.4891 2.42719 10.4891H0.736999C0.331543 10.4891 0 10.8207 0 11.2259V16.8017C0 17.2072 0.331543 17.5387 0.736999 17.5387H2.42719C2.02194 17.5387 1.69019 17.2069 1.69019 16.8017Z" fill="#F7F7F6"/>
<path d="M1.69019 27.0721V21.4963C1.69019 21.091 2.02194 20.7593 2.42719 20.7593H0.736999C0.331543 20.7593 0 21.091 0 21.4963V27.0721C0 27.4773 0.331543 27.8091 0.736999 27.8091H2.42719C2.02194 27.8091 1.69019 27.4773 1.69019 27.0721Z" fill="#F7F7F6"/>
<path d="M16.7878 0.21875H11.2122C10.8068 0.21875 10.4752 0.550293 10.4752 0.955749V6.53152C10.4752 6.93677 10.8068 7.26831 11.2122 7.26831H16.788C17.1932 7.26831 17.5248 6.93677 17.5248 6.53152V0.955749C17.5248 0.550293 17.1932 0.21875 16.7878 0.21875V0.21875Z" fill="#F7F7F6"/>
<path d="M16.7878 10.4891H11.2122C10.8068 10.4891 10.4752 10.8207 10.4752 11.2259V16.8017C10.4752 17.2072 10.8068 17.5387 11.2122 17.5387H16.788C17.1932 17.5387 17.5248 17.2072 17.5248 16.8017V11.2259C17.5248 10.8207 17.1932 10.4891 16.7878 10.4891Z" fill="#F7F7F6"/>
<path d="M16.7878 20.7593H11.2122C10.8068 20.7593 10.4752 21.091 10.4752 21.4963V27.0721C10.4752 27.4773 10.8068 27.8091 11.2122 27.8091H16.788C17.1932 27.8091 17.5248 27.4773 17.5248 27.0721V21.4963C17.5248 21.091 17.1932 20.7593 16.7878 20.7593Z" fill="#F7F7F6"/>
<path d="M12.1654 6.53152V0.955749C12.1654 0.550293 12.4972 0.21875 12.9024 0.21875H11.2122C10.8068 0.21875 10.4752 0.550293 10.4752 0.955749V6.53152C10.4752 6.93677 10.8068 7.26831 11.2122 7.26831H12.9024C12.4972 7.26831 12.1654 6.93677 12.1654 6.53152Z" fill="#F7F7F6"/>
<path d="M12.1654 16.8017V11.2259C12.1654 10.8207 12.4972 10.4891 12.9024 10.4891H11.2122C10.8068 10.4891 10.4752 10.8207 10.4752 11.2259V16.8017C10.4752 17.2072 10.8068 17.5387 11.2122 17.5387H12.9024C12.4972 17.5387 12.1654 17.2069 12.1654 16.8017Z" fill="#F7F7F6"/>
<path d="M12.1654 27.0721V21.4963C12.1654 21.091 12.4972 20.7593 12.9024 20.7593H11.2122C10.8068 20.7593 10.4752 21.091 10.4752 21.4963V27.0721C10.4752 27.4773 10.8068 27.8091 11.2122 27.8091H12.9024C12.4972 27.8091 12.1654 27.4773 12.1654 27.0721Z" fill="#F7F7F6"/>
<path d="M27.263 0.21875H21.6872C21.282 0.21875 20.9504 0.550293 20.9504 0.955749V6.53152C20.9504 6.93677 21.282 7.26831 21.6872 7.26831H27.263C27.6685 7.26831 28 6.93677 28 6.53152V0.955749C28 0.550293 27.6685 0.21875 27.263 0.21875V0.21875Z" fill="#F7F7F6"/>
<path d="M27.263 10.4891H21.6872C21.282 10.4891 20.9504 10.8207 20.9504 11.2259V16.8017C20.9504 17.2072 21.282 17.5387 21.6872 17.5387H27.263C27.6685 17.5387 28 17.2072 28 16.8017V11.2259C28 10.8207 27.6685 10.4891 27.263 10.4891Z" fill="#F7F7F6"/>
<path d="M27.263 20.7593H21.6872C21.282 20.7593 20.9504 21.091 20.9504 21.4963V27.0721C20.9504 27.4773 21.282 27.8091 21.6872 27.8091H27.263C27.6685 27.8091 28 27.4773 28 27.0721V21.4963C28 21.091 27.6685 20.7593 27.263 20.7593Z" fill="#F7F7F6"/>
<path d="M22.6406 6.53152V0.955749C22.6406 0.550293 22.9724 0.21875 23.3776 0.21875H21.6874C21.282 0.21875 20.9504 0.550293 20.9504 0.955749V6.53152C20.9504 6.93677 21.282 7.26831 21.6874 7.26831H23.3776C22.9722 7.26831 22.6406 6.93677 22.6406 6.53152Z" fill="#F7F7F6"/>
<path d="M22.6406 16.8017V11.2259C22.6406 10.8207 22.9724 10.4891 23.3776 10.4891H21.6874C21.282 10.4891 20.9504 10.8207 20.9504 11.2259V16.8017C20.9504 17.2072 21.282 17.5387 21.6874 17.5387H23.3776C22.9722 17.5387 22.6406 17.2069 22.6406 16.8017Z" fill="#F7F7F6"/>
<path d="M22.6406 27.0721V21.4963C22.6406 21.091 22.9724 20.7593 23.3776 20.7593H21.6874C21.282 20.7593 20.9504 21.091 20.9504 21.4963V27.0721C20.9504 27.4773 21.282 27.8091 21.6874 27.8091H23.3776C22.9722 27.8091 22.6406 27.4773 22.6406 27.0721Z" fill="#F7F7F6"/>
</svg>
