<svg width="22" height="21" viewBox="0 0 22 21" fill="none" xmlns="http://www.w3.org/2000/svg">
<path d="M21.7116 7.95849C21.3823 6.92863 19.5699 6.69333 17.6508 6.43936C16.599 6.30138 15.4038 6.1454 15.0432 5.87811C14.6799 5.61281 14.1733 4.52162 13.7253 3.55709C12.9108 1.80332 12.1396 0.148883 11.061 0.146216L11.041 0.142883C9.97185 0.160881 9.19263 1.79533 8.36407 3.53042C7.90747 4.48963 7.3882 5.57681 7.02625 5.84011C6.6603 6.10074 5.46513 6.24739 4.40994 6.37537C2.49287 6.60867 0.67778 6.82731 0.33916 7.85184C0.000538843 8.87637 1.32503 10.1355 2.72884 11.466C3.4994 12.1979 4.37195 13.0271 4.50926 13.4537C4.64658 13.8804 4.41394 15.0642 4.21063 16.1047C3.83869 18.0005 3.4874 19.7956 4.35661 20.4375C4.56459 20.5861 4.82588 20.6614 5.13451 20.6548C6.02172 20.6408 7.29822 19.9502 8.53205 19.281C9.45659 18.7757 10.5051 18.2058 10.9717 18.2004C11.423 18.2004 12.4748 18.7864 13.4027 19.303C14.6646 20.0035 15.9704 20.7288 16.8589 20.7141C17.1362 20.7101 17.3728 20.6388 17.5662 20.4995C18.4407 19.8695 18.1074 18.0751 17.7561 16.172C17.5628 15.1295 17.3462 13.943 17.4828 13.5164C17.6241 13.0918 18.5067 12.2732 19.2846 11.5467C20.7011 10.2288 22.0382 8.98835 21.7116 7.95849Z" fill="#F49521"/>
</svg>
