<svg width="43" height="42" viewBox="0 0 43 42" fill="none" xmlns="http://www.w3.org/2000/svg">
<path d="M36.287 6.15103C32.3206 2.18449 27.0469 0 21.4375 0C15.8285 0 10.5551 2.18449 6.58853 6.15103C2.62199 10.1176 0.4375 15.391 0.4375 21C0.4375 26.61 2.62199 31.8837 6.58853 35.85C10.5548 39.8159 15.8283 42 21.4375 42C27.0472 42 32.3208 39.8159 36.2869 35.85C40.2532 31.8838 42.4375 26.61 42.4375 21C42.4375 15.3909 40.2532 10.1174 36.287 6.15103ZM35.3589 34.9219C31.6406 38.6399 26.6966 40.6875 21.4375 40.6875C16.1788 40.6875 11.2349 38.6399 7.51655 34.9219C3.79791 31.2035 1.75 26.2593 1.75 21C1.75 15.7416 3.79791 10.7978 7.51655 7.07905C11.2353 3.36041 16.1791 1.3125 21.4375 1.3125C26.6964 1.3125 31.6404 3.36041 35.3589 7.07905C39.0773 10.7976 41.125 15.7415 41.125 21C41.125 26.2594 39.0773 31.2036 35.3589 34.9219Z" fill="#F49521"/>
<path d="M35.714 9.43106C35.4858 9.14953 35.0725 9.10654 34.791 9.33492C34.5095 9.56329 34.4664 9.97657 34.6948 10.2579C37.1486 13.2824 38.5 17.0975 38.5 21C38.5 25.5582 36.7252 29.8432 33.5027 33.0656C30.2802 36.2879 25.9954 38.0625 21.4375 38.0625C17.2326 38.0625 13.1929 36.5197 10.0628 33.7185C9.79274 33.4768 9.37783 33.4998 9.13617 33.7698C8.8945 34.0399 8.91747 34.4548 9.18752 34.6964C12.5587 37.7135 16.9091 39.375 21.4375 39.375C26.346 39.375 30.9604 37.4639 34.4308 33.9937C37.9012 30.5234 39.8125 25.9088 39.8125 21C39.8125 16.7973 38.3569 12.6887 35.714 9.43106Z" fill="#F49521"/>
<path d="M4.375 21C4.375 11.5918 12.0293 3.9375 21.4375 3.9375C25.6424 3.9375 29.682 5.48034 32.8121 8.28179C33.0822 8.52362 33.4971 8.50049 33.7387 8.23052C33.9805 7.96048 33.9575 7.54556 33.6875 7.3039C30.3163 4.28662 25.9659 2.625 21.4375 2.625C16.5297 2.625 11.9153 4.53641 8.44465 8.00715C4.97391 11.4779 3.0625 16.0922 3.0625 21C3.0625 25.2032 4.51806 29.3121 7.16103 32.5695C7.29072 32.7294 7.48005 32.8123 7.67102 32.8123C7.81629 32.8123 7.96247 32.7643 8.08413 32.6657C8.36557 32.4373 8.40864 32.024 8.18027 31.7426C5.72638 28.7182 4.375 24.903 4.375 21Z" fill="#F49521"/>
<path d="M33.1397 15.9768C33.3017 15.734 33.2838 15.4134 33.096 15.1901C32.9081 14.9668 32.5954 14.8944 32.3284 15.0123C32.3117 15.0197 32.2949 15.0271 32.2782 15.0343C32.4325 14.7574 32.5601 14.4643 32.658 14.1585C32.7412 13.8988 32.6551 13.6148 32.4418 13.445C32.2286 13.2751 31.9325 13.255 31.6981 13.394C31.0359 13.7871 30.3275 14.076 29.5877 14.2552C28.702 13.4531 27.5368 12.9995 26.3355 12.9995C23.672 12.9995 21.5049 15.1653 21.5049 17.8275C21.5049 17.9036 21.5067 17.9795 21.5101 18.0552C18.6506 17.7066 16.0111 16.2576 14.1751 14.0041C14.0391 13.8372 13.8301 13.7476 13.6152 13.7645C13.4005 13.7813 13.2077 13.9023 13.0994 14.0883C12.6716 14.8224 12.4456 15.6621 12.4456 16.5166C12.4456 17.333 12.6495 18.1197 13.0241 18.8141C12.9236 18.8208 12.8243 18.8506 12.7346 18.9034C12.5342 19.0213 12.4113 19.2364 12.4113 19.469V19.5212C12.4113 20.9669 13.06 22.2935 14.1024 23.1895C14.0799 23.209 14.0585 23.2301 14.0385 23.2528C13.886 23.4261 13.8356 23.6667 13.906 23.8865C14.3544 25.2878 15.403 26.3748 16.7167 26.8982C15.6502 27.4345 14.4727 27.713 13.2455 27.713C12.9361 27.713 12.6267 27.6953 12.3259 27.6603C12.0225 27.6249 11.7348 27.8037 11.6321 28.0914C11.5293 28.3791 11.6386 28.6996 11.8957 28.8645C13.9145 30.1594 16.2494 30.8438 18.6481 30.8438C23.3611 30.8438 26.3118 28.6187 27.9572 26.752C30.0053 24.4284 31.18 21.3522 31.18 18.3119C31.18 18.2369 31.1795 18.1639 31.1782 18.0923C31.9413 17.4958 32.6001 16.7855 33.1397 15.9768ZM30.1272 17.2405C29.9469 17.3705 29.8446 17.5831 29.8556 17.8051C29.8635 17.9667 29.8675 18.1325 29.8675 18.3119C29.8675 21.037 28.8123 23.797 26.9726 25.8842C25.506 27.5479 22.8713 29.5313 18.6481 29.5313C17.3561 29.5313 16.0846 29.3094 14.8832 28.8801C16.3196 28.6208 17.6633 28.0183 18.8333 27.1004C19.0516 26.9292 19.1387 26.6389 19.0505 26.3757C18.9623 26.1125 18.7181 25.9332 18.4405 25.928C17.2852 25.9062 16.2395 25.3239 15.6082 24.4075C15.9376 24.3875 16.2649 24.334 16.5852 24.2475C16.8791 24.1681 17.0798 23.897 17.07 23.5928C17.0602 23.2885 16.8424 23.0309 16.5441 22.9707C15.2368 22.7066 14.2163 21.7252 13.8604 20.4889C14.2114 20.5816 14.5731 20.6352 14.9365 20.6474C15.23 20.6574 15.4935 20.4713 15.5832 20.1923C15.6729 19.9132 15.5665 19.6084 15.3227 19.4456C14.3431 18.7918 13.7583 17.6969 13.7583 16.5165C13.7583 16.2174 13.7962 15.9211 13.8701 15.6346C16.0692 17.9054 19.0634 19.2757 22.2368 19.4339C22.444 19.4441 22.6412 19.3571 22.7733 19.199C22.9053 19.0409 22.9554 18.8299 22.9086 18.6292C22.8483 18.3709 22.8177 18.1011 22.8177 17.8274C22.8177 15.889 24.3959 14.3119 26.3358 14.3119C27.3041 14.3119 28.2403 14.7164 28.9045 15.4216C29.059 15.5856 29.2871 15.659 29.5081 15.6157C29.7567 15.5671 30.0026 15.5081 30.2452 15.4389C30.1236 15.5356 29.9948 15.6248 29.86 15.7055C29.5945 15.8645 29.4762 16.1872 29.5759 16.48C29.6757 16.7729 29.9661 16.9565 30.2737 16.9203C30.3806 16.9077 30.4871 16.8933 30.5933 16.8769C30.4429 17.0036 30.2874 17.1249 30.1272 17.2405Z" fill="#F49521"/>
</svg>
